G04 #@! TF.GenerationSoftware,KiCad,Pcbnew,(5.1.4-0-10_14)*
G04 #@! TF.CreationDate,2020-12-05T11:56:47+00:00*
G04 #@! TF.ProjectId,mt32-pi-midi-hat,6d743332-2d70-4692-9d6d-6964692d6861,rev?*
G04 #@! TF.SameCoordinates,Original*
G04 #@! TF.FileFunction,Copper,L1,Top*
G04 #@! TF.FilePolarity,Positive*
%FSLAX46Y46*%
G04 Gerber Fmt 4.6, Leading zero omitted, Abs format (unit mm)*
G04 Created by KiCad (PCBNEW (5.1.4-0-10_14)) date 2020-12-05 11:56:47*
%MOMM*%
%LPD*%
G04 APERTURE LIST*
%ADD10R,1.700000X1.700000*%
%ADD11O,1.700000X1.700000*%
%ADD12C,1.750000*%
%ADD13R,1.750000X1.750000*%
%ADD14O,1.600000X1.600000*%
%ADD15C,1.600000*%
%ADD16R,1.600000X1.600000*%
%ADD17C,2.200000*%
%ADD18C,2.100000*%
%ADD19C,0.800000*%
%ADD20C,0.250000*%
%ADD21C,0.254000*%
G04 APERTURE END LIST*
D10*
X120650000Y-130302000D03*
D11*
X135128000Y-94234000D03*
X132588000Y-94234000D03*
X130048000Y-94234000D03*
X127508000Y-94234000D03*
X124968000Y-94234000D03*
X122428000Y-94234000D03*
X119888000Y-94234000D03*
X117348000Y-94234000D03*
X114808000Y-94234000D03*
D10*
X112268000Y-94234000D03*
D11*
X127508000Y-105410000D03*
X124968000Y-105410000D03*
X122428000Y-105410000D03*
D10*
X119888000Y-105410000D03*
D11*
X107950000Y-109728000D03*
X110490000Y-109728000D03*
X113030000Y-109728000D03*
X115570000Y-109728000D03*
X118110000Y-109728000D03*
X120650000Y-109728000D03*
X123190000Y-109728000D03*
X125730000Y-109728000D03*
X128270000Y-109728000D03*
X130810000Y-109728000D03*
D10*
X133350000Y-109728000D03*
X130048000Y-116078000D03*
D12*
X155384500Y-80518000D03*
X155384500Y-77978000D03*
X152844500Y-80518000D03*
X152844500Y-77978000D03*
X150304500Y-80518000D03*
X150304500Y-77978000D03*
X147764500Y-80518000D03*
X147764500Y-77978000D03*
X145224500Y-80518000D03*
X145224500Y-77978000D03*
X137604500Y-77978000D03*
X137604500Y-80518000D03*
X132524500Y-77978000D03*
X132524500Y-80518000D03*
X129984500Y-77978000D03*
X129984500Y-80518000D03*
X127444500Y-77978000D03*
X127444500Y-80518000D03*
X124904500Y-77978000D03*
X124904500Y-80518000D03*
X122364500Y-77978000D03*
X122364500Y-80518000D03*
X119824500Y-77978000D03*
X119824500Y-80518000D03*
X117284500Y-77978000D03*
X117284500Y-80518000D03*
X114744500Y-77978000D03*
X114744500Y-80518000D03*
X112204500Y-77978000D03*
X112204500Y-80518000D03*
X109664500Y-77978000D03*
X109664500Y-80518000D03*
X107124500Y-77978000D03*
D13*
X107124500Y-80518000D03*
D12*
X135064500Y-80518000D03*
X135064500Y-77978000D03*
X142684500Y-77978000D03*
X142684500Y-80518000D03*
X140144500Y-77978000D03*
X140144500Y-80518000D03*
D14*
X160883600Y-100838000D03*
D15*
X160883600Y-110998000D03*
D14*
X156972000Y-110998000D03*
D15*
X156972000Y-100838000D03*
D14*
X139700000Y-110998000D03*
D16*
X139700000Y-100838000D03*
D17*
X153416000Y-116753000D03*
X143416000Y-116753000D03*
X155916000Y-119253000D03*
X148416000Y-119253000D03*
X140916000Y-119253000D03*
D18*
X143416000Y-128953000D03*
X153416000Y-128953000D03*
X145916000Y-129253000D03*
X150916000Y-129253000D03*
D11*
X105918000Y-129286000D03*
X105918000Y-126746000D03*
X105918000Y-124206000D03*
X105918000Y-121666000D03*
X105918000Y-119126000D03*
D10*
X105918000Y-116586000D03*
D15*
X150872200Y-97536000D03*
X145872200Y-97536000D03*
D14*
X145876000Y-100838000D03*
X150956000Y-108458000D03*
X148416000Y-100838000D03*
X148416000Y-108458000D03*
X150956000Y-100838000D03*
D16*
X145876000Y-108458000D03*
D11*
X105918000Y-105410000D03*
X105918000Y-102870000D03*
X105918000Y-100330000D03*
D10*
X105918000Y-97790000D03*
D19*
X121158000Y-100330000D03*
X118364000Y-97790000D03*
X138938000Y-82042000D03*
X113030000Y-117094000D03*
X115570000Y-113538000D03*
D20*
X107124500Y-77978000D02*
X109664500Y-77978000D01*
X105345998Y-77978000D02*
X104234999Y-79088999D01*
X107124500Y-77978000D02*
X105345998Y-77978000D01*
X104216200Y-127584200D02*
X104216200Y-104761798D01*
X105918000Y-129286000D02*
X104216200Y-127584200D01*
X105068001Y-102020001D02*
X104234999Y-101186999D01*
X105918000Y-102870000D02*
X105068001Y-102020001D01*
X104234999Y-101186999D02*
X104234999Y-104742999D01*
X104234999Y-79088999D02*
X104234999Y-101186999D01*
X133350000Y-108628000D02*
X127592000Y-102870000D01*
X107120081Y-102870000D02*
X105918000Y-102870000D01*
X133350000Y-109728000D02*
X133350000Y-108628000D01*
X124968000Y-103886000D02*
X125984000Y-102870000D01*
X124968000Y-105410000D02*
X124968000Y-103886000D01*
X125984000Y-102870000D02*
X107120081Y-102870000D01*
X127592000Y-102870000D02*
X125984000Y-102870000D01*
X130048000Y-100414000D02*
X127592000Y-102870000D01*
X130048000Y-94234000D02*
X130048000Y-100414000D01*
X121158000Y-100330000D02*
X105918000Y-100330000D01*
X118364000Y-97790000D02*
X105918000Y-97790000D01*
X127508000Y-94234000D02*
X129286000Y-92456000D01*
X129286000Y-92456000D02*
X145288000Y-92456000D01*
X147764500Y-89979500D02*
X147764500Y-80518000D01*
X145288000Y-92456000D02*
X147764500Y-89979500D01*
X147314490Y-82607990D02*
X147314490Y-89793100D01*
X145224500Y-80518000D02*
X147314490Y-82607990D01*
X125817999Y-93384001D02*
X124968000Y-94234000D01*
X127196010Y-92005990D02*
X125817999Y-93384001D01*
X145101600Y-92005990D02*
X127196010Y-92005990D01*
X147314490Y-89793100D02*
X145101600Y-92005990D01*
X142684500Y-80518000D02*
X144050455Y-81883955D01*
X146812000Y-82804000D02*
X146812000Y-89659180D01*
X146812000Y-89659180D02*
X144915200Y-91555980D01*
X145891955Y-81883955D02*
X146812000Y-82804000D01*
X144050455Y-81883955D02*
X145891955Y-81883955D01*
X125106020Y-91555980D02*
X122428000Y-94234000D01*
X144915200Y-91555980D02*
X125106020Y-91555980D01*
X123016030Y-91105970D02*
X120737999Y-93384001D01*
X145705555Y-82333965D02*
X146361990Y-82990400D01*
X146361990Y-89472780D02*
X144728800Y-91105970D01*
X146361990Y-82990400D02*
X146361990Y-89472780D01*
X144728800Y-91105970D02*
X123016030Y-91105970D01*
X141960465Y-82333965D02*
X145705555Y-82333965D01*
X120737999Y-93384001D02*
X119888000Y-94234000D01*
X140144500Y-80518000D02*
X141960465Y-82333965D01*
X120926040Y-90655960D02*
X117348000Y-94234000D01*
X144542400Y-90655960D02*
X120926040Y-90655960D01*
X135064500Y-81755436D02*
X136093039Y-82783975D01*
X145519155Y-82783975D02*
X145911980Y-83176800D01*
X145911980Y-89286380D02*
X144542400Y-90655960D01*
X145911980Y-83176800D02*
X145911980Y-89286380D01*
X136093039Y-82783975D02*
X145519155Y-82783975D01*
X135064500Y-80518000D02*
X135064500Y-81755436D01*
X118872000Y-90170000D02*
X114808000Y-94234000D01*
X144272000Y-90170000D02*
X118872000Y-90170000D01*
X145461970Y-88980030D02*
X144272000Y-90170000D01*
X144193985Y-83233985D02*
X145461970Y-84501970D01*
X134003049Y-83233985D02*
X144193985Y-83233985D01*
X132524500Y-80518000D02*
X132524500Y-81755436D01*
X145461970Y-84501970D02*
X145461970Y-88980030D01*
X132524500Y-81755436D02*
X134003049Y-83233985D01*
X112268000Y-93134000D02*
X112268000Y-94234000D01*
X144085600Y-89719990D02*
X115682010Y-89719990D01*
X144007585Y-83683995D02*
X145011960Y-84688370D01*
X145011960Y-88793630D02*
X144085600Y-89719990D01*
X131913059Y-83683995D02*
X144007585Y-83683995D01*
X129984500Y-80518000D02*
X129984500Y-81755436D01*
X129984500Y-81755436D02*
X131913059Y-83683995D01*
X115682010Y-89719990D02*
X112268000Y-93134000D01*
X145011960Y-84688370D02*
X145011960Y-88793630D01*
X154509501Y-79643001D02*
X155384500Y-80518000D01*
X154184499Y-79317999D02*
X154509501Y-79643001D01*
X138804501Y-79317999D02*
X154184499Y-79317999D01*
X137604500Y-80518000D02*
X138804501Y-79317999D01*
X113544499Y-79317999D02*
X116084499Y-79317999D01*
X116409501Y-79643001D02*
X117284500Y-80518000D01*
X116084499Y-79317999D02*
X116409501Y-79643001D01*
X112204500Y-77978000D02*
X113544499Y-79317999D01*
X128644501Y-79317999D02*
X128644501Y-76841499D01*
X127444500Y-80518000D02*
X128644501Y-79317999D01*
X128644501Y-76841499D02*
X129382778Y-76103222D01*
X161804663Y-77044879D02*
X161878943Y-77123074D01*
X161648392Y-76896331D02*
X161727816Y-76969302D01*
X161566570Y-76826134D02*
X161648392Y-76896331D01*
X161482387Y-76758741D02*
X161566570Y-76826134D01*
X160222703Y-76170147D02*
X160327647Y-76195067D01*
X161395979Y-76694259D02*
X161482387Y-76758741D01*
X161307406Y-76632736D02*
X161395979Y-76694259D01*
X161727816Y-76969302D02*
X161804663Y-77044879D01*
X160736996Y-76329873D02*
X160836167Y-76372166D01*
X159744096Y-76103222D02*
X159796445Y-76106533D01*
X160534588Y-76255500D02*
X160636412Y-76290962D01*
X160431621Y-76223522D02*
X160534588Y-76255500D01*
X160117027Y-76148820D02*
X160222703Y-76170147D01*
X160933848Y-76417809D02*
X161029953Y-76466762D01*
X129382778Y-76103222D02*
X159744096Y-76103222D01*
X159796445Y-76106533D02*
X159903756Y-76116991D01*
X159903756Y-76116991D02*
X160010657Y-76131092D01*
X160010657Y-76131092D02*
X160117027Y-76148820D01*
X160327647Y-76195067D02*
X160431621Y-76223522D01*
X161216824Y-76574279D02*
X161307406Y-76632736D01*
X161029953Y-76466762D02*
X161124280Y-76518920D01*
X161878943Y-77123074D02*
X161950488Y-77203710D01*
X160836167Y-76372166D02*
X160933848Y-76417809D01*
X160636412Y-76290962D02*
X160736996Y-76329873D01*
X161124280Y-76518920D02*
X161216824Y-76574279D01*
X162708067Y-79069090D02*
X162712912Y-79174781D01*
X162699472Y-78961628D02*
X162708067Y-79069090D01*
X162687226Y-78854478D02*
X162699472Y-78961628D01*
X162671349Y-78747845D02*
X162687226Y-78854478D01*
X162651855Y-78641796D02*
X162671349Y-78747845D01*
X162628766Y-78536467D02*
X162651855Y-78641796D01*
X162602111Y-78431987D02*
X162628766Y-78536467D01*
X162571919Y-78328466D02*
X162602111Y-78431987D01*
X162538237Y-78226067D02*
X162571919Y-78328466D01*
X162369310Y-77829576D02*
X162416564Y-77926465D01*
X162019294Y-77286783D02*
X162085186Y-77372082D01*
X162318756Y-77734283D02*
X162369310Y-77829576D01*
X162501076Y-78124822D02*
X162538237Y-78226067D01*
X162416564Y-77926465D02*
X162460501Y-78024915D01*
X162460501Y-78024915D02*
X162501076Y-78124822D01*
X162265021Y-77640813D02*
X162318756Y-77734283D01*
X162208138Y-77549222D02*
X162265021Y-77640813D01*
X162148178Y-77459621D02*
X162208138Y-77549222D01*
X162085186Y-77372082D02*
X162148178Y-77459621D01*
X161950488Y-77203710D02*
X162019294Y-77286783D01*
X162712912Y-109168688D02*
X160883600Y-110998000D01*
X162712912Y-79174781D02*
X162712912Y-109168688D01*
X159054288Y-105206288D02*
X157988000Y-104140000D01*
X159054288Y-109168688D02*
X159054288Y-105206288D01*
X160883600Y-110998000D02*
X159054288Y-109168688D01*
X149178000Y-104140000D02*
X145876000Y-100838000D01*
X157988000Y-104140000D02*
X149178000Y-104140000D01*
X145872200Y-100834200D02*
X145876000Y-100838000D01*
X145872200Y-97536000D02*
X145872200Y-100834200D01*
X144740830Y-97536000D02*
X145872200Y-97536000D01*
X134687919Y-97536000D02*
X144740830Y-97536000D01*
X132588000Y-95436081D02*
X134687919Y-97536000D01*
X132588000Y-94234000D02*
X132588000Y-95436081D01*
X105918000Y-124206000D02*
X113030000Y-117094000D01*
X105918000Y-121666000D02*
X105918000Y-120865002D01*
X107120081Y-121666000D02*
X105918000Y-121666000D01*
X107384998Y-121666000D02*
X107120081Y-121666000D01*
X115258998Y-113792000D02*
X107384998Y-121666000D01*
X115316000Y-113792000D02*
X115570000Y-113538000D01*
X115258998Y-113792000D02*
X115316000Y-113792000D01*
X108712000Y-119126000D02*
X118110000Y-109728000D01*
X105918000Y-119126000D02*
X108712000Y-119126000D01*
D21*
G36*
X128009527Y-76417223D02*
G01*
X127939329Y-76548553D01*
X127884951Y-76526029D01*
X127593222Y-76468000D01*
X127295778Y-76468000D01*
X127004049Y-76526029D01*
X126729247Y-76639856D01*
X126481931Y-76805107D01*
X126271607Y-77015431D01*
X126174500Y-77160762D01*
X126077393Y-77015431D01*
X125867069Y-76805107D01*
X125619753Y-76639856D01*
X125344951Y-76526029D01*
X125053222Y-76468000D01*
X124755778Y-76468000D01*
X124464049Y-76526029D01*
X124189247Y-76639856D01*
X123941931Y-76805107D01*
X123731607Y-77015431D01*
X123622212Y-77179153D01*
X123410740Y-77111365D01*
X122544105Y-77978000D01*
X123410740Y-78844635D01*
X123622212Y-78776847D01*
X123731607Y-78940569D01*
X123941931Y-79150893D01*
X124087262Y-79248000D01*
X123941931Y-79345107D01*
X123731607Y-79555431D01*
X123634500Y-79700762D01*
X123537393Y-79555431D01*
X123327069Y-79345107D01*
X123163347Y-79235712D01*
X123231135Y-79024240D01*
X122364500Y-78157605D01*
X121497865Y-79024240D01*
X121565653Y-79235712D01*
X121401931Y-79345107D01*
X121191607Y-79555431D01*
X121094500Y-79700762D01*
X120997393Y-79555431D01*
X120787069Y-79345107D01*
X120641738Y-79248000D01*
X120787069Y-79150893D01*
X120997393Y-78940569D01*
X121106788Y-78776847D01*
X121318260Y-78844635D01*
X122184895Y-77978000D01*
X121318260Y-77111365D01*
X121106788Y-77179153D01*
X120997393Y-77015431D01*
X120913722Y-76931760D01*
X121497865Y-76931760D01*
X122364500Y-77798395D01*
X123231135Y-76931760D01*
X123150475Y-76680132D01*
X122882171Y-76551733D01*
X122593974Y-76478145D01*
X122296957Y-76462196D01*
X122002537Y-76504499D01*
X121722026Y-76603428D01*
X121578525Y-76680132D01*
X121497865Y-76931760D01*
X120913722Y-76931760D01*
X120787069Y-76805107D01*
X120539753Y-76639856D01*
X120264951Y-76526029D01*
X119973222Y-76468000D01*
X119675778Y-76468000D01*
X119384049Y-76526029D01*
X119109247Y-76639856D01*
X118861931Y-76805107D01*
X118651607Y-77015431D01*
X118554500Y-77160762D01*
X118457393Y-77015431D01*
X118247069Y-76805107D01*
X117999753Y-76639856D01*
X117724951Y-76526029D01*
X117433222Y-76468000D01*
X117135778Y-76468000D01*
X116844049Y-76526029D01*
X116569247Y-76639856D01*
X116321931Y-76805107D01*
X116111607Y-77015431D01*
X116014500Y-77160762D01*
X115917393Y-77015431D01*
X115707069Y-76805107D01*
X115459753Y-76639856D01*
X115184951Y-76526029D01*
X114893222Y-76468000D01*
X114595778Y-76468000D01*
X114304049Y-76526029D01*
X114029247Y-76639856D01*
X113781931Y-76805107D01*
X113571607Y-77015431D01*
X113462212Y-77179153D01*
X113250740Y-77111365D01*
X112384105Y-77978000D01*
X113250740Y-78844635D01*
X113462212Y-78776847D01*
X113571607Y-78940569D01*
X113781931Y-79150893D01*
X113927262Y-79248000D01*
X113781931Y-79345107D01*
X113571607Y-79555431D01*
X113474500Y-79700762D01*
X113377393Y-79555431D01*
X113167069Y-79345107D01*
X113003347Y-79235712D01*
X113071135Y-79024240D01*
X112204500Y-78157605D01*
X111337865Y-79024240D01*
X111405653Y-79235712D01*
X111241931Y-79345107D01*
X111031607Y-79555431D01*
X110934500Y-79700762D01*
X110837393Y-79555431D01*
X110627069Y-79345107D01*
X110481738Y-79248000D01*
X110627069Y-79150893D01*
X110837393Y-78940569D01*
X110946788Y-78776847D01*
X111158260Y-78844635D01*
X112024895Y-77978000D01*
X111158260Y-77111365D01*
X110946788Y-77179153D01*
X110837393Y-77015431D01*
X110753722Y-76931760D01*
X111337865Y-76931760D01*
X112204500Y-77798395D01*
X113071135Y-76931760D01*
X112990475Y-76680132D01*
X112722171Y-76551733D01*
X112433974Y-76478145D01*
X112136957Y-76462196D01*
X111842537Y-76504499D01*
X111562026Y-76603428D01*
X111418525Y-76680132D01*
X111337865Y-76931760D01*
X110753722Y-76931760D01*
X110627069Y-76805107D01*
X110379753Y-76639856D01*
X110104951Y-76526029D01*
X109813222Y-76468000D01*
X109515778Y-76468000D01*
X109224049Y-76526029D01*
X108949247Y-76639856D01*
X108701931Y-76805107D01*
X108491607Y-77015431D01*
X108394500Y-77160762D01*
X108297393Y-77015431D01*
X108087069Y-76805107D01*
X107839753Y-76639856D01*
X107564951Y-76526029D01*
X107273222Y-76468000D01*
X106975778Y-76468000D01*
X106684049Y-76526029D01*
X106409247Y-76639856D01*
X106161931Y-76805107D01*
X105951607Y-77015431D01*
X105816255Y-77218000D01*
X105383321Y-77218000D01*
X105345998Y-77214324D01*
X105308675Y-77218000D01*
X105308665Y-77218000D01*
X105197012Y-77228997D01*
X105053751Y-77272454D01*
X104921722Y-77343026D01*
X104805997Y-77437999D01*
X104782199Y-77466997D01*
X104092834Y-78156363D01*
X103912863Y-77887017D01*
X103615483Y-77589637D01*
X103265802Y-77355988D01*
X102877256Y-77195047D01*
X102464779Y-77113000D01*
X102044221Y-77113000D01*
X101631744Y-77195047D01*
X101243198Y-77355988D01*
X100893517Y-77589637D01*
X100596137Y-77887017D01*
X100362488Y-78236698D01*
X100201547Y-78625244D01*
X100119500Y-79037721D01*
X100119500Y-79458279D01*
X100201547Y-79870756D01*
X100362488Y-80259302D01*
X100596137Y-80608983D01*
X100893517Y-80906363D01*
X101243198Y-81140012D01*
X101631744Y-81300953D01*
X102044221Y-81383000D01*
X102464779Y-81383000D01*
X102877256Y-81300953D01*
X103265802Y-81140012D01*
X103474999Y-81000231D01*
X103475000Y-101149657D01*
X103474999Y-101149667D01*
X103474999Y-101149677D01*
X103471323Y-101186999D01*
X103474999Y-101224322D01*
X103475000Y-104587092D01*
X103467198Y-104612812D01*
X103456201Y-104724465D01*
X103456200Y-126483208D01*
X103265802Y-126355988D01*
X102877256Y-126195047D01*
X102464779Y-126113000D01*
X102044221Y-126113000D01*
X101631744Y-126195047D01*
X101243198Y-126355988D01*
X100893517Y-126589637D01*
X100596137Y-126887017D01*
X100362488Y-127236698D01*
X100201547Y-127625244D01*
X100119500Y-128037721D01*
X100119500Y-128458279D01*
X100201547Y-128870756D01*
X100362488Y-129259302D01*
X100596137Y-129608983D01*
X100893517Y-129906363D01*
X101243198Y-130140012D01*
X101631744Y-130300953D01*
X102044221Y-130383000D01*
X102464779Y-130383000D01*
X102877256Y-130300953D01*
X103265802Y-130140012D01*
X103615483Y-129906363D01*
X103912863Y-129608983D01*
X104146512Y-129259302D01*
X104307453Y-128870756D01*
X104327446Y-128770247D01*
X104477203Y-128920005D01*
X104454487Y-128994889D01*
X104425815Y-129286000D01*
X104454487Y-129577111D01*
X104539401Y-129857034D01*
X104677294Y-130115014D01*
X104862866Y-130341134D01*
X105088986Y-130526706D01*
X105346966Y-130664599D01*
X105626889Y-130749513D01*
X105845050Y-130771000D01*
X105990950Y-130771000D01*
X106209111Y-130749513D01*
X106489034Y-130664599D01*
X106747014Y-130526706D01*
X106973134Y-130341134D01*
X107158706Y-130115014D01*
X107296599Y-129857034D01*
X107381513Y-129577111D01*
X107410185Y-129286000D01*
X107381513Y-128994889D01*
X107318464Y-128787042D01*
X141731000Y-128787042D01*
X141731000Y-129118958D01*
X141795754Y-129444496D01*
X141922772Y-129751147D01*
X142107175Y-130027125D01*
X142341875Y-130261825D01*
X142617853Y-130446228D01*
X142924504Y-130573246D01*
X143250042Y-130638000D01*
X143581958Y-130638000D01*
X143907496Y-130573246D01*
X144214147Y-130446228D01*
X144490125Y-130261825D01*
X144534136Y-130217814D01*
X144607175Y-130327125D01*
X144841875Y-130561825D01*
X145117853Y-130746228D01*
X145424504Y-130873246D01*
X145750042Y-130938000D01*
X146081958Y-130938000D01*
X146407496Y-130873246D01*
X146714147Y-130746228D01*
X146990125Y-130561825D01*
X147224825Y-130327125D01*
X147409228Y-130051147D01*
X147536246Y-129744496D01*
X147601000Y-129418958D01*
X147601000Y-129087042D01*
X149231000Y-129087042D01*
X149231000Y-129418958D01*
X149295754Y-129744496D01*
X149422772Y-130051147D01*
X149607175Y-130327125D01*
X149841875Y-130561825D01*
X150117853Y-130746228D01*
X150424504Y-130873246D01*
X150750042Y-130938000D01*
X151081958Y-130938000D01*
X151407496Y-130873246D01*
X151714147Y-130746228D01*
X151990125Y-130561825D01*
X152224825Y-130327125D01*
X152297864Y-130217814D01*
X152341875Y-130261825D01*
X152617853Y-130446228D01*
X152924504Y-130573246D01*
X153250042Y-130638000D01*
X153581958Y-130638000D01*
X153907496Y-130573246D01*
X154214147Y-130446228D01*
X154490125Y-130261825D01*
X154724825Y-130027125D01*
X154909228Y-129751147D01*
X155036246Y-129444496D01*
X155101000Y-129118958D01*
X155101000Y-128787042D01*
X155036246Y-128461504D01*
X154909228Y-128154853D01*
X154724825Y-127878875D01*
X154490125Y-127644175D01*
X154214147Y-127459772D01*
X153907496Y-127332754D01*
X153581958Y-127268000D01*
X153250042Y-127268000D01*
X152924504Y-127332754D01*
X152617853Y-127459772D01*
X152341875Y-127644175D01*
X152107175Y-127878875D01*
X152034136Y-127988186D01*
X151990125Y-127944175D01*
X151714147Y-127759772D01*
X151407496Y-127632754D01*
X151081958Y-127568000D01*
X150750042Y-127568000D01*
X150424504Y-127632754D01*
X150117853Y-127759772D01*
X149841875Y-127944175D01*
X149607175Y-128178875D01*
X149422772Y-128454853D01*
X149295754Y-128761504D01*
X149231000Y-129087042D01*
X147601000Y-129087042D01*
X147536246Y-128761504D01*
X147409228Y-128454853D01*
X147224825Y-128178875D01*
X146990125Y-127944175D01*
X146714147Y-127759772D01*
X146407496Y-127632754D01*
X146081958Y-127568000D01*
X145750042Y-127568000D01*
X145424504Y-127632754D01*
X145117853Y-127759772D01*
X144841875Y-127944175D01*
X144797864Y-127988186D01*
X144724825Y-127878875D01*
X144490125Y-127644175D01*
X144214147Y-127459772D01*
X143907496Y-127332754D01*
X143581958Y-127268000D01*
X143250042Y-127268000D01*
X142924504Y-127332754D01*
X142617853Y-127459772D01*
X142341875Y-127644175D01*
X142107175Y-127878875D01*
X141922772Y-128154853D01*
X141795754Y-128461504D01*
X141731000Y-128787042D01*
X107318464Y-128787042D01*
X107296599Y-128714966D01*
X107158706Y-128456986D01*
X106973134Y-128230866D01*
X106747014Y-128045294D01*
X106682477Y-128010799D01*
X106799355Y-127941178D01*
X107015588Y-127746269D01*
X107189641Y-127512920D01*
X107314825Y-127250099D01*
X107359476Y-127102890D01*
X107238155Y-126873000D01*
X106045000Y-126873000D01*
X106045000Y-126893000D01*
X105791000Y-126893000D01*
X105791000Y-126873000D01*
X105771000Y-126873000D01*
X105771000Y-126619000D01*
X105791000Y-126619000D01*
X105791000Y-126599000D01*
X106045000Y-126599000D01*
X106045000Y-126619000D01*
X107238155Y-126619000D01*
X107359476Y-126389110D01*
X107314825Y-126241901D01*
X107189641Y-125979080D01*
X107015588Y-125745731D01*
X106799355Y-125550822D01*
X106682477Y-125481201D01*
X106747014Y-125446706D01*
X106973134Y-125261134D01*
X107158706Y-125035014D01*
X107296599Y-124777034D01*
X107381513Y-124497111D01*
X107410185Y-124206000D01*
X107381513Y-123914889D01*
X107358797Y-123840004D01*
X112116684Y-119082117D01*
X139181000Y-119082117D01*
X139181000Y-119423883D01*
X139247675Y-119759081D01*
X139378463Y-120074831D01*
X139568337Y-120358998D01*
X139810002Y-120600663D01*
X140094169Y-120790537D01*
X140409919Y-120921325D01*
X140745117Y-120988000D01*
X141086883Y-120988000D01*
X141422081Y-120921325D01*
X141737831Y-120790537D01*
X142021998Y-120600663D01*
X142263663Y-120358998D01*
X142453537Y-120074831D01*
X142584325Y-119759081D01*
X142651000Y-119423883D01*
X142651000Y-119082117D01*
X146681000Y-119082117D01*
X146681000Y-119423883D01*
X146747675Y-119759081D01*
X146878463Y-120074831D01*
X147068337Y-120358998D01*
X147310002Y-120600663D01*
X147594169Y-120790537D01*
X147909919Y-120921325D01*
X148245117Y-120988000D01*
X148586883Y-120988000D01*
X148922081Y-120921325D01*
X149237831Y-120790537D01*
X149521998Y-120600663D01*
X149763663Y-120358998D01*
X149953537Y-120074831D01*
X150084325Y-119759081D01*
X150151000Y-119423883D01*
X150151000Y-119082117D01*
X154181000Y-119082117D01*
X154181000Y-119423883D01*
X154247675Y-119759081D01*
X154378463Y-120074831D01*
X154568337Y-120358998D01*
X154810002Y-120600663D01*
X155094169Y-120790537D01*
X155409919Y-120921325D01*
X155745117Y-120988000D01*
X156086883Y-120988000D01*
X156422081Y-120921325D01*
X156737831Y-120790537D01*
X157021998Y-120600663D01*
X157263663Y-120358998D01*
X157453537Y-120074831D01*
X157584325Y-119759081D01*
X157651000Y-119423883D01*
X157651000Y-119082117D01*
X157584325Y-118746919D01*
X157453537Y-118431169D01*
X157263663Y-118147002D01*
X157021998Y-117905337D01*
X156737831Y-117715463D01*
X156422081Y-117584675D01*
X156086883Y-117518000D01*
X155745117Y-117518000D01*
X155409919Y-117584675D01*
X155094169Y-117715463D01*
X154810002Y-117905337D01*
X154568337Y-118147002D01*
X154378463Y-118431169D01*
X154247675Y-118746919D01*
X154181000Y-119082117D01*
X150151000Y-119082117D01*
X150084325Y-118746919D01*
X149953537Y-118431169D01*
X149763663Y-118147002D01*
X149521998Y-117905337D01*
X149237831Y-117715463D01*
X148922081Y-117584675D01*
X148586883Y-117518000D01*
X148245117Y-117518000D01*
X147909919Y-117584675D01*
X147594169Y-117715463D01*
X147310002Y-117905337D01*
X147068337Y-118147002D01*
X146878463Y-118431169D01*
X146747675Y-118746919D01*
X146681000Y-119082117D01*
X142651000Y-119082117D01*
X142584325Y-118746919D01*
X142453537Y-118431169D01*
X142263663Y-118147002D01*
X142021998Y-117905337D01*
X141737831Y-117715463D01*
X141422081Y-117584675D01*
X141086883Y-117518000D01*
X140745117Y-117518000D01*
X140409919Y-117584675D01*
X140094169Y-117715463D01*
X139810002Y-117905337D01*
X139568337Y-118147002D01*
X139378463Y-118431169D01*
X139247675Y-118746919D01*
X139181000Y-119082117D01*
X112116684Y-119082117D01*
X113069802Y-118129000D01*
X113131939Y-118129000D01*
X113331898Y-118089226D01*
X113520256Y-118011205D01*
X113689774Y-117897937D01*
X113833937Y-117753774D01*
X113947205Y-117584256D01*
X114025226Y-117395898D01*
X114065000Y-117195939D01*
X114065000Y-116992061D01*
X114025226Y-116792102D01*
X113947205Y-116603744D01*
X113833937Y-116434226D01*
X113762755Y-116363044D01*
X114897799Y-115228000D01*
X128559928Y-115228000D01*
X128559928Y-116928000D01*
X128572188Y-117052482D01*
X128608498Y-117172180D01*
X128667463Y-117282494D01*
X128746815Y-117379185D01*
X128843506Y-117458537D01*
X128953820Y-117517502D01*
X129073518Y-117553812D01*
X129198000Y-117566072D01*
X130898000Y-117566072D01*
X131022482Y-117553812D01*
X131142180Y-117517502D01*
X131252494Y-117458537D01*
X131349185Y-117379185D01*
X131428537Y-117282494D01*
X131487502Y-117172180D01*
X131523812Y-117052482D01*
X131536072Y-116928000D01*
X131536072Y-116582117D01*
X141681000Y-116582117D01*
X141681000Y-116923883D01*
X141747675Y-117259081D01*
X141878463Y-117574831D01*
X142068337Y-117858998D01*
X142310002Y-118100663D01*
X142594169Y-118290537D01*
X142909919Y-118421325D01*
X143245117Y-118488000D01*
X143586883Y-118488000D01*
X143922081Y-118421325D01*
X144237831Y-118290537D01*
X144521998Y-118100663D01*
X144763663Y-117858998D01*
X144953537Y-117574831D01*
X145084325Y-117259081D01*
X145151000Y-116923883D01*
X145151000Y-116582117D01*
X151681000Y-116582117D01*
X151681000Y-116923883D01*
X151747675Y-117259081D01*
X151878463Y-117574831D01*
X152068337Y-117858998D01*
X152310002Y-118100663D01*
X152594169Y-118290537D01*
X152909919Y-118421325D01*
X153245117Y-118488000D01*
X153586883Y-118488000D01*
X153922081Y-118421325D01*
X154237831Y-118290537D01*
X154521998Y-118100663D01*
X154763663Y-117858998D01*
X154953537Y-117574831D01*
X155084325Y-117259081D01*
X155151000Y-116923883D01*
X155151000Y-116582117D01*
X155084325Y-116246919D01*
X154953537Y-115931169D01*
X154763663Y-115647002D01*
X154521998Y-115405337D01*
X154237831Y-115215463D01*
X153922081Y-115084675D01*
X153586883Y-115018000D01*
X153245117Y-115018000D01*
X152909919Y-115084675D01*
X152594169Y-115215463D01*
X152310002Y-115405337D01*
X152068337Y-115647002D01*
X151878463Y-115931169D01*
X151747675Y-116246919D01*
X151681000Y-116582117D01*
X145151000Y-116582117D01*
X145084325Y-116246919D01*
X144953537Y-115931169D01*
X144763663Y-115647002D01*
X144521998Y-115405337D01*
X144237831Y-115215463D01*
X143922081Y-115084675D01*
X143586883Y-115018000D01*
X143245117Y-115018000D01*
X142909919Y-115084675D01*
X142594169Y-115215463D01*
X142310002Y-115405337D01*
X142068337Y-115647002D01*
X141878463Y-115931169D01*
X141747675Y-116246919D01*
X141681000Y-116582117D01*
X131536072Y-116582117D01*
X131536072Y-115228000D01*
X131523812Y-115103518D01*
X131487502Y-114983820D01*
X131428537Y-114873506D01*
X131349185Y-114776815D01*
X131252494Y-114697463D01*
X131142180Y-114638498D01*
X131022482Y-114602188D01*
X130898000Y-114589928D01*
X129198000Y-114589928D01*
X129073518Y-114602188D01*
X128953820Y-114638498D01*
X128843506Y-114697463D01*
X128746815Y-114776815D01*
X128667463Y-114873506D01*
X128608498Y-114983820D01*
X128572188Y-115103518D01*
X128559928Y-115228000D01*
X114897799Y-115228000D01*
X115552800Y-114573000D01*
X115671939Y-114573000D01*
X115871898Y-114533226D01*
X116060256Y-114455205D01*
X116229774Y-114341937D01*
X116373937Y-114197774D01*
X116487205Y-114028256D01*
X116565226Y-113839898D01*
X116605000Y-113639939D01*
X116605000Y-113436061D01*
X116565226Y-113236102D01*
X116487205Y-113047744D01*
X116373937Y-112878226D01*
X116229774Y-112734063D01*
X116199181Y-112713621D01*
X117744005Y-111168797D01*
X117818889Y-111191513D01*
X118037050Y-111213000D01*
X118182950Y-111213000D01*
X118401111Y-111191513D01*
X118681034Y-111106599D01*
X118939014Y-110968706D01*
X119165134Y-110783134D01*
X119350706Y-110557014D01*
X119385201Y-110492477D01*
X119454822Y-110609355D01*
X119649731Y-110825588D01*
X119883080Y-110999641D01*
X120145901Y-111124825D01*
X120293110Y-111169476D01*
X120523000Y-111048155D01*
X120523000Y-109855000D01*
X120777000Y-109855000D01*
X120777000Y-111048155D01*
X121006890Y-111169476D01*
X121154099Y-111124825D01*
X121416920Y-110999641D01*
X121650269Y-110825588D01*
X121845178Y-110609355D01*
X121920000Y-110483745D01*
X121994822Y-110609355D01*
X122189731Y-110825588D01*
X122423080Y-110999641D01*
X122685901Y-111124825D01*
X122833110Y-111169476D01*
X123063000Y-111048155D01*
X123063000Y-109855000D01*
X123317000Y-109855000D01*
X123317000Y-111048155D01*
X123546890Y-111169476D01*
X123694099Y-111124825D01*
X123956920Y-110999641D01*
X124190269Y-110825588D01*
X124385178Y-110609355D01*
X124460000Y-110483745D01*
X124534822Y-110609355D01*
X124729731Y-110825588D01*
X124963080Y-110999641D01*
X125225901Y-111124825D01*
X125373110Y-111169476D01*
X125603000Y-111048155D01*
X125603000Y-109855000D01*
X125857000Y-109855000D01*
X125857000Y-111048155D01*
X126086890Y-111169476D01*
X126234099Y-111124825D01*
X126496920Y-110999641D01*
X126730269Y-110825588D01*
X126925178Y-110609355D01*
X127000000Y-110483745D01*
X127074822Y-110609355D01*
X127269731Y-110825588D01*
X127503080Y-110999641D01*
X127765901Y-111124825D01*
X127913110Y-111169476D01*
X128143000Y-111048155D01*
X128143000Y-109855000D01*
X125857000Y-109855000D01*
X125603000Y-109855000D01*
X123317000Y-109855000D01*
X123063000Y-109855000D01*
X120777000Y-109855000D01*
X120523000Y-109855000D01*
X120503000Y-109855000D01*
X120503000Y-109601000D01*
X120523000Y-109601000D01*
X120523000Y-108407845D01*
X120777000Y-108407845D01*
X120777000Y-109601000D01*
X123063000Y-109601000D01*
X123063000Y-108407845D01*
X123317000Y-108407845D01*
X123317000Y-109601000D01*
X125603000Y-109601000D01*
X125603000Y-108407845D01*
X125857000Y-108407845D01*
X125857000Y-109601000D01*
X128143000Y-109601000D01*
X128143000Y-108407845D01*
X127913110Y-108286524D01*
X127765901Y-108331175D01*
X127503080Y-108456359D01*
X127269731Y-108630412D01*
X127074822Y-108846645D01*
X127000000Y-108972255D01*
X126925178Y-108846645D01*
X126730269Y-108630412D01*
X126496920Y-108456359D01*
X126234099Y-108331175D01*
X126086890Y-108286524D01*
X125857000Y-108407845D01*
X125603000Y-108407845D01*
X125373110Y-108286524D01*
X125225901Y-108331175D01*
X124963080Y-108456359D01*
X124729731Y-108630412D01*
X124534822Y-108846645D01*
X124460000Y-108972255D01*
X124385178Y-108846645D01*
X124190269Y-108630412D01*
X123956920Y-108456359D01*
X123694099Y-108331175D01*
X123546890Y-108286524D01*
X123317000Y-108407845D01*
X123063000Y-108407845D01*
X122833110Y-108286524D01*
X122685901Y-108331175D01*
X122423080Y-108456359D01*
X122189731Y-108630412D01*
X121994822Y-108846645D01*
X121920000Y-108972255D01*
X121845178Y-108846645D01*
X121650269Y-108630412D01*
X121416920Y-108456359D01*
X121154099Y-108331175D01*
X121006890Y-108286524D01*
X120777000Y-108407845D01*
X120523000Y-108407845D01*
X120293110Y-108286524D01*
X120145901Y-108331175D01*
X119883080Y-108456359D01*
X119649731Y-108630412D01*
X119454822Y-108846645D01*
X119385201Y-108963523D01*
X119350706Y-108898986D01*
X119165134Y-108672866D01*
X118939014Y-108487294D01*
X118681034Y-108349401D01*
X118401111Y-108264487D01*
X118182950Y-108243000D01*
X118037050Y-108243000D01*
X117818889Y-108264487D01*
X117538966Y-108349401D01*
X117280986Y-108487294D01*
X117054866Y-108672866D01*
X116869294Y-108898986D01*
X116840000Y-108953791D01*
X116810706Y-108898986D01*
X116625134Y-108672866D01*
X116399014Y-108487294D01*
X116141034Y-108349401D01*
X115861111Y-108264487D01*
X115642950Y-108243000D01*
X115497050Y-108243000D01*
X115278889Y-108264487D01*
X114998966Y-108349401D01*
X114740986Y-108487294D01*
X114514866Y-108672866D01*
X114329294Y-108898986D01*
X114300000Y-108953791D01*
X114270706Y-108898986D01*
X114085134Y-108672866D01*
X113859014Y-108487294D01*
X113601034Y-108349401D01*
X113321111Y-108264487D01*
X113102950Y-108243000D01*
X112957050Y-108243000D01*
X112738889Y-108264487D01*
X112458966Y-108349401D01*
X112200986Y-108487294D01*
X111974866Y-108672866D01*
X111789294Y-108898986D01*
X111754799Y-108963523D01*
X111685178Y-108846645D01*
X111490269Y-108630412D01*
X111256920Y-108456359D01*
X110994099Y-108331175D01*
X110846890Y-108286524D01*
X110617000Y-108407845D01*
X110617000Y-109601000D01*
X110637000Y-109601000D01*
X110637000Y-109855000D01*
X110617000Y-109855000D01*
X110617000Y-111048155D01*
X110846890Y-111169476D01*
X110994099Y-111124825D01*
X111256920Y-110999641D01*
X111490269Y-110825588D01*
X111685178Y-110609355D01*
X111754799Y-110492477D01*
X111789294Y-110557014D01*
X111974866Y-110783134D01*
X112200986Y-110968706D01*
X112458966Y-111106599D01*
X112738889Y-111191513D01*
X112957050Y-111213000D01*
X113102950Y-111213000D01*
X113321111Y-111191513D01*
X113601034Y-111106599D01*
X113859014Y-110968706D01*
X114085134Y-110783134D01*
X114270706Y-110557014D01*
X114300000Y-110502209D01*
X114329294Y-110557014D01*
X114514866Y-110783134D01*
X114740986Y-110968706D01*
X114998966Y-111106599D01*
X115278889Y-111191513D01*
X115497050Y-111213000D01*
X115550198Y-111213000D01*
X108397199Y-118366000D01*
X107195595Y-118366000D01*
X107158706Y-118296986D01*
X106973134Y-118070866D01*
X106943313Y-118046393D01*
X107012180Y-118025502D01*
X107122494Y-117966537D01*
X107219185Y-117887185D01*
X107298537Y-117790494D01*
X107357502Y-117680180D01*
X107393812Y-117560482D01*
X107406072Y-117436000D01*
X107403000Y-116871750D01*
X107244250Y-116713000D01*
X106045000Y-116713000D01*
X106045000Y-116733000D01*
X105791000Y-116733000D01*
X105791000Y-116713000D01*
X105771000Y-116713000D01*
X105771000Y-116459000D01*
X105791000Y-116459000D01*
X105791000Y-115259750D01*
X106045000Y-115259750D01*
X106045000Y-116459000D01*
X107244250Y-116459000D01*
X107403000Y-116300250D01*
X107406072Y-115736000D01*
X107393812Y-115611518D01*
X107357502Y-115491820D01*
X107298537Y-115381506D01*
X107219185Y-115284815D01*
X107122494Y-115205463D01*
X107012180Y-115146498D01*
X106892482Y-115110188D01*
X106768000Y-115097928D01*
X106203750Y-115101000D01*
X106045000Y-115259750D01*
X105791000Y-115259750D01*
X105632250Y-115101000D01*
X105068000Y-115097928D01*
X104976200Y-115106969D01*
X104976200Y-109728000D01*
X106457815Y-109728000D01*
X106486487Y-110019111D01*
X106571401Y-110299034D01*
X106709294Y-110557014D01*
X106894866Y-110783134D01*
X107120986Y-110968706D01*
X107378966Y-111106599D01*
X107658889Y-111191513D01*
X107877050Y-111213000D01*
X108022950Y-111213000D01*
X108241111Y-111191513D01*
X108521034Y-111106599D01*
X108779014Y-110968706D01*
X109005134Y-110783134D01*
X109190706Y-110557014D01*
X109225201Y-110492477D01*
X109294822Y-110609355D01*
X109489731Y-110825588D01*
X109723080Y-110999641D01*
X109985901Y-111124825D01*
X110133110Y-111169476D01*
X110363000Y-111048155D01*
X110363000Y-109855000D01*
X110343000Y-109855000D01*
X110343000Y-109601000D01*
X110363000Y-109601000D01*
X110363000Y-108407845D01*
X110133110Y-108286524D01*
X109985901Y-108331175D01*
X109723080Y-108456359D01*
X109489731Y-108630412D01*
X109294822Y-108846645D01*
X109225201Y-108963523D01*
X109190706Y-108898986D01*
X109005134Y-108672866D01*
X108779014Y-108487294D01*
X108521034Y-108349401D01*
X108241111Y-108264487D01*
X108022950Y-108243000D01*
X107877050Y-108243000D01*
X107658889Y-108264487D01*
X107378966Y-108349401D01*
X107120986Y-108487294D01*
X106894866Y-108672866D01*
X106709294Y-108898986D01*
X106571401Y-109156966D01*
X106486487Y-109436889D01*
X106457815Y-109728000D01*
X104976200Y-109728000D01*
X104976200Y-106550694D01*
X105036645Y-106605178D01*
X105286748Y-106754157D01*
X105561109Y-106851481D01*
X105791000Y-106730814D01*
X105791000Y-105537000D01*
X106045000Y-105537000D01*
X106045000Y-106730814D01*
X106274891Y-106851481D01*
X106549252Y-106754157D01*
X106799355Y-106605178D01*
X107015588Y-106410269D01*
X107189641Y-106176920D01*
X107314825Y-105914099D01*
X107359476Y-105766890D01*
X107238155Y-105537000D01*
X106045000Y-105537000D01*
X105791000Y-105537000D01*
X105771000Y-105537000D01*
X105771000Y-105283000D01*
X105791000Y-105283000D01*
X105791000Y-105263000D01*
X106045000Y-105263000D01*
X106045000Y-105283000D01*
X107238155Y-105283000D01*
X107359476Y-105053110D01*
X107314825Y-104905901D01*
X107189641Y-104643080D01*
X107015588Y-104409731D01*
X106799355Y-104214822D01*
X106682477Y-104145201D01*
X106747014Y-104110706D01*
X106973134Y-103925134D01*
X107158706Y-103699014D01*
X107195595Y-103630000D01*
X124251459Y-103630000D01*
X124232180Y-103693558D01*
X124225457Y-103715723D01*
X124218998Y-103737015D01*
X124204324Y-103886000D01*
X124208001Y-103923332D01*
X124208001Y-104132405D01*
X124138986Y-104169294D01*
X123912866Y-104354866D01*
X123727294Y-104580986D01*
X123698000Y-104635791D01*
X123668706Y-104580986D01*
X123483134Y-104354866D01*
X123257014Y-104169294D01*
X122999034Y-104031401D01*
X122719111Y-103946487D01*
X122500950Y-103925000D01*
X122355050Y-103925000D01*
X122136889Y-103946487D01*
X121856966Y-104031401D01*
X121598986Y-104169294D01*
X121372866Y-104354866D01*
X121348393Y-104384687D01*
X121327502Y-104315820D01*
X121268537Y-104205506D01*
X121189185Y-104108815D01*
X121092494Y-104029463D01*
X120982180Y-103970498D01*
X120862482Y-103934188D01*
X120738000Y-103921928D01*
X119038000Y-103921928D01*
X118913518Y-103934188D01*
X118793820Y-103970498D01*
X118683506Y-104029463D01*
X118586815Y-104108815D01*
X118507463Y-104205506D01*
X118448498Y-104315820D01*
X118412188Y-104435518D01*
X118399928Y-104560000D01*
X118399928Y-106260000D01*
X118412188Y-106384482D01*
X118448498Y-106504180D01*
X118507463Y-106614494D01*
X118586815Y-106711185D01*
X118683506Y-106790537D01*
X118793820Y-106849502D01*
X118913518Y-106885812D01*
X119038000Y-106898072D01*
X120738000Y-106898072D01*
X120862482Y-106885812D01*
X120982180Y-106849502D01*
X121092494Y-106790537D01*
X121189185Y-106711185D01*
X121268537Y-106614494D01*
X121327502Y-106504180D01*
X121348393Y-106435313D01*
X121372866Y-106465134D01*
X121598986Y-106650706D01*
X121856966Y-106788599D01*
X122136889Y-106873513D01*
X122355050Y-106895000D01*
X122500950Y-106895000D01*
X122719111Y-106873513D01*
X122999034Y-106788599D01*
X123257014Y-106650706D01*
X123483134Y-106465134D01*
X123668706Y-106239014D01*
X123698000Y-106184209D01*
X123727294Y-106239014D01*
X123912866Y-106465134D01*
X124138986Y-106650706D01*
X124396966Y-106788599D01*
X124676889Y-106873513D01*
X124895050Y-106895000D01*
X125040950Y-106895000D01*
X125259111Y-106873513D01*
X125539034Y-106788599D01*
X125797014Y-106650706D01*
X126023134Y-106465134D01*
X126208706Y-106239014D01*
X126243201Y-106174477D01*
X126312822Y-106291355D01*
X126507731Y-106507588D01*
X126741080Y-106681641D01*
X127003901Y-106806825D01*
X127151110Y-106851476D01*
X127381000Y-106730155D01*
X127381000Y-105537000D01*
X127635000Y-105537000D01*
X127635000Y-106730155D01*
X127864890Y-106851476D01*
X128012099Y-106806825D01*
X128274920Y-106681641D01*
X128508269Y-106507588D01*
X128703178Y-106291355D01*
X128852157Y-106041252D01*
X128949481Y-105766891D01*
X128828814Y-105537000D01*
X127635000Y-105537000D01*
X127381000Y-105537000D01*
X127361000Y-105537000D01*
X127361000Y-105283000D01*
X127381000Y-105283000D01*
X127381000Y-104089845D01*
X127151110Y-103968524D01*
X127003901Y-104013175D01*
X126741080Y-104138359D01*
X126507731Y-104312412D01*
X126312822Y-104528645D01*
X126243201Y-104645523D01*
X126208706Y-104580986D01*
X126023134Y-104354866D01*
X125797014Y-104169294D01*
X125772572Y-104156229D01*
X126298802Y-103630000D01*
X127277199Y-103630000D01*
X127701794Y-104054595D01*
X127635000Y-104089845D01*
X127635000Y-105283000D01*
X128828814Y-105283000D01*
X128863712Y-105216513D01*
X132062655Y-108415457D01*
X132048815Y-108426815D01*
X131969463Y-108523506D01*
X131910498Y-108633820D01*
X131889607Y-108702687D01*
X131865134Y-108672866D01*
X131639014Y-108487294D01*
X131381034Y-108349401D01*
X131101111Y-108264487D01*
X130882950Y-108243000D01*
X130737050Y-108243000D01*
X130518889Y-108264487D01*
X130238966Y-108349401D01*
X129980986Y-108487294D01*
X129754866Y-108672866D01*
X129569294Y-108898986D01*
X129534799Y-108963523D01*
X129465178Y-108846645D01*
X129270269Y-108630412D01*
X129036920Y-108456359D01*
X128774099Y-108331175D01*
X128626890Y-108286524D01*
X128397000Y-108407845D01*
X128397000Y-109601000D01*
X128417000Y-109601000D01*
X128417000Y-109855000D01*
X128397000Y-109855000D01*
X128397000Y-111048155D01*
X128626890Y-111169476D01*
X128774099Y-111124825D01*
X129036920Y-110999641D01*
X129270269Y-110825588D01*
X129465178Y-110609355D01*
X129534799Y-110492477D01*
X129569294Y-110557014D01*
X129754866Y-110783134D01*
X129980986Y-110968706D01*
X130238966Y-111106599D01*
X130518889Y-111191513D01*
X130737050Y-111213000D01*
X130882950Y-111213000D01*
X131101111Y-111191513D01*
X131381034Y-111106599D01*
X131639014Y-110968706D01*
X131865134Y-110783134D01*
X131889607Y-110753313D01*
X131910498Y-110822180D01*
X131969463Y-110932494D01*
X132048815Y-111029185D01*
X132145506Y-111108537D01*
X132255820Y-111167502D01*
X132375518Y-111203812D01*
X132500000Y-111216072D01*
X134200000Y-111216072D01*
X134324482Y-111203812D01*
X134444180Y-111167502D01*
X134554494Y-111108537D01*
X134651185Y-111029185D01*
X134676777Y-110998000D01*
X138258057Y-110998000D01*
X138285764Y-111279309D01*
X138367818Y-111549808D01*
X138501068Y-111799101D01*
X138680392Y-112017608D01*
X138898899Y-112196932D01*
X139148192Y-112330182D01*
X139418691Y-112412236D01*
X139629508Y-112433000D01*
X139770492Y-112433000D01*
X139981309Y-112412236D01*
X140251808Y-112330182D01*
X140501101Y-112196932D01*
X140719608Y-112017608D01*
X140898932Y-111799101D01*
X141032182Y-111549808D01*
X141114236Y-111279309D01*
X141141943Y-110998000D01*
X155530057Y-110998000D01*
X155557764Y-111279309D01*
X155639818Y-111549808D01*
X155773068Y-111799101D01*
X155952392Y-112017608D01*
X156170899Y-112196932D01*
X156420192Y-112330182D01*
X156690691Y-112412236D01*
X156901508Y-112433000D01*
X157042492Y-112433000D01*
X157253309Y-112412236D01*
X157523808Y-112330182D01*
X157773101Y-112196932D01*
X157991608Y-112017608D01*
X158170932Y-111799101D01*
X158304182Y-111549808D01*
X158386236Y-111279309D01*
X158413943Y-110998000D01*
X158386236Y-110716691D01*
X158304182Y-110446192D01*
X158170932Y-110196899D01*
X157991608Y-109978392D01*
X157773101Y-109799068D01*
X157523808Y-109665818D01*
X157253309Y-109583764D01*
X157042492Y-109563000D01*
X156901508Y-109563000D01*
X156690691Y-109583764D01*
X156420192Y-109665818D01*
X156170899Y-109799068D01*
X155952392Y-109978392D01*
X155773068Y-110196899D01*
X155639818Y-110446192D01*
X155557764Y-110716691D01*
X155530057Y-110998000D01*
X141141943Y-110998000D01*
X141114236Y-110716691D01*
X141032182Y-110446192D01*
X140898932Y-110196899D01*
X140719608Y-109978392D01*
X140501101Y-109799068D01*
X140251808Y-109665818D01*
X139981309Y-109583764D01*
X139770492Y-109563000D01*
X139629508Y-109563000D01*
X139418691Y-109583764D01*
X139148192Y-109665818D01*
X138898899Y-109799068D01*
X138680392Y-109978392D01*
X138501068Y-110196899D01*
X138367818Y-110446192D01*
X138285764Y-110716691D01*
X138258057Y-110998000D01*
X134676777Y-110998000D01*
X134730537Y-110932494D01*
X134789502Y-110822180D01*
X134825812Y-110702482D01*
X134838072Y-110578000D01*
X134838072Y-108878000D01*
X134825812Y-108753518D01*
X134789502Y-108633820D01*
X134730537Y-108523506D01*
X134651185Y-108426815D01*
X134554494Y-108347463D01*
X134444180Y-108288498D01*
X134324482Y-108252188D01*
X134200000Y-108239928D01*
X134004326Y-108239928D01*
X133984974Y-108203724D01*
X133890001Y-108087999D01*
X133861003Y-108064201D01*
X133454802Y-107658000D01*
X144437928Y-107658000D01*
X144437928Y-109258000D01*
X144450188Y-109382482D01*
X144486498Y-109502180D01*
X144545463Y-109612494D01*
X144624815Y-109709185D01*
X144721506Y-109788537D01*
X144831820Y-109847502D01*
X144951518Y-109883812D01*
X145076000Y-109896072D01*
X146676000Y-109896072D01*
X146800482Y-109883812D01*
X146920180Y-109847502D01*
X147030494Y-109788537D01*
X147127185Y-109709185D01*
X147206537Y-109612494D01*
X147265502Y-109502180D01*
X147301812Y-109382482D01*
X147303581Y-109364518D01*
X147396392Y-109477608D01*
X147614899Y-109656932D01*
X147864192Y-109790182D01*
X148134691Y-109872236D01*
X148345508Y-109893000D01*
X148486492Y-109893000D01*
X148697309Y-109872236D01*
X148967808Y-109790182D01*
X149217101Y-109656932D01*
X149435608Y-109477608D01*
X149614932Y-109259101D01*
X149686000Y-109126142D01*
X149757068Y-109259101D01*
X149936392Y-109477608D01*
X150154899Y-109656932D01*
X150404192Y-109790182D01*
X150674691Y-109872236D01*
X150885508Y-109893000D01*
X151026492Y-109893000D01*
X151237309Y-109872236D01*
X151507808Y-109790182D01*
X151757101Y-109656932D01*
X151975608Y-109477608D01*
X152154932Y-109259101D01*
X152288182Y-109009808D01*
X152370236Y-108739309D01*
X152397943Y-108458000D01*
X152370236Y-108176691D01*
X152288182Y-107906192D01*
X152154932Y-107656899D01*
X151975608Y-107438392D01*
X151757101Y-107259068D01*
X151507808Y-107125818D01*
X151237309Y-107043764D01*
X151026492Y-107023000D01*
X150885508Y-107023000D01*
X150674691Y-107043764D01*
X150404192Y-107125818D01*
X150154899Y-107259068D01*
X149936392Y-107438392D01*
X149757068Y-107656899D01*
X149686000Y-107789858D01*
X149614932Y-107656899D01*
X149435608Y-107438392D01*
X149217101Y-107259068D01*
X148967808Y-107125818D01*
X148697309Y-107043764D01*
X148486492Y-107023000D01*
X148345508Y-107023000D01*
X148134691Y-107043764D01*
X147864192Y-107125818D01*
X147614899Y-107259068D01*
X147396392Y-107438392D01*
X147303581Y-107551482D01*
X147301812Y-107533518D01*
X147265502Y-107413820D01*
X147206537Y-107303506D01*
X147127185Y-107206815D01*
X147030494Y-107127463D01*
X146920180Y-107068498D01*
X146800482Y-107032188D01*
X146676000Y-107019928D01*
X145076000Y-107019928D01*
X144951518Y-107032188D01*
X144831820Y-107068498D01*
X144721506Y-107127463D01*
X144624815Y-107206815D01*
X144545463Y-107303506D01*
X144486498Y-107413820D01*
X144450188Y-107533518D01*
X144437928Y-107658000D01*
X133454802Y-107658000D01*
X128666801Y-102870000D01*
X130559003Y-100977799D01*
X130588001Y-100954001D01*
X130682974Y-100838276D01*
X130753546Y-100706247D01*
X130797003Y-100562986D01*
X130808000Y-100451333D01*
X130811677Y-100414000D01*
X130808000Y-100376667D01*
X130808000Y-100038000D01*
X138261928Y-100038000D01*
X138261928Y-101638000D01*
X138274188Y-101762482D01*
X138310498Y-101882180D01*
X138369463Y-101992494D01*
X138448815Y-102089185D01*
X138545506Y-102168537D01*
X138655820Y-102227502D01*
X138775518Y-102263812D01*
X138900000Y-102276072D01*
X140500000Y-102276072D01*
X140624482Y-102263812D01*
X140744180Y-102227502D01*
X140854494Y-102168537D01*
X140951185Y-102089185D01*
X141030537Y-101992494D01*
X141089502Y-101882180D01*
X141125812Y-101762482D01*
X141138072Y-101638000D01*
X141138072Y-100038000D01*
X141125812Y-99913518D01*
X141089502Y-99793820D01*
X141030537Y-99683506D01*
X140951185Y-99586815D01*
X140854494Y-99507463D01*
X140744180Y-99448498D01*
X140624482Y-99412188D01*
X140500000Y-99399928D01*
X138900000Y-99399928D01*
X138775518Y-99412188D01*
X138655820Y-99448498D01*
X138545506Y-99507463D01*
X138448815Y-99586815D01*
X138369463Y-99683506D01*
X138310498Y-99793820D01*
X138274188Y-99913518D01*
X138261928Y-100038000D01*
X130808000Y-100038000D01*
X130808000Y-95511595D01*
X130877014Y-95474706D01*
X131103134Y-95289134D01*
X131288706Y-95063014D01*
X131318000Y-95008209D01*
X131347294Y-95063014D01*
X131532866Y-95289134D01*
X131758986Y-95474706D01*
X131831971Y-95513717D01*
X131838998Y-95585067D01*
X131852180Y-95628523D01*
X131882454Y-95728327D01*
X131953026Y-95860357D01*
X132024201Y-95947083D01*
X132048000Y-95976082D01*
X132076998Y-95999880D01*
X134124120Y-98047003D01*
X134147918Y-98076001D01*
X134176916Y-98099799D01*
X134263642Y-98170974D01*
X134395672Y-98241546D01*
X134538933Y-98285003D01*
X134650586Y-98296000D01*
X134650596Y-98296000D01*
X134687919Y-98299676D01*
X134725242Y-98296000D01*
X144654157Y-98296000D01*
X144757563Y-98450759D01*
X144957441Y-98650637D01*
X145112200Y-98754044D01*
X145112201Y-99619130D01*
X145074899Y-99639068D01*
X144856392Y-99818392D01*
X144677068Y-100036899D01*
X144543818Y-100286192D01*
X144461764Y-100556691D01*
X144434057Y-100838000D01*
X144461764Y-101119309D01*
X144543818Y-101389808D01*
X144677068Y-101639101D01*
X144856392Y-101857608D01*
X145074899Y-102036932D01*
X145324192Y-102170182D01*
X145594691Y-102252236D01*
X145805508Y-102273000D01*
X145946492Y-102273000D01*
X146157309Y-102252236D01*
X146201906Y-102238708D01*
X148614200Y-104651002D01*
X148637999Y-104680001D01*
X148753724Y-104774974D01*
X148885753Y-104845546D01*
X149029014Y-104889003D01*
X149140667Y-104900000D01*
X149140676Y-104900000D01*
X149177999Y-104903676D01*
X149215322Y-104900000D01*
X157673199Y-104900000D01*
X158294289Y-105521091D01*
X158294288Y-109131365D01*
X158290612Y-109168688D01*
X158294288Y-109206010D01*
X158294288Y-109206020D01*
X158305285Y-109317673D01*
X158341104Y-109435754D01*
X158348742Y-109460934D01*
X158419314Y-109592964D01*
X158459159Y-109641514D01*
X158514287Y-109708689D01*
X158543291Y-109732492D01*
X159484912Y-110674114D01*
X159448600Y-110856665D01*
X159448600Y-111139335D01*
X159503747Y-111416574D01*
X159611920Y-111677727D01*
X159768963Y-111912759D01*
X159968841Y-112112637D01*
X160203873Y-112269680D01*
X160465026Y-112377853D01*
X160742265Y-112433000D01*
X161024935Y-112433000D01*
X161302174Y-112377853D01*
X161563327Y-112269680D01*
X161798359Y-112112637D01*
X161998237Y-111912759D01*
X162155280Y-111677727D01*
X162263453Y-111416574D01*
X162318600Y-111139335D01*
X162318600Y-110856665D01*
X162282288Y-110674114D01*
X162406176Y-110550226D01*
X162407998Y-128117960D01*
X162389500Y-128361195D01*
X162389500Y-128037721D01*
X162307453Y-127625244D01*
X162146512Y-127236698D01*
X161912863Y-126887017D01*
X161615483Y-126589637D01*
X161265802Y-126355988D01*
X160877256Y-126195047D01*
X160464779Y-126113000D01*
X160044221Y-126113000D01*
X159631744Y-126195047D01*
X159243198Y-126355988D01*
X158893517Y-126589637D01*
X158596137Y-126887017D01*
X158362488Y-127236698D01*
X158201547Y-127625244D01*
X158119500Y-128037721D01*
X158119500Y-128458279D01*
X158201547Y-128870756D01*
X158362488Y-129259302D01*
X158596137Y-129608983D01*
X158893517Y-129906363D01*
X159243198Y-130140012D01*
X159631744Y-130300953D01*
X160044221Y-130383000D01*
X160464779Y-130383000D01*
X160877256Y-130300953D01*
X161265802Y-130140012D01*
X161615483Y-129906363D01*
X161912863Y-129608983D01*
X162146512Y-129259302D01*
X162307453Y-128870756D01*
X162377547Y-128518373D01*
X162362684Y-128713800D01*
X162213123Y-129251311D01*
X161962010Y-129749532D01*
X161618909Y-130189487D01*
X161196884Y-130554424D01*
X160712013Y-130830440D01*
X160182766Y-131007020D01*
X159611850Y-131079659D01*
X122138072Y-131099552D01*
X122138072Y-129452000D01*
X122125812Y-129327518D01*
X122089502Y-129207820D01*
X122030537Y-129097506D01*
X121951185Y-129000815D01*
X121854494Y-128921463D01*
X121744180Y-128862498D01*
X121624482Y-128826188D01*
X121500000Y-128813928D01*
X119800000Y-128813928D01*
X119675518Y-128826188D01*
X119555820Y-128862498D01*
X119445506Y-128921463D01*
X119348815Y-129000815D01*
X119269463Y-129097506D01*
X119210498Y-129207820D01*
X119174188Y-129327518D01*
X119161928Y-129452000D01*
X119161928Y-131101132D01*
X102261384Y-131110104D01*
X101680191Y-131053183D01*
X101151081Y-130893499D01*
X100663068Y-130634088D01*
X100234730Y-130284824D01*
X99882393Y-129859020D01*
X99619471Y-129372885D01*
X99455980Y-128844941D01*
X99395006Y-128265426D01*
X99404283Y-79380630D01*
X99449604Y-78784700D01*
X99599164Y-78247192D01*
X99850278Y-77748968D01*
X100193379Y-77309013D01*
X100615403Y-76944077D01*
X101100272Y-76668061D01*
X101629519Y-76491481D01*
X102206795Y-76418032D01*
X128012618Y-76413456D01*
X128009527Y-76417223D01*
X128009527Y-76417223D01*
G37*
X128009527Y-76417223D02*
X127939329Y-76548553D01*
X127884951Y-76526029D01*
X127593222Y-76468000D01*
X127295778Y-76468000D01*
X127004049Y-76526029D01*
X126729247Y-76639856D01*
X126481931Y-76805107D01*
X126271607Y-77015431D01*
X126174500Y-77160762D01*
X126077393Y-77015431D01*
X125867069Y-76805107D01*
X125619753Y-76639856D01*
X125344951Y-76526029D01*
X125053222Y-76468000D01*
X124755778Y-76468000D01*
X124464049Y-76526029D01*
X124189247Y-76639856D01*
X123941931Y-76805107D01*
X123731607Y-77015431D01*
X123622212Y-77179153D01*
X123410740Y-77111365D01*
X122544105Y-77978000D01*
X123410740Y-78844635D01*
X123622212Y-78776847D01*
X123731607Y-78940569D01*
X123941931Y-79150893D01*
X124087262Y-79248000D01*
X123941931Y-79345107D01*
X123731607Y-79555431D01*
X123634500Y-79700762D01*
X123537393Y-79555431D01*
X123327069Y-79345107D01*
X123163347Y-79235712D01*
X123231135Y-79024240D01*
X122364500Y-78157605D01*
X121497865Y-79024240D01*
X121565653Y-79235712D01*
X121401931Y-79345107D01*
X121191607Y-79555431D01*
X121094500Y-79700762D01*
X120997393Y-79555431D01*
X120787069Y-79345107D01*
X120641738Y-79248000D01*
X120787069Y-79150893D01*
X120997393Y-78940569D01*
X121106788Y-78776847D01*
X121318260Y-78844635D01*
X122184895Y-77978000D01*
X121318260Y-77111365D01*
X121106788Y-77179153D01*
X120997393Y-77015431D01*
X120913722Y-76931760D01*
X121497865Y-76931760D01*
X122364500Y-77798395D01*
X123231135Y-76931760D01*
X123150475Y-76680132D01*
X122882171Y-76551733D01*
X122593974Y-76478145D01*
X122296957Y-76462196D01*
X122002537Y-76504499D01*
X121722026Y-76603428D01*
X121578525Y-76680132D01*
X121497865Y-76931760D01*
X120913722Y-76931760D01*
X120787069Y-76805107D01*
X120539753Y-76639856D01*
X120264951Y-76526029D01*
X119973222Y-76468000D01*
X119675778Y-76468000D01*
X119384049Y-76526029D01*
X119109247Y-76639856D01*
X118861931Y-76805107D01*
X118651607Y-77015431D01*
X118554500Y-77160762D01*
X118457393Y-77015431D01*
X118247069Y-76805107D01*
X117999753Y-76639856D01*
X117724951Y-76526029D01*
X117433222Y-76468000D01*
X117135778Y-76468000D01*
X116844049Y-76526029D01*
X116569247Y-76639856D01*
X116321931Y-76805107D01*
X116111607Y-77015431D01*
X116014500Y-77160762D01*
X115917393Y-77015431D01*
X115707069Y-76805107D01*
X115459753Y-76639856D01*
X115184951Y-76526029D01*
X114893222Y-76468000D01*
X114595778Y-76468000D01*
X114304049Y-76526029D01*
X114029247Y-76639856D01*
X113781931Y-76805107D01*
X113571607Y-77015431D01*
X113462212Y-77179153D01*
X113250740Y-77111365D01*
X112384105Y-77978000D01*
X113250740Y-78844635D01*
X113462212Y-78776847D01*
X113571607Y-78940569D01*
X113781931Y-79150893D01*
X113927262Y-79248000D01*
X113781931Y-79345107D01*
X113571607Y-79555431D01*
X113474500Y-79700762D01*
X113377393Y-79555431D01*
X113167069Y-79345107D01*
X113003347Y-79235712D01*
X113071135Y-79024240D01*
X112204500Y-78157605D01*
X111337865Y-79024240D01*
X111405653Y-79235712D01*
X111241931Y-79345107D01*
X111031607Y-79555431D01*
X110934500Y-79700762D01*
X110837393Y-79555431D01*
X110627069Y-79345107D01*
X110481738Y-79248000D01*
X110627069Y-79150893D01*
X110837393Y-78940569D01*
X110946788Y-78776847D01*
X111158260Y-78844635D01*
X112024895Y-77978000D01*
X111158260Y-77111365D01*
X110946788Y-77179153D01*
X110837393Y-77015431D01*
X110753722Y-76931760D01*
X111337865Y-76931760D01*
X112204500Y-77798395D01*
X113071135Y-76931760D01*
X112990475Y-76680132D01*
X112722171Y-76551733D01*
X112433974Y-76478145D01*
X112136957Y-76462196D01*
X111842537Y-76504499D01*
X111562026Y-76603428D01*
X111418525Y-76680132D01*
X111337865Y-76931760D01*
X110753722Y-76931760D01*
X110627069Y-76805107D01*
X110379753Y-76639856D01*
X110104951Y-76526029D01*
X109813222Y-76468000D01*
X109515778Y-76468000D01*
X109224049Y-76526029D01*
X108949247Y-76639856D01*
X108701931Y-76805107D01*
X108491607Y-77015431D01*
X108394500Y-77160762D01*
X108297393Y-77015431D01*
X108087069Y-76805107D01*
X107839753Y-76639856D01*
X107564951Y-76526029D01*
X107273222Y-76468000D01*
X106975778Y-76468000D01*
X106684049Y-76526029D01*
X106409247Y-76639856D01*
X106161931Y-76805107D01*
X105951607Y-77015431D01*
X105816255Y-77218000D01*
X105383321Y-77218000D01*
X105345998Y-77214324D01*
X105308675Y-77218000D01*
X105308665Y-77218000D01*
X105197012Y-77228997D01*
X105053751Y-77272454D01*
X104921722Y-77343026D01*
X104805997Y-77437999D01*
X104782199Y-77466997D01*
X104092834Y-78156363D01*
X103912863Y-77887017D01*
X103615483Y-77589637D01*
X103265802Y-77355988D01*
X102877256Y-77195047D01*
X102464779Y-77113000D01*
X102044221Y-77113000D01*
X101631744Y-77195047D01*
X101243198Y-77355988D01*
X100893517Y-77589637D01*
X100596137Y-77887017D01*
X100362488Y-78236698D01*
X100201547Y-78625244D01*
X100119500Y-79037721D01*
X100119500Y-79458279D01*
X100201547Y-79870756D01*
X100362488Y-80259302D01*
X100596137Y-80608983D01*
X100893517Y-80906363D01*
X101243198Y-81140012D01*
X101631744Y-81300953D01*
X102044221Y-81383000D01*
X102464779Y-81383000D01*
X102877256Y-81300953D01*
X103265802Y-81140012D01*
X103474999Y-81000231D01*
X103475000Y-101149657D01*
X103474999Y-101149667D01*
X103474999Y-101149677D01*
X103471323Y-101186999D01*
X103474999Y-101224322D01*
X103475000Y-104587092D01*
X103467198Y-104612812D01*
X103456201Y-104724465D01*
X103456200Y-126483208D01*
X103265802Y-126355988D01*
X102877256Y-126195047D01*
X102464779Y-126113000D01*
X102044221Y-126113000D01*
X101631744Y-126195047D01*
X101243198Y-126355988D01*
X100893517Y-126589637D01*
X100596137Y-126887017D01*
X100362488Y-127236698D01*
X100201547Y-127625244D01*
X100119500Y-128037721D01*
X100119500Y-128458279D01*
X100201547Y-128870756D01*
X100362488Y-129259302D01*
X100596137Y-129608983D01*
X100893517Y-129906363D01*
X101243198Y-130140012D01*
X101631744Y-130300953D01*
X102044221Y-130383000D01*
X102464779Y-130383000D01*
X102877256Y-130300953D01*
X103265802Y-130140012D01*
X103615483Y-129906363D01*
X103912863Y-129608983D01*
X104146512Y-129259302D01*
X104307453Y-128870756D01*
X104327446Y-128770247D01*
X104477203Y-128920005D01*
X104454487Y-128994889D01*
X104425815Y-129286000D01*
X104454487Y-129577111D01*
X104539401Y-129857034D01*
X104677294Y-130115014D01*
X104862866Y-130341134D01*
X105088986Y-130526706D01*
X105346966Y-130664599D01*
X105626889Y-130749513D01*
X105845050Y-130771000D01*
X105990950Y-130771000D01*
X106209111Y-130749513D01*
X106489034Y-130664599D01*
X106747014Y-130526706D01*
X106973134Y-130341134D01*
X107158706Y-130115014D01*
X107296599Y-129857034D01*
X107381513Y-129577111D01*
X107410185Y-129286000D01*
X107381513Y-128994889D01*
X107318464Y-128787042D01*
X141731000Y-128787042D01*
X141731000Y-129118958D01*
X141795754Y-129444496D01*
X141922772Y-129751147D01*
X142107175Y-130027125D01*
X142341875Y-130261825D01*
X142617853Y-130446228D01*
X142924504Y-130573246D01*
X143250042Y-130638000D01*
X143581958Y-130638000D01*
X143907496Y-130573246D01*
X144214147Y-130446228D01*
X144490125Y-130261825D01*
X144534136Y-130217814D01*
X144607175Y-130327125D01*
X144841875Y-130561825D01*
X145117853Y-130746228D01*
X145424504Y-130873246D01*
X145750042Y-130938000D01*
X146081958Y-130938000D01*
X146407496Y-130873246D01*
X146714147Y-130746228D01*
X146990125Y-130561825D01*
X147224825Y-130327125D01*
X147409228Y-130051147D01*
X147536246Y-129744496D01*
X147601000Y-129418958D01*
X147601000Y-129087042D01*
X149231000Y-129087042D01*
X149231000Y-129418958D01*
X149295754Y-129744496D01*
X149422772Y-130051147D01*
X149607175Y-130327125D01*
X149841875Y-130561825D01*
X150117853Y-130746228D01*
X150424504Y-130873246D01*
X150750042Y-130938000D01*
X151081958Y-130938000D01*
X151407496Y-130873246D01*
X151714147Y-130746228D01*
X151990125Y-130561825D01*
X152224825Y-130327125D01*
X152297864Y-130217814D01*
X152341875Y-130261825D01*
X152617853Y-130446228D01*
X152924504Y-130573246D01*
X153250042Y-130638000D01*
X153581958Y-130638000D01*
X153907496Y-130573246D01*
X154214147Y-130446228D01*
X154490125Y-130261825D01*
X154724825Y-130027125D01*
X154909228Y-129751147D01*
X155036246Y-129444496D01*
X155101000Y-129118958D01*
X155101000Y-128787042D01*
X155036246Y-128461504D01*
X154909228Y-128154853D01*
X154724825Y-127878875D01*
X154490125Y-127644175D01*
X154214147Y-127459772D01*
X153907496Y-127332754D01*
X153581958Y-127268000D01*
X153250042Y-127268000D01*
X152924504Y-127332754D01*
X152617853Y-127459772D01*
X152341875Y-127644175D01*
X152107175Y-127878875D01*
X152034136Y-127988186D01*
X151990125Y-127944175D01*
X151714147Y-127759772D01*
X151407496Y-127632754D01*
X151081958Y-127568000D01*
X150750042Y-127568000D01*
X150424504Y-127632754D01*
X150117853Y-127759772D01*
X149841875Y-127944175D01*
X149607175Y-128178875D01*
X149422772Y-128454853D01*
X149295754Y-128761504D01*
X149231000Y-129087042D01*
X147601000Y-129087042D01*
X147536246Y-128761504D01*
X147409228Y-128454853D01*
X147224825Y-128178875D01*
X146990125Y-127944175D01*
X146714147Y-127759772D01*
X146407496Y-127632754D01*
X146081958Y-127568000D01*
X145750042Y-127568000D01*
X145424504Y-127632754D01*
X145117853Y-127759772D01*
X144841875Y-127944175D01*
X144797864Y-127988186D01*
X144724825Y-127878875D01*
X144490125Y-127644175D01*
X144214147Y-127459772D01*
X143907496Y-127332754D01*
X143581958Y-127268000D01*
X143250042Y-127268000D01*
X142924504Y-127332754D01*
X142617853Y-127459772D01*
X142341875Y-127644175D01*
X142107175Y-127878875D01*
X141922772Y-128154853D01*
X141795754Y-128461504D01*
X141731000Y-128787042D01*
X107318464Y-128787042D01*
X107296599Y-128714966D01*
X107158706Y-128456986D01*
X106973134Y-128230866D01*
X106747014Y-128045294D01*
X106682477Y-128010799D01*
X106799355Y-127941178D01*
X107015588Y-127746269D01*
X107189641Y-127512920D01*
X107314825Y-127250099D01*
X107359476Y-127102890D01*
X107238155Y-126873000D01*
X106045000Y-126873000D01*
X106045000Y-126893000D01*
X105791000Y-126893000D01*
X105791000Y-126873000D01*
X105771000Y-126873000D01*
X105771000Y-126619000D01*
X105791000Y-126619000D01*
X105791000Y-126599000D01*
X106045000Y-126599000D01*
X106045000Y-126619000D01*
X107238155Y-126619000D01*
X107359476Y-126389110D01*
X107314825Y-126241901D01*
X107189641Y-125979080D01*
X107015588Y-125745731D01*
X106799355Y-125550822D01*
X106682477Y-125481201D01*
X106747014Y-125446706D01*
X106973134Y-125261134D01*
X107158706Y-125035014D01*
X107296599Y-124777034D01*
X107381513Y-124497111D01*
X107410185Y-124206000D01*
X107381513Y-123914889D01*
X107358797Y-123840004D01*
X112116684Y-119082117D01*
X139181000Y-119082117D01*
X139181000Y-119423883D01*
X139247675Y-119759081D01*
X139378463Y-120074831D01*
X139568337Y-120358998D01*
X139810002Y-120600663D01*
X140094169Y-120790537D01*
X140409919Y-120921325D01*
X140745117Y-120988000D01*
X141086883Y-120988000D01*
X141422081Y-120921325D01*
X141737831Y-120790537D01*
X142021998Y-120600663D01*
X142263663Y-120358998D01*
X142453537Y-120074831D01*
X142584325Y-119759081D01*
X142651000Y-119423883D01*
X142651000Y-119082117D01*
X146681000Y-119082117D01*
X146681000Y-119423883D01*
X146747675Y-119759081D01*
X146878463Y-120074831D01*
X147068337Y-120358998D01*
X147310002Y-120600663D01*
X147594169Y-120790537D01*
X147909919Y-120921325D01*
X148245117Y-120988000D01*
X148586883Y-120988000D01*
X148922081Y-120921325D01*
X149237831Y-120790537D01*
X149521998Y-120600663D01*
X149763663Y-120358998D01*
X149953537Y-120074831D01*
X150084325Y-119759081D01*
X150151000Y-119423883D01*
X150151000Y-119082117D01*
X154181000Y-119082117D01*
X154181000Y-119423883D01*
X154247675Y-119759081D01*
X154378463Y-120074831D01*
X154568337Y-120358998D01*
X154810002Y-120600663D01*
X155094169Y-120790537D01*
X155409919Y-120921325D01*
X155745117Y-120988000D01*
X156086883Y-120988000D01*
X156422081Y-120921325D01*
X156737831Y-120790537D01*
X157021998Y-120600663D01*
X157263663Y-120358998D01*
X157453537Y-120074831D01*
X157584325Y-119759081D01*
X157651000Y-119423883D01*
X157651000Y-119082117D01*
X157584325Y-118746919D01*
X157453537Y-118431169D01*
X157263663Y-118147002D01*
X157021998Y-117905337D01*
X156737831Y-117715463D01*
X156422081Y-117584675D01*
X156086883Y-117518000D01*
X155745117Y-117518000D01*
X155409919Y-117584675D01*
X155094169Y-117715463D01*
X154810002Y-117905337D01*
X154568337Y-118147002D01*
X154378463Y-118431169D01*
X154247675Y-118746919D01*
X154181000Y-119082117D01*
X150151000Y-119082117D01*
X150084325Y-118746919D01*
X149953537Y-118431169D01*
X149763663Y-118147002D01*
X149521998Y-117905337D01*
X149237831Y-117715463D01*
X148922081Y-117584675D01*
X148586883Y-117518000D01*
X148245117Y-117518000D01*
X147909919Y-117584675D01*
X147594169Y-117715463D01*
X147310002Y-117905337D01*
X147068337Y-118147002D01*
X146878463Y-118431169D01*
X146747675Y-118746919D01*
X146681000Y-119082117D01*
X142651000Y-119082117D01*
X142584325Y-118746919D01*
X142453537Y-118431169D01*
X142263663Y-118147002D01*
X142021998Y-117905337D01*
X141737831Y-117715463D01*
X141422081Y-117584675D01*
X141086883Y-117518000D01*
X140745117Y-117518000D01*
X140409919Y-117584675D01*
X140094169Y-117715463D01*
X139810002Y-117905337D01*
X139568337Y-118147002D01*
X139378463Y-118431169D01*
X139247675Y-118746919D01*
X139181000Y-119082117D01*
X112116684Y-119082117D01*
X113069802Y-118129000D01*
X113131939Y-118129000D01*
X113331898Y-118089226D01*
X113520256Y-118011205D01*
X113689774Y-117897937D01*
X113833937Y-117753774D01*
X113947205Y-117584256D01*
X114025226Y-117395898D01*
X114065000Y-117195939D01*
X114065000Y-116992061D01*
X114025226Y-116792102D01*
X113947205Y-116603744D01*
X113833937Y-116434226D01*
X113762755Y-116363044D01*
X114897799Y-115228000D01*
X128559928Y-115228000D01*
X128559928Y-116928000D01*
X128572188Y-117052482D01*
X128608498Y-117172180D01*
X128667463Y-117282494D01*
X128746815Y-117379185D01*
X128843506Y-117458537D01*
X128953820Y-117517502D01*
X129073518Y-117553812D01*
X129198000Y-117566072D01*
X130898000Y-117566072D01*
X131022482Y-117553812D01*
X131142180Y-117517502D01*
X131252494Y-117458537D01*
X131349185Y-117379185D01*
X131428537Y-117282494D01*
X131487502Y-117172180D01*
X131523812Y-117052482D01*
X131536072Y-116928000D01*
X131536072Y-116582117D01*
X141681000Y-116582117D01*
X141681000Y-116923883D01*
X141747675Y-117259081D01*
X141878463Y-117574831D01*
X142068337Y-117858998D01*
X142310002Y-118100663D01*
X142594169Y-118290537D01*
X142909919Y-118421325D01*
X143245117Y-118488000D01*
X143586883Y-118488000D01*
X143922081Y-118421325D01*
X144237831Y-118290537D01*
X144521998Y-118100663D01*
X144763663Y-117858998D01*
X144953537Y-117574831D01*
X145084325Y-117259081D01*
X145151000Y-116923883D01*
X145151000Y-116582117D01*
X151681000Y-116582117D01*
X151681000Y-116923883D01*
X151747675Y-117259081D01*
X151878463Y-117574831D01*
X152068337Y-117858998D01*
X152310002Y-118100663D01*
X152594169Y-118290537D01*
X152909919Y-118421325D01*
X153245117Y-118488000D01*
X153586883Y-118488000D01*
X153922081Y-118421325D01*
X154237831Y-118290537D01*
X154521998Y-118100663D01*
X154763663Y-117858998D01*
X154953537Y-117574831D01*
X155084325Y-117259081D01*
X155151000Y-116923883D01*
X155151000Y-116582117D01*
X155084325Y-116246919D01*
X154953537Y-115931169D01*
X154763663Y-115647002D01*
X154521998Y-115405337D01*
X154237831Y-115215463D01*
X153922081Y-115084675D01*
X153586883Y-115018000D01*
X153245117Y-115018000D01*
X152909919Y-115084675D01*
X152594169Y-115215463D01*
X152310002Y-115405337D01*
X152068337Y-115647002D01*
X151878463Y-115931169D01*
X151747675Y-116246919D01*
X151681000Y-116582117D01*
X145151000Y-116582117D01*
X145084325Y-116246919D01*
X144953537Y-115931169D01*
X144763663Y-115647002D01*
X144521998Y-115405337D01*
X144237831Y-115215463D01*
X143922081Y-115084675D01*
X143586883Y-115018000D01*
X143245117Y-115018000D01*
X142909919Y-115084675D01*
X142594169Y-115215463D01*
X142310002Y-115405337D01*
X142068337Y-115647002D01*
X141878463Y-115931169D01*
X141747675Y-116246919D01*
X141681000Y-116582117D01*
X131536072Y-116582117D01*
X131536072Y-115228000D01*
X131523812Y-115103518D01*
X131487502Y-114983820D01*
X131428537Y-114873506D01*
X131349185Y-114776815D01*
X131252494Y-114697463D01*
X131142180Y-114638498D01*
X131022482Y-114602188D01*
X130898000Y-114589928D01*
X129198000Y-114589928D01*
X129073518Y-114602188D01*
X128953820Y-114638498D01*
X128843506Y-114697463D01*
X128746815Y-114776815D01*
X128667463Y-114873506D01*
X128608498Y-114983820D01*
X128572188Y-115103518D01*
X128559928Y-115228000D01*
X114897799Y-115228000D01*
X115552800Y-114573000D01*
X115671939Y-114573000D01*
X115871898Y-114533226D01*
X116060256Y-114455205D01*
X116229774Y-114341937D01*
X116373937Y-114197774D01*
X116487205Y-114028256D01*
X116565226Y-113839898D01*
X116605000Y-113639939D01*
X116605000Y-113436061D01*
X116565226Y-113236102D01*
X116487205Y-113047744D01*
X116373937Y-112878226D01*
X116229774Y-112734063D01*
X116199181Y-112713621D01*
X117744005Y-111168797D01*
X117818889Y-111191513D01*
X118037050Y-111213000D01*
X118182950Y-111213000D01*
X118401111Y-111191513D01*
X118681034Y-111106599D01*
X118939014Y-110968706D01*
X119165134Y-110783134D01*
X119350706Y-110557014D01*
X119385201Y-110492477D01*
X119454822Y-110609355D01*
X119649731Y-110825588D01*
X119883080Y-110999641D01*
X120145901Y-111124825D01*
X120293110Y-111169476D01*
X120523000Y-111048155D01*
X120523000Y-109855000D01*
X120777000Y-109855000D01*
X120777000Y-111048155D01*
X121006890Y-111169476D01*
X121154099Y-111124825D01*
X121416920Y-110999641D01*
X121650269Y-110825588D01*
X121845178Y-110609355D01*
X121920000Y-110483745D01*
X121994822Y-110609355D01*
X122189731Y-110825588D01*
X122423080Y-110999641D01*
X122685901Y-111124825D01*
X122833110Y-111169476D01*
X123063000Y-111048155D01*
X123063000Y-109855000D01*
X123317000Y-109855000D01*
X123317000Y-111048155D01*
X123546890Y-111169476D01*
X123694099Y-111124825D01*
X123956920Y-110999641D01*
X124190269Y-110825588D01*
X124385178Y-110609355D01*
X124460000Y-110483745D01*
X124534822Y-110609355D01*
X124729731Y-110825588D01*
X124963080Y-110999641D01*
X125225901Y-111124825D01*
X125373110Y-111169476D01*
X125603000Y-111048155D01*
X125603000Y-109855000D01*
X125857000Y-109855000D01*
X125857000Y-111048155D01*
X126086890Y-111169476D01*
X126234099Y-111124825D01*
X126496920Y-110999641D01*
X126730269Y-110825588D01*
X126925178Y-110609355D01*
X127000000Y-110483745D01*
X127074822Y-110609355D01*
X127269731Y-110825588D01*
X127503080Y-110999641D01*
X127765901Y-111124825D01*
X127913110Y-111169476D01*
X128143000Y-111048155D01*
X128143000Y-109855000D01*
X125857000Y-109855000D01*
X125603000Y-109855000D01*
X123317000Y-109855000D01*
X123063000Y-109855000D01*
X120777000Y-109855000D01*
X120523000Y-109855000D01*
X120503000Y-109855000D01*
X120503000Y-109601000D01*
X120523000Y-109601000D01*
X120523000Y-108407845D01*
X120777000Y-108407845D01*
X120777000Y-109601000D01*
X123063000Y-109601000D01*
X123063000Y-108407845D01*
X123317000Y-108407845D01*
X123317000Y-109601000D01*
X125603000Y-109601000D01*
X125603000Y-108407845D01*
X125857000Y-108407845D01*
X125857000Y-109601000D01*
X128143000Y-109601000D01*
X128143000Y-108407845D01*
X127913110Y-108286524D01*
X127765901Y-108331175D01*
X127503080Y-108456359D01*
X127269731Y-108630412D01*
X127074822Y-108846645D01*
X127000000Y-108972255D01*
X126925178Y-108846645D01*
X126730269Y-108630412D01*
X126496920Y-108456359D01*
X126234099Y-108331175D01*
X126086890Y-108286524D01*
X125857000Y-108407845D01*
X125603000Y-108407845D01*
X125373110Y-108286524D01*
X125225901Y-108331175D01*
X124963080Y-108456359D01*
X124729731Y-108630412D01*
X124534822Y-108846645D01*
X124460000Y-108972255D01*
X124385178Y-108846645D01*
X124190269Y-108630412D01*
X123956920Y-108456359D01*
X123694099Y-108331175D01*
X123546890Y-108286524D01*
X123317000Y-108407845D01*
X123063000Y-108407845D01*
X122833110Y-108286524D01*
X122685901Y-108331175D01*
X122423080Y-108456359D01*
X122189731Y-108630412D01*
X121994822Y-108846645D01*
X121920000Y-108972255D01*
X121845178Y-108846645D01*
X121650269Y-108630412D01*
X121416920Y-108456359D01*
X121154099Y-108331175D01*
X121006890Y-108286524D01*
X120777000Y-108407845D01*
X120523000Y-108407845D01*
X120293110Y-108286524D01*
X120145901Y-108331175D01*
X119883080Y-108456359D01*
X119649731Y-108630412D01*
X119454822Y-108846645D01*
X119385201Y-108963523D01*
X119350706Y-108898986D01*
X119165134Y-108672866D01*
X118939014Y-108487294D01*
X118681034Y-108349401D01*
X118401111Y-108264487D01*
X118182950Y-108243000D01*
X118037050Y-108243000D01*
X117818889Y-108264487D01*
X117538966Y-108349401D01*
X117280986Y-108487294D01*
X117054866Y-108672866D01*
X116869294Y-108898986D01*
X116840000Y-108953791D01*
X116810706Y-108898986D01*
X116625134Y-108672866D01*
X116399014Y-108487294D01*
X116141034Y-108349401D01*
X115861111Y-108264487D01*
X115642950Y-108243000D01*
X115497050Y-108243000D01*
X115278889Y-108264487D01*
X114998966Y-108349401D01*
X114740986Y-108487294D01*
X114514866Y-108672866D01*
X114329294Y-108898986D01*
X114300000Y-108953791D01*
X114270706Y-108898986D01*
X114085134Y-108672866D01*
X113859014Y-108487294D01*
X113601034Y-108349401D01*
X113321111Y-108264487D01*
X113102950Y-108243000D01*
X112957050Y-108243000D01*
X112738889Y-108264487D01*
X112458966Y-108349401D01*
X112200986Y-108487294D01*
X111974866Y-108672866D01*
X111789294Y-108898986D01*
X111754799Y-108963523D01*
X111685178Y-108846645D01*
X111490269Y-108630412D01*
X111256920Y-108456359D01*
X110994099Y-108331175D01*
X110846890Y-108286524D01*
X110617000Y-108407845D01*
X110617000Y-109601000D01*
X110637000Y-109601000D01*
X110637000Y-109855000D01*
X110617000Y-109855000D01*
X110617000Y-111048155D01*
X110846890Y-111169476D01*
X110994099Y-111124825D01*
X111256920Y-110999641D01*
X111490269Y-110825588D01*
X111685178Y-110609355D01*
X111754799Y-110492477D01*
X111789294Y-110557014D01*
X111974866Y-110783134D01*
X112200986Y-110968706D01*
X112458966Y-111106599D01*
X112738889Y-111191513D01*
X112957050Y-111213000D01*
X113102950Y-111213000D01*
X113321111Y-111191513D01*
X113601034Y-111106599D01*
X113859014Y-110968706D01*
X114085134Y-110783134D01*
X114270706Y-110557014D01*
X114300000Y-110502209D01*
X114329294Y-110557014D01*
X114514866Y-110783134D01*
X114740986Y-110968706D01*
X114998966Y-111106599D01*
X115278889Y-111191513D01*
X115497050Y-111213000D01*
X115550198Y-111213000D01*
X108397199Y-118366000D01*
X107195595Y-118366000D01*
X107158706Y-118296986D01*
X106973134Y-118070866D01*
X106943313Y-118046393D01*
X107012180Y-118025502D01*
X107122494Y-117966537D01*
X107219185Y-117887185D01*
X107298537Y-117790494D01*
X107357502Y-117680180D01*
X107393812Y-117560482D01*
X107406072Y-117436000D01*
X107403000Y-116871750D01*
X107244250Y-116713000D01*
X106045000Y-116713000D01*
X106045000Y-116733000D01*
X105791000Y-116733000D01*
X105791000Y-116713000D01*
X105771000Y-116713000D01*
X105771000Y-116459000D01*
X105791000Y-116459000D01*
X105791000Y-115259750D01*
X106045000Y-115259750D01*
X106045000Y-116459000D01*
X107244250Y-116459000D01*
X107403000Y-116300250D01*
X107406072Y-115736000D01*
X107393812Y-115611518D01*
X107357502Y-115491820D01*
X107298537Y-115381506D01*
X107219185Y-115284815D01*
X107122494Y-115205463D01*
X107012180Y-115146498D01*
X106892482Y-115110188D01*
X106768000Y-115097928D01*
X106203750Y-115101000D01*
X106045000Y-115259750D01*
X105791000Y-115259750D01*
X105632250Y-115101000D01*
X105068000Y-115097928D01*
X104976200Y-115106969D01*
X104976200Y-109728000D01*
X106457815Y-109728000D01*
X106486487Y-110019111D01*
X106571401Y-110299034D01*
X106709294Y-110557014D01*
X106894866Y-110783134D01*
X107120986Y-110968706D01*
X107378966Y-111106599D01*
X107658889Y-111191513D01*
X107877050Y-111213000D01*
X108022950Y-111213000D01*
X108241111Y-111191513D01*
X108521034Y-111106599D01*
X108779014Y-110968706D01*
X109005134Y-110783134D01*
X109190706Y-110557014D01*
X109225201Y-110492477D01*
X109294822Y-110609355D01*
X109489731Y-110825588D01*
X109723080Y-110999641D01*
X109985901Y-111124825D01*
X110133110Y-111169476D01*
X110363000Y-111048155D01*
X110363000Y-109855000D01*
X110343000Y-109855000D01*
X110343000Y-109601000D01*
X110363000Y-109601000D01*
X110363000Y-108407845D01*
X110133110Y-108286524D01*
X109985901Y-108331175D01*
X109723080Y-108456359D01*
X109489731Y-108630412D01*
X109294822Y-108846645D01*
X109225201Y-108963523D01*
X109190706Y-108898986D01*
X109005134Y-108672866D01*
X108779014Y-108487294D01*
X108521034Y-108349401D01*
X108241111Y-108264487D01*
X108022950Y-108243000D01*
X107877050Y-108243000D01*
X107658889Y-108264487D01*
X107378966Y-108349401D01*
X107120986Y-108487294D01*
X106894866Y-108672866D01*
X106709294Y-108898986D01*
X106571401Y-109156966D01*
X106486487Y-109436889D01*
X106457815Y-109728000D01*
X104976200Y-109728000D01*
X104976200Y-106550694D01*
X105036645Y-106605178D01*
X105286748Y-106754157D01*
X105561109Y-106851481D01*
X105791000Y-106730814D01*
X105791000Y-105537000D01*
X106045000Y-105537000D01*
X106045000Y-106730814D01*
X106274891Y-106851481D01*
X106549252Y-106754157D01*
X106799355Y-106605178D01*
X107015588Y-106410269D01*
X107189641Y-106176920D01*
X107314825Y-105914099D01*
X107359476Y-105766890D01*
X107238155Y-105537000D01*
X106045000Y-105537000D01*
X105791000Y-105537000D01*
X105771000Y-105537000D01*
X105771000Y-105283000D01*
X105791000Y-105283000D01*
X105791000Y-105263000D01*
X106045000Y-105263000D01*
X106045000Y-105283000D01*
X107238155Y-105283000D01*
X107359476Y-105053110D01*
X107314825Y-104905901D01*
X107189641Y-104643080D01*
X107015588Y-104409731D01*
X106799355Y-104214822D01*
X106682477Y-104145201D01*
X106747014Y-104110706D01*
X106973134Y-103925134D01*
X107158706Y-103699014D01*
X107195595Y-103630000D01*
X124251459Y-103630000D01*
X124232180Y-103693558D01*
X124225457Y-103715723D01*
X124218998Y-103737015D01*
X124204324Y-103886000D01*
X124208001Y-103923332D01*
X124208001Y-104132405D01*
X124138986Y-104169294D01*
X123912866Y-104354866D01*
X123727294Y-104580986D01*
X123698000Y-104635791D01*
X123668706Y-104580986D01*
X123483134Y-104354866D01*
X123257014Y-104169294D01*
X122999034Y-104031401D01*
X122719111Y-103946487D01*
X122500950Y-103925000D01*
X122355050Y-103925000D01*
X122136889Y-103946487D01*
X121856966Y-104031401D01*
X121598986Y-104169294D01*
X121372866Y-104354866D01*
X121348393Y-104384687D01*
X121327502Y-104315820D01*
X121268537Y-104205506D01*
X121189185Y-104108815D01*
X121092494Y-104029463D01*
X120982180Y-103970498D01*
X120862482Y-103934188D01*
X120738000Y-103921928D01*
X119038000Y-103921928D01*
X118913518Y-103934188D01*
X118793820Y-103970498D01*
X118683506Y-104029463D01*
X118586815Y-104108815D01*
X118507463Y-104205506D01*
X118448498Y-104315820D01*
X118412188Y-104435518D01*
X118399928Y-104560000D01*
X118399928Y-106260000D01*
X118412188Y-106384482D01*
X118448498Y-106504180D01*
X118507463Y-106614494D01*
X118586815Y-106711185D01*
X118683506Y-106790537D01*
X118793820Y-106849502D01*
X118913518Y-106885812D01*
X119038000Y-106898072D01*
X120738000Y-106898072D01*
X120862482Y-106885812D01*
X120982180Y-106849502D01*
X121092494Y-106790537D01*
X121189185Y-106711185D01*
X121268537Y-106614494D01*
X121327502Y-106504180D01*
X121348393Y-106435313D01*
X121372866Y-106465134D01*
X121598986Y-106650706D01*
X121856966Y-106788599D01*
X122136889Y-106873513D01*
X122355050Y-106895000D01*
X122500950Y-106895000D01*
X122719111Y-106873513D01*
X122999034Y-106788599D01*
X123257014Y-106650706D01*
X123483134Y-106465134D01*
X123668706Y-106239014D01*
X123698000Y-106184209D01*
X123727294Y-106239014D01*
X123912866Y-106465134D01*
X124138986Y-106650706D01*
X124396966Y-106788599D01*
X124676889Y-106873513D01*
X124895050Y-106895000D01*
X125040950Y-106895000D01*
X125259111Y-106873513D01*
X125539034Y-106788599D01*
X125797014Y-106650706D01*
X126023134Y-106465134D01*
X126208706Y-106239014D01*
X126243201Y-106174477D01*
X126312822Y-106291355D01*
X126507731Y-106507588D01*
X126741080Y-106681641D01*
X127003901Y-106806825D01*
X127151110Y-106851476D01*
X127381000Y-106730155D01*
X127381000Y-105537000D01*
X127635000Y-105537000D01*
X127635000Y-106730155D01*
X127864890Y-106851476D01*
X128012099Y-106806825D01*
X128274920Y-106681641D01*
X128508269Y-106507588D01*
X128703178Y-106291355D01*
X128852157Y-106041252D01*
X128949481Y-105766891D01*
X128828814Y-105537000D01*
X127635000Y-105537000D01*
X127381000Y-105537000D01*
X127361000Y-105537000D01*
X127361000Y-105283000D01*
X127381000Y-105283000D01*
X127381000Y-104089845D01*
X127151110Y-103968524D01*
X127003901Y-104013175D01*
X126741080Y-104138359D01*
X126507731Y-104312412D01*
X126312822Y-104528645D01*
X126243201Y-104645523D01*
X126208706Y-104580986D01*
X126023134Y-104354866D01*
X125797014Y-104169294D01*
X125772572Y-104156229D01*
X126298802Y-103630000D01*
X127277199Y-103630000D01*
X127701794Y-104054595D01*
X127635000Y-104089845D01*
X127635000Y-105283000D01*
X128828814Y-105283000D01*
X128863712Y-105216513D01*
X132062655Y-108415457D01*
X132048815Y-108426815D01*
X131969463Y-108523506D01*
X131910498Y-108633820D01*
X131889607Y-108702687D01*
X131865134Y-108672866D01*
X131639014Y-108487294D01*
X131381034Y-108349401D01*
X131101111Y-108264487D01*
X130882950Y-108243000D01*
X130737050Y-108243000D01*
X130518889Y-108264487D01*
X130238966Y-108349401D01*
X129980986Y-108487294D01*
X129754866Y-108672866D01*
X129569294Y-108898986D01*
X129534799Y-108963523D01*
X129465178Y-108846645D01*
X129270269Y-108630412D01*
X129036920Y-108456359D01*
X128774099Y-108331175D01*
X128626890Y-108286524D01*
X128397000Y-108407845D01*
X128397000Y-109601000D01*
X128417000Y-109601000D01*
X128417000Y-109855000D01*
X128397000Y-109855000D01*
X128397000Y-111048155D01*
X128626890Y-111169476D01*
X128774099Y-111124825D01*
X129036920Y-110999641D01*
X129270269Y-110825588D01*
X129465178Y-110609355D01*
X129534799Y-110492477D01*
X129569294Y-110557014D01*
X129754866Y-110783134D01*
X129980986Y-110968706D01*
X130238966Y-111106599D01*
X130518889Y-111191513D01*
X130737050Y-111213000D01*
X130882950Y-111213000D01*
X131101111Y-111191513D01*
X131381034Y-111106599D01*
X131639014Y-110968706D01*
X131865134Y-110783134D01*
X131889607Y-110753313D01*
X131910498Y-110822180D01*
X131969463Y-110932494D01*
X132048815Y-111029185D01*
X132145506Y-111108537D01*
X132255820Y-111167502D01*
X132375518Y-111203812D01*
X132500000Y-111216072D01*
X134200000Y-111216072D01*
X134324482Y-111203812D01*
X134444180Y-111167502D01*
X134554494Y-111108537D01*
X134651185Y-111029185D01*
X134676777Y-110998000D01*
X138258057Y-110998000D01*
X138285764Y-111279309D01*
X138367818Y-111549808D01*
X138501068Y-111799101D01*
X138680392Y-112017608D01*
X138898899Y-112196932D01*
X139148192Y-112330182D01*
X139418691Y-112412236D01*
X139629508Y-112433000D01*
X139770492Y-112433000D01*
X139981309Y-112412236D01*
X140251808Y-112330182D01*
X140501101Y-112196932D01*
X140719608Y-112017608D01*
X140898932Y-111799101D01*
X141032182Y-111549808D01*
X141114236Y-111279309D01*
X141141943Y-110998000D01*
X155530057Y-110998000D01*
X155557764Y-111279309D01*
X155639818Y-111549808D01*
X155773068Y-111799101D01*
X155952392Y-112017608D01*
X156170899Y-112196932D01*
X156420192Y-112330182D01*
X156690691Y-112412236D01*
X156901508Y-112433000D01*
X157042492Y-112433000D01*
X157253309Y-112412236D01*
X157523808Y-112330182D01*
X157773101Y-112196932D01*
X157991608Y-112017608D01*
X158170932Y-111799101D01*
X158304182Y-111549808D01*
X158386236Y-111279309D01*
X158413943Y-110998000D01*
X158386236Y-110716691D01*
X158304182Y-110446192D01*
X158170932Y-110196899D01*
X157991608Y-109978392D01*
X157773101Y-109799068D01*
X157523808Y-109665818D01*
X157253309Y-109583764D01*
X157042492Y-109563000D01*
X156901508Y-109563000D01*
X156690691Y-109583764D01*
X156420192Y-109665818D01*
X156170899Y-109799068D01*
X155952392Y-109978392D01*
X155773068Y-110196899D01*
X155639818Y-110446192D01*
X155557764Y-110716691D01*
X155530057Y-110998000D01*
X141141943Y-110998000D01*
X141114236Y-110716691D01*
X141032182Y-110446192D01*
X140898932Y-110196899D01*
X140719608Y-109978392D01*
X140501101Y-109799068D01*
X140251808Y-109665818D01*
X139981309Y-109583764D01*
X139770492Y-109563000D01*
X139629508Y-109563000D01*
X139418691Y-109583764D01*
X139148192Y-109665818D01*
X138898899Y-109799068D01*
X138680392Y-109978392D01*
X138501068Y-110196899D01*
X138367818Y-110446192D01*
X138285764Y-110716691D01*
X138258057Y-110998000D01*
X134676777Y-110998000D01*
X134730537Y-110932494D01*
X134789502Y-110822180D01*
X134825812Y-110702482D01*
X134838072Y-110578000D01*
X134838072Y-108878000D01*
X134825812Y-108753518D01*
X134789502Y-108633820D01*
X134730537Y-108523506D01*
X134651185Y-108426815D01*
X134554494Y-108347463D01*
X134444180Y-108288498D01*
X134324482Y-108252188D01*
X134200000Y-108239928D01*
X134004326Y-108239928D01*
X133984974Y-108203724D01*
X133890001Y-108087999D01*
X133861003Y-108064201D01*
X133454802Y-107658000D01*
X144437928Y-107658000D01*
X144437928Y-109258000D01*
X144450188Y-109382482D01*
X144486498Y-109502180D01*
X144545463Y-109612494D01*
X144624815Y-109709185D01*
X144721506Y-109788537D01*
X144831820Y-109847502D01*
X144951518Y-109883812D01*
X145076000Y-109896072D01*
X146676000Y-109896072D01*
X146800482Y-109883812D01*
X146920180Y-109847502D01*
X147030494Y-109788537D01*
X147127185Y-109709185D01*
X147206537Y-109612494D01*
X147265502Y-109502180D01*
X147301812Y-109382482D01*
X147303581Y-109364518D01*
X147396392Y-109477608D01*
X147614899Y-109656932D01*
X147864192Y-109790182D01*
X148134691Y-109872236D01*
X148345508Y-109893000D01*
X148486492Y-109893000D01*
X148697309Y-109872236D01*
X148967808Y-109790182D01*
X149217101Y-109656932D01*
X149435608Y-109477608D01*
X149614932Y-109259101D01*
X149686000Y-109126142D01*
X149757068Y-109259101D01*
X149936392Y-109477608D01*
X150154899Y-109656932D01*
X150404192Y-109790182D01*
X150674691Y-109872236D01*
X150885508Y-109893000D01*
X151026492Y-109893000D01*
X151237309Y-109872236D01*
X151507808Y-109790182D01*
X151757101Y-109656932D01*
X151975608Y-109477608D01*
X152154932Y-109259101D01*
X152288182Y-109009808D01*
X152370236Y-108739309D01*
X152397943Y-108458000D01*
X152370236Y-108176691D01*
X152288182Y-107906192D01*
X152154932Y-107656899D01*
X151975608Y-107438392D01*
X151757101Y-107259068D01*
X151507808Y-107125818D01*
X151237309Y-107043764D01*
X151026492Y-107023000D01*
X150885508Y-107023000D01*
X150674691Y-107043764D01*
X150404192Y-107125818D01*
X150154899Y-107259068D01*
X149936392Y-107438392D01*
X149757068Y-107656899D01*
X149686000Y-107789858D01*
X149614932Y-107656899D01*
X149435608Y-107438392D01*
X149217101Y-107259068D01*
X148967808Y-107125818D01*
X148697309Y-107043764D01*
X148486492Y-107023000D01*
X148345508Y-107023000D01*
X148134691Y-107043764D01*
X147864192Y-107125818D01*
X147614899Y-107259068D01*
X147396392Y-107438392D01*
X147303581Y-107551482D01*
X147301812Y-107533518D01*
X147265502Y-107413820D01*
X147206537Y-107303506D01*
X147127185Y-107206815D01*
X147030494Y-107127463D01*
X146920180Y-107068498D01*
X146800482Y-107032188D01*
X146676000Y-107019928D01*
X145076000Y-107019928D01*
X144951518Y-107032188D01*
X144831820Y-107068498D01*
X144721506Y-107127463D01*
X144624815Y-107206815D01*
X144545463Y-107303506D01*
X144486498Y-107413820D01*
X144450188Y-107533518D01*
X144437928Y-107658000D01*
X133454802Y-107658000D01*
X128666801Y-102870000D01*
X130559003Y-100977799D01*
X130588001Y-100954001D01*
X130682974Y-100838276D01*
X130753546Y-100706247D01*
X130797003Y-100562986D01*
X130808000Y-100451333D01*
X130811677Y-100414000D01*
X130808000Y-100376667D01*
X130808000Y-100038000D01*
X138261928Y-100038000D01*
X138261928Y-101638000D01*
X138274188Y-101762482D01*
X138310498Y-101882180D01*
X138369463Y-101992494D01*
X138448815Y-102089185D01*
X138545506Y-102168537D01*
X138655820Y-102227502D01*
X138775518Y-102263812D01*
X138900000Y-102276072D01*
X140500000Y-102276072D01*
X140624482Y-102263812D01*
X140744180Y-102227502D01*
X140854494Y-102168537D01*
X140951185Y-102089185D01*
X141030537Y-101992494D01*
X141089502Y-101882180D01*
X141125812Y-101762482D01*
X141138072Y-101638000D01*
X141138072Y-100038000D01*
X141125812Y-99913518D01*
X141089502Y-99793820D01*
X141030537Y-99683506D01*
X140951185Y-99586815D01*
X140854494Y-99507463D01*
X140744180Y-99448498D01*
X140624482Y-99412188D01*
X140500000Y-99399928D01*
X138900000Y-99399928D01*
X138775518Y-99412188D01*
X138655820Y-99448498D01*
X138545506Y-99507463D01*
X138448815Y-99586815D01*
X138369463Y-99683506D01*
X138310498Y-99793820D01*
X138274188Y-99913518D01*
X138261928Y-100038000D01*
X130808000Y-100038000D01*
X130808000Y-95511595D01*
X130877014Y-95474706D01*
X131103134Y-95289134D01*
X131288706Y-95063014D01*
X131318000Y-95008209D01*
X131347294Y-95063014D01*
X131532866Y-95289134D01*
X131758986Y-95474706D01*
X131831971Y-95513717D01*
X131838998Y-95585067D01*
X131852180Y-95628523D01*
X131882454Y-95728327D01*
X131953026Y-95860357D01*
X132024201Y-95947083D01*
X132048000Y-95976082D01*
X132076998Y-95999880D01*
X134124120Y-98047003D01*
X134147918Y-98076001D01*
X134176916Y-98099799D01*
X134263642Y-98170974D01*
X134395672Y-98241546D01*
X134538933Y-98285003D01*
X134650586Y-98296000D01*
X134650596Y-98296000D01*
X134687919Y-98299676D01*
X134725242Y-98296000D01*
X144654157Y-98296000D01*
X144757563Y-98450759D01*
X144957441Y-98650637D01*
X145112200Y-98754044D01*
X145112201Y-99619130D01*
X145074899Y-99639068D01*
X144856392Y-99818392D01*
X144677068Y-100036899D01*
X144543818Y-100286192D01*
X144461764Y-100556691D01*
X144434057Y-100838000D01*
X144461764Y-101119309D01*
X144543818Y-101389808D01*
X144677068Y-101639101D01*
X144856392Y-101857608D01*
X145074899Y-102036932D01*
X145324192Y-102170182D01*
X145594691Y-102252236D01*
X145805508Y-102273000D01*
X145946492Y-102273000D01*
X146157309Y-102252236D01*
X146201906Y-102238708D01*
X148614200Y-104651002D01*
X148637999Y-104680001D01*
X148753724Y-104774974D01*
X148885753Y-104845546D01*
X149029014Y-104889003D01*
X149140667Y-104900000D01*
X149140676Y-104900000D01*
X149177999Y-104903676D01*
X149215322Y-104900000D01*
X157673199Y-104900000D01*
X158294289Y-105521091D01*
X158294288Y-109131365D01*
X158290612Y-109168688D01*
X158294288Y-109206010D01*
X158294288Y-109206020D01*
X158305285Y-109317673D01*
X158341104Y-109435754D01*
X158348742Y-109460934D01*
X158419314Y-109592964D01*
X158459159Y-109641514D01*
X158514287Y-109708689D01*
X158543291Y-109732492D01*
X159484912Y-110674114D01*
X159448600Y-110856665D01*
X159448600Y-111139335D01*
X159503747Y-111416574D01*
X159611920Y-111677727D01*
X159768963Y-111912759D01*
X159968841Y-112112637D01*
X160203873Y-112269680D01*
X160465026Y-112377853D01*
X160742265Y-112433000D01*
X161024935Y-112433000D01*
X161302174Y-112377853D01*
X161563327Y-112269680D01*
X161798359Y-112112637D01*
X161998237Y-111912759D01*
X162155280Y-111677727D01*
X162263453Y-111416574D01*
X162318600Y-111139335D01*
X162318600Y-110856665D01*
X162282288Y-110674114D01*
X162406176Y-110550226D01*
X162407998Y-128117960D01*
X162389500Y-128361195D01*
X162389500Y-128037721D01*
X162307453Y-127625244D01*
X162146512Y-127236698D01*
X161912863Y-126887017D01*
X161615483Y-126589637D01*
X161265802Y-126355988D01*
X160877256Y-126195047D01*
X160464779Y-126113000D01*
X160044221Y-126113000D01*
X159631744Y-126195047D01*
X159243198Y-126355988D01*
X158893517Y-126589637D01*
X158596137Y-126887017D01*
X158362488Y-127236698D01*
X158201547Y-127625244D01*
X158119500Y-128037721D01*
X158119500Y-128458279D01*
X158201547Y-128870756D01*
X158362488Y-129259302D01*
X158596137Y-129608983D01*
X158893517Y-129906363D01*
X159243198Y-130140012D01*
X159631744Y-130300953D01*
X160044221Y-130383000D01*
X160464779Y-130383000D01*
X160877256Y-130300953D01*
X161265802Y-130140012D01*
X161615483Y-129906363D01*
X161912863Y-129608983D01*
X162146512Y-129259302D01*
X162307453Y-128870756D01*
X162377547Y-128518373D01*
X162362684Y-128713800D01*
X162213123Y-129251311D01*
X161962010Y-129749532D01*
X161618909Y-130189487D01*
X161196884Y-130554424D01*
X160712013Y-130830440D01*
X160182766Y-131007020D01*
X159611850Y-131079659D01*
X122138072Y-131099552D01*
X122138072Y-129452000D01*
X122125812Y-129327518D01*
X122089502Y-129207820D01*
X122030537Y-129097506D01*
X121951185Y-129000815D01*
X121854494Y-128921463D01*
X121744180Y-128862498D01*
X121624482Y-128826188D01*
X121500000Y-128813928D01*
X119800000Y-128813928D01*
X119675518Y-128826188D01*
X119555820Y-128862498D01*
X119445506Y-128921463D01*
X119348815Y-129000815D01*
X119269463Y-129097506D01*
X119210498Y-129207820D01*
X119174188Y-129327518D01*
X119161928Y-129452000D01*
X119161928Y-131101132D01*
X102261384Y-131110104D01*
X101680191Y-131053183D01*
X101151081Y-130893499D01*
X100663068Y-130634088D01*
X100234730Y-130284824D01*
X99882393Y-129859020D01*
X99619471Y-129372885D01*
X99455980Y-128844941D01*
X99395006Y-128265426D01*
X99404283Y-79380630D01*
X99449604Y-78784700D01*
X99599164Y-78247192D01*
X99850278Y-77748968D01*
X100193379Y-77309013D01*
X100615403Y-76944077D01*
X101100272Y-76668061D01*
X101629519Y-76491481D01*
X102206795Y-76418032D01*
X128012618Y-76413456D01*
X128009527Y-76417223D01*
G36*
X159735568Y-76864200D02*
G01*
X159817172Y-76872153D01*
X159898459Y-76882875D01*
X159979363Y-76896359D01*
X160059675Y-76912567D01*
X160139489Y-76931520D01*
X160218556Y-76953158D01*
X160296828Y-76977467D01*
X160374261Y-77004434D01*
X160450730Y-77034016D01*
X160526153Y-77066181D01*
X160600412Y-77100880D01*
X160673501Y-77138110D01*
X160719845Y-77163736D01*
X160464779Y-77113000D01*
X160044221Y-77113000D01*
X159631744Y-77195047D01*
X159243198Y-77355988D01*
X158893517Y-77589637D01*
X158596137Y-77887017D01*
X158362488Y-78236698D01*
X158201547Y-78625244D01*
X158119500Y-79037721D01*
X158119500Y-79458279D01*
X158201547Y-79870756D01*
X158362488Y-80259302D01*
X158596137Y-80608983D01*
X158893517Y-80906363D01*
X159243198Y-81140012D01*
X159631744Y-81300953D01*
X160044221Y-81383000D01*
X160464779Y-81383000D01*
X160877256Y-81300953D01*
X161265802Y-81140012D01*
X161615483Y-80906363D01*
X161912863Y-80608983D01*
X161952912Y-80549045D01*
X161952913Y-99878957D01*
X161903208Y-99818392D01*
X161684701Y-99639068D01*
X161435408Y-99505818D01*
X161164909Y-99423764D01*
X160954092Y-99403000D01*
X160813108Y-99403000D01*
X160602291Y-99423764D01*
X160331792Y-99505818D01*
X160082499Y-99639068D01*
X159863992Y-99818392D01*
X159684668Y-100036899D01*
X159551418Y-100286192D01*
X159469364Y-100556691D01*
X159441657Y-100838000D01*
X159469364Y-101119309D01*
X159551418Y-101389808D01*
X159684668Y-101639101D01*
X159863992Y-101857608D01*
X160082499Y-102036932D01*
X160331792Y-102170182D01*
X160602291Y-102252236D01*
X160813108Y-102273000D01*
X160954092Y-102273000D01*
X161164909Y-102252236D01*
X161435408Y-102170182D01*
X161684701Y-102036932D01*
X161903208Y-101857608D01*
X161952913Y-101797043D01*
X161952913Y-108853885D01*
X161207486Y-109599312D01*
X161024935Y-109563000D01*
X160742265Y-109563000D01*
X160559714Y-109599312D01*
X159814288Y-108853887D01*
X159814288Y-105243611D01*
X159817964Y-105206288D01*
X159814288Y-105168965D01*
X159814288Y-105168955D01*
X159803291Y-105057302D01*
X159759834Y-104914041D01*
X159719705Y-104838966D01*
X159689262Y-104782011D01*
X159618087Y-104695285D01*
X159594289Y-104666287D01*
X159565291Y-104642489D01*
X158551804Y-103629002D01*
X158528001Y-103599999D01*
X158412276Y-103505026D01*
X158280247Y-103434454D01*
X158136986Y-103390997D01*
X158025333Y-103380000D01*
X158025322Y-103380000D01*
X157988000Y-103376324D01*
X157950678Y-103380000D01*
X149492802Y-103380000D01*
X148244929Y-102132128D01*
X148289000Y-102107915D01*
X148289000Y-100965000D01*
X148269000Y-100965000D01*
X148269000Y-100711000D01*
X148289000Y-100711000D01*
X148289000Y-99568085D01*
X148543000Y-99568085D01*
X148543000Y-100711000D01*
X148563000Y-100711000D01*
X148563000Y-100965000D01*
X148543000Y-100965000D01*
X148543000Y-102107915D01*
X148765039Y-102229904D01*
X148899087Y-102189246D01*
X149153420Y-102069037D01*
X149379414Y-101901519D01*
X149568385Y-101693131D01*
X149683421Y-101501318D01*
X149757068Y-101639101D01*
X149936392Y-101857608D01*
X150154899Y-102036932D01*
X150404192Y-102170182D01*
X150674691Y-102252236D01*
X150885508Y-102273000D01*
X151026492Y-102273000D01*
X151237309Y-102252236D01*
X151507808Y-102170182D01*
X151757101Y-102036932D01*
X151975608Y-101857608D01*
X152154932Y-101639101D01*
X152288182Y-101389808D01*
X152370236Y-101119309D01*
X152397943Y-100838000D01*
X152384023Y-100696665D01*
X155537000Y-100696665D01*
X155537000Y-100979335D01*
X155592147Y-101256574D01*
X155700320Y-101517727D01*
X155857363Y-101752759D01*
X156057241Y-101952637D01*
X156292273Y-102109680D01*
X156553426Y-102217853D01*
X156830665Y-102273000D01*
X157113335Y-102273000D01*
X157390574Y-102217853D01*
X157651727Y-102109680D01*
X157886759Y-101952637D01*
X158086637Y-101752759D01*
X158243680Y-101517727D01*
X158351853Y-101256574D01*
X158407000Y-100979335D01*
X158407000Y-100696665D01*
X158351853Y-100419426D01*
X158243680Y-100158273D01*
X158086637Y-99923241D01*
X157886759Y-99723363D01*
X157651727Y-99566320D01*
X157390574Y-99458147D01*
X157113335Y-99403000D01*
X156830665Y-99403000D01*
X156553426Y-99458147D01*
X156292273Y-99566320D01*
X156057241Y-99723363D01*
X155857363Y-99923241D01*
X155700320Y-100158273D01*
X155592147Y-100419426D01*
X155537000Y-100696665D01*
X152384023Y-100696665D01*
X152370236Y-100556691D01*
X152288182Y-100286192D01*
X152154932Y-100036899D01*
X151975608Y-99818392D01*
X151757101Y-99639068D01*
X151507808Y-99505818D01*
X151237309Y-99423764D01*
X151026492Y-99403000D01*
X150885508Y-99403000D01*
X150674691Y-99423764D01*
X150404192Y-99505818D01*
X150154899Y-99639068D01*
X149936392Y-99818392D01*
X149757068Y-100036899D01*
X149683421Y-100174682D01*
X149568385Y-99982869D01*
X149379414Y-99774481D01*
X149153420Y-99606963D01*
X148899087Y-99486754D01*
X148765039Y-99446096D01*
X148543000Y-99568085D01*
X148289000Y-99568085D01*
X148066961Y-99446096D01*
X147932913Y-99486754D01*
X147678580Y-99606963D01*
X147452586Y-99774481D01*
X147263615Y-99982869D01*
X147148579Y-100174682D01*
X147074932Y-100036899D01*
X146895608Y-99818392D01*
X146677101Y-99639068D01*
X146632200Y-99615068D01*
X146632200Y-98754043D01*
X146786959Y-98650637D01*
X146908894Y-98528702D01*
X150059103Y-98528702D01*
X150130686Y-98772671D01*
X150386196Y-98893571D01*
X150660384Y-98962300D01*
X150942712Y-98976217D01*
X151222330Y-98934787D01*
X151488492Y-98839603D01*
X151613714Y-98772671D01*
X151685297Y-98528702D01*
X150872200Y-97715605D01*
X150059103Y-98528702D01*
X146908894Y-98528702D01*
X146986837Y-98450759D01*
X147143880Y-98215727D01*
X147252053Y-97954574D01*
X147307200Y-97677335D01*
X147307200Y-97606512D01*
X149431983Y-97606512D01*
X149473413Y-97886130D01*
X149568597Y-98152292D01*
X149635529Y-98277514D01*
X149879498Y-98349097D01*
X150692595Y-97536000D01*
X151051805Y-97536000D01*
X151864902Y-98349097D01*
X152108871Y-98277514D01*
X152229771Y-98022004D01*
X152298500Y-97747816D01*
X152312417Y-97465488D01*
X152270987Y-97185870D01*
X152175803Y-96919708D01*
X152108871Y-96794486D01*
X151864902Y-96722903D01*
X151051805Y-97536000D01*
X150692595Y-97536000D01*
X149879498Y-96722903D01*
X149635529Y-96794486D01*
X149514629Y-97049996D01*
X149445900Y-97324184D01*
X149431983Y-97606512D01*
X147307200Y-97606512D01*
X147307200Y-97394665D01*
X147252053Y-97117426D01*
X147143880Y-96856273D01*
X146986837Y-96621241D01*
X146908894Y-96543298D01*
X150059103Y-96543298D01*
X150872200Y-97356395D01*
X151685297Y-96543298D01*
X151613714Y-96299329D01*
X151358204Y-96178429D01*
X151084016Y-96109700D01*
X150801688Y-96095783D01*
X150522070Y-96137213D01*
X150255908Y-96232397D01*
X150130686Y-96299329D01*
X150059103Y-96543298D01*
X146908894Y-96543298D01*
X146786959Y-96421363D01*
X146551927Y-96264320D01*
X146290774Y-96156147D01*
X146013535Y-96101000D01*
X145730865Y-96101000D01*
X145453626Y-96156147D01*
X145192473Y-96264320D01*
X144957441Y-96421363D01*
X144757563Y-96621241D01*
X144654157Y-96776000D01*
X135002721Y-96776000D01*
X133573226Y-95346506D01*
X133643134Y-95289134D01*
X133828706Y-95063014D01*
X133863201Y-94998477D01*
X133932822Y-95115355D01*
X134127731Y-95331588D01*
X134361080Y-95505641D01*
X134623901Y-95630825D01*
X134771110Y-95675476D01*
X135001000Y-95554155D01*
X135001000Y-94361000D01*
X135255000Y-94361000D01*
X135255000Y-95554155D01*
X135484890Y-95675476D01*
X135632099Y-95630825D01*
X135894920Y-95505641D01*
X136128269Y-95331588D01*
X136323178Y-95115355D01*
X136472157Y-94865252D01*
X136569481Y-94590891D01*
X136448814Y-94361000D01*
X135255000Y-94361000D01*
X135001000Y-94361000D01*
X134981000Y-94361000D01*
X134981000Y-94107000D01*
X135001000Y-94107000D01*
X135001000Y-94087000D01*
X135255000Y-94087000D01*
X135255000Y-94107000D01*
X136448814Y-94107000D01*
X136569481Y-93877109D01*
X136472157Y-93602748D01*
X136323178Y-93352645D01*
X136200008Y-93216000D01*
X145250678Y-93216000D01*
X145288000Y-93219676D01*
X145325322Y-93216000D01*
X145325333Y-93216000D01*
X145436986Y-93205003D01*
X145580247Y-93161546D01*
X145712276Y-93090974D01*
X145828001Y-92996001D01*
X145851804Y-92966997D01*
X148275504Y-90543298D01*
X148304501Y-90519501D01*
X148351489Y-90462246D01*
X148399474Y-90403777D01*
X148470046Y-90271747D01*
X148480751Y-90236457D01*
X148513503Y-90128486D01*
X148524500Y-90016833D01*
X148524500Y-90016823D01*
X148528176Y-89979500D01*
X148524500Y-89942177D01*
X148524500Y-81826245D01*
X148727069Y-81690893D01*
X148937393Y-81480569D01*
X149034500Y-81335238D01*
X149131607Y-81480569D01*
X149341931Y-81690893D01*
X149589247Y-81856144D01*
X149864049Y-81969971D01*
X150155778Y-82028000D01*
X150453222Y-82028000D01*
X150744951Y-81969971D01*
X151019753Y-81856144D01*
X151267069Y-81690893D01*
X151477393Y-81480569D01*
X151574500Y-81335238D01*
X151671607Y-81480569D01*
X151881931Y-81690893D01*
X152129247Y-81856144D01*
X152404049Y-81969971D01*
X152695778Y-82028000D01*
X152993222Y-82028000D01*
X153284951Y-81969971D01*
X153559753Y-81856144D01*
X153807069Y-81690893D01*
X153933722Y-81564240D01*
X154517865Y-81564240D01*
X154598525Y-81815868D01*
X154866829Y-81944267D01*
X155155026Y-82017855D01*
X155452043Y-82033804D01*
X155746463Y-81991501D01*
X156026974Y-81892572D01*
X156170475Y-81815868D01*
X156251135Y-81564240D01*
X155384500Y-80697605D01*
X154517865Y-81564240D01*
X153933722Y-81564240D01*
X154017393Y-81480569D01*
X154126788Y-81316847D01*
X154338260Y-81384635D01*
X155204895Y-80518000D01*
X155564105Y-80518000D01*
X156430740Y-81384635D01*
X156682368Y-81303975D01*
X156810767Y-81035671D01*
X156884355Y-80747474D01*
X156900304Y-80450457D01*
X156858001Y-80156037D01*
X156759072Y-79875526D01*
X156682368Y-79732025D01*
X156430740Y-79651365D01*
X155564105Y-80518000D01*
X155204895Y-80518000D01*
X154338260Y-79651365D01*
X154126788Y-79719153D01*
X154017393Y-79555431D01*
X153807069Y-79345107D01*
X153661738Y-79248000D01*
X153807069Y-79150893D01*
X154017393Y-78940569D01*
X154114500Y-78795238D01*
X154211607Y-78940569D01*
X154421931Y-79150893D01*
X154585653Y-79260288D01*
X154517865Y-79471760D01*
X155384500Y-80338395D01*
X156251135Y-79471760D01*
X156183347Y-79260288D01*
X156347069Y-79150893D01*
X156557393Y-78940569D01*
X156722644Y-78693253D01*
X156836471Y-78418451D01*
X156894500Y-78126722D01*
X156894500Y-77829278D01*
X156836471Y-77537549D01*
X156722644Y-77262747D01*
X156557393Y-77015431D01*
X156405184Y-76863222D01*
X159720100Y-76863222D01*
X159735568Y-76864200D01*
X159735568Y-76864200D01*
G37*
X159735568Y-76864200D02*
X159817172Y-76872153D01*
X159898459Y-76882875D01*
X159979363Y-76896359D01*
X160059675Y-76912567D01*
X160139489Y-76931520D01*
X160218556Y-76953158D01*
X160296828Y-76977467D01*
X160374261Y-77004434D01*
X160450730Y-77034016D01*
X160526153Y-77066181D01*
X160600412Y-77100880D01*
X160673501Y-77138110D01*
X160719845Y-77163736D01*
X160464779Y-77113000D01*
X160044221Y-77113000D01*
X159631744Y-77195047D01*
X159243198Y-77355988D01*
X158893517Y-77589637D01*
X158596137Y-77887017D01*
X158362488Y-78236698D01*
X158201547Y-78625244D01*
X158119500Y-79037721D01*
X158119500Y-79458279D01*
X158201547Y-79870756D01*
X158362488Y-80259302D01*
X158596137Y-80608983D01*
X158893517Y-80906363D01*
X159243198Y-81140012D01*
X159631744Y-81300953D01*
X160044221Y-81383000D01*
X160464779Y-81383000D01*
X160877256Y-81300953D01*
X161265802Y-81140012D01*
X161615483Y-80906363D01*
X161912863Y-80608983D01*
X161952912Y-80549045D01*
X161952913Y-99878957D01*
X161903208Y-99818392D01*
X161684701Y-99639068D01*
X161435408Y-99505818D01*
X161164909Y-99423764D01*
X160954092Y-99403000D01*
X160813108Y-99403000D01*
X160602291Y-99423764D01*
X160331792Y-99505818D01*
X160082499Y-99639068D01*
X159863992Y-99818392D01*
X159684668Y-100036899D01*
X159551418Y-100286192D01*
X159469364Y-100556691D01*
X159441657Y-100838000D01*
X159469364Y-101119309D01*
X159551418Y-101389808D01*
X159684668Y-101639101D01*
X159863992Y-101857608D01*
X160082499Y-102036932D01*
X160331792Y-102170182D01*
X160602291Y-102252236D01*
X160813108Y-102273000D01*
X160954092Y-102273000D01*
X161164909Y-102252236D01*
X161435408Y-102170182D01*
X161684701Y-102036932D01*
X161903208Y-101857608D01*
X161952913Y-101797043D01*
X161952913Y-108853885D01*
X161207486Y-109599312D01*
X161024935Y-109563000D01*
X160742265Y-109563000D01*
X160559714Y-109599312D01*
X159814288Y-108853887D01*
X159814288Y-105243611D01*
X159817964Y-105206288D01*
X159814288Y-105168965D01*
X159814288Y-105168955D01*
X159803291Y-105057302D01*
X159759834Y-104914041D01*
X159719705Y-104838966D01*
X159689262Y-104782011D01*
X159618087Y-104695285D01*
X159594289Y-104666287D01*
X159565291Y-104642489D01*
X158551804Y-103629002D01*
X158528001Y-103599999D01*
X158412276Y-103505026D01*
X158280247Y-103434454D01*
X158136986Y-103390997D01*
X158025333Y-103380000D01*
X158025322Y-103380000D01*
X157988000Y-103376324D01*
X157950678Y-103380000D01*
X149492802Y-103380000D01*
X148244929Y-102132128D01*
X148289000Y-102107915D01*
X148289000Y-100965000D01*
X148269000Y-100965000D01*
X148269000Y-100711000D01*
X148289000Y-100711000D01*
X148289000Y-99568085D01*
X148543000Y-99568085D01*
X148543000Y-100711000D01*
X148563000Y-100711000D01*
X148563000Y-100965000D01*
X148543000Y-100965000D01*
X148543000Y-102107915D01*
X148765039Y-102229904D01*
X148899087Y-102189246D01*
X149153420Y-102069037D01*
X149379414Y-101901519D01*
X149568385Y-101693131D01*
X149683421Y-101501318D01*
X149757068Y-101639101D01*
X149936392Y-101857608D01*
X150154899Y-102036932D01*
X150404192Y-102170182D01*
X150674691Y-102252236D01*
X150885508Y-102273000D01*
X151026492Y-102273000D01*
X151237309Y-102252236D01*
X151507808Y-102170182D01*
X151757101Y-102036932D01*
X151975608Y-101857608D01*
X152154932Y-101639101D01*
X152288182Y-101389808D01*
X152370236Y-101119309D01*
X152397943Y-100838000D01*
X152384023Y-100696665D01*
X155537000Y-100696665D01*
X155537000Y-100979335D01*
X155592147Y-101256574D01*
X155700320Y-101517727D01*
X155857363Y-101752759D01*
X156057241Y-101952637D01*
X156292273Y-102109680D01*
X156553426Y-102217853D01*
X156830665Y-102273000D01*
X157113335Y-102273000D01*
X157390574Y-102217853D01*
X157651727Y-102109680D01*
X157886759Y-101952637D01*
X158086637Y-101752759D01*
X158243680Y-101517727D01*
X158351853Y-101256574D01*
X158407000Y-100979335D01*
X158407000Y-100696665D01*
X158351853Y-100419426D01*
X158243680Y-100158273D01*
X158086637Y-99923241D01*
X157886759Y-99723363D01*
X157651727Y-99566320D01*
X157390574Y-99458147D01*
X157113335Y-99403000D01*
X156830665Y-99403000D01*
X156553426Y-99458147D01*
X156292273Y-99566320D01*
X156057241Y-99723363D01*
X155857363Y-99923241D01*
X155700320Y-100158273D01*
X155592147Y-100419426D01*
X155537000Y-100696665D01*
X152384023Y-100696665D01*
X152370236Y-100556691D01*
X152288182Y-100286192D01*
X152154932Y-100036899D01*
X151975608Y-99818392D01*
X151757101Y-99639068D01*
X151507808Y-99505818D01*
X151237309Y-99423764D01*
X151026492Y-99403000D01*
X150885508Y-99403000D01*
X150674691Y-99423764D01*
X150404192Y-99505818D01*
X150154899Y-99639068D01*
X149936392Y-99818392D01*
X149757068Y-100036899D01*
X149683421Y-100174682D01*
X149568385Y-99982869D01*
X149379414Y-99774481D01*
X149153420Y-99606963D01*
X148899087Y-99486754D01*
X148765039Y-99446096D01*
X148543000Y-99568085D01*
X148289000Y-99568085D01*
X148066961Y-99446096D01*
X147932913Y-99486754D01*
X147678580Y-99606963D01*
X147452586Y-99774481D01*
X147263615Y-99982869D01*
X147148579Y-100174682D01*
X147074932Y-100036899D01*
X146895608Y-99818392D01*
X146677101Y-99639068D01*
X146632200Y-99615068D01*
X146632200Y-98754043D01*
X146786959Y-98650637D01*
X146908894Y-98528702D01*
X150059103Y-98528702D01*
X150130686Y-98772671D01*
X150386196Y-98893571D01*
X150660384Y-98962300D01*
X150942712Y-98976217D01*
X151222330Y-98934787D01*
X151488492Y-98839603D01*
X151613714Y-98772671D01*
X151685297Y-98528702D01*
X150872200Y-97715605D01*
X150059103Y-98528702D01*
X146908894Y-98528702D01*
X146986837Y-98450759D01*
X147143880Y-98215727D01*
X147252053Y-97954574D01*
X147307200Y-97677335D01*
X147307200Y-97606512D01*
X149431983Y-97606512D01*
X149473413Y-97886130D01*
X149568597Y-98152292D01*
X149635529Y-98277514D01*
X149879498Y-98349097D01*
X150692595Y-97536000D01*
X151051805Y-97536000D01*
X151864902Y-98349097D01*
X152108871Y-98277514D01*
X152229771Y-98022004D01*
X152298500Y-97747816D01*
X152312417Y-97465488D01*
X152270987Y-97185870D01*
X152175803Y-96919708D01*
X152108871Y-96794486D01*
X151864902Y-96722903D01*
X151051805Y-97536000D01*
X150692595Y-97536000D01*
X149879498Y-96722903D01*
X149635529Y-96794486D01*
X149514629Y-97049996D01*
X149445900Y-97324184D01*
X149431983Y-97606512D01*
X147307200Y-97606512D01*
X147307200Y-97394665D01*
X147252053Y-97117426D01*
X147143880Y-96856273D01*
X146986837Y-96621241D01*
X146908894Y-96543298D01*
X150059103Y-96543298D01*
X150872200Y-97356395D01*
X151685297Y-96543298D01*
X151613714Y-96299329D01*
X151358204Y-96178429D01*
X151084016Y-96109700D01*
X150801688Y-96095783D01*
X150522070Y-96137213D01*
X150255908Y-96232397D01*
X150130686Y-96299329D01*
X150059103Y-96543298D01*
X146908894Y-96543298D01*
X146786959Y-96421363D01*
X146551927Y-96264320D01*
X146290774Y-96156147D01*
X146013535Y-96101000D01*
X145730865Y-96101000D01*
X145453626Y-96156147D01*
X145192473Y-96264320D01*
X144957441Y-96421363D01*
X144757563Y-96621241D01*
X144654157Y-96776000D01*
X135002721Y-96776000D01*
X133573226Y-95346506D01*
X133643134Y-95289134D01*
X133828706Y-95063014D01*
X133863201Y-94998477D01*
X133932822Y-95115355D01*
X134127731Y-95331588D01*
X134361080Y-95505641D01*
X134623901Y-95630825D01*
X134771110Y-95675476D01*
X135001000Y-95554155D01*
X135001000Y-94361000D01*
X135255000Y-94361000D01*
X135255000Y-95554155D01*
X135484890Y-95675476D01*
X135632099Y-95630825D01*
X135894920Y-95505641D01*
X136128269Y-95331588D01*
X136323178Y-95115355D01*
X136472157Y-94865252D01*
X136569481Y-94590891D01*
X136448814Y-94361000D01*
X135255000Y-94361000D01*
X135001000Y-94361000D01*
X134981000Y-94361000D01*
X134981000Y-94107000D01*
X135001000Y-94107000D01*
X135001000Y-94087000D01*
X135255000Y-94087000D01*
X135255000Y-94107000D01*
X136448814Y-94107000D01*
X136569481Y-93877109D01*
X136472157Y-93602748D01*
X136323178Y-93352645D01*
X136200008Y-93216000D01*
X145250678Y-93216000D01*
X145288000Y-93219676D01*
X145325322Y-93216000D01*
X145325333Y-93216000D01*
X145436986Y-93205003D01*
X145580247Y-93161546D01*
X145712276Y-93090974D01*
X145828001Y-92996001D01*
X145851804Y-92966997D01*
X148275504Y-90543298D01*
X148304501Y-90519501D01*
X148351489Y-90462246D01*
X148399474Y-90403777D01*
X148470046Y-90271747D01*
X148480751Y-90236457D01*
X148513503Y-90128486D01*
X148524500Y-90016833D01*
X148524500Y-90016823D01*
X148528176Y-89979500D01*
X148524500Y-89942177D01*
X148524500Y-81826245D01*
X148727069Y-81690893D01*
X148937393Y-81480569D01*
X149034500Y-81335238D01*
X149131607Y-81480569D01*
X149341931Y-81690893D01*
X149589247Y-81856144D01*
X149864049Y-81969971D01*
X150155778Y-82028000D01*
X150453222Y-82028000D01*
X150744951Y-81969971D01*
X151019753Y-81856144D01*
X151267069Y-81690893D01*
X151477393Y-81480569D01*
X151574500Y-81335238D01*
X151671607Y-81480569D01*
X151881931Y-81690893D01*
X152129247Y-81856144D01*
X152404049Y-81969971D01*
X152695778Y-82028000D01*
X152993222Y-82028000D01*
X153284951Y-81969971D01*
X153559753Y-81856144D01*
X153807069Y-81690893D01*
X153933722Y-81564240D01*
X154517865Y-81564240D01*
X154598525Y-81815868D01*
X154866829Y-81944267D01*
X155155026Y-82017855D01*
X155452043Y-82033804D01*
X155746463Y-81991501D01*
X156026974Y-81892572D01*
X156170475Y-81815868D01*
X156251135Y-81564240D01*
X155384500Y-80697605D01*
X154517865Y-81564240D01*
X153933722Y-81564240D01*
X154017393Y-81480569D01*
X154126788Y-81316847D01*
X154338260Y-81384635D01*
X155204895Y-80518000D01*
X155564105Y-80518000D01*
X156430740Y-81384635D01*
X156682368Y-81303975D01*
X156810767Y-81035671D01*
X156884355Y-80747474D01*
X156900304Y-80450457D01*
X156858001Y-80156037D01*
X156759072Y-79875526D01*
X156682368Y-79732025D01*
X156430740Y-79651365D01*
X155564105Y-80518000D01*
X155204895Y-80518000D01*
X154338260Y-79651365D01*
X154126788Y-79719153D01*
X154017393Y-79555431D01*
X153807069Y-79345107D01*
X153661738Y-79248000D01*
X153807069Y-79150893D01*
X154017393Y-78940569D01*
X154114500Y-78795238D01*
X154211607Y-78940569D01*
X154421931Y-79150893D01*
X154585653Y-79260288D01*
X154517865Y-79471760D01*
X155384500Y-80338395D01*
X156251135Y-79471760D01*
X156183347Y-79260288D01*
X156347069Y-79150893D01*
X156557393Y-78940569D01*
X156722644Y-78693253D01*
X156836471Y-78418451D01*
X156894500Y-78126722D01*
X156894500Y-77829278D01*
X156836471Y-77537549D01*
X156722644Y-77262747D01*
X156557393Y-77015431D01*
X156405184Y-76863222D01*
X159720100Y-76863222D01*
X159735568Y-76864200D01*
G36*
X105951607Y-78940569D02*
G01*
X106050754Y-79039716D01*
X106005320Y-79053498D01*
X105895006Y-79112463D01*
X105798315Y-79191815D01*
X105718963Y-79288506D01*
X105659998Y-79398820D01*
X105623688Y-79518518D01*
X105611428Y-79643000D01*
X105611428Y-81393000D01*
X105623688Y-81517482D01*
X105659998Y-81637180D01*
X105718963Y-81747494D01*
X105798315Y-81844185D01*
X105895006Y-81923537D01*
X106005320Y-81982502D01*
X106125018Y-82018812D01*
X106249500Y-82031072D01*
X107999500Y-82031072D01*
X108123982Y-82018812D01*
X108243680Y-81982502D01*
X108353994Y-81923537D01*
X108450685Y-81844185D01*
X108530037Y-81747494D01*
X108589002Y-81637180D01*
X108602784Y-81591746D01*
X108701931Y-81690893D01*
X108949247Y-81856144D01*
X109224049Y-81969971D01*
X109515778Y-82028000D01*
X109813222Y-82028000D01*
X110104951Y-81969971D01*
X110379753Y-81856144D01*
X110627069Y-81690893D01*
X110837393Y-81480569D01*
X110934500Y-81335238D01*
X111031607Y-81480569D01*
X111241931Y-81690893D01*
X111489247Y-81856144D01*
X111764049Y-81969971D01*
X112055778Y-82028000D01*
X112353222Y-82028000D01*
X112644951Y-81969971D01*
X112919753Y-81856144D01*
X113167069Y-81690893D01*
X113377393Y-81480569D01*
X113474500Y-81335238D01*
X113571607Y-81480569D01*
X113781931Y-81690893D01*
X114029247Y-81856144D01*
X114304049Y-81969971D01*
X114595778Y-82028000D01*
X114893222Y-82028000D01*
X115184951Y-81969971D01*
X115459753Y-81856144D01*
X115707069Y-81690893D01*
X115833722Y-81564240D01*
X116417865Y-81564240D01*
X116498525Y-81815868D01*
X116766829Y-81944267D01*
X117055026Y-82017855D01*
X117352043Y-82033804D01*
X117646463Y-81991501D01*
X117926974Y-81892572D01*
X118070475Y-81815868D01*
X118151135Y-81564240D01*
X117284500Y-80697605D01*
X116417865Y-81564240D01*
X115833722Y-81564240D01*
X115917393Y-81480569D01*
X116026788Y-81316847D01*
X116238260Y-81384635D01*
X117104895Y-80518000D01*
X116238260Y-79651365D01*
X116026788Y-79719153D01*
X115917393Y-79555431D01*
X115707069Y-79345107D01*
X115561738Y-79248000D01*
X115707069Y-79150893D01*
X115917393Y-78940569D01*
X116014500Y-78795238D01*
X116111607Y-78940569D01*
X116321931Y-79150893D01*
X116485653Y-79260288D01*
X116417865Y-79471760D01*
X117284500Y-80338395D01*
X118151135Y-79471760D01*
X118083347Y-79260288D01*
X118247069Y-79150893D01*
X118457393Y-78940569D01*
X118554500Y-78795238D01*
X118651607Y-78940569D01*
X118861931Y-79150893D01*
X119007262Y-79248000D01*
X118861931Y-79345107D01*
X118651607Y-79555431D01*
X118542212Y-79719153D01*
X118330740Y-79651365D01*
X117464105Y-80518000D01*
X118330740Y-81384635D01*
X118542212Y-81316847D01*
X118651607Y-81480569D01*
X118861931Y-81690893D01*
X119109247Y-81856144D01*
X119384049Y-81969971D01*
X119675778Y-82028000D01*
X119973222Y-82028000D01*
X120264951Y-81969971D01*
X120539753Y-81856144D01*
X120787069Y-81690893D01*
X120997393Y-81480569D01*
X121094500Y-81335238D01*
X121191607Y-81480569D01*
X121401931Y-81690893D01*
X121649247Y-81856144D01*
X121924049Y-81969971D01*
X122215778Y-82028000D01*
X122513222Y-82028000D01*
X122804951Y-81969971D01*
X123079753Y-81856144D01*
X123327069Y-81690893D01*
X123537393Y-81480569D01*
X123634500Y-81335238D01*
X123731607Y-81480569D01*
X123941931Y-81690893D01*
X124189247Y-81856144D01*
X124464049Y-81969971D01*
X124755778Y-82028000D01*
X125053222Y-82028000D01*
X125344951Y-81969971D01*
X125619753Y-81856144D01*
X125867069Y-81690893D01*
X126077393Y-81480569D01*
X126174500Y-81335238D01*
X126271607Y-81480569D01*
X126481931Y-81690893D01*
X126729247Y-81856144D01*
X127004049Y-81969971D01*
X127295778Y-82028000D01*
X127593222Y-82028000D01*
X127884951Y-81969971D01*
X128159753Y-81856144D01*
X128407069Y-81690893D01*
X128617393Y-81480569D01*
X128714500Y-81335238D01*
X128811607Y-81480569D01*
X129021931Y-81690893D01*
X129228030Y-81828604D01*
X129235498Y-81904422D01*
X129247585Y-81944267D01*
X129278954Y-82047682D01*
X129349526Y-82179712D01*
X129420701Y-82266438D01*
X129444500Y-82295437D01*
X129473498Y-82319235D01*
X131349259Y-84194997D01*
X131373058Y-84223996D01*
X131488783Y-84318969D01*
X131620812Y-84389541D01*
X131764073Y-84432998D01*
X131875726Y-84443995D01*
X131875735Y-84443995D01*
X131913058Y-84447671D01*
X131950381Y-84443995D01*
X143692784Y-84443995D01*
X144251960Y-85003172D01*
X144251961Y-88478827D01*
X143770799Y-88959990D01*
X115719332Y-88959990D01*
X115682009Y-88956314D01*
X115644686Y-88959990D01*
X115644677Y-88959990D01*
X115533024Y-88970987D01*
X115389763Y-89014444D01*
X115257734Y-89085016D01*
X115142009Y-89179989D01*
X115118211Y-89208987D01*
X111757003Y-92570196D01*
X111727999Y-92593999D01*
X111672871Y-92661174D01*
X111633026Y-92709724D01*
X111613674Y-92745928D01*
X111418000Y-92745928D01*
X111293518Y-92758188D01*
X111173820Y-92794498D01*
X111063506Y-92853463D01*
X110966815Y-92932815D01*
X110887463Y-93029506D01*
X110828498Y-93139820D01*
X110792188Y-93259518D01*
X110779928Y-93384000D01*
X110779928Y-95084000D01*
X110792188Y-95208482D01*
X110828498Y-95328180D01*
X110887463Y-95438494D01*
X110966815Y-95535185D01*
X111063506Y-95614537D01*
X111173820Y-95673502D01*
X111293518Y-95709812D01*
X111418000Y-95722072D01*
X113118000Y-95722072D01*
X113242482Y-95709812D01*
X113362180Y-95673502D01*
X113472494Y-95614537D01*
X113569185Y-95535185D01*
X113648537Y-95438494D01*
X113707502Y-95328180D01*
X113728393Y-95259313D01*
X113752866Y-95289134D01*
X113978986Y-95474706D01*
X114236966Y-95612599D01*
X114516889Y-95697513D01*
X114735050Y-95719000D01*
X114880950Y-95719000D01*
X115099111Y-95697513D01*
X115379034Y-95612599D01*
X115637014Y-95474706D01*
X115863134Y-95289134D01*
X116048706Y-95063014D01*
X116078000Y-95008209D01*
X116107294Y-95063014D01*
X116292866Y-95289134D01*
X116518986Y-95474706D01*
X116776966Y-95612599D01*
X117056889Y-95697513D01*
X117275050Y-95719000D01*
X117420950Y-95719000D01*
X117639111Y-95697513D01*
X117919034Y-95612599D01*
X118177014Y-95474706D01*
X118403134Y-95289134D01*
X118588706Y-95063014D01*
X118618000Y-95008209D01*
X118647294Y-95063014D01*
X118832866Y-95289134D01*
X119058986Y-95474706D01*
X119316966Y-95612599D01*
X119596889Y-95697513D01*
X119815050Y-95719000D01*
X119960950Y-95719000D01*
X120179111Y-95697513D01*
X120459034Y-95612599D01*
X120717014Y-95474706D01*
X120943134Y-95289134D01*
X121128706Y-95063014D01*
X121158000Y-95008209D01*
X121187294Y-95063014D01*
X121372866Y-95289134D01*
X121598986Y-95474706D01*
X121856966Y-95612599D01*
X122136889Y-95697513D01*
X122355050Y-95719000D01*
X122500950Y-95719000D01*
X122719111Y-95697513D01*
X122999034Y-95612599D01*
X123257014Y-95474706D01*
X123483134Y-95289134D01*
X123668706Y-95063014D01*
X123698000Y-95008209D01*
X123727294Y-95063014D01*
X123912866Y-95289134D01*
X124138986Y-95474706D01*
X124396966Y-95612599D01*
X124676889Y-95697513D01*
X124895050Y-95719000D01*
X125040950Y-95719000D01*
X125259111Y-95697513D01*
X125539034Y-95612599D01*
X125797014Y-95474706D01*
X126023134Y-95289134D01*
X126208706Y-95063014D01*
X126238000Y-95008209D01*
X126267294Y-95063014D01*
X126452866Y-95289134D01*
X126678986Y-95474706D01*
X126936966Y-95612599D01*
X127216889Y-95697513D01*
X127435050Y-95719000D01*
X127580950Y-95719000D01*
X127799111Y-95697513D01*
X128079034Y-95612599D01*
X128337014Y-95474706D01*
X128563134Y-95289134D01*
X128748706Y-95063014D01*
X128778000Y-95008209D01*
X128807294Y-95063014D01*
X128992866Y-95289134D01*
X129218986Y-95474706D01*
X129288000Y-95511595D01*
X129288001Y-100099197D01*
X127277199Y-102110000D01*
X126021322Y-102110000D01*
X125984000Y-102106324D01*
X125946677Y-102110000D01*
X107195595Y-102110000D01*
X107158706Y-102040986D01*
X106973134Y-101814866D01*
X106747014Y-101629294D01*
X106692209Y-101600000D01*
X106747014Y-101570706D01*
X106973134Y-101385134D01*
X107158706Y-101159014D01*
X107195595Y-101090000D01*
X120454289Y-101090000D01*
X120498226Y-101133937D01*
X120667744Y-101247205D01*
X120856102Y-101325226D01*
X121056061Y-101365000D01*
X121259939Y-101365000D01*
X121459898Y-101325226D01*
X121648256Y-101247205D01*
X121817774Y-101133937D01*
X121961937Y-100989774D01*
X122075205Y-100820256D01*
X122153226Y-100631898D01*
X122193000Y-100431939D01*
X122193000Y-100228061D01*
X122153226Y-100028102D01*
X122075205Y-99839744D01*
X121961937Y-99670226D01*
X121817774Y-99526063D01*
X121648256Y-99412795D01*
X121459898Y-99334774D01*
X121259939Y-99295000D01*
X121056061Y-99295000D01*
X120856102Y-99334774D01*
X120667744Y-99412795D01*
X120498226Y-99526063D01*
X120454289Y-99570000D01*
X107195595Y-99570000D01*
X107158706Y-99500986D01*
X106973134Y-99274866D01*
X106943313Y-99250393D01*
X107012180Y-99229502D01*
X107122494Y-99170537D01*
X107219185Y-99091185D01*
X107298537Y-98994494D01*
X107357502Y-98884180D01*
X107393812Y-98764482D01*
X107406072Y-98640000D01*
X107406072Y-98550000D01*
X117660289Y-98550000D01*
X117704226Y-98593937D01*
X117873744Y-98707205D01*
X118062102Y-98785226D01*
X118262061Y-98825000D01*
X118465939Y-98825000D01*
X118665898Y-98785226D01*
X118854256Y-98707205D01*
X119023774Y-98593937D01*
X119167937Y-98449774D01*
X119281205Y-98280256D01*
X119359226Y-98091898D01*
X119399000Y-97891939D01*
X119399000Y-97688061D01*
X119359226Y-97488102D01*
X119281205Y-97299744D01*
X119167937Y-97130226D01*
X119023774Y-96986063D01*
X118854256Y-96872795D01*
X118665898Y-96794774D01*
X118465939Y-96755000D01*
X118262061Y-96755000D01*
X118062102Y-96794774D01*
X117873744Y-96872795D01*
X117704226Y-96986063D01*
X117660289Y-97030000D01*
X107406072Y-97030000D01*
X107406072Y-96940000D01*
X107393812Y-96815518D01*
X107357502Y-96695820D01*
X107298537Y-96585506D01*
X107219185Y-96488815D01*
X107122494Y-96409463D01*
X107012180Y-96350498D01*
X106892482Y-96314188D01*
X106768000Y-96301928D01*
X105068000Y-96301928D01*
X104994999Y-96309118D01*
X104994999Y-79403800D01*
X105660800Y-78738000D01*
X105816255Y-78738000D01*
X105951607Y-78940569D01*
X105951607Y-78940569D01*
G37*
X105951607Y-78940569D02*
X106050754Y-79039716D01*
X106005320Y-79053498D01*
X105895006Y-79112463D01*
X105798315Y-79191815D01*
X105718963Y-79288506D01*
X105659998Y-79398820D01*
X105623688Y-79518518D01*
X105611428Y-79643000D01*
X105611428Y-81393000D01*
X105623688Y-81517482D01*
X105659998Y-81637180D01*
X105718963Y-81747494D01*
X105798315Y-81844185D01*
X105895006Y-81923537D01*
X106005320Y-81982502D01*
X106125018Y-82018812D01*
X106249500Y-82031072D01*
X107999500Y-82031072D01*
X108123982Y-82018812D01*
X108243680Y-81982502D01*
X108353994Y-81923537D01*
X108450685Y-81844185D01*
X108530037Y-81747494D01*
X108589002Y-81637180D01*
X108602784Y-81591746D01*
X108701931Y-81690893D01*
X108949247Y-81856144D01*
X109224049Y-81969971D01*
X109515778Y-82028000D01*
X109813222Y-82028000D01*
X110104951Y-81969971D01*
X110379753Y-81856144D01*
X110627069Y-81690893D01*
X110837393Y-81480569D01*
X110934500Y-81335238D01*
X111031607Y-81480569D01*
X111241931Y-81690893D01*
X111489247Y-81856144D01*
X111764049Y-81969971D01*
X112055778Y-82028000D01*
X112353222Y-82028000D01*
X112644951Y-81969971D01*
X112919753Y-81856144D01*
X113167069Y-81690893D01*
X113377393Y-81480569D01*
X113474500Y-81335238D01*
X113571607Y-81480569D01*
X113781931Y-81690893D01*
X114029247Y-81856144D01*
X114304049Y-81969971D01*
X114595778Y-82028000D01*
X114893222Y-82028000D01*
X115184951Y-81969971D01*
X115459753Y-81856144D01*
X115707069Y-81690893D01*
X115833722Y-81564240D01*
X116417865Y-81564240D01*
X116498525Y-81815868D01*
X116766829Y-81944267D01*
X117055026Y-82017855D01*
X117352043Y-82033804D01*
X117646463Y-81991501D01*
X117926974Y-81892572D01*
X118070475Y-81815868D01*
X118151135Y-81564240D01*
X117284500Y-80697605D01*
X116417865Y-81564240D01*
X115833722Y-81564240D01*
X115917393Y-81480569D01*
X116026788Y-81316847D01*
X116238260Y-81384635D01*
X117104895Y-80518000D01*
X116238260Y-79651365D01*
X116026788Y-79719153D01*
X115917393Y-79555431D01*
X115707069Y-79345107D01*
X115561738Y-79248000D01*
X115707069Y-79150893D01*
X115917393Y-78940569D01*
X116014500Y-78795238D01*
X116111607Y-78940569D01*
X116321931Y-79150893D01*
X116485653Y-79260288D01*
X116417865Y-79471760D01*
X117284500Y-80338395D01*
X118151135Y-79471760D01*
X118083347Y-79260288D01*
X118247069Y-79150893D01*
X118457393Y-78940569D01*
X118554500Y-78795238D01*
X118651607Y-78940569D01*
X118861931Y-79150893D01*
X119007262Y-79248000D01*
X118861931Y-79345107D01*
X118651607Y-79555431D01*
X118542212Y-79719153D01*
X118330740Y-79651365D01*
X117464105Y-80518000D01*
X118330740Y-81384635D01*
X118542212Y-81316847D01*
X118651607Y-81480569D01*
X118861931Y-81690893D01*
X119109247Y-81856144D01*
X119384049Y-81969971D01*
X119675778Y-82028000D01*
X119973222Y-82028000D01*
X120264951Y-81969971D01*
X120539753Y-81856144D01*
X120787069Y-81690893D01*
X120997393Y-81480569D01*
X121094500Y-81335238D01*
X121191607Y-81480569D01*
X121401931Y-81690893D01*
X121649247Y-81856144D01*
X121924049Y-81969971D01*
X122215778Y-82028000D01*
X122513222Y-82028000D01*
X122804951Y-81969971D01*
X123079753Y-81856144D01*
X123327069Y-81690893D01*
X123537393Y-81480569D01*
X123634500Y-81335238D01*
X123731607Y-81480569D01*
X123941931Y-81690893D01*
X124189247Y-81856144D01*
X124464049Y-81969971D01*
X124755778Y-82028000D01*
X125053222Y-82028000D01*
X125344951Y-81969971D01*
X125619753Y-81856144D01*
X125867069Y-81690893D01*
X126077393Y-81480569D01*
X126174500Y-81335238D01*
X126271607Y-81480569D01*
X126481931Y-81690893D01*
X126729247Y-81856144D01*
X127004049Y-81969971D01*
X127295778Y-82028000D01*
X127593222Y-82028000D01*
X127884951Y-81969971D01*
X128159753Y-81856144D01*
X128407069Y-81690893D01*
X128617393Y-81480569D01*
X128714500Y-81335238D01*
X128811607Y-81480569D01*
X129021931Y-81690893D01*
X129228030Y-81828604D01*
X129235498Y-81904422D01*
X129247585Y-81944267D01*
X129278954Y-82047682D01*
X129349526Y-82179712D01*
X129420701Y-82266438D01*
X129444500Y-82295437D01*
X129473498Y-82319235D01*
X131349259Y-84194997D01*
X131373058Y-84223996D01*
X131488783Y-84318969D01*
X131620812Y-84389541D01*
X131764073Y-84432998D01*
X131875726Y-84443995D01*
X131875735Y-84443995D01*
X131913058Y-84447671D01*
X131950381Y-84443995D01*
X143692784Y-84443995D01*
X144251960Y-85003172D01*
X144251961Y-88478827D01*
X143770799Y-88959990D01*
X115719332Y-88959990D01*
X115682009Y-88956314D01*
X115644686Y-88959990D01*
X115644677Y-88959990D01*
X115533024Y-88970987D01*
X115389763Y-89014444D01*
X115257734Y-89085016D01*
X115142009Y-89179989D01*
X115118211Y-89208987D01*
X111757003Y-92570196D01*
X111727999Y-92593999D01*
X111672871Y-92661174D01*
X111633026Y-92709724D01*
X111613674Y-92745928D01*
X111418000Y-92745928D01*
X111293518Y-92758188D01*
X111173820Y-92794498D01*
X111063506Y-92853463D01*
X110966815Y-92932815D01*
X110887463Y-93029506D01*
X110828498Y-93139820D01*
X110792188Y-93259518D01*
X110779928Y-93384000D01*
X110779928Y-95084000D01*
X110792188Y-95208482D01*
X110828498Y-95328180D01*
X110887463Y-95438494D01*
X110966815Y-95535185D01*
X111063506Y-95614537D01*
X111173820Y-95673502D01*
X111293518Y-95709812D01*
X111418000Y-95722072D01*
X113118000Y-95722072D01*
X113242482Y-95709812D01*
X113362180Y-95673502D01*
X113472494Y-95614537D01*
X113569185Y-95535185D01*
X113648537Y-95438494D01*
X113707502Y-95328180D01*
X113728393Y-95259313D01*
X113752866Y-95289134D01*
X113978986Y-95474706D01*
X114236966Y-95612599D01*
X114516889Y-95697513D01*
X114735050Y-95719000D01*
X114880950Y-95719000D01*
X115099111Y-95697513D01*
X115379034Y-95612599D01*
X115637014Y-95474706D01*
X115863134Y-95289134D01*
X116048706Y-95063014D01*
X116078000Y-95008209D01*
X116107294Y-95063014D01*
X116292866Y-95289134D01*
X116518986Y-95474706D01*
X116776966Y-95612599D01*
X117056889Y-95697513D01*
X117275050Y-95719000D01*
X117420950Y-95719000D01*
X117639111Y-95697513D01*
X117919034Y-95612599D01*
X118177014Y-95474706D01*
X118403134Y-95289134D01*
X118588706Y-95063014D01*
X118618000Y-95008209D01*
X118647294Y-95063014D01*
X118832866Y-95289134D01*
X119058986Y-95474706D01*
X119316966Y-95612599D01*
X119596889Y-95697513D01*
X119815050Y-95719000D01*
X119960950Y-95719000D01*
X120179111Y-95697513D01*
X120459034Y-95612599D01*
X120717014Y-95474706D01*
X120943134Y-95289134D01*
X121128706Y-95063014D01*
X121158000Y-95008209D01*
X121187294Y-95063014D01*
X121372866Y-95289134D01*
X121598986Y-95474706D01*
X121856966Y-95612599D01*
X122136889Y-95697513D01*
X122355050Y-95719000D01*
X122500950Y-95719000D01*
X122719111Y-95697513D01*
X122999034Y-95612599D01*
X123257014Y-95474706D01*
X123483134Y-95289134D01*
X123668706Y-95063014D01*
X123698000Y-95008209D01*
X123727294Y-95063014D01*
X123912866Y-95289134D01*
X124138986Y-95474706D01*
X124396966Y-95612599D01*
X124676889Y-95697513D01*
X124895050Y-95719000D01*
X125040950Y-95719000D01*
X125259111Y-95697513D01*
X125539034Y-95612599D01*
X125797014Y-95474706D01*
X126023134Y-95289134D01*
X126208706Y-95063014D01*
X126238000Y-95008209D01*
X126267294Y-95063014D01*
X126452866Y-95289134D01*
X126678986Y-95474706D01*
X126936966Y-95612599D01*
X127216889Y-95697513D01*
X127435050Y-95719000D01*
X127580950Y-95719000D01*
X127799111Y-95697513D01*
X128079034Y-95612599D01*
X128337014Y-95474706D01*
X128563134Y-95289134D01*
X128748706Y-95063014D01*
X128778000Y-95008209D01*
X128807294Y-95063014D01*
X128992866Y-95289134D01*
X129218986Y-95474706D01*
X129288000Y-95511595D01*
X129288001Y-100099197D01*
X127277199Y-102110000D01*
X126021322Y-102110000D01*
X125984000Y-102106324D01*
X125946677Y-102110000D01*
X107195595Y-102110000D01*
X107158706Y-102040986D01*
X106973134Y-101814866D01*
X106747014Y-101629294D01*
X106692209Y-101600000D01*
X106747014Y-101570706D01*
X106973134Y-101385134D01*
X107158706Y-101159014D01*
X107195595Y-101090000D01*
X120454289Y-101090000D01*
X120498226Y-101133937D01*
X120667744Y-101247205D01*
X120856102Y-101325226D01*
X121056061Y-101365000D01*
X121259939Y-101365000D01*
X121459898Y-101325226D01*
X121648256Y-101247205D01*
X121817774Y-101133937D01*
X121961937Y-100989774D01*
X122075205Y-100820256D01*
X122153226Y-100631898D01*
X122193000Y-100431939D01*
X122193000Y-100228061D01*
X122153226Y-100028102D01*
X122075205Y-99839744D01*
X121961937Y-99670226D01*
X121817774Y-99526063D01*
X121648256Y-99412795D01*
X121459898Y-99334774D01*
X121259939Y-99295000D01*
X121056061Y-99295000D01*
X120856102Y-99334774D01*
X120667744Y-99412795D01*
X120498226Y-99526063D01*
X120454289Y-99570000D01*
X107195595Y-99570000D01*
X107158706Y-99500986D01*
X106973134Y-99274866D01*
X106943313Y-99250393D01*
X107012180Y-99229502D01*
X107122494Y-99170537D01*
X107219185Y-99091185D01*
X107298537Y-98994494D01*
X107357502Y-98884180D01*
X107393812Y-98764482D01*
X107406072Y-98640000D01*
X107406072Y-98550000D01*
X117660289Y-98550000D01*
X117704226Y-98593937D01*
X117873744Y-98707205D01*
X118062102Y-98785226D01*
X118262061Y-98825000D01*
X118465939Y-98825000D01*
X118665898Y-98785226D01*
X118854256Y-98707205D01*
X119023774Y-98593937D01*
X119167937Y-98449774D01*
X119281205Y-98280256D01*
X119359226Y-98091898D01*
X119399000Y-97891939D01*
X119399000Y-97688061D01*
X119359226Y-97488102D01*
X119281205Y-97299744D01*
X119167937Y-97130226D01*
X119023774Y-96986063D01*
X118854256Y-96872795D01*
X118665898Y-96794774D01*
X118465939Y-96755000D01*
X118262061Y-96755000D01*
X118062102Y-96794774D01*
X117873744Y-96872795D01*
X117704226Y-96986063D01*
X117660289Y-97030000D01*
X107406072Y-97030000D01*
X107406072Y-96940000D01*
X107393812Y-96815518D01*
X107357502Y-96695820D01*
X107298537Y-96585506D01*
X107219185Y-96488815D01*
X107122494Y-96409463D01*
X107012180Y-96350498D01*
X106892482Y-96314188D01*
X106768000Y-96301928D01*
X105068000Y-96301928D01*
X104994999Y-96309118D01*
X104994999Y-79403800D01*
X105660800Y-78738000D01*
X105816255Y-78738000D01*
X105951607Y-78940569D01*
G36*
X138971607Y-78940569D02*
G01*
X139181931Y-79150893D01*
X139327262Y-79248000D01*
X139181931Y-79345107D01*
X138971607Y-79555431D01*
X138862212Y-79719153D01*
X138650740Y-79651365D01*
X137784105Y-80518000D01*
X138650740Y-81384635D01*
X138862212Y-81316847D01*
X138971607Y-81480569D01*
X139181931Y-81690893D01*
X139429247Y-81856144D01*
X139704049Y-81969971D01*
X139975543Y-82023975D01*
X137740451Y-82023975D01*
X137966463Y-81991501D01*
X138246974Y-81892572D01*
X138390475Y-81815868D01*
X138471135Y-81564240D01*
X137604500Y-80697605D01*
X136737865Y-81564240D01*
X136818525Y-81815868D01*
X137086829Y-81944267D01*
X137375026Y-82017855D01*
X137488998Y-82023975D01*
X136407841Y-82023975D01*
X136050914Y-81667048D01*
X136237393Y-81480569D01*
X136346788Y-81316847D01*
X136558260Y-81384635D01*
X137424895Y-80518000D01*
X136558260Y-79651365D01*
X136346788Y-79719153D01*
X136237393Y-79555431D01*
X136027069Y-79345107D01*
X135881738Y-79248000D01*
X136027069Y-79150893D01*
X136237393Y-78940569D01*
X136334500Y-78795238D01*
X136431607Y-78940569D01*
X136641931Y-79150893D01*
X136805653Y-79260288D01*
X136737865Y-79471760D01*
X137604500Y-80338395D01*
X138471135Y-79471760D01*
X138403347Y-79260288D01*
X138567069Y-79150893D01*
X138777393Y-78940569D01*
X138874500Y-78795238D01*
X138971607Y-78940569D01*
X138971607Y-78940569D01*
G37*
X138971607Y-78940569D02*
X139181931Y-79150893D01*
X139327262Y-79248000D01*
X139181931Y-79345107D01*
X138971607Y-79555431D01*
X138862212Y-79719153D01*
X138650740Y-79651365D01*
X137784105Y-80518000D01*
X138650740Y-81384635D01*
X138862212Y-81316847D01*
X138971607Y-81480569D01*
X139181931Y-81690893D01*
X139429247Y-81856144D01*
X139704049Y-81969971D01*
X139975543Y-82023975D01*
X137740451Y-82023975D01*
X137966463Y-81991501D01*
X138246974Y-81892572D01*
X138390475Y-81815868D01*
X138471135Y-81564240D01*
X137604500Y-80697605D01*
X136737865Y-81564240D01*
X136818525Y-81815868D01*
X137086829Y-81944267D01*
X137375026Y-82017855D01*
X137488998Y-82023975D01*
X136407841Y-82023975D01*
X136050914Y-81667048D01*
X136237393Y-81480569D01*
X136346788Y-81316847D01*
X136558260Y-81384635D01*
X137424895Y-80518000D01*
X136558260Y-79651365D01*
X136346788Y-79719153D01*
X136237393Y-79555431D01*
X136027069Y-79345107D01*
X135881738Y-79248000D01*
X136027069Y-79150893D01*
X136237393Y-78940569D01*
X136334500Y-78795238D01*
X136431607Y-78940569D01*
X136641931Y-79150893D01*
X136805653Y-79260288D01*
X136737865Y-79471760D01*
X137604500Y-80338395D01*
X138471135Y-79471760D01*
X138403347Y-79260288D01*
X138567069Y-79150893D01*
X138777393Y-78940569D01*
X138874500Y-78795238D01*
X138971607Y-78940569D01*
M02*
