G04 #@! TF.GenerationSoftware,KiCad,Pcbnew,(5.1.4-0-10_14)*
G04 #@! TF.CreationDate,2021-01-03T20:59:21+00:00*
G04 #@! TF.ProjectId,mt32-pi-midi-hat,6d743332-2d70-4692-9d6d-6964692d6861,rev?*
G04 #@! TF.SameCoordinates,Original*
G04 #@! TF.FileFunction,Soldermask,Bot*
G04 #@! TF.FilePolarity,Negative*
%FSLAX46Y46*%
G04 Gerber Fmt 4.6, Leading zero omitted, Abs format (unit mm)*
G04 Created by KiCad (PCBNEW (5.1.4-0-10_14)) date 2021-01-03 20:59:21*
%MOMM*%
%LPD*%
G04 APERTURE LIST*
%ADD10C,0.100000*%
G04 APERTURE END LIST*
D10*
G36*
X121551000Y-131203000D02*
G01*
X119749000Y-131203000D01*
X119749000Y-129401000D01*
X121551000Y-129401000D01*
X121551000Y-131203000D01*
X121551000Y-131203000D01*
G37*
G36*
X146130794Y-128173155D02*
G01*
X146237150Y-128194311D01*
X146337334Y-128235809D01*
X146437520Y-128277307D01*
X146617844Y-128397795D01*
X146771205Y-128551156D01*
X146891693Y-128731480D01*
X146891693Y-128731481D01*
X146974689Y-128931850D01*
X147017000Y-129144561D01*
X147017000Y-129361439D01*
X146974689Y-129574150D01*
X146950533Y-129632468D01*
X146891693Y-129774520D01*
X146771205Y-129954844D01*
X146617844Y-130108205D01*
X146437520Y-130228693D01*
X146237150Y-130311689D01*
X146130795Y-130332844D01*
X146024440Y-130354000D01*
X145807560Y-130354000D01*
X145701205Y-130332844D01*
X145594850Y-130311689D01*
X145394480Y-130228693D01*
X145214156Y-130108205D01*
X145060795Y-129954844D01*
X144940307Y-129774520D01*
X144881467Y-129632468D01*
X144857311Y-129574150D01*
X144815000Y-129361439D01*
X144815000Y-129144561D01*
X144857311Y-128931850D01*
X144940307Y-128731481D01*
X144940307Y-128731480D01*
X145060795Y-128551156D01*
X145214156Y-128397795D01*
X145394480Y-128277307D01*
X145494666Y-128235809D01*
X145594850Y-128194311D01*
X145701206Y-128173155D01*
X145807560Y-128152000D01*
X146024440Y-128152000D01*
X146130794Y-128173155D01*
X146130794Y-128173155D01*
G37*
G36*
X151130794Y-128173155D02*
G01*
X151237150Y-128194311D01*
X151337334Y-128235809D01*
X151437520Y-128277307D01*
X151617844Y-128397795D01*
X151771205Y-128551156D01*
X151891693Y-128731480D01*
X151891693Y-128731481D01*
X151974689Y-128931850D01*
X152017000Y-129144561D01*
X152017000Y-129361439D01*
X151974689Y-129574150D01*
X151950533Y-129632468D01*
X151891693Y-129774520D01*
X151771205Y-129954844D01*
X151617844Y-130108205D01*
X151437520Y-130228693D01*
X151237150Y-130311689D01*
X151130795Y-130332844D01*
X151024440Y-130354000D01*
X150807560Y-130354000D01*
X150701205Y-130332844D01*
X150594850Y-130311689D01*
X150394480Y-130228693D01*
X150214156Y-130108205D01*
X150060795Y-129954844D01*
X149940307Y-129774520D01*
X149881467Y-129632468D01*
X149857311Y-129574150D01*
X149815000Y-129361439D01*
X149815000Y-129144561D01*
X149857311Y-128931850D01*
X149940307Y-128731481D01*
X149940307Y-128731480D01*
X150060795Y-128551156D01*
X150214156Y-128397795D01*
X150394480Y-128277307D01*
X150494666Y-128235809D01*
X150594850Y-128194311D01*
X150701206Y-128173155D01*
X150807560Y-128152000D01*
X151024440Y-128152000D01*
X151130794Y-128173155D01*
X151130794Y-128173155D01*
G37*
G36*
X106028443Y-128391519D02*
G01*
X106094627Y-128398037D01*
X106264466Y-128449557D01*
X106420991Y-128533222D01*
X106442841Y-128551154D01*
X106558186Y-128645814D01*
X106628489Y-128731480D01*
X106670778Y-128783009D01*
X106754443Y-128939534D01*
X106805963Y-129109373D01*
X106823359Y-129286000D01*
X106805963Y-129462627D01*
X106754443Y-129632466D01*
X106670778Y-129788991D01*
X106655012Y-129808202D01*
X106558186Y-129926186D01*
X106456729Y-130009448D01*
X106420991Y-130038778D01*
X106264466Y-130122443D01*
X106094627Y-130173963D01*
X106028443Y-130180481D01*
X105962260Y-130187000D01*
X105873740Y-130187000D01*
X105807557Y-130180481D01*
X105741373Y-130173963D01*
X105571534Y-130122443D01*
X105415009Y-130038778D01*
X105379271Y-130009448D01*
X105277814Y-129926186D01*
X105180988Y-129808202D01*
X105165222Y-129788991D01*
X105081557Y-129632466D01*
X105030037Y-129462627D01*
X105012641Y-129286000D01*
X105030037Y-129109373D01*
X105081557Y-128939534D01*
X105165222Y-128783009D01*
X105207511Y-128731480D01*
X105277814Y-128645814D01*
X105393159Y-128551154D01*
X105415009Y-128533222D01*
X105571534Y-128449557D01*
X105741373Y-128398037D01*
X105807557Y-128391519D01*
X105873740Y-128385000D01*
X105962260Y-128385000D01*
X106028443Y-128391519D01*
X106028443Y-128391519D01*
G37*
G36*
X153630794Y-127873155D02*
G01*
X153737150Y-127894311D01*
X153937520Y-127977307D01*
X154117844Y-128097795D01*
X154271205Y-128251156D01*
X154391693Y-128431480D01*
X154399181Y-128449558D01*
X154474689Y-128631850D01*
X154517000Y-128844561D01*
X154517000Y-129061439D01*
X154474689Y-129274150D01*
X154438532Y-129361440D01*
X154391693Y-129474520D01*
X154271205Y-129654844D01*
X154117844Y-129808205D01*
X153937520Y-129928693D01*
X153837334Y-129970191D01*
X153737150Y-130011689D01*
X153630795Y-130032844D01*
X153524440Y-130054000D01*
X153307560Y-130054000D01*
X153201205Y-130032844D01*
X153094850Y-130011689D01*
X152994666Y-129970191D01*
X152894480Y-129928693D01*
X152714156Y-129808205D01*
X152560795Y-129654844D01*
X152440307Y-129474520D01*
X152393468Y-129361440D01*
X152357311Y-129274150D01*
X152315000Y-129061439D01*
X152315000Y-128844561D01*
X152357311Y-128631850D01*
X152432819Y-128449558D01*
X152440307Y-128431480D01*
X152560795Y-128251156D01*
X152714156Y-128097795D01*
X152894480Y-127977307D01*
X153094850Y-127894311D01*
X153201206Y-127873155D01*
X153307560Y-127852000D01*
X153524440Y-127852000D01*
X153630794Y-127873155D01*
X153630794Y-127873155D01*
G37*
G36*
X143630794Y-127873155D02*
G01*
X143737150Y-127894311D01*
X143937520Y-127977307D01*
X144117844Y-128097795D01*
X144271205Y-128251156D01*
X144391693Y-128431480D01*
X144399181Y-128449558D01*
X144474689Y-128631850D01*
X144517000Y-128844561D01*
X144517000Y-129061439D01*
X144474689Y-129274150D01*
X144438532Y-129361440D01*
X144391693Y-129474520D01*
X144271205Y-129654844D01*
X144117844Y-129808205D01*
X143937520Y-129928693D01*
X143837334Y-129970191D01*
X143737150Y-130011689D01*
X143630795Y-130032844D01*
X143524440Y-130054000D01*
X143307560Y-130054000D01*
X143201205Y-130032844D01*
X143094850Y-130011689D01*
X142994666Y-129970191D01*
X142894480Y-129928693D01*
X142714156Y-129808205D01*
X142560795Y-129654844D01*
X142440307Y-129474520D01*
X142393468Y-129361440D01*
X142357311Y-129274150D01*
X142315000Y-129061439D01*
X142315000Y-128844561D01*
X142357311Y-128631850D01*
X142432819Y-128449558D01*
X142440307Y-128431480D01*
X142560795Y-128251156D01*
X142714156Y-128097795D01*
X142894480Y-127977307D01*
X143094850Y-127894311D01*
X143201206Y-127873155D01*
X143307560Y-127852000D01*
X143524440Y-127852000D01*
X143630794Y-127873155D01*
X143630794Y-127873155D01*
G37*
G36*
X160557085Y-126726802D02*
G01*
X160706910Y-126756604D01*
X160989174Y-126873521D01*
X161243205Y-127043259D01*
X161459241Y-127259295D01*
X161628979Y-127513326D01*
X161678948Y-127633963D01*
X161745896Y-127795591D01*
X161805500Y-128095239D01*
X161805500Y-128400761D01*
X161779152Y-128533221D01*
X161745896Y-128700410D01*
X161628979Y-128982674D01*
X161459241Y-129236705D01*
X161243205Y-129452741D01*
X160989174Y-129622479D01*
X160706910Y-129739396D01*
X160557085Y-129769198D01*
X160407261Y-129799000D01*
X160101739Y-129799000D01*
X159951915Y-129769198D01*
X159802090Y-129739396D01*
X159519826Y-129622479D01*
X159265795Y-129452741D01*
X159049759Y-129236705D01*
X158880021Y-128982674D01*
X158763104Y-128700410D01*
X158729848Y-128533221D01*
X158703500Y-128400761D01*
X158703500Y-128095239D01*
X158763104Y-127795591D01*
X158830052Y-127633963D01*
X158880021Y-127513326D01*
X159049759Y-127259295D01*
X159265795Y-127043259D01*
X159519826Y-126873521D01*
X159802090Y-126756604D01*
X159951915Y-126726802D01*
X160101739Y-126697000D01*
X160407261Y-126697000D01*
X160557085Y-126726802D01*
X160557085Y-126726802D01*
G37*
G36*
X102557085Y-126726802D02*
G01*
X102706910Y-126756604D01*
X102989174Y-126873521D01*
X103243205Y-127043259D01*
X103459241Y-127259295D01*
X103628979Y-127513326D01*
X103678948Y-127633963D01*
X103745896Y-127795591D01*
X103805500Y-128095239D01*
X103805500Y-128400761D01*
X103779152Y-128533221D01*
X103745896Y-128700410D01*
X103628979Y-128982674D01*
X103459241Y-129236705D01*
X103243205Y-129452741D01*
X102989174Y-129622479D01*
X102706910Y-129739396D01*
X102557085Y-129769198D01*
X102407261Y-129799000D01*
X102101739Y-129799000D01*
X101951915Y-129769198D01*
X101802090Y-129739396D01*
X101519826Y-129622479D01*
X101265795Y-129452741D01*
X101049759Y-129236705D01*
X100880021Y-128982674D01*
X100763104Y-128700410D01*
X100729848Y-128533221D01*
X100703500Y-128400761D01*
X100703500Y-128095239D01*
X100763104Y-127795591D01*
X100830052Y-127633963D01*
X100880021Y-127513326D01*
X101049759Y-127259295D01*
X101265795Y-127043259D01*
X101519826Y-126873521D01*
X101802090Y-126756604D01*
X101951915Y-126726802D01*
X102101739Y-126697000D01*
X102407261Y-126697000D01*
X102557085Y-126726802D01*
X102557085Y-126726802D01*
G37*
G36*
X106028442Y-125851518D02*
G01*
X106094627Y-125858037D01*
X106264466Y-125909557D01*
X106420991Y-125993222D01*
X106456729Y-126022552D01*
X106558186Y-126105814D01*
X106641448Y-126207271D01*
X106670778Y-126243009D01*
X106754443Y-126399534D01*
X106805963Y-126569373D01*
X106823359Y-126746000D01*
X106805963Y-126922627D01*
X106754443Y-127092466D01*
X106670778Y-127248991D01*
X106641448Y-127284729D01*
X106558186Y-127386186D01*
X106456729Y-127469448D01*
X106420991Y-127498778D01*
X106264466Y-127582443D01*
X106094627Y-127633963D01*
X106028442Y-127640482D01*
X105962260Y-127647000D01*
X105873740Y-127647000D01*
X105807558Y-127640482D01*
X105741373Y-127633963D01*
X105571534Y-127582443D01*
X105415009Y-127498778D01*
X105379271Y-127469448D01*
X105277814Y-127386186D01*
X105194552Y-127284729D01*
X105165222Y-127248991D01*
X105081557Y-127092466D01*
X105030037Y-126922627D01*
X105012641Y-126746000D01*
X105030037Y-126569373D01*
X105081557Y-126399534D01*
X105165222Y-126243009D01*
X105194552Y-126207271D01*
X105277814Y-126105814D01*
X105379271Y-126022552D01*
X105415009Y-125993222D01*
X105571534Y-125909557D01*
X105741373Y-125858037D01*
X105807558Y-125851518D01*
X105873740Y-125845000D01*
X105962260Y-125845000D01*
X106028442Y-125851518D01*
X106028442Y-125851518D01*
G37*
G36*
X106028442Y-123311518D02*
G01*
X106094627Y-123318037D01*
X106264466Y-123369557D01*
X106420991Y-123453222D01*
X106456729Y-123482552D01*
X106558186Y-123565814D01*
X106641448Y-123667271D01*
X106670778Y-123703009D01*
X106754443Y-123859534D01*
X106805963Y-124029373D01*
X106823359Y-124206000D01*
X106805963Y-124382627D01*
X106754443Y-124552466D01*
X106670778Y-124708991D01*
X106641448Y-124744729D01*
X106558186Y-124846186D01*
X106456729Y-124929448D01*
X106420991Y-124958778D01*
X106264466Y-125042443D01*
X106094627Y-125093963D01*
X106028443Y-125100481D01*
X105962260Y-125107000D01*
X105873740Y-125107000D01*
X105807557Y-125100481D01*
X105741373Y-125093963D01*
X105571534Y-125042443D01*
X105415009Y-124958778D01*
X105379271Y-124929448D01*
X105277814Y-124846186D01*
X105194552Y-124744729D01*
X105165222Y-124708991D01*
X105081557Y-124552466D01*
X105030037Y-124382627D01*
X105012641Y-124206000D01*
X105030037Y-124029373D01*
X105081557Y-123859534D01*
X105165222Y-123703009D01*
X105194552Y-123667271D01*
X105277814Y-123565814D01*
X105379271Y-123482552D01*
X105415009Y-123453222D01*
X105571534Y-123369557D01*
X105741373Y-123318037D01*
X105807558Y-123311518D01*
X105873740Y-123305000D01*
X105962260Y-123305000D01*
X106028442Y-123311518D01*
X106028442Y-123311518D01*
G37*
G36*
X106028442Y-120771518D02*
G01*
X106094627Y-120778037D01*
X106264466Y-120829557D01*
X106420991Y-120913222D01*
X106456729Y-120942552D01*
X106558186Y-121025814D01*
X106641448Y-121127271D01*
X106670778Y-121163009D01*
X106754443Y-121319534D01*
X106805963Y-121489373D01*
X106823359Y-121666000D01*
X106805963Y-121842627D01*
X106754443Y-122012466D01*
X106670778Y-122168991D01*
X106641448Y-122204729D01*
X106558186Y-122306186D01*
X106456729Y-122389448D01*
X106420991Y-122418778D01*
X106264466Y-122502443D01*
X106094627Y-122553963D01*
X106028442Y-122560482D01*
X105962260Y-122567000D01*
X105873740Y-122567000D01*
X105807558Y-122560482D01*
X105741373Y-122553963D01*
X105571534Y-122502443D01*
X105415009Y-122418778D01*
X105379271Y-122389448D01*
X105277814Y-122306186D01*
X105194552Y-122204729D01*
X105165222Y-122168991D01*
X105081557Y-122012466D01*
X105030037Y-121842627D01*
X105012641Y-121666000D01*
X105030037Y-121489373D01*
X105081557Y-121319534D01*
X105165222Y-121163009D01*
X105194552Y-121127271D01*
X105277814Y-121025814D01*
X105379271Y-120942552D01*
X105415009Y-120913222D01*
X105571534Y-120829557D01*
X105741373Y-120778037D01*
X105807558Y-120771518D01*
X105873740Y-120765000D01*
X105962260Y-120765000D01*
X106028442Y-120771518D01*
X106028442Y-120771518D01*
G37*
G36*
X141280610Y-118051036D02*
G01*
X141508095Y-118145264D01*
X141508097Y-118145265D01*
X141627429Y-118225000D01*
X141712828Y-118282062D01*
X141886938Y-118456172D01*
X142023736Y-118660905D01*
X142117964Y-118888390D01*
X142166000Y-119129884D01*
X142166000Y-119376116D01*
X142117964Y-119617610D01*
X142056421Y-119766186D01*
X142023735Y-119845097D01*
X141886938Y-120049828D01*
X141712828Y-120223938D01*
X141508097Y-120360735D01*
X141508096Y-120360736D01*
X141508095Y-120360736D01*
X141280610Y-120454964D01*
X141039116Y-120503000D01*
X140792884Y-120503000D01*
X140551390Y-120454964D01*
X140323905Y-120360736D01*
X140323904Y-120360736D01*
X140323903Y-120360735D01*
X140119172Y-120223938D01*
X139945062Y-120049828D01*
X139808265Y-119845097D01*
X139775579Y-119766186D01*
X139714036Y-119617610D01*
X139666000Y-119376116D01*
X139666000Y-119129884D01*
X139714036Y-118888390D01*
X139808264Y-118660905D01*
X139945062Y-118456172D01*
X140119172Y-118282062D01*
X140204571Y-118225000D01*
X140323903Y-118145265D01*
X140323905Y-118145264D01*
X140551390Y-118051036D01*
X140792884Y-118003000D01*
X141039116Y-118003000D01*
X141280610Y-118051036D01*
X141280610Y-118051036D01*
G37*
G36*
X148780610Y-118051036D02*
G01*
X149008095Y-118145264D01*
X149008097Y-118145265D01*
X149127429Y-118225000D01*
X149212828Y-118282062D01*
X149386938Y-118456172D01*
X149523736Y-118660905D01*
X149617964Y-118888390D01*
X149666000Y-119129884D01*
X149666000Y-119376116D01*
X149617964Y-119617610D01*
X149556421Y-119766186D01*
X149523735Y-119845097D01*
X149386938Y-120049828D01*
X149212828Y-120223938D01*
X149008097Y-120360735D01*
X149008096Y-120360736D01*
X149008095Y-120360736D01*
X148780610Y-120454964D01*
X148539116Y-120503000D01*
X148292884Y-120503000D01*
X148051390Y-120454964D01*
X147823905Y-120360736D01*
X147823904Y-120360736D01*
X147823903Y-120360735D01*
X147619172Y-120223938D01*
X147445062Y-120049828D01*
X147308265Y-119845097D01*
X147275579Y-119766186D01*
X147214036Y-119617610D01*
X147166000Y-119376116D01*
X147166000Y-119129884D01*
X147214036Y-118888390D01*
X147308264Y-118660905D01*
X147445062Y-118456172D01*
X147619172Y-118282062D01*
X147704571Y-118225000D01*
X147823903Y-118145265D01*
X147823905Y-118145264D01*
X148051390Y-118051036D01*
X148292884Y-118003000D01*
X148539116Y-118003000D01*
X148780610Y-118051036D01*
X148780610Y-118051036D01*
G37*
G36*
X156280610Y-118051036D02*
G01*
X156508095Y-118145264D01*
X156508097Y-118145265D01*
X156627429Y-118225000D01*
X156712828Y-118282062D01*
X156886938Y-118456172D01*
X157023736Y-118660905D01*
X157117964Y-118888390D01*
X157166000Y-119129884D01*
X157166000Y-119376116D01*
X157117964Y-119617610D01*
X157056421Y-119766186D01*
X157023735Y-119845097D01*
X156886938Y-120049828D01*
X156712828Y-120223938D01*
X156508097Y-120360735D01*
X156508096Y-120360736D01*
X156508095Y-120360736D01*
X156280610Y-120454964D01*
X156039116Y-120503000D01*
X155792884Y-120503000D01*
X155551390Y-120454964D01*
X155323905Y-120360736D01*
X155323904Y-120360736D01*
X155323903Y-120360735D01*
X155119172Y-120223938D01*
X154945062Y-120049828D01*
X154808265Y-119845097D01*
X154775579Y-119766186D01*
X154714036Y-119617610D01*
X154666000Y-119376116D01*
X154666000Y-119129884D01*
X154714036Y-118888390D01*
X154808264Y-118660905D01*
X154945062Y-118456172D01*
X155119172Y-118282062D01*
X155204571Y-118225000D01*
X155323903Y-118145265D01*
X155323905Y-118145264D01*
X155551390Y-118051036D01*
X155792884Y-118003000D01*
X156039116Y-118003000D01*
X156280610Y-118051036D01*
X156280610Y-118051036D01*
G37*
G36*
X106028442Y-118231518D02*
G01*
X106094627Y-118238037D01*
X106264466Y-118289557D01*
X106420991Y-118373222D01*
X106456729Y-118402552D01*
X106558186Y-118485814D01*
X106641448Y-118587271D01*
X106670778Y-118623009D01*
X106754443Y-118779534D01*
X106805963Y-118949373D01*
X106823359Y-119126000D01*
X106805963Y-119302627D01*
X106754443Y-119472466D01*
X106670778Y-119628991D01*
X106641448Y-119664729D01*
X106558186Y-119766186D01*
X106462034Y-119845095D01*
X106420991Y-119878778D01*
X106264466Y-119962443D01*
X106094627Y-120013963D01*
X106028442Y-120020482D01*
X105962260Y-120027000D01*
X105873740Y-120027000D01*
X105807558Y-120020482D01*
X105741373Y-120013963D01*
X105571534Y-119962443D01*
X105415009Y-119878778D01*
X105373966Y-119845095D01*
X105277814Y-119766186D01*
X105194552Y-119664729D01*
X105165222Y-119628991D01*
X105081557Y-119472466D01*
X105030037Y-119302627D01*
X105012641Y-119126000D01*
X105030037Y-118949373D01*
X105081557Y-118779534D01*
X105165222Y-118623009D01*
X105194552Y-118587271D01*
X105277814Y-118485814D01*
X105379271Y-118402552D01*
X105415009Y-118373222D01*
X105571534Y-118289557D01*
X105741373Y-118238037D01*
X105807558Y-118231518D01*
X105873740Y-118225000D01*
X105962260Y-118225000D01*
X106028442Y-118231518D01*
X106028442Y-118231518D01*
G37*
G36*
X153780610Y-115551036D02*
G01*
X154008095Y-115645264D01*
X154008097Y-115645265D01*
X154212828Y-115782062D01*
X154386938Y-115956172D01*
X154523736Y-116160905D01*
X154617964Y-116388390D01*
X154666000Y-116629884D01*
X154666000Y-116876116D01*
X154617964Y-117117610D01*
X154523736Y-117345095D01*
X154523735Y-117345097D01*
X154386938Y-117549828D01*
X154212828Y-117723938D01*
X154008097Y-117860735D01*
X154008096Y-117860736D01*
X154008095Y-117860736D01*
X153780610Y-117954964D01*
X153539116Y-118003000D01*
X153292884Y-118003000D01*
X153051390Y-117954964D01*
X152823905Y-117860736D01*
X152823904Y-117860736D01*
X152823903Y-117860735D01*
X152619172Y-117723938D01*
X152445062Y-117549828D01*
X152308265Y-117345097D01*
X152308264Y-117345095D01*
X152214036Y-117117610D01*
X152166000Y-116876116D01*
X152166000Y-116629884D01*
X152214036Y-116388390D01*
X152308264Y-116160905D01*
X152445062Y-115956172D01*
X152619172Y-115782062D01*
X152823903Y-115645265D01*
X152823905Y-115645264D01*
X153051390Y-115551036D01*
X153292884Y-115503000D01*
X153539116Y-115503000D01*
X153780610Y-115551036D01*
X153780610Y-115551036D01*
G37*
G36*
X143780610Y-115551036D02*
G01*
X144008095Y-115645264D01*
X144008097Y-115645265D01*
X144212828Y-115782062D01*
X144386938Y-115956172D01*
X144523736Y-116160905D01*
X144617964Y-116388390D01*
X144666000Y-116629884D01*
X144666000Y-116876116D01*
X144617964Y-117117610D01*
X144523736Y-117345095D01*
X144523735Y-117345097D01*
X144386938Y-117549828D01*
X144212828Y-117723938D01*
X144008097Y-117860735D01*
X144008096Y-117860736D01*
X144008095Y-117860736D01*
X143780610Y-117954964D01*
X143539116Y-118003000D01*
X143292884Y-118003000D01*
X143051390Y-117954964D01*
X142823905Y-117860736D01*
X142823904Y-117860736D01*
X142823903Y-117860735D01*
X142619172Y-117723938D01*
X142445062Y-117549828D01*
X142308265Y-117345097D01*
X142308264Y-117345095D01*
X142214036Y-117117610D01*
X142166000Y-116876116D01*
X142166000Y-116629884D01*
X142214036Y-116388390D01*
X142308264Y-116160905D01*
X142445062Y-115956172D01*
X142619172Y-115782062D01*
X142823903Y-115645265D01*
X142823905Y-115645264D01*
X143051390Y-115551036D01*
X143292884Y-115503000D01*
X143539116Y-115503000D01*
X143780610Y-115551036D01*
X143780610Y-115551036D01*
G37*
G36*
X106819000Y-117487000D02*
G01*
X105017000Y-117487000D01*
X105017000Y-115685000D01*
X106819000Y-115685000D01*
X106819000Y-117487000D01*
X106819000Y-117487000D01*
G37*
G36*
X130949000Y-116979000D02*
G01*
X129147000Y-116979000D01*
X129147000Y-115177000D01*
X130949000Y-115177000D01*
X130949000Y-116979000D01*
X130949000Y-116979000D01*
G37*
G36*
X146727000Y-111899800D02*
G01*
X145025000Y-111899800D01*
X145025000Y-110197800D01*
X146727000Y-110197800D01*
X146727000Y-111899800D01*
X146727000Y-111899800D01*
G37*
G36*
X148582823Y-110210113D02*
G01*
X148743242Y-110258776D01*
X148875906Y-110329686D01*
X148891078Y-110337796D01*
X149020659Y-110444141D01*
X149127004Y-110573722D01*
X149127005Y-110573724D01*
X149206024Y-110721558D01*
X149254687Y-110881977D01*
X149271117Y-111048800D01*
X149254687Y-111215623D01*
X149206024Y-111376042D01*
X149192630Y-111401100D01*
X149127004Y-111523878D01*
X149020659Y-111653459D01*
X148891078Y-111759804D01*
X148891076Y-111759805D01*
X148743242Y-111838824D01*
X148582823Y-111887487D01*
X148457804Y-111899800D01*
X148374196Y-111899800D01*
X148249177Y-111887487D01*
X148088758Y-111838824D01*
X147940924Y-111759805D01*
X147940922Y-111759804D01*
X147811341Y-111653459D01*
X147704996Y-111523878D01*
X147639370Y-111401100D01*
X147625976Y-111376042D01*
X147577313Y-111215623D01*
X147560883Y-111048800D01*
X147577313Y-110881977D01*
X147625976Y-110721558D01*
X147704995Y-110573724D01*
X147704996Y-110573722D01*
X147811341Y-110444141D01*
X147940922Y-110337796D01*
X147956094Y-110329686D01*
X148088758Y-110258776D01*
X148249177Y-110210113D01*
X148374196Y-110197800D01*
X148457804Y-110197800D01*
X148582823Y-110210113D01*
X148582823Y-110210113D01*
G37*
G36*
X151122823Y-110210113D02*
G01*
X151283242Y-110258776D01*
X151415906Y-110329686D01*
X151431078Y-110337796D01*
X151560659Y-110444141D01*
X151667004Y-110573722D01*
X151667005Y-110573724D01*
X151746024Y-110721558D01*
X151794687Y-110881977D01*
X151811117Y-111048800D01*
X151794687Y-111215623D01*
X151746024Y-111376042D01*
X151732630Y-111401100D01*
X151667004Y-111523878D01*
X151560659Y-111653459D01*
X151431078Y-111759804D01*
X151431076Y-111759805D01*
X151283242Y-111838824D01*
X151122823Y-111887487D01*
X150997804Y-111899800D01*
X150914196Y-111899800D01*
X150789177Y-111887487D01*
X150628758Y-111838824D01*
X150480924Y-111759805D01*
X150480922Y-111759804D01*
X150351341Y-111653459D01*
X150244996Y-111523878D01*
X150179370Y-111401100D01*
X150165976Y-111376042D01*
X150117313Y-111215623D01*
X150100883Y-111048800D01*
X150117313Y-110881977D01*
X150165976Y-110721558D01*
X150244995Y-110573724D01*
X150244996Y-110573722D01*
X150351341Y-110444141D01*
X150480922Y-110337796D01*
X150496094Y-110329686D01*
X150628758Y-110258776D01*
X150789177Y-110210113D01*
X150914196Y-110197800D01*
X150997804Y-110197800D01*
X151122823Y-110210113D01*
X151122823Y-110210113D01*
G37*
G36*
X139866823Y-110159313D02*
G01*
X140027242Y-110207976D01*
X140094361Y-110243852D01*
X140175078Y-110286996D01*
X140304659Y-110393341D01*
X140411004Y-110522922D01*
X140411005Y-110522924D01*
X140490024Y-110670758D01*
X140538687Y-110831177D01*
X140555117Y-110998000D01*
X140538687Y-111164823D01*
X140490024Y-111325242D01*
X140449477Y-111401100D01*
X140411004Y-111473078D01*
X140304659Y-111602659D01*
X140175078Y-111709004D01*
X140175076Y-111709005D01*
X140027242Y-111788024D01*
X139866823Y-111836687D01*
X139741804Y-111849000D01*
X139658196Y-111849000D01*
X139533177Y-111836687D01*
X139372758Y-111788024D01*
X139224924Y-111709005D01*
X139224922Y-111709004D01*
X139095341Y-111602659D01*
X138988996Y-111473078D01*
X138950523Y-111401100D01*
X138909976Y-111325242D01*
X138861313Y-111164823D01*
X138844883Y-110998000D01*
X138861313Y-110831177D01*
X138909976Y-110670758D01*
X138988995Y-110522924D01*
X138988996Y-110522922D01*
X139095341Y-110393341D01*
X139224922Y-110286996D01*
X139305639Y-110243852D01*
X139372758Y-110207976D01*
X139533177Y-110159313D01*
X139658196Y-110147000D01*
X139741804Y-110147000D01*
X139866823Y-110159313D01*
X139866823Y-110159313D01*
G37*
G36*
X157138823Y-110159313D02*
G01*
X157299242Y-110207976D01*
X157366361Y-110243852D01*
X157447078Y-110286996D01*
X157576659Y-110393341D01*
X157683004Y-110522922D01*
X157683005Y-110522924D01*
X157762024Y-110670758D01*
X157810687Y-110831177D01*
X157827117Y-110998000D01*
X157810687Y-111164823D01*
X157762024Y-111325242D01*
X157721477Y-111401100D01*
X157683004Y-111473078D01*
X157576659Y-111602659D01*
X157447078Y-111709004D01*
X157447076Y-111709005D01*
X157299242Y-111788024D01*
X157138823Y-111836687D01*
X157013804Y-111849000D01*
X156930196Y-111849000D01*
X156805177Y-111836687D01*
X156644758Y-111788024D01*
X156496924Y-111709005D01*
X156496922Y-111709004D01*
X156367341Y-111602659D01*
X156260996Y-111473078D01*
X156222523Y-111401100D01*
X156181976Y-111325242D01*
X156133313Y-111164823D01*
X156116883Y-110998000D01*
X156133313Y-110831177D01*
X156181976Y-110670758D01*
X156260995Y-110522924D01*
X156260996Y-110522922D01*
X156367341Y-110393341D01*
X156496922Y-110286996D01*
X156577639Y-110243852D01*
X156644758Y-110207976D01*
X156805177Y-110159313D01*
X156930196Y-110147000D01*
X157013804Y-110147000D01*
X157138823Y-110159313D01*
X157138823Y-110159313D01*
G37*
G36*
X161131828Y-110179703D02*
G01*
X161286700Y-110243853D01*
X161426081Y-110336985D01*
X161544615Y-110455519D01*
X161637747Y-110594900D01*
X161701897Y-110749772D01*
X161734600Y-110914184D01*
X161734600Y-111081816D01*
X161701897Y-111246228D01*
X161637747Y-111401100D01*
X161544615Y-111540481D01*
X161426081Y-111659015D01*
X161286700Y-111752147D01*
X161131828Y-111816297D01*
X160967416Y-111849000D01*
X160799784Y-111849000D01*
X160635372Y-111816297D01*
X160480500Y-111752147D01*
X160341119Y-111659015D01*
X160222585Y-111540481D01*
X160129453Y-111401100D01*
X160065303Y-111246228D01*
X160032600Y-111081816D01*
X160032600Y-110914184D01*
X160065303Y-110749772D01*
X160129453Y-110594900D01*
X160222585Y-110455519D01*
X160341119Y-110336985D01*
X160480500Y-110243853D01*
X160635372Y-110179703D01*
X160799784Y-110147000D01*
X160967416Y-110147000D01*
X161131828Y-110179703D01*
X161131828Y-110179703D01*
G37*
G36*
X113140443Y-108833519D02*
G01*
X113206627Y-108840037D01*
X113376466Y-108891557D01*
X113532991Y-108975222D01*
X113568729Y-109004552D01*
X113670186Y-109087814D01*
X113753448Y-109189271D01*
X113782778Y-109225009D01*
X113866443Y-109381534D01*
X113917963Y-109551373D01*
X113935359Y-109728000D01*
X113917963Y-109904627D01*
X113866443Y-110074466D01*
X113782778Y-110230991D01*
X113772223Y-110243852D01*
X113670186Y-110368186D01*
X113577633Y-110444141D01*
X113532991Y-110480778D01*
X113376466Y-110564443D01*
X113206627Y-110615963D01*
X113140442Y-110622482D01*
X113074260Y-110629000D01*
X112985740Y-110629000D01*
X112919558Y-110622482D01*
X112853373Y-110615963D01*
X112683534Y-110564443D01*
X112527009Y-110480778D01*
X112482367Y-110444141D01*
X112389814Y-110368186D01*
X112287777Y-110243852D01*
X112277222Y-110230991D01*
X112193557Y-110074466D01*
X112142037Y-109904627D01*
X112124641Y-109728000D01*
X112142037Y-109551373D01*
X112193557Y-109381534D01*
X112277222Y-109225009D01*
X112306552Y-109189271D01*
X112389814Y-109087814D01*
X112491271Y-109004552D01*
X112527009Y-108975222D01*
X112683534Y-108891557D01*
X112853373Y-108840037D01*
X112919557Y-108833519D01*
X112985740Y-108827000D01*
X113074260Y-108827000D01*
X113140443Y-108833519D01*
X113140443Y-108833519D01*
G37*
G36*
X110600443Y-108833519D02*
G01*
X110666627Y-108840037D01*
X110836466Y-108891557D01*
X110992991Y-108975222D01*
X111028729Y-109004552D01*
X111130186Y-109087814D01*
X111213448Y-109189271D01*
X111242778Y-109225009D01*
X111326443Y-109381534D01*
X111377963Y-109551373D01*
X111395359Y-109728000D01*
X111377963Y-109904627D01*
X111326443Y-110074466D01*
X111242778Y-110230991D01*
X111232223Y-110243852D01*
X111130186Y-110368186D01*
X111037633Y-110444141D01*
X110992991Y-110480778D01*
X110836466Y-110564443D01*
X110666627Y-110615963D01*
X110600442Y-110622482D01*
X110534260Y-110629000D01*
X110445740Y-110629000D01*
X110379558Y-110622482D01*
X110313373Y-110615963D01*
X110143534Y-110564443D01*
X109987009Y-110480778D01*
X109942367Y-110444141D01*
X109849814Y-110368186D01*
X109747777Y-110243852D01*
X109737222Y-110230991D01*
X109653557Y-110074466D01*
X109602037Y-109904627D01*
X109584641Y-109728000D01*
X109602037Y-109551373D01*
X109653557Y-109381534D01*
X109737222Y-109225009D01*
X109766552Y-109189271D01*
X109849814Y-109087814D01*
X109951271Y-109004552D01*
X109987009Y-108975222D01*
X110143534Y-108891557D01*
X110313373Y-108840037D01*
X110379557Y-108833519D01*
X110445740Y-108827000D01*
X110534260Y-108827000D01*
X110600443Y-108833519D01*
X110600443Y-108833519D01*
G37*
G36*
X115680443Y-108833519D02*
G01*
X115746627Y-108840037D01*
X115916466Y-108891557D01*
X116072991Y-108975222D01*
X116108729Y-109004552D01*
X116210186Y-109087814D01*
X116293448Y-109189271D01*
X116322778Y-109225009D01*
X116406443Y-109381534D01*
X116457963Y-109551373D01*
X116475359Y-109728000D01*
X116457963Y-109904627D01*
X116406443Y-110074466D01*
X116322778Y-110230991D01*
X116312223Y-110243852D01*
X116210186Y-110368186D01*
X116117633Y-110444141D01*
X116072991Y-110480778D01*
X115916466Y-110564443D01*
X115746627Y-110615963D01*
X115680442Y-110622482D01*
X115614260Y-110629000D01*
X115525740Y-110629000D01*
X115459558Y-110622482D01*
X115393373Y-110615963D01*
X115223534Y-110564443D01*
X115067009Y-110480778D01*
X115022367Y-110444141D01*
X114929814Y-110368186D01*
X114827777Y-110243852D01*
X114817222Y-110230991D01*
X114733557Y-110074466D01*
X114682037Y-109904627D01*
X114664641Y-109728000D01*
X114682037Y-109551373D01*
X114733557Y-109381534D01*
X114817222Y-109225009D01*
X114846552Y-109189271D01*
X114929814Y-109087814D01*
X115031271Y-109004552D01*
X115067009Y-108975222D01*
X115223534Y-108891557D01*
X115393373Y-108840037D01*
X115459557Y-108833519D01*
X115525740Y-108827000D01*
X115614260Y-108827000D01*
X115680443Y-108833519D01*
X115680443Y-108833519D01*
G37*
G36*
X134251000Y-110629000D02*
G01*
X132449000Y-110629000D01*
X132449000Y-108827000D01*
X134251000Y-108827000D01*
X134251000Y-110629000D01*
X134251000Y-110629000D01*
G37*
G36*
X108060443Y-108833519D02*
G01*
X108126627Y-108840037D01*
X108296466Y-108891557D01*
X108452991Y-108975222D01*
X108488729Y-109004552D01*
X108590186Y-109087814D01*
X108673448Y-109189271D01*
X108702778Y-109225009D01*
X108786443Y-109381534D01*
X108837963Y-109551373D01*
X108855359Y-109728000D01*
X108837963Y-109904627D01*
X108786443Y-110074466D01*
X108702778Y-110230991D01*
X108692223Y-110243852D01*
X108590186Y-110368186D01*
X108497633Y-110444141D01*
X108452991Y-110480778D01*
X108296466Y-110564443D01*
X108126627Y-110615963D01*
X108060442Y-110622482D01*
X107994260Y-110629000D01*
X107905740Y-110629000D01*
X107839558Y-110622482D01*
X107773373Y-110615963D01*
X107603534Y-110564443D01*
X107447009Y-110480778D01*
X107402367Y-110444141D01*
X107309814Y-110368186D01*
X107207777Y-110243852D01*
X107197222Y-110230991D01*
X107113557Y-110074466D01*
X107062037Y-109904627D01*
X107044641Y-109728000D01*
X107062037Y-109551373D01*
X107113557Y-109381534D01*
X107197222Y-109225009D01*
X107226552Y-109189271D01*
X107309814Y-109087814D01*
X107411271Y-109004552D01*
X107447009Y-108975222D01*
X107603534Y-108891557D01*
X107773373Y-108840037D01*
X107839557Y-108833519D01*
X107905740Y-108827000D01*
X107994260Y-108827000D01*
X108060443Y-108833519D01*
X108060443Y-108833519D01*
G37*
G36*
X130920443Y-108833519D02*
G01*
X130986627Y-108840037D01*
X131156466Y-108891557D01*
X131312991Y-108975222D01*
X131348729Y-109004552D01*
X131450186Y-109087814D01*
X131533448Y-109189271D01*
X131562778Y-109225009D01*
X131646443Y-109381534D01*
X131697963Y-109551373D01*
X131715359Y-109728000D01*
X131697963Y-109904627D01*
X131646443Y-110074466D01*
X131562778Y-110230991D01*
X131552223Y-110243852D01*
X131450186Y-110368186D01*
X131357633Y-110444141D01*
X131312991Y-110480778D01*
X131156466Y-110564443D01*
X130986627Y-110615963D01*
X130920442Y-110622482D01*
X130854260Y-110629000D01*
X130765740Y-110629000D01*
X130699558Y-110622482D01*
X130633373Y-110615963D01*
X130463534Y-110564443D01*
X130307009Y-110480778D01*
X130262367Y-110444141D01*
X130169814Y-110368186D01*
X130067777Y-110243852D01*
X130057222Y-110230991D01*
X129973557Y-110074466D01*
X129922037Y-109904627D01*
X129904641Y-109728000D01*
X129922037Y-109551373D01*
X129973557Y-109381534D01*
X130057222Y-109225009D01*
X130086552Y-109189271D01*
X130169814Y-109087814D01*
X130271271Y-109004552D01*
X130307009Y-108975222D01*
X130463534Y-108891557D01*
X130633373Y-108840037D01*
X130699557Y-108833519D01*
X130765740Y-108827000D01*
X130854260Y-108827000D01*
X130920443Y-108833519D01*
X130920443Y-108833519D01*
G37*
G36*
X128380443Y-108833519D02*
G01*
X128446627Y-108840037D01*
X128616466Y-108891557D01*
X128772991Y-108975222D01*
X128808729Y-109004552D01*
X128910186Y-109087814D01*
X128993448Y-109189271D01*
X129022778Y-109225009D01*
X129106443Y-109381534D01*
X129157963Y-109551373D01*
X129175359Y-109728000D01*
X129157963Y-109904627D01*
X129106443Y-110074466D01*
X129022778Y-110230991D01*
X129012223Y-110243852D01*
X128910186Y-110368186D01*
X128817633Y-110444141D01*
X128772991Y-110480778D01*
X128616466Y-110564443D01*
X128446627Y-110615963D01*
X128380442Y-110622482D01*
X128314260Y-110629000D01*
X128225740Y-110629000D01*
X128159558Y-110622482D01*
X128093373Y-110615963D01*
X127923534Y-110564443D01*
X127767009Y-110480778D01*
X127722367Y-110444141D01*
X127629814Y-110368186D01*
X127527777Y-110243852D01*
X127517222Y-110230991D01*
X127433557Y-110074466D01*
X127382037Y-109904627D01*
X127364641Y-109728000D01*
X127382037Y-109551373D01*
X127433557Y-109381534D01*
X127517222Y-109225009D01*
X127546552Y-109189271D01*
X127629814Y-109087814D01*
X127731271Y-109004552D01*
X127767009Y-108975222D01*
X127923534Y-108891557D01*
X128093373Y-108840037D01*
X128159557Y-108833519D01*
X128225740Y-108827000D01*
X128314260Y-108827000D01*
X128380443Y-108833519D01*
X128380443Y-108833519D01*
G37*
G36*
X125840443Y-108833519D02*
G01*
X125906627Y-108840037D01*
X126076466Y-108891557D01*
X126232991Y-108975222D01*
X126268729Y-109004552D01*
X126370186Y-109087814D01*
X126453448Y-109189271D01*
X126482778Y-109225009D01*
X126566443Y-109381534D01*
X126617963Y-109551373D01*
X126635359Y-109728000D01*
X126617963Y-109904627D01*
X126566443Y-110074466D01*
X126482778Y-110230991D01*
X126472223Y-110243852D01*
X126370186Y-110368186D01*
X126277633Y-110444141D01*
X126232991Y-110480778D01*
X126076466Y-110564443D01*
X125906627Y-110615963D01*
X125840442Y-110622482D01*
X125774260Y-110629000D01*
X125685740Y-110629000D01*
X125619558Y-110622482D01*
X125553373Y-110615963D01*
X125383534Y-110564443D01*
X125227009Y-110480778D01*
X125182367Y-110444141D01*
X125089814Y-110368186D01*
X124987777Y-110243852D01*
X124977222Y-110230991D01*
X124893557Y-110074466D01*
X124842037Y-109904627D01*
X124824641Y-109728000D01*
X124842037Y-109551373D01*
X124893557Y-109381534D01*
X124977222Y-109225009D01*
X125006552Y-109189271D01*
X125089814Y-109087814D01*
X125191271Y-109004552D01*
X125227009Y-108975222D01*
X125383534Y-108891557D01*
X125553373Y-108840037D01*
X125619557Y-108833519D01*
X125685740Y-108827000D01*
X125774260Y-108827000D01*
X125840443Y-108833519D01*
X125840443Y-108833519D01*
G37*
G36*
X118220443Y-108833519D02*
G01*
X118286627Y-108840037D01*
X118456466Y-108891557D01*
X118612991Y-108975222D01*
X118648729Y-109004552D01*
X118750186Y-109087814D01*
X118833448Y-109189271D01*
X118862778Y-109225009D01*
X118946443Y-109381534D01*
X118997963Y-109551373D01*
X119015359Y-109728000D01*
X118997963Y-109904627D01*
X118946443Y-110074466D01*
X118862778Y-110230991D01*
X118852223Y-110243852D01*
X118750186Y-110368186D01*
X118657633Y-110444141D01*
X118612991Y-110480778D01*
X118456466Y-110564443D01*
X118286627Y-110615963D01*
X118220442Y-110622482D01*
X118154260Y-110629000D01*
X118065740Y-110629000D01*
X117999558Y-110622482D01*
X117933373Y-110615963D01*
X117763534Y-110564443D01*
X117607009Y-110480778D01*
X117562367Y-110444141D01*
X117469814Y-110368186D01*
X117367777Y-110243852D01*
X117357222Y-110230991D01*
X117273557Y-110074466D01*
X117222037Y-109904627D01*
X117204641Y-109728000D01*
X117222037Y-109551373D01*
X117273557Y-109381534D01*
X117357222Y-109225009D01*
X117386552Y-109189271D01*
X117469814Y-109087814D01*
X117571271Y-109004552D01*
X117607009Y-108975222D01*
X117763534Y-108891557D01*
X117933373Y-108840037D01*
X117999557Y-108833519D01*
X118065740Y-108827000D01*
X118154260Y-108827000D01*
X118220443Y-108833519D01*
X118220443Y-108833519D01*
G37*
G36*
X120760443Y-108833519D02*
G01*
X120826627Y-108840037D01*
X120996466Y-108891557D01*
X121152991Y-108975222D01*
X121188729Y-109004552D01*
X121290186Y-109087814D01*
X121373448Y-109189271D01*
X121402778Y-109225009D01*
X121486443Y-109381534D01*
X121537963Y-109551373D01*
X121555359Y-109728000D01*
X121537963Y-109904627D01*
X121486443Y-110074466D01*
X121402778Y-110230991D01*
X121392223Y-110243852D01*
X121290186Y-110368186D01*
X121197633Y-110444141D01*
X121152991Y-110480778D01*
X120996466Y-110564443D01*
X120826627Y-110615963D01*
X120760442Y-110622482D01*
X120694260Y-110629000D01*
X120605740Y-110629000D01*
X120539558Y-110622482D01*
X120473373Y-110615963D01*
X120303534Y-110564443D01*
X120147009Y-110480778D01*
X120102367Y-110444141D01*
X120009814Y-110368186D01*
X119907777Y-110243852D01*
X119897222Y-110230991D01*
X119813557Y-110074466D01*
X119762037Y-109904627D01*
X119744641Y-109728000D01*
X119762037Y-109551373D01*
X119813557Y-109381534D01*
X119897222Y-109225009D01*
X119926552Y-109189271D01*
X120009814Y-109087814D01*
X120111271Y-109004552D01*
X120147009Y-108975222D01*
X120303534Y-108891557D01*
X120473373Y-108840037D01*
X120539557Y-108833519D01*
X120605740Y-108827000D01*
X120694260Y-108827000D01*
X120760443Y-108833519D01*
X120760443Y-108833519D01*
G37*
G36*
X123300443Y-108833519D02*
G01*
X123366627Y-108840037D01*
X123536466Y-108891557D01*
X123692991Y-108975222D01*
X123728729Y-109004552D01*
X123830186Y-109087814D01*
X123913448Y-109189271D01*
X123942778Y-109225009D01*
X124026443Y-109381534D01*
X124077963Y-109551373D01*
X124095359Y-109728000D01*
X124077963Y-109904627D01*
X124026443Y-110074466D01*
X123942778Y-110230991D01*
X123932223Y-110243852D01*
X123830186Y-110368186D01*
X123737633Y-110444141D01*
X123692991Y-110480778D01*
X123536466Y-110564443D01*
X123366627Y-110615963D01*
X123300442Y-110622482D01*
X123234260Y-110629000D01*
X123145740Y-110629000D01*
X123079558Y-110622482D01*
X123013373Y-110615963D01*
X122843534Y-110564443D01*
X122687009Y-110480778D01*
X122642367Y-110444141D01*
X122549814Y-110368186D01*
X122447777Y-110243852D01*
X122437222Y-110230991D01*
X122353557Y-110074466D01*
X122302037Y-109904627D01*
X122284641Y-109728000D01*
X122302037Y-109551373D01*
X122353557Y-109381534D01*
X122437222Y-109225009D01*
X122466552Y-109189271D01*
X122549814Y-109087814D01*
X122651271Y-109004552D01*
X122687009Y-108975222D01*
X122843534Y-108891557D01*
X123013373Y-108840037D01*
X123079557Y-108833519D01*
X123145740Y-108827000D01*
X123234260Y-108827000D01*
X123300443Y-108833519D01*
X123300443Y-108833519D01*
G37*
G36*
X127161243Y-104515519D02*
G01*
X127227427Y-104522037D01*
X127397266Y-104573557D01*
X127553791Y-104657222D01*
X127589529Y-104686552D01*
X127690986Y-104769814D01*
X127774248Y-104871271D01*
X127803578Y-104907009D01*
X127887243Y-105063534D01*
X127938763Y-105233373D01*
X127956159Y-105410000D01*
X127938763Y-105586627D01*
X127887243Y-105756466D01*
X127803578Y-105912991D01*
X127774248Y-105948729D01*
X127690986Y-106050186D01*
X127589529Y-106133448D01*
X127553791Y-106162778D01*
X127397266Y-106246443D01*
X127227427Y-106297963D01*
X127161242Y-106304482D01*
X127095060Y-106311000D01*
X127006540Y-106311000D01*
X126940358Y-106304482D01*
X126874173Y-106297963D01*
X126704334Y-106246443D01*
X126547809Y-106162778D01*
X126512071Y-106133448D01*
X126410614Y-106050186D01*
X126327352Y-105948729D01*
X126298022Y-105912991D01*
X126214357Y-105756466D01*
X126162837Y-105586627D01*
X126145441Y-105410000D01*
X126162837Y-105233373D01*
X126214357Y-105063534D01*
X126298022Y-104907009D01*
X126327352Y-104871271D01*
X126410614Y-104769814D01*
X126512071Y-104686552D01*
X126547809Y-104657222D01*
X126704334Y-104573557D01*
X126874173Y-104522037D01*
X126940357Y-104515519D01*
X127006540Y-104509000D01*
X127095060Y-104509000D01*
X127161243Y-104515519D01*
X127161243Y-104515519D01*
G37*
G36*
X124621243Y-104515519D02*
G01*
X124687427Y-104522037D01*
X124857266Y-104573557D01*
X125013791Y-104657222D01*
X125049529Y-104686552D01*
X125150986Y-104769814D01*
X125234248Y-104871271D01*
X125263578Y-104907009D01*
X125347243Y-105063534D01*
X125398763Y-105233373D01*
X125416159Y-105410000D01*
X125398763Y-105586627D01*
X125347243Y-105756466D01*
X125263578Y-105912991D01*
X125234248Y-105948729D01*
X125150986Y-106050186D01*
X125049529Y-106133448D01*
X125013791Y-106162778D01*
X124857266Y-106246443D01*
X124687427Y-106297963D01*
X124621242Y-106304482D01*
X124555060Y-106311000D01*
X124466540Y-106311000D01*
X124400358Y-106304482D01*
X124334173Y-106297963D01*
X124164334Y-106246443D01*
X124007809Y-106162778D01*
X123972071Y-106133448D01*
X123870614Y-106050186D01*
X123787352Y-105948729D01*
X123758022Y-105912991D01*
X123674357Y-105756466D01*
X123622837Y-105586627D01*
X123605441Y-105410000D01*
X123622837Y-105233373D01*
X123674357Y-105063534D01*
X123758022Y-104907009D01*
X123787352Y-104871271D01*
X123870614Y-104769814D01*
X123972071Y-104686552D01*
X124007809Y-104657222D01*
X124164334Y-104573557D01*
X124334173Y-104522037D01*
X124400357Y-104515519D01*
X124466540Y-104509000D01*
X124555060Y-104509000D01*
X124621243Y-104515519D01*
X124621243Y-104515519D01*
G37*
G36*
X122081243Y-104515519D02*
G01*
X122147427Y-104522037D01*
X122317266Y-104573557D01*
X122473791Y-104657222D01*
X122509529Y-104686552D01*
X122610986Y-104769814D01*
X122694248Y-104871271D01*
X122723578Y-104907009D01*
X122807243Y-105063534D01*
X122858763Y-105233373D01*
X122876159Y-105410000D01*
X122858763Y-105586627D01*
X122807243Y-105756466D01*
X122723578Y-105912991D01*
X122694248Y-105948729D01*
X122610986Y-106050186D01*
X122509529Y-106133448D01*
X122473791Y-106162778D01*
X122317266Y-106246443D01*
X122147427Y-106297963D01*
X122081242Y-106304482D01*
X122015060Y-106311000D01*
X121926540Y-106311000D01*
X121860358Y-106304482D01*
X121794173Y-106297963D01*
X121624334Y-106246443D01*
X121467809Y-106162778D01*
X121432071Y-106133448D01*
X121330614Y-106050186D01*
X121247352Y-105948729D01*
X121218022Y-105912991D01*
X121134357Y-105756466D01*
X121082837Y-105586627D01*
X121065441Y-105410000D01*
X121082837Y-105233373D01*
X121134357Y-105063534D01*
X121218022Y-104907009D01*
X121247352Y-104871271D01*
X121330614Y-104769814D01*
X121432071Y-104686552D01*
X121467809Y-104657222D01*
X121624334Y-104573557D01*
X121794173Y-104522037D01*
X121860357Y-104515519D01*
X121926540Y-104509000D01*
X122015060Y-104509000D01*
X122081243Y-104515519D01*
X122081243Y-104515519D01*
G37*
G36*
X120331800Y-106311000D02*
G01*
X118529800Y-106311000D01*
X118529800Y-104509000D01*
X120331800Y-104509000D01*
X120331800Y-106311000D01*
X120331800Y-106311000D01*
G37*
G36*
X106028443Y-104515519D02*
G01*
X106094627Y-104522037D01*
X106264466Y-104573557D01*
X106420991Y-104657222D01*
X106456729Y-104686552D01*
X106558186Y-104769814D01*
X106641448Y-104871271D01*
X106670778Y-104907009D01*
X106754443Y-105063534D01*
X106805963Y-105233373D01*
X106823359Y-105410000D01*
X106805963Y-105586627D01*
X106754443Y-105756466D01*
X106670778Y-105912991D01*
X106641448Y-105948729D01*
X106558186Y-106050186D01*
X106456729Y-106133448D01*
X106420991Y-106162778D01*
X106264466Y-106246443D01*
X106094627Y-106297963D01*
X106028442Y-106304482D01*
X105962260Y-106311000D01*
X105873740Y-106311000D01*
X105807558Y-106304482D01*
X105741373Y-106297963D01*
X105571534Y-106246443D01*
X105415009Y-106162778D01*
X105379271Y-106133448D01*
X105277814Y-106050186D01*
X105194552Y-105948729D01*
X105165222Y-105912991D01*
X105081557Y-105756466D01*
X105030037Y-105586627D01*
X105012641Y-105410000D01*
X105030037Y-105233373D01*
X105081557Y-105063534D01*
X105165222Y-104907009D01*
X105194552Y-104871271D01*
X105277814Y-104769814D01*
X105379271Y-104686552D01*
X105415009Y-104657222D01*
X105571534Y-104573557D01*
X105741373Y-104522037D01*
X105807557Y-104515519D01*
X105873740Y-104509000D01*
X105962260Y-104509000D01*
X106028443Y-104515519D01*
X106028443Y-104515519D01*
G37*
G36*
X151122823Y-102590113D02*
G01*
X151283242Y-102638776D01*
X151385389Y-102693375D01*
X151431078Y-102717796D01*
X151560659Y-102824141D01*
X151667004Y-102953722D01*
X151667005Y-102953724D01*
X151746024Y-103101558D01*
X151794687Y-103261977D01*
X151811117Y-103428800D01*
X151794687Y-103595623D01*
X151746024Y-103756042D01*
X151675114Y-103888706D01*
X151667004Y-103903878D01*
X151560659Y-104033459D01*
X151431078Y-104139804D01*
X151431076Y-104139805D01*
X151283242Y-104218824D01*
X151122823Y-104267487D01*
X150997804Y-104279800D01*
X150914196Y-104279800D01*
X150789177Y-104267487D01*
X150628758Y-104218824D01*
X150480924Y-104139805D01*
X150480922Y-104139804D01*
X150351341Y-104033459D01*
X150244996Y-103903878D01*
X150236886Y-103888706D01*
X150165976Y-103756042D01*
X150117313Y-103595623D01*
X150100883Y-103428800D01*
X150117313Y-103261977D01*
X150165976Y-103101558D01*
X150244995Y-102953724D01*
X150244996Y-102953722D01*
X150351341Y-102824141D01*
X150480922Y-102717796D01*
X150526611Y-102693375D01*
X150628758Y-102638776D01*
X150789177Y-102590113D01*
X150914196Y-102577800D01*
X150997804Y-102577800D01*
X151122823Y-102590113D01*
X151122823Y-102590113D01*
G37*
G36*
X148582823Y-102590113D02*
G01*
X148743242Y-102638776D01*
X148845389Y-102693375D01*
X148891078Y-102717796D01*
X149020659Y-102824141D01*
X149127004Y-102953722D01*
X149127005Y-102953724D01*
X149206024Y-103101558D01*
X149254687Y-103261977D01*
X149271117Y-103428800D01*
X149254687Y-103595623D01*
X149206024Y-103756042D01*
X149135114Y-103888706D01*
X149127004Y-103903878D01*
X149020659Y-104033459D01*
X148891078Y-104139804D01*
X148891076Y-104139805D01*
X148743242Y-104218824D01*
X148582823Y-104267487D01*
X148457804Y-104279800D01*
X148374196Y-104279800D01*
X148249177Y-104267487D01*
X148088758Y-104218824D01*
X147940924Y-104139805D01*
X147940922Y-104139804D01*
X147811341Y-104033459D01*
X147704996Y-103903878D01*
X147696886Y-103888706D01*
X147625976Y-103756042D01*
X147577313Y-103595623D01*
X147560883Y-103428800D01*
X147577313Y-103261977D01*
X147625976Y-103101558D01*
X147704995Y-102953724D01*
X147704996Y-102953722D01*
X147811341Y-102824141D01*
X147940922Y-102717796D01*
X147986611Y-102693375D01*
X148088758Y-102638776D01*
X148249177Y-102590113D01*
X148374196Y-102577800D01*
X148457804Y-102577800D01*
X148582823Y-102590113D01*
X148582823Y-102590113D01*
G37*
G36*
X146042823Y-102590113D02*
G01*
X146203242Y-102638776D01*
X146305389Y-102693375D01*
X146351078Y-102717796D01*
X146480659Y-102824141D01*
X146587004Y-102953722D01*
X146587005Y-102953724D01*
X146666024Y-103101558D01*
X146714687Y-103261977D01*
X146731117Y-103428800D01*
X146714687Y-103595623D01*
X146666024Y-103756042D01*
X146595114Y-103888706D01*
X146587004Y-103903878D01*
X146480659Y-104033459D01*
X146351078Y-104139804D01*
X146351076Y-104139805D01*
X146203242Y-104218824D01*
X146042823Y-104267487D01*
X145917804Y-104279800D01*
X145834196Y-104279800D01*
X145709177Y-104267487D01*
X145548758Y-104218824D01*
X145400924Y-104139805D01*
X145400922Y-104139804D01*
X145271341Y-104033459D01*
X145164996Y-103903878D01*
X145156886Y-103888706D01*
X145085976Y-103756042D01*
X145037313Y-103595623D01*
X145020883Y-103428800D01*
X145037313Y-103261977D01*
X145085976Y-103101558D01*
X145164995Y-102953724D01*
X145164996Y-102953722D01*
X145271341Y-102824141D01*
X145400922Y-102717796D01*
X145446611Y-102693375D01*
X145548758Y-102638776D01*
X145709177Y-102590113D01*
X145834196Y-102577800D01*
X145917804Y-102577800D01*
X146042823Y-102590113D01*
X146042823Y-102590113D01*
G37*
G36*
X106028442Y-101975518D02*
G01*
X106094627Y-101982037D01*
X106264466Y-102033557D01*
X106420991Y-102117222D01*
X106456729Y-102146552D01*
X106558186Y-102229814D01*
X106641448Y-102331271D01*
X106670778Y-102367009D01*
X106754443Y-102523534D01*
X106805963Y-102693373D01*
X106823359Y-102870000D01*
X106805963Y-103046627D01*
X106754443Y-103216466D01*
X106670778Y-103372991D01*
X106641448Y-103408729D01*
X106558186Y-103510186D01*
X106456729Y-103593448D01*
X106420991Y-103622778D01*
X106264466Y-103706443D01*
X106094627Y-103757963D01*
X106028443Y-103764481D01*
X105962260Y-103771000D01*
X105873740Y-103771000D01*
X105807557Y-103764481D01*
X105741373Y-103757963D01*
X105571534Y-103706443D01*
X105415009Y-103622778D01*
X105379271Y-103593448D01*
X105277814Y-103510186D01*
X105194552Y-103408729D01*
X105165222Y-103372991D01*
X105081557Y-103216466D01*
X105030037Y-103046627D01*
X105012641Y-102870000D01*
X105030037Y-102693373D01*
X105081557Y-102523534D01*
X105165222Y-102367009D01*
X105194552Y-102331271D01*
X105277814Y-102229814D01*
X105379271Y-102146552D01*
X105415009Y-102117222D01*
X105571534Y-102033557D01*
X105741373Y-101982037D01*
X105807558Y-101975518D01*
X105873740Y-101969000D01*
X105962260Y-101969000D01*
X106028442Y-101975518D01*
X106028442Y-101975518D01*
G37*
G36*
X157220228Y-100019703D02*
G01*
X157375100Y-100083853D01*
X157514481Y-100176985D01*
X157633015Y-100295519D01*
X157726147Y-100434900D01*
X157790297Y-100589772D01*
X157823000Y-100754184D01*
X157823000Y-100921816D01*
X157790297Y-101086228D01*
X157726147Y-101241100D01*
X157633015Y-101380481D01*
X157514481Y-101499015D01*
X157375100Y-101592147D01*
X157220228Y-101656297D01*
X157055816Y-101689000D01*
X156888184Y-101689000D01*
X156723772Y-101656297D01*
X156568900Y-101592147D01*
X156429519Y-101499015D01*
X156310985Y-101380481D01*
X156217853Y-101241100D01*
X156153703Y-101086228D01*
X156121000Y-100921816D01*
X156121000Y-100754184D01*
X156153703Y-100589772D01*
X156217853Y-100434900D01*
X156310985Y-100295519D01*
X156429519Y-100176985D01*
X156568900Y-100083853D01*
X156723772Y-100019703D01*
X156888184Y-99987000D01*
X157055816Y-99987000D01*
X157220228Y-100019703D01*
X157220228Y-100019703D01*
G37*
G36*
X140551000Y-101689000D02*
G01*
X138849000Y-101689000D01*
X138849000Y-99987000D01*
X140551000Y-99987000D01*
X140551000Y-101689000D01*
X140551000Y-101689000D01*
G37*
G36*
X161050423Y-99999313D02*
G01*
X161210842Y-100047976D01*
X161277961Y-100083852D01*
X161358678Y-100126996D01*
X161488259Y-100233341D01*
X161594604Y-100362922D01*
X161594605Y-100362924D01*
X161673624Y-100510758D01*
X161722287Y-100671177D01*
X161738717Y-100838000D01*
X161722287Y-101004823D01*
X161673624Y-101165242D01*
X161633077Y-101241100D01*
X161594604Y-101313078D01*
X161488259Y-101442659D01*
X161358678Y-101549004D01*
X161358676Y-101549005D01*
X161210842Y-101628024D01*
X161050423Y-101676687D01*
X160925404Y-101689000D01*
X160841796Y-101689000D01*
X160716777Y-101676687D01*
X160556358Y-101628024D01*
X160408524Y-101549005D01*
X160408522Y-101549004D01*
X160278941Y-101442659D01*
X160172596Y-101313078D01*
X160134123Y-101241100D01*
X160093576Y-101165242D01*
X160044913Y-101004823D01*
X160028483Y-100838000D01*
X160044913Y-100671177D01*
X160093576Y-100510758D01*
X160172595Y-100362924D01*
X160172596Y-100362922D01*
X160278941Y-100233341D01*
X160408522Y-100126996D01*
X160489239Y-100083852D01*
X160556358Y-100047976D01*
X160716777Y-99999313D01*
X160841796Y-99987000D01*
X160925404Y-99987000D01*
X161050423Y-99999313D01*
X161050423Y-99999313D01*
G37*
G36*
X106028443Y-99435519D02*
G01*
X106094627Y-99442037D01*
X106264466Y-99493557D01*
X106420991Y-99577222D01*
X106456729Y-99606552D01*
X106558186Y-99689814D01*
X106641448Y-99791271D01*
X106670778Y-99827009D01*
X106754443Y-99983534D01*
X106805963Y-100153373D01*
X106823359Y-100330000D01*
X106805963Y-100506627D01*
X106754443Y-100676466D01*
X106670778Y-100832991D01*
X106666667Y-100838000D01*
X106558186Y-100970186D01*
X106456729Y-101053448D01*
X106420991Y-101082778D01*
X106264466Y-101166443D01*
X106094627Y-101217963D01*
X106028443Y-101224481D01*
X105962260Y-101231000D01*
X105873740Y-101231000D01*
X105807558Y-101224482D01*
X105741373Y-101217963D01*
X105571534Y-101166443D01*
X105415009Y-101082778D01*
X105379271Y-101053448D01*
X105277814Y-100970186D01*
X105169333Y-100838000D01*
X105165222Y-100832991D01*
X105081557Y-100676466D01*
X105030037Y-100506627D01*
X105012641Y-100330000D01*
X105030037Y-100153373D01*
X105081557Y-99983534D01*
X105165222Y-99827009D01*
X105194552Y-99791271D01*
X105277814Y-99689814D01*
X105379271Y-99606552D01*
X105415009Y-99577222D01*
X105571534Y-99493557D01*
X105741373Y-99442037D01*
X105807558Y-99435518D01*
X105873740Y-99429000D01*
X105962260Y-99429000D01*
X106028443Y-99435519D01*
X106028443Y-99435519D01*
G37*
G36*
X151120428Y-99308503D02*
G01*
X151275300Y-99372653D01*
X151414681Y-99465785D01*
X151533215Y-99584319D01*
X151626347Y-99723700D01*
X151690497Y-99878572D01*
X151723200Y-100042984D01*
X151723200Y-100210616D01*
X151690497Y-100375028D01*
X151626347Y-100529900D01*
X151533215Y-100669281D01*
X151414681Y-100787815D01*
X151275300Y-100880947D01*
X151120428Y-100945097D01*
X150956016Y-100977800D01*
X150788384Y-100977800D01*
X150623972Y-100945097D01*
X150469100Y-100880947D01*
X150329719Y-100787815D01*
X150211185Y-100669281D01*
X150118053Y-100529900D01*
X150053903Y-100375028D01*
X150021200Y-100210616D01*
X150021200Y-100042984D01*
X150053903Y-99878572D01*
X150118053Y-99723700D01*
X150211185Y-99584319D01*
X150329719Y-99465785D01*
X150469100Y-99372653D01*
X150623972Y-99308503D01*
X150788384Y-99275800D01*
X150956016Y-99275800D01*
X151120428Y-99308503D01*
X151120428Y-99308503D01*
G37*
G36*
X146120428Y-99308503D02*
G01*
X146275300Y-99372653D01*
X146414681Y-99465785D01*
X146533215Y-99584319D01*
X146626347Y-99723700D01*
X146690497Y-99878572D01*
X146723200Y-100042984D01*
X146723200Y-100210616D01*
X146690497Y-100375028D01*
X146626347Y-100529900D01*
X146533215Y-100669281D01*
X146414681Y-100787815D01*
X146275300Y-100880947D01*
X146120428Y-100945097D01*
X145956016Y-100977800D01*
X145788384Y-100977800D01*
X145623972Y-100945097D01*
X145469100Y-100880947D01*
X145329719Y-100787815D01*
X145211185Y-100669281D01*
X145118053Y-100529900D01*
X145053903Y-100375028D01*
X145021200Y-100210616D01*
X145021200Y-100042984D01*
X145053903Y-99878572D01*
X145118053Y-99723700D01*
X145211185Y-99584319D01*
X145329719Y-99465785D01*
X145469100Y-99372653D01*
X145623972Y-99308503D01*
X145788384Y-99275800D01*
X145956016Y-99275800D01*
X146120428Y-99308503D01*
X146120428Y-99308503D01*
G37*
G36*
X106819000Y-98691000D02*
G01*
X105017000Y-98691000D01*
X105017000Y-96889000D01*
X106819000Y-96889000D01*
X106819000Y-98691000D01*
X106819000Y-98691000D01*
G37*
G36*
X149963364Y-94827789D02*
G01*
X150154633Y-94907015D01*
X150154635Y-94907016D01*
X150252426Y-94972358D01*
X150326773Y-95022035D01*
X150473165Y-95168427D01*
X150588185Y-95340567D01*
X150667411Y-95531836D01*
X150707800Y-95734884D01*
X150707800Y-95941916D01*
X150667411Y-96144964D01*
X150598310Y-96311789D01*
X150588184Y-96336235D01*
X150473165Y-96508373D01*
X150326773Y-96654765D01*
X150154635Y-96769784D01*
X150154634Y-96769785D01*
X150154633Y-96769785D01*
X149963364Y-96849011D01*
X149760316Y-96889400D01*
X149553284Y-96889400D01*
X149350236Y-96849011D01*
X149158967Y-96769785D01*
X149158966Y-96769785D01*
X149158965Y-96769784D01*
X148986827Y-96654765D01*
X148840435Y-96508373D01*
X148725416Y-96336235D01*
X148715290Y-96311789D01*
X148646189Y-96144964D01*
X148605800Y-95941916D01*
X148605800Y-95734884D01*
X148646189Y-95531836D01*
X148725415Y-95340567D01*
X148840435Y-95168427D01*
X148986827Y-95022035D01*
X149061174Y-94972358D01*
X149158965Y-94907016D01*
X149158967Y-94907015D01*
X149350236Y-94827789D01*
X149553284Y-94787400D01*
X149760316Y-94787400D01*
X149963364Y-94827789D01*
X149963364Y-94827789D01*
G37*
G36*
X156463364Y-94827789D02*
G01*
X156654633Y-94907015D01*
X156654635Y-94907016D01*
X156752426Y-94972358D01*
X156826773Y-95022035D01*
X156973165Y-95168427D01*
X157088185Y-95340567D01*
X157167411Y-95531836D01*
X157207800Y-95734884D01*
X157207800Y-95941916D01*
X157167411Y-96144964D01*
X157098310Y-96311789D01*
X157088184Y-96336235D01*
X156973165Y-96508373D01*
X156826773Y-96654765D01*
X156654635Y-96769784D01*
X156654634Y-96769785D01*
X156654633Y-96769785D01*
X156463364Y-96849011D01*
X156260316Y-96889400D01*
X156053284Y-96889400D01*
X155850236Y-96849011D01*
X155658967Y-96769785D01*
X155658966Y-96769785D01*
X155658965Y-96769784D01*
X155486827Y-96654765D01*
X155340435Y-96508373D01*
X155225416Y-96336235D01*
X155215290Y-96311789D01*
X155146189Y-96144964D01*
X155105800Y-95941916D01*
X155105800Y-95734884D01*
X155146189Y-95531836D01*
X155225415Y-95340567D01*
X155340435Y-95168427D01*
X155486827Y-95022035D01*
X155561174Y-94972358D01*
X155658965Y-94907016D01*
X155658967Y-94907015D01*
X155850236Y-94827789D01*
X156053284Y-94787400D01*
X156260316Y-94787400D01*
X156463364Y-94827789D01*
X156463364Y-94827789D01*
G37*
G36*
X147420964Y-94827789D02*
G01*
X147612233Y-94907015D01*
X147612235Y-94907016D01*
X147710026Y-94972358D01*
X147784373Y-95022035D01*
X147930765Y-95168427D01*
X148045785Y-95340567D01*
X148125011Y-95531836D01*
X148165400Y-95734884D01*
X148165400Y-95941916D01*
X148125011Y-96144964D01*
X148055910Y-96311789D01*
X148045784Y-96336235D01*
X147930765Y-96508373D01*
X147784373Y-96654765D01*
X147612235Y-96769784D01*
X147612234Y-96769785D01*
X147612233Y-96769785D01*
X147420964Y-96849011D01*
X147217916Y-96889400D01*
X147010884Y-96889400D01*
X146807836Y-96849011D01*
X146616567Y-96769785D01*
X146616566Y-96769785D01*
X146616565Y-96769784D01*
X146444427Y-96654765D01*
X146298035Y-96508373D01*
X146183016Y-96336235D01*
X146172890Y-96311789D01*
X146103789Y-96144964D01*
X146063400Y-95941916D01*
X146063400Y-95734884D01*
X146103789Y-95531836D01*
X146183015Y-95340567D01*
X146298035Y-95168427D01*
X146444427Y-95022035D01*
X146518774Y-94972358D01*
X146616565Y-94907016D01*
X146616567Y-94907015D01*
X146807836Y-94827789D01*
X147010884Y-94787400D01*
X147217916Y-94787400D01*
X147420964Y-94827789D01*
X147420964Y-94827789D01*
G37*
G36*
X140920964Y-94827789D02*
G01*
X141112233Y-94907015D01*
X141112235Y-94907016D01*
X141210026Y-94972358D01*
X141284373Y-95022035D01*
X141430765Y-95168427D01*
X141545785Y-95340567D01*
X141625011Y-95531836D01*
X141665400Y-95734884D01*
X141665400Y-95941916D01*
X141625011Y-96144964D01*
X141555910Y-96311789D01*
X141545784Y-96336235D01*
X141430765Y-96508373D01*
X141284373Y-96654765D01*
X141112235Y-96769784D01*
X141112234Y-96769785D01*
X141112233Y-96769785D01*
X140920964Y-96849011D01*
X140717916Y-96889400D01*
X140510884Y-96889400D01*
X140307836Y-96849011D01*
X140116567Y-96769785D01*
X140116566Y-96769785D01*
X140116565Y-96769784D01*
X139944427Y-96654765D01*
X139798035Y-96508373D01*
X139683016Y-96336235D01*
X139672890Y-96311789D01*
X139603789Y-96144964D01*
X139563400Y-95941916D01*
X139563400Y-95734884D01*
X139603789Y-95531836D01*
X139683015Y-95340567D01*
X139798035Y-95168427D01*
X139944427Y-95022035D01*
X140018774Y-94972358D01*
X140116565Y-94907016D01*
X140116567Y-94907015D01*
X140307836Y-94827789D01*
X140510884Y-94787400D01*
X140717916Y-94787400D01*
X140920964Y-94827789D01*
X140920964Y-94827789D01*
G37*
G36*
X160994043Y-94914319D02*
G01*
X161060227Y-94920837D01*
X161230066Y-94972357D01*
X161386591Y-95056022D01*
X161422329Y-95085352D01*
X161523786Y-95168614D01*
X161607048Y-95270071D01*
X161636378Y-95305809D01*
X161720043Y-95462334D01*
X161771563Y-95632173D01*
X161788959Y-95808800D01*
X161771563Y-95985427D01*
X161720043Y-96155266D01*
X161636378Y-96311791D01*
X161616319Y-96336233D01*
X161523786Y-96448986D01*
X161422329Y-96532248D01*
X161386591Y-96561578D01*
X161230066Y-96645243D01*
X161060227Y-96696763D01*
X160994043Y-96703281D01*
X160927860Y-96709800D01*
X160839340Y-96709800D01*
X160773157Y-96703281D01*
X160706973Y-96696763D01*
X160537134Y-96645243D01*
X160380609Y-96561578D01*
X160344871Y-96532248D01*
X160243414Y-96448986D01*
X160150881Y-96336233D01*
X160130822Y-96311791D01*
X160047157Y-96155266D01*
X159995637Y-95985427D01*
X159978241Y-95808800D01*
X159995637Y-95632173D01*
X160047157Y-95462334D01*
X160130822Y-95305809D01*
X160160152Y-95270071D01*
X160243414Y-95168614D01*
X160344871Y-95085352D01*
X160380609Y-95056022D01*
X160537134Y-94972357D01*
X160706973Y-94920837D01*
X160773158Y-94914318D01*
X160839340Y-94907800D01*
X160927860Y-94907800D01*
X160994043Y-94914319D01*
X160994043Y-94914319D01*
G37*
G36*
X160994043Y-92374319D02*
G01*
X161060227Y-92380837D01*
X161230066Y-92432357D01*
X161386591Y-92516022D01*
X161422329Y-92545352D01*
X161523786Y-92628614D01*
X161607048Y-92730071D01*
X161636378Y-92765809D01*
X161720043Y-92922334D01*
X161771563Y-93092173D01*
X161788959Y-93268800D01*
X161771563Y-93445427D01*
X161720043Y-93615266D01*
X161636378Y-93771791D01*
X161607048Y-93807529D01*
X161523786Y-93908986D01*
X161422329Y-93992248D01*
X161386591Y-94021578D01*
X161230066Y-94105243D01*
X161060227Y-94156763D01*
X160994043Y-94163281D01*
X160927860Y-94169800D01*
X160839340Y-94169800D01*
X160773158Y-94163282D01*
X160706973Y-94156763D01*
X160537134Y-94105243D01*
X160380609Y-94021578D01*
X160344871Y-93992248D01*
X160243414Y-93908986D01*
X160160152Y-93807529D01*
X160130822Y-93771791D01*
X160047157Y-93615266D01*
X159995637Y-93445427D01*
X159978241Y-93268800D01*
X159995637Y-93092173D01*
X160047157Y-92922334D01*
X160130822Y-92765809D01*
X160160152Y-92730071D01*
X160243414Y-92628614D01*
X160344871Y-92545352D01*
X160380609Y-92516022D01*
X160537134Y-92432357D01*
X160706973Y-92380837D01*
X160773157Y-92374319D01*
X160839340Y-92367800D01*
X160927860Y-92367800D01*
X160994043Y-92374319D01*
X160994043Y-92374319D01*
G37*
G36*
X117756164Y-91343789D02*
G01*
X117947433Y-91423015D01*
X117947435Y-91423016D01*
X118119573Y-91538035D01*
X118265965Y-91684427D01*
X118367399Y-91836233D01*
X118380985Y-91856567D01*
X118460211Y-92047836D01*
X118500600Y-92250884D01*
X118500600Y-92457916D01*
X118460211Y-92660964D01*
X118416783Y-92765809D01*
X118380984Y-92852235D01*
X118265965Y-93024373D01*
X118119573Y-93170765D01*
X117947435Y-93285784D01*
X117947434Y-93285785D01*
X117947433Y-93285785D01*
X117756164Y-93365011D01*
X117553116Y-93405400D01*
X117346084Y-93405400D01*
X117143036Y-93365011D01*
X116951767Y-93285785D01*
X116951766Y-93285785D01*
X116951765Y-93285784D01*
X116779627Y-93170765D01*
X116633235Y-93024373D01*
X116518216Y-92852235D01*
X116482417Y-92765809D01*
X116438989Y-92660964D01*
X116398600Y-92457916D01*
X116398600Y-92250884D01*
X116438989Y-92047836D01*
X116518215Y-91856567D01*
X116531802Y-91836233D01*
X116633235Y-91684427D01*
X116779627Y-91538035D01*
X116951765Y-91423016D01*
X116951767Y-91423015D01*
X117143036Y-91343789D01*
X117346084Y-91303400D01*
X117553116Y-91303400D01*
X117756164Y-91343789D01*
X117756164Y-91343789D01*
G37*
G36*
X115144164Y-91343789D02*
G01*
X115335433Y-91423015D01*
X115335435Y-91423016D01*
X115507573Y-91538035D01*
X115653965Y-91684427D01*
X115755399Y-91836233D01*
X115768985Y-91856567D01*
X115848211Y-92047836D01*
X115888600Y-92250884D01*
X115888600Y-92457916D01*
X115848211Y-92660964D01*
X115804783Y-92765809D01*
X115768984Y-92852235D01*
X115653965Y-93024373D01*
X115507573Y-93170765D01*
X115335435Y-93285784D01*
X115335434Y-93285785D01*
X115335433Y-93285785D01*
X115144164Y-93365011D01*
X114941116Y-93405400D01*
X114734084Y-93405400D01*
X114531036Y-93365011D01*
X114339767Y-93285785D01*
X114339766Y-93285785D01*
X114339765Y-93285784D01*
X114167627Y-93170765D01*
X114021235Y-93024373D01*
X113906216Y-92852235D01*
X113870417Y-92765809D01*
X113826989Y-92660964D01*
X113786600Y-92457916D01*
X113786600Y-92250884D01*
X113826989Y-92047836D01*
X113906215Y-91856567D01*
X113919802Y-91836233D01*
X114021235Y-91684427D01*
X114167627Y-91538035D01*
X114339765Y-91423016D01*
X114339767Y-91423015D01*
X114531036Y-91343789D01*
X114734084Y-91303400D01*
X114941116Y-91303400D01*
X115144164Y-91343789D01*
X115144164Y-91343789D01*
G37*
G36*
X110644164Y-91343789D02*
G01*
X110835433Y-91423015D01*
X110835435Y-91423016D01*
X111007573Y-91538035D01*
X111153965Y-91684427D01*
X111255399Y-91836233D01*
X111268985Y-91856567D01*
X111348211Y-92047836D01*
X111388600Y-92250884D01*
X111388600Y-92457916D01*
X111348211Y-92660964D01*
X111304783Y-92765809D01*
X111268984Y-92852235D01*
X111153965Y-93024373D01*
X111007573Y-93170765D01*
X110835435Y-93285784D01*
X110835434Y-93285785D01*
X110835433Y-93285785D01*
X110644164Y-93365011D01*
X110441116Y-93405400D01*
X110234084Y-93405400D01*
X110031036Y-93365011D01*
X109839767Y-93285785D01*
X109839766Y-93285785D01*
X109839765Y-93285784D01*
X109667627Y-93170765D01*
X109521235Y-93024373D01*
X109406216Y-92852235D01*
X109370417Y-92765809D01*
X109326989Y-92660964D01*
X109286600Y-92457916D01*
X109286600Y-92250884D01*
X109326989Y-92047836D01*
X109406215Y-91856567D01*
X109419802Y-91836233D01*
X109521235Y-91684427D01*
X109667627Y-91538035D01*
X109839765Y-91423016D01*
X109839767Y-91423015D01*
X110031036Y-91343789D01*
X110234084Y-91303400D01*
X110441116Y-91303400D01*
X110644164Y-91343789D01*
X110644164Y-91343789D01*
G37*
G36*
X124868164Y-91343789D02*
G01*
X125059433Y-91423015D01*
X125059435Y-91423016D01*
X125231573Y-91538035D01*
X125377965Y-91684427D01*
X125479399Y-91836233D01*
X125492985Y-91856567D01*
X125572211Y-92047836D01*
X125612600Y-92250884D01*
X125612600Y-92457916D01*
X125572211Y-92660964D01*
X125528783Y-92765809D01*
X125492984Y-92852235D01*
X125377965Y-93024373D01*
X125231573Y-93170765D01*
X125059435Y-93285784D01*
X125059434Y-93285785D01*
X125059433Y-93285785D01*
X124868164Y-93365011D01*
X124665116Y-93405400D01*
X124458084Y-93405400D01*
X124255036Y-93365011D01*
X124063767Y-93285785D01*
X124063766Y-93285785D01*
X124063765Y-93285784D01*
X123891627Y-93170765D01*
X123745235Y-93024373D01*
X123630216Y-92852235D01*
X123594417Y-92765809D01*
X123550989Y-92660964D01*
X123510600Y-92457916D01*
X123510600Y-92250884D01*
X123550989Y-92047836D01*
X123630215Y-91856567D01*
X123643802Y-91836233D01*
X123745235Y-91684427D01*
X123891627Y-91538035D01*
X124063765Y-91423016D01*
X124063767Y-91423015D01*
X124255036Y-91343789D01*
X124458084Y-91303400D01*
X124665116Y-91303400D01*
X124868164Y-91343789D01*
X124868164Y-91343789D01*
G37*
G36*
X122256164Y-91343789D02*
G01*
X122447433Y-91423015D01*
X122447435Y-91423016D01*
X122619573Y-91538035D01*
X122765965Y-91684427D01*
X122867399Y-91836233D01*
X122880985Y-91856567D01*
X122960211Y-92047836D01*
X123000600Y-92250884D01*
X123000600Y-92457916D01*
X122960211Y-92660964D01*
X122916783Y-92765809D01*
X122880984Y-92852235D01*
X122765965Y-93024373D01*
X122619573Y-93170765D01*
X122447435Y-93285784D01*
X122447434Y-93285785D01*
X122447433Y-93285785D01*
X122256164Y-93365011D01*
X122053116Y-93405400D01*
X121846084Y-93405400D01*
X121643036Y-93365011D01*
X121451767Y-93285785D01*
X121451766Y-93285785D01*
X121451765Y-93285784D01*
X121279627Y-93170765D01*
X121133235Y-93024373D01*
X121018216Y-92852235D01*
X120982417Y-92765809D01*
X120938989Y-92660964D01*
X120898600Y-92457916D01*
X120898600Y-92250884D01*
X120938989Y-92047836D01*
X121018215Y-91856567D01*
X121031802Y-91836233D01*
X121133235Y-91684427D01*
X121279627Y-91538035D01*
X121451765Y-91423016D01*
X121451767Y-91423015D01*
X121643036Y-91343789D01*
X121846084Y-91303400D01*
X122053116Y-91303400D01*
X122256164Y-91343789D01*
X122256164Y-91343789D01*
G37*
G36*
X136480164Y-91343789D02*
G01*
X136671433Y-91423015D01*
X136671435Y-91423016D01*
X136843573Y-91538035D01*
X136989965Y-91684427D01*
X137091399Y-91836233D01*
X137104985Y-91856567D01*
X137184211Y-92047836D01*
X137224600Y-92250884D01*
X137224600Y-92457916D01*
X137184211Y-92660964D01*
X137140783Y-92765809D01*
X137104984Y-92852235D01*
X136989965Y-93024373D01*
X136843573Y-93170765D01*
X136671435Y-93285784D01*
X136671434Y-93285785D01*
X136671433Y-93285785D01*
X136480164Y-93365011D01*
X136277116Y-93405400D01*
X136070084Y-93405400D01*
X135867036Y-93365011D01*
X135675767Y-93285785D01*
X135675766Y-93285785D01*
X135675765Y-93285784D01*
X135503627Y-93170765D01*
X135357235Y-93024373D01*
X135242216Y-92852235D01*
X135206417Y-92765809D01*
X135162989Y-92660964D01*
X135122600Y-92457916D01*
X135122600Y-92250884D01*
X135162989Y-92047836D01*
X135242215Y-91856567D01*
X135255802Y-91836233D01*
X135357235Y-91684427D01*
X135503627Y-91538035D01*
X135675765Y-91423016D01*
X135675767Y-91423015D01*
X135867036Y-91343789D01*
X136070084Y-91303400D01*
X136277116Y-91303400D01*
X136480164Y-91343789D01*
X136480164Y-91343789D01*
G37*
G36*
X131980164Y-91343789D02*
G01*
X132171433Y-91423015D01*
X132171435Y-91423016D01*
X132343573Y-91538035D01*
X132489965Y-91684427D01*
X132591399Y-91836233D01*
X132604985Y-91856567D01*
X132684211Y-92047836D01*
X132724600Y-92250884D01*
X132724600Y-92457916D01*
X132684211Y-92660964D01*
X132640783Y-92765809D01*
X132604984Y-92852235D01*
X132489965Y-93024373D01*
X132343573Y-93170765D01*
X132171435Y-93285784D01*
X132171434Y-93285785D01*
X132171433Y-93285785D01*
X131980164Y-93365011D01*
X131777116Y-93405400D01*
X131570084Y-93405400D01*
X131367036Y-93365011D01*
X131175767Y-93285785D01*
X131175766Y-93285785D01*
X131175765Y-93285784D01*
X131003627Y-93170765D01*
X130857235Y-93024373D01*
X130742216Y-92852235D01*
X130706417Y-92765809D01*
X130662989Y-92660964D01*
X130622600Y-92457916D01*
X130622600Y-92250884D01*
X130662989Y-92047836D01*
X130742215Y-91856567D01*
X130755802Y-91836233D01*
X130857235Y-91684427D01*
X131003627Y-91538035D01*
X131175765Y-91423016D01*
X131175767Y-91423015D01*
X131367036Y-91343789D01*
X131570084Y-91303400D01*
X131777116Y-91303400D01*
X131980164Y-91343789D01*
X131980164Y-91343789D01*
G37*
G36*
X129368164Y-91343789D02*
G01*
X129559433Y-91423015D01*
X129559435Y-91423016D01*
X129731573Y-91538035D01*
X129877965Y-91684427D01*
X129979399Y-91836233D01*
X129992985Y-91856567D01*
X130072211Y-92047836D01*
X130112600Y-92250884D01*
X130112600Y-92457916D01*
X130072211Y-92660964D01*
X130028783Y-92765809D01*
X129992984Y-92852235D01*
X129877965Y-93024373D01*
X129731573Y-93170765D01*
X129559435Y-93285784D01*
X129559434Y-93285785D01*
X129559433Y-93285785D01*
X129368164Y-93365011D01*
X129165116Y-93405400D01*
X128958084Y-93405400D01*
X128755036Y-93365011D01*
X128563767Y-93285785D01*
X128563766Y-93285785D01*
X128563765Y-93285784D01*
X128391627Y-93170765D01*
X128245235Y-93024373D01*
X128130216Y-92852235D01*
X128094417Y-92765809D01*
X128050989Y-92660964D01*
X128010600Y-92457916D01*
X128010600Y-92250884D01*
X128050989Y-92047836D01*
X128130215Y-91856567D01*
X128143802Y-91836233D01*
X128245235Y-91684427D01*
X128391627Y-91538035D01*
X128563765Y-91423016D01*
X128563767Y-91423015D01*
X128755036Y-91343789D01*
X128958084Y-91303400D01*
X129165116Y-91303400D01*
X129368164Y-91343789D01*
X129368164Y-91343789D01*
G37*
G36*
X156463364Y-90327789D02*
G01*
X156654633Y-90407015D01*
X156654635Y-90407016D01*
X156826773Y-90522035D01*
X156973165Y-90668427D01*
X157088185Y-90840567D01*
X157167411Y-91031836D01*
X157207800Y-91234884D01*
X157207800Y-91441916D01*
X157167411Y-91644964D01*
X157088185Y-91836233D01*
X157088184Y-91836235D01*
X156973165Y-92008373D01*
X156826773Y-92154765D01*
X156654635Y-92269784D01*
X156654634Y-92269785D01*
X156654633Y-92269785D01*
X156463364Y-92349011D01*
X156260316Y-92389400D01*
X156053284Y-92389400D01*
X155850236Y-92349011D01*
X155658967Y-92269785D01*
X155658966Y-92269785D01*
X155658965Y-92269784D01*
X155486827Y-92154765D01*
X155340435Y-92008373D01*
X155225416Y-91836235D01*
X155225415Y-91836233D01*
X155146189Y-91644964D01*
X155105800Y-91441916D01*
X155105800Y-91234884D01*
X155146189Y-91031836D01*
X155225415Y-90840567D01*
X155340435Y-90668427D01*
X155486827Y-90522035D01*
X155658965Y-90407016D01*
X155658967Y-90407015D01*
X155850236Y-90327789D01*
X156053284Y-90287400D01*
X156260316Y-90287400D01*
X156463364Y-90327789D01*
X156463364Y-90327789D01*
G37*
G36*
X149963364Y-90327789D02*
G01*
X150154633Y-90407015D01*
X150154635Y-90407016D01*
X150326773Y-90522035D01*
X150473165Y-90668427D01*
X150588185Y-90840567D01*
X150667411Y-91031836D01*
X150707800Y-91234884D01*
X150707800Y-91441916D01*
X150667411Y-91644964D01*
X150588185Y-91836233D01*
X150588184Y-91836235D01*
X150473165Y-92008373D01*
X150326773Y-92154765D01*
X150154635Y-92269784D01*
X150154634Y-92269785D01*
X150154633Y-92269785D01*
X149963364Y-92349011D01*
X149760316Y-92389400D01*
X149553284Y-92389400D01*
X149350236Y-92349011D01*
X149158967Y-92269785D01*
X149158966Y-92269785D01*
X149158965Y-92269784D01*
X148986827Y-92154765D01*
X148840435Y-92008373D01*
X148725416Y-91836235D01*
X148725415Y-91836233D01*
X148646189Y-91644964D01*
X148605800Y-91441916D01*
X148605800Y-91234884D01*
X148646189Y-91031836D01*
X148725415Y-90840567D01*
X148840435Y-90668427D01*
X148986827Y-90522035D01*
X149158965Y-90407016D01*
X149158967Y-90407015D01*
X149350236Y-90327789D01*
X149553284Y-90287400D01*
X149760316Y-90287400D01*
X149963364Y-90327789D01*
X149963364Y-90327789D01*
G37*
G36*
X147420964Y-90327789D02*
G01*
X147612233Y-90407015D01*
X147612235Y-90407016D01*
X147784373Y-90522035D01*
X147930765Y-90668427D01*
X148045785Y-90840567D01*
X148125011Y-91031836D01*
X148165400Y-91234884D01*
X148165400Y-91441916D01*
X148125011Y-91644964D01*
X148045785Y-91836233D01*
X148045784Y-91836235D01*
X147930765Y-92008373D01*
X147784373Y-92154765D01*
X147612235Y-92269784D01*
X147612234Y-92269785D01*
X147612233Y-92269785D01*
X147420964Y-92349011D01*
X147217916Y-92389400D01*
X147010884Y-92389400D01*
X146807836Y-92349011D01*
X146616567Y-92269785D01*
X146616566Y-92269785D01*
X146616565Y-92269784D01*
X146444427Y-92154765D01*
X146298035Y-92008373D01*
X146183016Y-91836235D01*
X146183015Y-91836233D01*
X146103789Y-91644964D01*
X146063400Y-91441916D01*
X146063400Y-91234884D01*
X146103789Y-91031836D01*
X146183015Y-90840567D01*
X146298035Y-90668427D01*
X146444427Y-90522035D01*
X146616565Y-90407016D01*
X146616567Y-90407015D01*
X146807836Y-90327789D01*
X147010884Y-90287400D01*
X147217916Y-90287400D01*
X147420964Y-90327789D01*
X147420964Y-90327789D01*
G37*
G36*
X140920964Y-90327789D02*
G01*
X141112233Y-90407015D01*
X141112235Y-90407016D01*
X141284373Y-90522035D01*
X141430765Y-90668427D01*
X141545785Y-90840567D01*
X141625011Y-91031836D01*
X141665400Y-91234884D01*
X141665400Y-91441916D01*
X141625011Y-91644964D01*
X141545785Y-91836233D01*
X141545784Y-91836235D01*
X141430765Y-92008373D01*
X141284373Y-92154765D01*
X141112235Y-92269784D01*
X141112234Y-92269785D01*
X141112233Y-92269785D01*
X140920964Y-92349011D01*
X140717916Y-92389400D01*
X140510884Y-92389400D01*
X140307836Y-92349011D01*
X140116567Y-92269785D01*
X140116566Y-92269785D01*
X140116565Y-92269784D01*
X139944427Y-92154765D01*
X139798035Y-92008373D01*
X139683016Y-91836235D01*
X139683015Y-91836233D01*
X139603789Y-91644964D01*
X139563400Y-91441916D01*
X139563400Y-91234884D01*
X139603789Y-91031836D01*
X139683015Y-90840567D01*
X139798035Y-90668427D01*
X139944427Y-90522035D01*
X140116565Y-90407016D01*
X140116567Y-90407015D01*
X140307836Y-90327789D01*
X140510884Y-90287400D01*
X140717916Y-90287400D01*
X140920964Y-90327789D01*
X140920964Y-90327789D01*
G37*
G36*
X160994042Y-89834318D02*
G01*
X161060227Y-89840837D01*
X161230066Y-89892357D01*
X161386591Y-89976022D01*
X161422329Y-90005352D01*
X161523786Y-90088614D01*
X161607048Y-90190071D01*
X161636378Y-90225809D01*
X161720043Y-90382334D01*
X161771563Y-90552173D01*
X161788959Y-90728800D01*
X161771563Y-90905427D01*
X161720043Y-91075266D01*
X161636378Y-91231791D01*
X161607048Y-91267529D01*
X161523786Y-91368986D01*
X161434919Y-91441916D01*
X161386591Y-91481578D01*
X161230066Y-91565243D01*
X161060227Y-91616763D01*
X160994043Y-91623281D01*
X160927860Y-91629800D01*
X160839340Y-91629800D01*
X160773157Y-91623281D01*
X160706973Y-91616763D01*
X160537134Y-91565243D01*
X160380609Y-91481578D01*
X160332281Y-91441916D01*
X160243414Y-91368986D01*
X160160152Y-91267529D01*
X160130822Y-91231791D01*
X160047157Y-91075266D01*
X159995637Y-90905427D01*
X159978241Y-90728800D01*
X159995637Y-90552173D01*
X160047157Y-90382334D01*
X160130822Y-90225809D01*
X160160152Y-90190071D01*
X160243414Y-90088614D01*
X160344871Y-90005352D01*
X160380609Y-89976022D01*
X160537134Y-89892357D01*
X160706973Y-89840837D01*
X160773158Y-89834318D01*
X160839340Y-89827800D01*
X160927860Y-89827800D01*
X160994042Y-89834318D01*
X160994042Y-89834318D01*
G37*
G36*
X147420964Y-87817389D02*
G01*
X147612233Y-87896615D01*
X147612235Y-87896616D01*
X147784373Y-88011635D01*
X147930765Y-88158027D01*
X148045785Y-88330167D01*
X148125011Y-88521436D01*
X148165400Y-88724484D01*
X148165400Y-88931516D01*
X148125011Y-89134564D01*
X148045785Y-89325833D01*
X148045784Y-89325835D01*
X147930765Y-89497973D01*
X147784373Y-89644365D01*
X147612235Y-89759384D01*
X147612234Y-89759385D01*
X147612233Y-89759385D01*
X147420964Y-89838611D01*
X147217916Y-89879000D01*
X147010884Y-89879000D01*
X146807836Y-89838611D01*
X146616567Y-89759385D01*
X146616566Y-89759385D01*
X146616565Y-89759384D01*
X146444427Y-89644365D01*
X146298035Y-89497973D01*
X146183016Y-89325835D01*
X146183015Y-89325833D01*
X146103789Y-89134564D01*
X146063400Y-88931516D01*
X146063400Y-88724484D01*
X146103789Y-88521436D01*
X146183015Y-88330167D01*
X146298035Y-88158027D01*
X146444427Y-88011635D01*
X146616565Y-87896616D01*
X146616567Y-87896615D01*
X146807836Y-87817389D01*
X147010884Y-87777000D01*
X147217916Y-87777000D01*
X147420964Y-87817389D01*
X147420964Y-87817389D01*
G37*
G36*
X140920964Y-87817389D02*
G01*
X141112233Y-87896615D01*
X141112235Y-87896616D01*
X141284373Y-88011635D01*
X141430765Y-88158027D01*
X141545785Y-88330167D01*
X141625011Y-88521436D01*
X141665400Y-88724484D01*
X141665400Y-88931516D01*
X141625011Y-89134564D01*
X141545785Y-89325833D01*
X141545784Y-89325835D01*
X141430765Y-89497973D01*
X141284373Y-89644365D01*
X141112235Y-89759384D01*
X141112234Y-89759385D01*
X141112233Y-89759385D01*
X140920964Y-89838611D01*
X140717916Y-89879000D01*
X140510884Y-89879000D01*
X140307836Y-89838611D01*
X140116567Y-89759385D01*
X140116566Y-89759385D01*
X140116565Y-89759384D01*
X139944427Y-89644365D01*
X139798035Y-89497973D01*
X139683016Y-89325835D01*
X139683015Y-89325833D01*
X139603789Y-89134564D01*
X139563400Y-88931516D01*
X139563400Y-88724484D01*
X139603789Y-88521436D01*
X139683015Y-88330167D01*
X139798035Y-88158027D01*
X139944427Y-88011635D01*
X140116565Y-87896616D01*
X140116567Y-87896615D01*
X140307836Y-87817389D01*
X140510884Y-87777000D01*
X140717916Y-87777000D01*
X140920964Y-87817389D01*
X140920964Y-87817389D01*
G37*
G36*
X149963364Y-87817389D02*
G01*
X150154633Y-87896615D01*
X150154635Y-87896616D01*
X150326773Y-88011635D01*
X150473165Y-88158027D01*
X150588185Y-88330167D01*
X150667411Y-88521436D01*
X150707800Y-88724484D01*
X150707800Y-88931516D01*
X150667411Y-89134564D01*
X150588185Y-89325833D01*
X150588184Y-89325835D01*
X150473165Y-89497973D01*
X150326773Y-89644365D01*
X150154635Y-89759384D01*
X150154634Y-89759385D01*
X150154633Y-89759385D01*
X149963364Y-89838611D01*
X149760316Y-89879000D01*
X149553284Y-89879000D01*
X149350236Y-89838611D01*
X149158967Y-89759385D01*
X149158966Y-89759385D01*
X149158965Y-89759384D01*
X148986827Y-89644365D01*
X148840435Y-89497973D01*
X148725416Y-89325835D01*
X148725415Y-89325833D01*
X148646189Y-89134564D01*
X148605800Y-88931516D01*
X148605800Y-88724484D01*
X148646189Y-88521436D01*
X148725415Y-88330167D01*
X148840435Y-88158027D01*
X148986827Y-88011635D01*
X149158965Y-87896616D01*
X149158967Y-87896615D01*
X149350236Y-87817389D01*
X149553284Y-87777000D01*
X149760316Y-87777000D01*
X149963364Y-87817389D01*
X149963364Y-87817389D01*
G37*
G36*
X156463364Y-87817389D02*
G01*
X156654633Y-87896615D01*
X156654635Y-87896616D01*
X156826773Y-88011635D01*
X156973165Y-88158027D01*
X157088185Y-88330167D01*
X157167411Y-88521436D01*
X157207800Y-88724484D01*
X157207800Y-88931516D01*
X157167411Y-89134564D01*
X157088185Y-89325833D01*
X157088184Y-89325835D01*
X156973165Y-89497973D01*
X156826773Y-89644365D01*
X156654635Y-89759384D01*
X156654634Y-89759385D01*
X156654633Y-89759385D01*
X156463364Y-89838611D01*
X156260316Y-89879000D01*
X156053284Y-89879000D01*
X155850236Y-89838611D01*
X155658967Y-89759385D01*
X155658966Y-89759385D01*
X155658965Y-89759384D01*
X155486827Y-89644365D01*
X155340435Y-89497973D01*
X155225416Y-89325835D01*
X155225415Y-89325833D01*
X155146189Y-89134564D01*
X155105800Y-88931516D01*
X155105800Y-88724484D01*
X155146189Y-88521436D01*
X155225415Y-88330167D01*
X155340435Y-88158027D01*
X155486827Y-88011635D01*
X155658965Y-87896616D01*
X155658967Y-87896615D01*
X155850236Y-87817389D01*
X156053284Y-87777000D01*
X156260316Y-87777000D01*
X156463364Y-87817389D01*
X156463364Y-87817389D01*
G37*
G36*
X160994042Y-87294318D02*
G01*
X161060227Y-87300837D01*
X161230066Y-87352357D01*
X161386591Y-87436022D01*
X161422329Y-87465352D01*
X161523786Y-87548614D01*
X161607048Y-87650071D01*
X161636378Y-87685809D01*
X161720043Y-87842334D01*
X161771563Y-88012173D01*
X161788959Y-88188800D01*
X161771563Y-88365427D01*
X161720043Y-88535266D01*
X161636378Y-88691791D01*
X161609547Y-88724484D01*
X161523786Y-88828986D01*
X161422329Y-88912248D01*
X161386591Y-88941578D01*
X161230066Y-89025243D01*
X161060227Y-89076763D01*
X160994043Y-89083281D01*
X160927860Y-89089800D01*
X160839340Y-89089800D01*
X160773157Y-89083281D01*
X160706973Y-89076763D01*
X160537134Y-89025243D01*
X160380609Y-88941578D01*
X160344871Y-88912248D01*
X160243414Y-88828986D01*
X160157653Y-88724484D01*
X160130822Y-88691791D01*
X160047157Y-88535266D01*
X159995637Y-88365427D01*
X159978241Y-88188800D01*
X159995637Y-88012173D01*
X160047157Y-87842334D01*
X160130822Y-87685809D01*
X160160152Y-87650071D01*
X160243414Y-87548614D01*
X160344871Y-87465352D01*
X160380609Y-87436022D01*
X160537134Y-87352357D01*
X160706973Y-87300837D01*
X160773158Y-87294318D01*
X160839340Y-87287800D01*
X160927860Y-87287800D01*
X160994042Y-87294318D01*
X160994042Y-87294318D01*
G37*
G36*
X122256164Y-84843789D02*
G01*
X122447433Y-84923015D01*
X122447435Y-84923016D01*
X122619573Y-85038035D01*
X122765965Y-85184427D01*
X122868988Y-85338611D01*
X122880985Y-85356567D01*
X122960211Y-85547836D01*
X123000600Y-85750884D01*
X123000600Y-85957916D01*
X122960211Y-86160964D01*
X122880985Y-86352233D01*
X122880984Y-86352235D01*
X122765965Y-86524373D01*
X122619573Y-86670765D01*
X122447435Y-86785784D01*
X122447434Y-86785785D01*
X122447433Y-86785785D01*
X122256164Y-86865011D01*
X122053116Y-86905400D01*
X121846084Y-86905400D01*
X121643036Y-86865011D01*
X121451767Y-86785785D01*
X121451766Y-86785785D01*
X121451765Y-86785784D01*
X121279627Y-86670765D01*
X121133235Y-86524373D01*
X121018216Y-86352235D01*
X121018215Y-86352233D01*
X120938989Y-86160964D01*
X120898600Y-85957916D01*
X120898600Y-85750884D01*
X120938989Y-85547836D01*
X121018215Y-85356567D01*
X121030213Y-85338611D01*
X121133235Y-85184427D01*
X121279627Y-85038035D01*
X121451765Y-84923016D01*
X121451767Y-84923015D01*
X121643036Y-84843789D01*
X121846084Y-84803400D01*
X122053116Y-84803400D01*
X122256164Y-84843789D01*
X122256164Y-84843789D01*
G37*
G36*
X136480164Y-84843789D02*
G01*
X136671433Y-84923015D01*
X136671435Y-84923016D01*
X136843573Y-85038035D01*
X136989965Y-85184427D01*
X137092988Y-85338611D01*
X137104985Y-85356567D01*
X137184211Y-85547836D01*
X137224600Y-85750884D01*
X137224600Y-85957916D01*
X137184211Y-86160964D01*
X137104985Y-86352233D01*
X137104984Y-86352235D01*
X136989965Y-86524373D01*
X136843573Y-86670765D01*
X136671435Y-86785784D01*
X136671434Y-86785785D01*
X136671433Y-86785785D01*
X136480164Y-86865011D01*
X136277116Y-86905400D01*
X136070084Y-86905400D01*
X135867036Y-86865011D01*
X135675767Y-86785785D01*
X135675766Y-86785785D01*
X135675765Y-86785784D01*
X135503627Y-86670765D01*
X135357235Y-86524373D01*
X135242216Y-86352235D01*
X135242215Y-86352233D01*
X135162989Y-86160964D01*
X135122600Y-85957916D01*
X135122600Y-85750884D01*
X135162989Y-85547836D01*
X135242215Y-85356567D01*
X135254213Y-85338611D01*
X135357235Y-85184427D01*
X135503627Y-85038035D01*
X135675765Y-84923016D01*
X135675767Y-84923015D01*
X135867036Y-84843789D01*
X136070084Y-84803400D01*
X136277116Y-84803400D01*
X136480164Y-84843789D01*
X136480164Y-84843789D01*
G37*
G36*
X117756164Y-84843789D02*
G01*
X117947433Y-84923015D01*
X117947435Y-84923016D01*
X118119573Y-85038035D01*
X118265965Y-85184427D01*
X118368988Y-85338611D01*
X118380985Y-85356567D01*
X118460211Y-85547836D01*
X118500600Y-85750884D01*
X118500600Y-85957916D01*
X118460211Y-86160964D01*
X118380985Y-86352233D01*
X118380984Y-86352235D01*
X118265965Y-86524373D01*
X118119573Y-86670765D01*
X117947435Y-86785784D01*
X117947434Y-86785785D01*
X117947433Y-86785785D01*
X117756164Y-86865011D01*
X117553116Y-86905400D01*
X117346084Y-86905400D01*
X117143036Y-86865011D01*
X116951767Y-86785785D01*
X116951766Y-86785785D01*
X116951765Y-86785784D01*
X116779627Y-86670765D01*
X116633235Y-86524373D01*
X116518216Y-86352235D01*
X116518215Y-86352233D01*
X116438989Y-86160964D01*
X116398600Y-85957916D01*
X116398600Y-85750884D01*
X116438989Y-85547836D01*
X116518215Y-85356567D01*
X116530213Y-85338611D01*
X116633235Y-85184427D01*
X116779627Y-85038035D01*
X116951765Y-84923016D01*
X116951767Y-84923015D01*
X117143036Y-84843789D01*
X117346084Y-84803400D01*
X117553116Y-84803400D01*
X117756164Y-84843789D01*
X117756164Y-84843789D01*
G37*
G36*
X131980164Y-84843789D02*
G01*
X132171433Y-84923015D01*
X132171435Y-84923016D01*
X132343573Y-85038035D01*
X132489965Y-85184427D01*
X132592988Y-85338611D01*
X132604985Y-85356567D01*
X132684211Y-85547836D01*
X132724600Y-85750884D01*
X132724600Y-85957916D01*
X132684211Y-86160964D01*
X132604985Y-86352233D01*
X132604984Y-86352235D01*
X132489965Y-86524373D01*
X132343573Y-86670765D01*
X132171435Y-86785784D01*
X132171434Y-86785785D01*
X132171433Y-86785785D01*
X131980164Y-86865011D01*
X131777116Y-86905400D01*
X131570084Y-86905400D01*
X131367036Y-86865011D01*
X131175767Y-86785785D01*
X131175766Y-86785785D01*
X131175765Y-86785784D01*
X131003627Y-86670765D01*
X130857235Y-86524373D01*
X130742216Y-86352235D01*
X130742215Y-86352233D01*
X130662989Y-86160964D01*
X130622600Y-85957916D01*
X130622600Y-85750884D01*
X130662989Y-85547836D01*
X130742215Y-85356567D01*
X130754213Y-85338611D01*
X130857235Y-85184427D01*
X131003627Y-85038035D01*
X131175765Y-84923016D01*
X131175767Y-84923015D01*
X131367036Y-84843789D01*
X131570084Y-84803400D01*
X131777116Y-84803400D01*
X131980164Y-84843789D01*
X131980164Y-84843789D01*
G37*
G36*
X115144164Y-84843789D02*
G01*
X115335433Y-84923015D01*
X115335435Y-84923016D01*
X115507573Y-85038035D01*
X115653965Y-85184427D01*
X115756988Y-85338611D01*
X115768985Y-85356567D01*
X115848211Y-85547836D01*
X115888600Y-85750884D01*
X115888600Y-85957916D01*
X115848211Y-86160964D01*
X115768985Y-86352233D01*
X115768984Y-86352235D01*
X115653965Y-86524373D01*
X115507573Y-86670765D01*
X115335435Y-86785784D01*
X115335434Y-86785785D01*
X115335433Y-86785785D01*
X115144164Y-86865011D01*
X114941116Y-86905400D01*
X114734084Y-86905400D01*
X114531036Y-86865011D01*
X114339767Y-86785785D01*
X114339766Y-86785785D01*
X114339765Y-86785784D01*
X114167627Y-86670765D01*
X114021235Y-86524373D01*
X113906216Y-86352235D01*
X113906215Y-86352233D01*
X113826989Y-86160964D01*
X113786600Y-85957916D01*
X113786600Y-85750884D01*
X113826989Y-85547836D01*
X113906215Y-85356567D01*
X113918213Y-85338611D01*
X114021235Y-85184427D01*
X114167627Y-85038035D01*
X114339765Y-84923016D01*
X114339767Y-84923015D01*
X114531036Y-84843789D01*
X114734084Y-84803400D01*
X114941116Y-84803400D01*
X115144164Y-84843789D01*
X115144164Y-84843789D01*
G37*
G36*
X129368164Y-84843789D02*
G01*
X129559433Y-84923015D01*
X129559435Y-84923016D01*
X129731573Y-85038035D01*
X129877965Y-85184427D01*
X129980988Y-85338611D01*
X129992985Y-85356567D01*
X130072211Y-85547836D01*
X130112600Y-85750884D01*
X130112600Y-85957916D01*
X130072211Y-86160964D01*
X129992985Y-86352233D01*
X129992984Y-86352235D01*
X129877965Y-86524373D01*
X129731573Y-86670765D01*
X129559435Y-86785784D01*
X129559434Y-86785785D01*
X129559433Y-86785785D01*
X129368164Y-86865011D01*
X129165116Y-86905400D01*
X128958084Y-86905400D01*
X128755036Y-86865011D01*
X128563767Y-86785785D01*
X128563766Y-86785785D01*
X128563765Y-86785784D01*
X128391627Y-86670765D01*
X128245235Y-86524373D01*
X128130216Y-86352235D01*
X128130215Y-86352233D01*
X128050989Y-86160964D01*
X128010600Y-85957916D01*
X128010600Y-85750884D01*
X128050989Y-85547836D01*
X128130215Y-85356567D01*
X128142213Y-85338611D01*
X128245235Y-85184427D01*
X128391627Y-85038035D01*
X128563765Y-84923016D01*
X128563767Y-84923015D01*
X128755036Y-84843789D01*
X128958084Y-84803400D01*
X129165116Y-84803400D01*
X129368164Y-84843789D01*
X129368164Y-84843789D01*
G37*
G36*
X110644164Y-84843789D02*
G01*
X110835433Y-84923015D01*
X110835435Y-84923016D01*
X111007573Y-85038035D01*
X111153965Y-85184427D01*
X111256988Y-85338611D01*
X111268985Y-85356567D01*
X111348211Y-85547836D01*
X111388600Y-85750884D01*
X111388600Y-85957916D01*
X111348211Y-86160964D01*
X111268985Y-86352233D01*
X111268984Y-86352235D01*
X111153965Y-86524373D01*
X111007573Y-86670765D01*
X110835435Y-86785784D01*
X110835434Y-86785785D01*
X110835433Y-86785785D01*
X110644164Y-86865011D01*
X110441116Y-86905400D01*
X110234084Y-86905400D01*
X110031036Y-86865011D01*
X109839767Y-86785785D01*
X109839766Y-86785785D01*
X109839765Y-86785784D01*
X109667627Y-86670765D01*
X109521235Y-86524373D01*
X109406216Y-86352235D01*
X109406215Y-86352233D01*
X109326989Y-86160964D01*
X109286600Y-85957916D01*
X109286600Y-85750884D01*
X109326989Y-85547836D01*
X109406215Y-85356567D01*
X109418213Y-85338611D01*
X109521235Y-85184427D01*
X109667627Y-85038035D01*
X109839765Y-84923016D01*
X109839767Y-84923015D01*
X110031036Y-84843789D01*
X110234084Y-84803400D01*
X110441116Y-84803400D01*
X110644164Y-84843789D01*
X110644164Y-84843789D01*
G37*
G36*
X124868164Y-84843789D02*
G01*
X125059433Y-84923015D01*
X125059435Y-84923016D01*
X125231573Y-85038035D01*
X125377965Y-85184427D01*
X125480988Y-85338611D01*
X125492985Y-85356567D01*
X125572211Y-85547836D01*
X125612600Y-85750884D01*
X125612600Y-85957916D01*
X125572211Y-86160964D01*
X125492985Y-86352233D01*
X125492984Y-86352235D01*
X125377965Y-86524373D01*
X125231573Y-86670765D01*
X125059435Y-86785784D01*
X125059434Y-86785785D01*
X125059433Y-86785785D01*
X124868164Y-86865011D01*
X124665116Y-86905400D01*
X124458084Y-86905400D01*
X124255036Y-86865011D01*
X124063767Y-86785785D01*
X124063766Y-86785785D01*
X124063765Y-86785784D01*
X123891627Y-86670765D01*
X123745235Y-86524373D01*
X123630216Y-86352235D01*
X123630215Y-86352233D01*
X123550989Y-86160964D01*
X123510600Y-85957916D01*
X123510600Y-85750884D01*
X123550989Y-85547836D01*
X123630215Y-85356567D01*
X123642213Y-85338611D01*
X123745235Y-85184427D01*
X123891627Y-85038035D01*
X124063765Y-84923016D01*
X124063767Y-84923015D01*
X124255036Y-84843789D01*
X124458084Y-84803400D01*
X124665116Y-84803400D01*
X124868164Y-84843789D01*
X124868164Y-84843789D01*
G37*
G36*
X160994043Y-84754319D02*
G01*
X161060227Y-84760837D01*
X161230066Y-84812357D01*
X161386591Y-84896022D01*
X161419482Y-84923015D01*
X161523786Y-85008614D01*
X161607048Y-85110071D01*
X161636378Y-85145809D01*
X161720043Y-85302334D01*
X161771563Y-85472173D01*
X161788959Y-85648800D01*
X161771563Y-85825427D01*
X161720043Y-85995266D01*
X161636378Y-86151791D01*
X161628849Y-86160965D01*
X161523786Y-86288986D01*
X161422329Y-86372248D01*
X161386591Y-86401578D01*
X161230066Y-86485243D01*
X161060227Y-86536763D01*
X160994042Y-86543282D01*
X160927860Y-86549800D01*
X160839340Y-86549800D01*
X160773158Y-86543282D01*
X160706973Y-86536763D01*
X160537134Y-86485243D01*
X160380609Y-86401578D01*
X160344871Y-86372248D01*
X160243414Y-86288986D01*
X160138351Y-86160965D01*
X160130822Y-86151791D01*
X160047157Y-85995266D01*
X159995637Y-85825427D01*
X159978241Y-85648800D01*
X159995637Y-85472173D01*
X160047157Y-85302334D01*
X160130822Y-85145809D01*
X160160152Y-85110071D01*
X160243414Y-85008614D01*
X160347718Y-84923015D01*
X160380609Y-84896022D01*
X160537134Y-84812357D01*
X160706973Y-84760837D01*
X160773157Y-84754319D01*
X160839340Y-84747800D01*
X160927860Y-84747800D01*
X160994043Y-84754319D01*
X160994043Y-84754319D01*
G37*
G36*
X140920964Y-83317389D02*
G01*
X141112233Y-83396615D01*
X141112235Y-83396616D01*
X141284373Y-83511635D01*
X141430765Y-83658027D01*
X141545785Y-83830167D01*
X141625011Y-84021436D01*
X141665400Y-84224484D01*
X141665400Y-84431516D01*
X141625011Y-84634564D01*
X141545785Y-84825833D01*
X141545784Y-84825835D01*
X141430765Y-84997973D01*
X141284373Y-85144365D01*
X141112235Y-85259384D01*
X141112234Y-85259385D01*
X141112233Y-85259385D01*
X140920964Y-85338611D01*
X140717916Y-85379000D01*
X140510884Y-85379000D01*
X140307836Y-85338611D01*
X140116567Y-85259385D01*
X140116566Y-85259385D01*
X140116565Y-85259384D01*
X139944427Y-85144365D01*
X139798035Y-84997973D01*
X139683016Y-84825835D01*
X139683015Y-84825833D01*
X139603789Y-84634564D01*
X139563400Y-84431516D01*
X139563400Y-84224484D01*
X139603789Y-84021436D01*
X139683015Y-83830167D01*
X139798035Y-83658027D01*
X139944427Y-83511635D01*
X140116565Y-83396616D01*
X140116567Y-83396615D01*
X140307836Y-83317389D01*
X140510884Y-83277000D01*
X140717916Y-83277000D01*
X140920964Y-83317389D01*
X140920964Y-83317389D01*
G37*
G36*
X156463364Y-83317389D02*
G01*
X156654633Y-83396615D01*
X156654635Y-83396616D01*
X156826773Y-83511635D01*
X156973165Y-83658027D01*
X157088185Y-83830167D01*
X157167411Y-84021436D01*
X157207800Y-84224484D01*
X157207800Y-84431516D01*
X157167411Y-84634564D01*
X157088185Y-84825833D01*
X157088184Y-84825835D01*
X156973165Y-84997973D01*
X156826773Y-85144365D01*
X156654635Y-85259384D01*
X156654634Y-85259385D01*
X156654633Y-85259385D01*
X156463364Y-85338611D01*
X156260316Y-85379000D01*
X156053284Y-85379000D01*
X155850236Y-85338611D01*
X155658967Y-85259385D01*
X155658966Y-85259385D01*
X155658965Y-85259384D01*
X155486827Y-85144365D01*
X155340435Y-84997973D01*
X155225416Y-84825835D01*
X155225415Y-84825833D01*
X155146189Y-84634564D01*
X155105800Y-84431516D01*
X155105800Y-84224484D01*
X155146189Y-84021436D01*
X155225415Y-83830167D01*
X155340435Y-83658027D01*
X155486827Y-83511635D01*
X155658965Y-83396616D01*
X155658967Y-83396615D01*
X155850236Y-83317389D01*
X156053284Y-83277000D01*
X156260316Y-83277000D01*
X156463364Y-83317389D01*
X156463364Y-83317389D01*
G37*
G36*
X149963364Y-83317389D02*
G01*
X150154633Y-83396615D01*
X150154635Y-83396616D01*
X150326773Y-83511635D01*
X150473165Y-83658027D01*
X150588185Y-83830167D01*
X150667411Y-84021436D01*
X150707800Y-84224484D01*
X150707800Y-84431516D01*
X150667411Y-84634564D01*
X150588185Y-84825833D01*
X150588184Y-84825835D01*
X150473165Y-84997973D01*
X150326773Y-85144365D01*
X150154635Y-85259384D01*
X150154634Y-85259385D01*
X150154633Y-85259385D01*
X149963364Y-85338611D01*
X149760316Y-85379000D01*
X149553284Y-85379000D01*
X149350236Y-85338611D01*
X149158967Y-85259385D01*
X149158966Y-85259385D01*
X149158965Y-85259384D01*
X148986827Y-85144365D01*
X148840435Y-84997973D01*
X148725416Y-84825835D01*
X148725415Y-84825833D01*
X148646189Y-84634564D01*
X148605800Y-84431516D01*
X148605800Y-84224484D01*
X148646189Y-84021436D01*
X148725415Y-83830167D01*
X148840435Y-83658027D01*
X148986827Y-83511635D01*
X149158965Y-83396616D01*
X149158967Y-83396615D01*
X149350236Y-83317389D01*
X149553284Y-83277000D01*
X149760316Y-83277000D01*
X149963364Y-83317389D01*
X149963364Y-83317389D01*
G37*
G36*
X147420964Y-83317389D02*
G01*
X147612233Y-83396615D01*
X147612235Y-83396616D01*
X147784373Y-83511635D01*
X147930765Y-83658027D01*
X148045785Y-83830167D01*
X148125011Y-84021436D01*
X148165400Y-84224484D01*
X148165400Y-84431516D01*
X148125011Y-84634564D01*
X148045785Y-84825833D01*
X148045784Y-84825835D01*
X147930765Y-84997973D01*
X147784373Y-85144365D01*
X147612235Y-85259384D01*
X147612234Y-85259385D01*
X147612233Y-85259385D01*
X147420964Y-85338611D01*
X147217916Y-85379000D01*
X147010884Y-85379000D01*
X146807836Y-85338611D01*
X146616567Y-85259385D01*
X146616566Y-85259385D01*
X146616565Y-85259384D01*
X146444427Y-85144365D01*
X146298035Y-84997973D01*
X146183016Y-84825835D01*
X146183015Y-84825833D01*
X146103789Y-84634564D01*
X146063400Y-84431516D01*
X146063400Y-84224484D01*
X146103789Y-84021436D01*
X146183015Y-83830167D01*
X146298035Y-83658027D01*
X146444427Y-83511635D01*
X146616565Y-83396616D01*
X146616567Y-83396615D01*
X146807836Y-83317389D01*
X147010884Y-83277000D01*
X147217916Y-83277000D01*
X147420964Y-83317389D01*
X147420964Y-83317389D01*
G37*
G36*
X161784600Y-84009800D02*
G01*
X159982600Y-84009800D01*
X159982600Y-82207800D01*
X161784600Y-82207800D01*
X161784600Y-84009800D01*
X161784600Y-84009800D01*
G37*
G36*
X153114604Y-79627585D02*
G01*
X153283126Y-79697389D01*
X153434791Y-79798728D01*
X153563772Y-79927709D01*
X153665111Y-80079374D01*
X153734915Y-80247896D01*
X153770500Y-80426797D01*
X153770500Y-80609203D01*
X153734915Y-80788104D01*
X153665111Y-80956626D01*
X153563772Y-81108291D01*
X153434791Y-81237272D01*
X153283126Y-81338611D01*
X153114604Y-81408415D01*
X152935703Y-81444000D01*
X152753297Y-81444000D01*
X152574396Y-81408415D01*
X152405874Y-81338611D01*
X152254209Y-81237272D01*
X152125228Y-81108291D01*
X152023889Y-80956626D01*
X151954085Y-80788104D01*
X151918500Y-80609203D01*
X151918500Y-80426797D01*
X151954085Y-80247896D01*
X152023889Y-80079374D01*
X152125228Y-79927709D01*
X152254209Y-79798728D01*
X152405874Y-79697389D01*
X152574396Y-79627585D01*
X152753297Y-79592000D01*
X152935703Y-79592000D01*
X153114604Y-79627585D01*
X153114604Y-79627585D01*
G37*
G36*
X155654604Y-79627585D02*
G01*
X155823126Y-79697389D01*
X155974791Y-79798728D01*
X156103772Y-79927709D01*
X156205111Y-80079374D01*
X156274915Y-80247896D01*
X156310500Y-80426797D01*
X156310500Y-80609203D01*
X156274915Y-80788104D01*
X156205111Y-80956626D01*
X156103772Y-81108291D01*
X155974791Y-81237272D01*
X155823126Y-81338611D01*
X155654604Y-81408415D01*
X155475703Y-81444000D01*
X155293297Y-81444000D01*
X155114396Y-81408415D01*
X154945874Y-81338611D01*
X154794209Y-81237272D01*
X154665228Y-81108291D01*
X154563889Y-80956626D01*
X154494085Y-80788104D01*
X154458500Y-80609203D01*
X154458500Y-80426797D01*
X154494085Y-80247896D01*
X154563889Y-80079374D01*
X154665228Y-79927709D01*
X154794209Y-79798728D01*
X154945874Y-79697389D01*
X155114396Y-79627585D01*
X155293297Y-79592000D01*
X155475703Y-79592000D01*
X155654604Y-79627585D01*
X155654604Y-79627585D01*
G37*
G36*
X150574604Y-79627585D02*
G01*
X150743126Y-79697389D01*
X150894791Y-79798728D01*
X151023772Y-79927709D01*
X151125111Y-80079374D01*
X151194915Y-80247896D01*
X151230500Y-80426797D01*
X151230500Y-80609203D01*
X151194915Y-80788104D01*
X151125111Y-80956626D01*
X151023772Y-81108291D01*
X150894791Y-81237272D01*
X150743126Y-81338611D01*
X150574604Y-81408415D01*
X150395703Y-81444000D01*
X150213297Y-81444000D01*
X150034396Y-81408415D01*
X149865874Y-81338611D01*
X149714209Y-81237272D01*
X149585228Y-81108291D01*
X149483889Y-80956626D01*
X149414085Y-80788104D01*
X149378500Y-80609203D01*
X149378500Y-80426797D01*
X149414085Y-80247896D01*
X149483889Y-80079374D01*
X149585228Y-79927709D01*
X149714209Y-79798728D01*
X149865874Y-79697389D01*
X150034396Y-79627585D01*
X150213297Y-79592000D01*
X150395703Y-79592000D01*
X150574604Y-79627585D01*
X150574604Y-79627585D01*
G37*
G36*
X127714604Y-79627585D02*
G01*
X127883126Y-79697389D01*
X128034791Y-79798728D01*
X128163772Y-79927709D01*
X128265111Y-80079374D01*
X128334915Y-80247896D01*
X128370500Y-80426797D01*
X128370500Y-80609203D01*
X128334915Y-80788104D01*
X128265111Y-80956626D01*
X128163772Y-81108291D01*
X128034791Y-81237272D01*
X127883126Y-81338611D01*
X127714604Y-81408415D01*
X127535703Y-81444000D01*
X127353297Y-81444000D01*
X127174396Y-81408415D01*
X127005874Y-81338611D01*
X126854209Y-81237272D01*
X126725228Y-81108291D01*
X126623889Y-80956626D01*
X126554085Y-80788104D01*
X126518500Y-80609203D01*
X126518500Y-80426797D01*
X126554085Y-80247896D01*
X126623889Y-80079374D01*
X126725228Y-79927709D01*
X126854209Y-79798728D01*
X127005874Y-79697389D01*
X127174396Y-79627585D01*
X127353297Y-79592000D01*
X127535703Y-79592000D01*
X127714604Y-79627585D01*
X127714604Y-79627585D01*
G37*
G36*
X148034604Y-79627585D02*
G01*
X148203126Y-79697389D01*
X148354791Y-79798728D01*
X148483772Y-79927709D01*
X148585111Y-80079374D01*
X148654915Y-80247896D01*
X148690500Y-80426797D01*
X148690500Y-80609203D01*
X148654915Y-80788104D01*
X148585111Y-80956626D01*
X148483772Y-81108291D01*
X148354791Y-81237272D01*
X148203126Y-81338611D01*
X148034604Y-81408415D01*
X147855703Y-81444000D01*
X147673297Y-81444000D01*
X147494396Y-81408415D01*
X147325874Y-81338611D01*
X147174209Y-81237272D01*
X147045228Y-81108291D01*
X146943889Y-80956626D01*
X146874085Y-80788104D01*
X146838500Y-80609203D01*
X146838500Y-80426797D01*
X146874085Y-80247896D01*
X146943889Y-80079374D01*
X147045228Y-79927709D01*
X147174209Y-79798728D01*
X147325874Y-79697389D01*
X147494396Y-79627585D01*
X147673297Y-79592000D01*
X147855703Y-79592000D01*
X148034604Y-79627585D01*
X148034604Y-79627585D01*
G37*
G36*
X145494604Y-79627585D02*
G01*
X145663126Y-79697389D01*
X145814791Y-79798728D01*
X145943772Y-79927709D01*
X146045111Y-80079374D01*
X146114915Y-80247896D01*
X146150500Y-80426797D01*
X146150500Y-80609203D01*
X146114915Y-80788104D01*
X146045111Y-80956626D01*
X145943772Y-81108291D01*
X145814791Y-81237272D01*
X145663126Y-81338611D01*
X145494604Y-81408415D01*
X145315703Y-81444000D01*
X145133297Y-81444000D01*
X144954396Y-81408415D01*
X144785874Y-81338611D01*
X144634209Y-81237272D01*
X144505228Y-81108291D01*
X144403889Y-80956626D01*
X144334085Y-80788104D01*
X144298500Y-80609203D01*
X144298500Y-80426797D01*
X144334085Y-80247896D01*
X144403889Y-80079374D01*
X144505228Y-79927709D01*
X144634209Y-79798728D01*
X144785874Y-79697389D01*
X144954396Y-79627585D01*
X145133297Y-79592000D01*
X145315703Y-79592000D01*
X145494604Y-79627585D01*
X145494604Y-79627585D01*
G37*
G36*
X142954604Y-79627585D02*
G01*
X143123126Y-79697389D01*
X143274791Y-79798728D01*
X143403772Y-79927709D01*
X143505111Y-80079374D01*
X143574915Y-80247896D01*
X143610500Y-80426797D01*
X143610500Y-80609203D01*
X143574915Y-80788104D01*
X143505111Y-80956626D01*
X143403772Y-81108291D01*
X143274791Y-81237272D01*
X143123126Y-81338611D01*
X142954604Y-81408415D01*
X142775703Y-81444000D01*
X142593297Y-81444000D01*
X142414396Y-81408415D01*
X142245874Y-81338611D01*
X142094209Y-81237272D01*
X141965228Y-81108291D01*
X141863889Y-80956626D01*
X141794085Y-80788104D01*
X141758500Y-80609203D01*
X141758500Y-80426797D01*
X141794085Y-80247896D01*
X141863889Y-80079374D01*
X141965228Y-79927709D01*
X142094209Y-79798728D01*
X142245874Y-79697389D01*
X142414396Y-79627585D01*
X142593297Y-79592000D01*
X142775703Y-79592000D01*
X142954604Y-79627585D01*
X142954604Y-79627585D01*
G37*
G36*
X140414604Y-79627585D02*
G01*
X140583126Y-79697389D01*
X140734791Y-79798728D01*
X140863772Y-79927709D01*
X140965111Y-80079374D01*
X141034915Y-80247896D01*
X141070500Y-80426797D01*
X141070500Y-80609203D01*
X141034915Y-80788104D01*
X140965111Y-80956626D01*
X140863772Y-81108291D01*
X140734791Y-81237272D01*
X140583126Y-81338611D01*
X140414604Y-81408415D01*
X140235703Y-81444000D01*
X140053297Y-81444000D01*
X139874396Y-81408415D01*
X139705874Y-81338611D01*
X139554209Y-81237272D01*
X139425228Y-81108291D01*
X139323889Y-80956626D01*
X139254085Y-80788104D01*
X139218500Y-80609203D01*
X139218500Y-80426797D01*
X139254085Y-80247896D01*
X139323889Y-80079374D01*
X139425228Y-79927709D01*
X139554209Y-79798728D01*
X139705874Y-79697389D01*
X139874396Y-79627585D01*
X140053297Y-79592000D01*
X140235703Y-79592000D01*
X140414604Y-79627585D01*
X140414604Y-79627585D01*
G37*
G36*
X137874604Y-79627585D02*
G01*
X138043126Y-79697389D01*
X138194791Y-79798728D01*
X138323772Y-79927709D01*
X138425111Y-80079374D01*
X138494915Y-80247896D01*
X138530500Y-80426797D01*
X138530500Y-80609203D01*
X138494915Y-80788104D01*
X138425111Y-80956626D01*
X138323772Y-81108291D01*
X138194791Y-81237272D01*
X138043126Y-81338611D01*
X137874604Y-81408415D01*
X137695703Y-81444000D01*
X137513297Y-81444000D01*
X137334396Y-81408415D01*
X137165874Y-81338611D01*
X137014209Y-81237272D01*
X136885228Y-81108291D01*
X136783889Y-80956626D01*
X136714085Y-80788104D01*
X136678500Y-80609203D01*
X136678500Y-80426797D01*
X136714085Y-80247896D01*
X136783889Y-80079374D01*
X136885228Y-79927709D01*
X137014209Y-79798728D01*
X137165874Y-79697389D01*
X137334396Y-79627585D01*
X137513297Y-79592000D01*
X137695703Y-79592000D01*
X137874604Y-79627585D01*
X137874604Y-79627585D01*
G37*
G36*
X120094604Y-79627585D02*
G01*
X120263126Y-79697389D01*
X120414791Y-79798728D01*
X120543772Y-79927709D01*
X120645111Y-80079374D01*
X120714915Y-80247896D01*
X120750500Y-80426797D01*
X120750500Y-80609203D01*
X120714915Y-80788104D01*
X120645111Y-80956626D01*
X120543772Y-81108291D01*
X120414791Y-81237272D01*
X120263126Y-81338611D01*
X120094604Y-81408415D01*
X119915703Y-81444000D01*
X119733297Y-81444000D01*
X119554396Y-81408415D01*
X119385874Y-81338611D01*
X119234209Y-81237272D01*
X119105228Y-81108291D01*
X119003889Y-80956626D01*
X118934085Y-80788104D01*
X118898500Y-80609203D01*
X118898500Y-80426797D01*
X118934085Y-80247896D01*
X119003889Y-80079374D01*
X119105228Y-79927709D01*
X119234209Y-79798728D01*
X119385874Y-79697389D01*
X119554396Y-79627585D01*
X119733297Y-79592000D01*
X119915703Y-79592000D01*
X120094604Y-79627585D01*
X120094604Y-79627585D01*
G37*
G36*
X117554604Y-79627585D02*
G01*
X117723126Y-79697389D01*
X117874791Y-79798728D01*
X118003772Y-79927709D01*
X118105111Y-80079374D01*
X118174915Y-80247896D01*
X118210500Y-80426797D01*
X118210500Y-80609203D01*
X118174915Y-80788104D01*
X118105111Y-80956626D01*
X118003772Y-81108291D01*
X117874791Y-81237272D01*
X117723126Y-81338611D01*
X117554604Y-81408415D01*
X117375703Y-81444000D01*
X117193297Y-81444000D01*
X117014396Y-81408415D01*
X116845874Y-81338611D01*
X116694209Y-81237272D01*
X116565228Y-81108291D01*
X116463889Y-80956626D01*
X116394085Y-80788104D01*
X116358500Y-80609203D01*
X116358500Y-80426797D01*
X116394085Y-80247896D01*
X116463889Y-80079374D01*
X116565228Y-79927709D01*
X116694209Y-79798728D01*
X116845874Y-79697389D01*
X117014396Y-79627585D01*
X117193297Y-79592000D01*
X117375703Y-79592000D01*
X117554604Y-79627585D01*
X117554604Y-79627585D01*
G37*
G36*
X115014604Y-79627585D02*
G01*
X115183126Y-79697389D01*
X115334791Y-79798728D01*
X115463772Y-79927709D01*
X115565111Y-80079374D01*
X115634915Y-80247896D01*
X115670500Y-80426797D01*
X115670500Y-80609203D01*
X115634915Y-80788104D01*
X115565111Y-80956626D01*
X115463772Y-81108291D01*
X115334791Y-81237272D01*
X115183126Y-81338611D01*
X115014604Y-81408415D01*
X114835703Y-81444000D01*
X114653297Y-81444000D01*
X114474396Y-81408415D01*
X114305874Y-81338611D01*
X114154209Y-81237272D01*
X114025228Y-81108291D01*
X113923889Y-80956626D01*
X113854085Y-80788104D01*
X113818500Y-80609203D01*
X113818500Y-80426797D01*
X113854085Y-80247896D01*
X113923889Y-80079374D01*
X114025228Y-79927709D01*
X114154209Y-79798728D01*
X114305874Y-79697389D01*
X114474396Y-79627585D01*
X114653297Y-79592000D01*
X114835703Y-79592000D01*
X115014604Y-79627585D01*
X115014604Y-79627585D01*
G37*
G36*
X112474604Y-79627585D02*
G01*
X112643126Y-79697389D01*
X112794791Y-79798728D01*
X112923772Y-79927709D01*
X113025111Y-80079374D01*
X113094915Y-80247896D01*
X113130500Y-80426797D01*
X113130500Y-80609203D01*
X113094915Y-80788104D01*
X113025111Y-80956626D01*
X112923772Y-81108291D01*
X112794791Y-81237272D01*
X112643126Y-81338611D01*
X112474604Y-81408415D01*
X112295703Y-81444000D01*
X112113297Y-81444000D01*
X111934396Y-81408415D01*
X111765874Y-81338611D01*
X111614209Y-81237272D01*
X111485228Y-81108291D01*
X111383889Y-80956626D01*
X111314085Y-80788104D01*
X111278500Y-80609203D01*
X111278500Y-80426797D01*
X111314085Y-80247896D01*
X111383889Y-80079374D01*
X111485228Y-79927709D01*
X111614209Y-79798728D01*
X111765874Y-79697389D01*
X111934396Y-79627585D01*
X112113297Y-79592000D01*
X112295703Y-79592000D01*
X112474604Y-79627585D01*
X112474604Y-79627585D01*
G37*
G36*
X109934604Y-79627585D02*
G01*
X110103126Y-79697389D01*
X110254791Y-79798728D01*
X110383772Y-79927709D01*
X110485111Y-80079374D01*
X110554915Y-80247896D01*
X110590500Y-80426797D01*
X110590500Y-80609203D01*
X110554915Y-80788104D01*
X110485111Y-80956626D01*
X110383772Y-81108291D01*
X110254791Y-81237272D01*
X110103126Y-81338611D01*
X109934604Y-81408415D01*
X109755703Y-81444000D01*
X109573297Y-81444000D01*
X109394396Y-81408415D01*
X109225874Y-81338611D01*
X109074209Y-81237272D01*
X108945228Y-81108291D01*
X108843889Y-80956626D01*
X108774085Y-80788104D01*
X108738500Y-80609203D01*
X108738500Y-80426797D01*
X108774085Y-80247896D01*
X108843889Y-80079374D01*
X108945228Y-79927709D01*
X109074209Y-79798728D01*
X109225874Y-79697389D01*
X109394396Y-79627585D01*
X109573297Y-79592000D01*
X109755703Y-79592000D01*
X109934604Y-79627585D01*
X109934604Y-79627585D01*
G37*
G36*
X108050500Y-81444000D02*
G01*
X106198500Y-81444000D01*
X106198500Y-79592000D01*
X108050500Y-79592000D01*
X108050500Y-81444000D01*
X108050500Y-81444000D01*
G37*
G36*
X125174604Y-79627585D02*
G01*
X125343126Y-79697389D01*
X125494791Y-79798728D01*
X125623772Y-79927709D01*
X125725111Y-80079374D01*
X125794915Y-80247896D01*
X125830500Y-80426797D01*
X125830500Y-80609203D01*
X125794915Y-80788104D01*
X125725111Y-80956626D01*
X125623772Y-81108291D01*
X125494791Y-81237272D01*
X125343126Y-81338611D01*
X125174604Y-81408415D01*
X124995703Y-81444000D01*
X124813297Y-81444000D01*
X124634396Y-81408415D01*
X124465874Y-81338611D01*
X124314209Y-81237272D01*
X124185228Y-81108291D01*
X124083889Y-80956626D01*
X124014085Y-80788104D01*
X123978500Y-80609203D01*
X123978500Y-80426797D01*
X124014085Y-80247896D01*
X124083889Y-80079374D01*
X124185228Y-79927709D01*
X124314209Y-79798728D01*
X124465874Y-79697389D01*
X124634396Y-79627585D01*
X124813297Y-79592000D01*
X124995703Y-79592000D01*
X125174604Y-79627585D01*
X125174604Y-79627585D01*
G37*
G36*
X130254604Y-79627585D02*
G01*
X130423126Y-79697389D01*
X130574791Y-79798728D01*
X130703772Y-79927709D01*
X130805111Y-80079374D01*
X130874915Y-80247896D01*
X130910500Y-80426797D01*
X130910500Y-80609203D01*
X130874915Y-80788104D01*
X130805111Y-80956626D01*
X130703772Y-81108291D01*
X130574791Y-81237272D01*
X130423126Y-81338611D01*
X130254604Y-81408415D01*
X130075703Y-81444000D01*
X129893297Y-81444000D01*
X129714396Y-81408415D01*
X129545874Y-81338611D01*
X129394209Y-81237272D01*
X129265228Y-81108291D01*
X129163889Y-80956626D01*
X129094085Y-80788104D01*
X129058500Y-80609203D01*
X129058500Y-80426797D01*
X129094085Y-80247896D01*
X129163889Y-80079374D01*
X129265228Y-79927709D01*
X129394209Y-79798728D01*
X129545874Y-79697389D01*
X129714396Y-79627585D01*
X129893297Y-79592000D01*
X130075703Y-79592000D01*
X130254604Y-79627585D01*
X130254604Y-79627585D01*
G37*
G36*
X132794604Y-79627585D02*
G01*
X132963126Y-79697389D01*
X133114791Y-79798728D01*
X133243772Y-79927709D01*
X133345111Y-80079374D01*
X133414915Y-80247896D01*
X133450500Y-80426797D01*
X133450500Y-80609203D01*
X133414915Y-80788104D01*
X133345111Y-80956626D01*
X133243772Y-81108291D01*
X133114791Y-81237272D01*
X132963126Y-81338611D01*
X132794604Y-81408415D01*
X132615703Y-81444000D01*
X132433297Y-81444000D01*
X132254396Y-81408415D01*
X132085874Y-81338611D01*
X131934209Y-81237272D01*
X131805228Y-81108291D01*
X131703889Y-80956626D01*
X131634085Y-80788104D01*
X131598500Y-80609203D01*
X131598500Y-80426797D01*
X131634085Y-80247896D01*
X131703889Y-80079374D01*
X131805228Y-79927709D01*
X131934209Y-79798728D01*
X132085874Y-79697389D01*
X132254396Y-79627585D01*
X132433297Y-79592000D01*
X132615703Y-79592000D01*
X132794604Y-79627585D01*
X132794604Y-79627585D01*
G37*
G36*
X135334604Y-79627585D02*
G01*
X135503126Y-79697389D01*
X135654791Y-79798728D01*
X135783772Y-79927709D01*
X135885111Y-80079374D01*
X135954915Y-80247896D01*
X135990500Y-80426797D01*
X135990500Y-80609203D01*
X135954915Y-80788104D01*
X135885111Y-80956626D01*
X135783772Y-81108291D01*
X135654791Y-81237272D01*
X135503126Y-81338611D01*
X135334604Y-81408415D01*
X135155703Y-81444000D01*
X134973297Y-81444000D01*
X134794396Y-81408415D01*
X134625874Y-81338611D01*
X134474209Y-81237272D01*
X134345228Y-81108291D01*
X134243889Y-80956626D01*
X134174085Y-80788104D01*
X134138500Y-80609203D01*
X134138500Y-80426797D01*
X134174085Y-80247896D01*
X134243889Y-80079374D01*
X134345228Y-79927709D01*
X134474209Y-79798728D01*
X134625874Y-79697389D01*
X134794396Y-79627585D01*
X134973297Y-79592000D01*
X135155703Y-79592000D01*
X135334604Y-79627585D01*
X135334604Y-79627585D01*
G37*
G36*
X122634604Y-79627585D02*
G01*
X122803126Y-79697389D01*
X122954791Y-79798728D01*
X123083772Y-79927709D01*
X123185111Y-80079374D01*
X123254915Y-80247896D01*
X123290500Y-80426797D01*
X123290500Y-80609203D01*
X123254915Y-80788104D01*
X123185111Y-80956626D01*
X123083772Y-81108291D01*
X122954791Y-81237272D01*
X122803126Y-81338611D01*
X122634604Y-81408415D01*
X122455703Y-81444000D01*
X122273297Y-81444000D01*
X122094396Y-81408415D01*
X121925874Y-81338611D01*
X121774209Y-81237272D01*
X121645228Y-81108291D01*
X121543889Y-80956626D01*
X121474085Y-80788104D01*
X121438500Y-80609203D01*
X121438500Y-80426797D01*
X121474085Y-80247896D01*
X121543889Y-80079374D01*
X121645228Y-79927709D01*
X121774209Y-79798728D01*
X121925874Y-79697389D01*
X122094396Y-79627585D01*
X122273297Y-79592000D01*
X122455703Y-79592000D01*
X122634604Y-79627585D01*
X122634604Y-79627585D01*
G37*
G36*
X160557085Y-77726802D02*
G01*
X160706910Y-77756604D01*
X160989174Y-77873521D01*
X161243205Y-78043259D01*
X161459241Y-78259295D01*
X161628979Y-78513326D01*
X161745896Y-78795590D01*
X161805500Y-79095240D01*
X161805500Y-79400760D01*
X161745896Y-79700410D01*
X161628979Y-79982674D01*
X161459241Y-80236705D01*
X161243205Y-80452741D01*
X160989174Y-80622479D01*
X160706910Y-80739396D01*
X160557085Y-80769198D01*
X160407261Y-80799000D01*
X160101739Y-80799000D01*
X159951915Y-80769198D01*
X159802090Y-80739396D01*
X159519826Y-80622479D01*
X159265795Y-80452741D01*
X159049759Y-80236705D01*
X158880021Y-79982674D01*
X158763104Y-79700410D01*
X158703500Y-79400760D01*
X158703500Y-79095240D01*
X158763104Y-78795590D01*
X158880021Y-78513326D01*
X159049759Y-78259295D01*
X159265795Y-78043259D01*
X159519826Y-77873521D01*
X159802090Y-77756604D01*
X159951915Y-77726802D01*
X160101739Y-77697000D01*
X160407261Y-77697000D01*
X160557085Y-77726802D01*
X160557085Y-77726802D01*
G37*
G36*
X102557085Y-77726802D02*
G01*
X102706910Y-77756604D01*
X102989174Y-77873521D01*
X103243205Y-78043259D01*
X103459241Y-78259295D01*
X103628979Y-78513326D01*
X103745896Y-78795590D01*
X103805500Y-79095240D01*
X103805500Y-79400760D01*
X103745896Y-79700410D01*
X103628979Y-79982674D01*
X103459241Y-80236705D01*
X103243205Y-80452741D01*
X102989174Y-80622479D01*
X102706910Y-80739396D01*
X102557085Y-80769198D01*
X102407261Y-80799000D01*
X102101739Y-80799000D01*
X101951915Y-80769198D01*
X101802090Y-80739396D01*
X101519826Y-80622479D01*
X101265795Y-80452741D01*
X101049759Y-80236705D01*
X100880021Y-79982674D01*
X100763104Y-79700410D01*
X100703500Y-79400760D01*
X100703500Y-79095240D01*
X100763104Y-78795590D01*
X100880021Y-78513326D01*
X101049759Y-78259295D01*
X101265795Y-78043259D01*
X101519826Y-77873521D01*
X101802090Y-77756604D01*
X101951915Y-77726802D01*
X102101739Y-77697000D01*
X102407261Y-77697000D01*
X102557085Y-77726802D01*
X102557085Y-77726802D01*
G37*
G36*
X120094604Y-77087585D02*
G01*
X120263126Y-77157389D01*
X120414791Y-77258728D01*
X120543772Y-77387709D01*
X120645111Y-77539374D01*
X120714915Y-77707896D01*
X120750500Y-77886797D01*
X120750500Y-78069203D01*
X120714915Y-78248104D01*
X120645111Y-78416626D01*
X120543772Y-78568291D01*
X120414791Y-78697272D01*
X120263126Y-78798611D01*
X120094604Y-78868415D01*
X119915703Y-78904000D01*
X119733297Y-78904000D01*
X119554396Y-78868415D01*
X119385874Y-78798611D01*
X119234209Y-78697272D01*
X119105228Y-78568291D01*
X119003889Y-78416626D01*
X118934085Y-78248104D01*
X118898500Y-78069203D01*
X118898500Y-77886797D01*
X118934085Y-77707896D01*
X119003889Y-77539374D01*
X119105228Y-77387709D01*
X119234209Y-77258728D01*
X119385874Y-77157389D01*
X119554396Y-77087585D01*
X119733297Y-77052000D01*
X119915703Y-77052000D01*
X120094604Y-77087585D01*
X120094604Y-77087585D01*
G37*
G36*
X122634604Y-77087585D02*
G01*
X122803126Y-77157389D01*
X122954791Y-77258728D01*
X123083772Y-77387709D01*
X123185111Y-77539374D01*
X123254915Y-77707896D01*
X123290500Y-77886797D01*
X123290500Y-78069203D01*
X123254915Y-78248104D01*
X123185111Y-78416626D01*
X123083772Y-78568291D01*
X122954791Y-78697272D01*
X122803126Y-78798611D01*
X122634604Y-78868415D01*
X122455703Y-78904000D01*
X122273297Y-78904000D01*
X122094396Y-78868415D01*
X121925874Y-78798611D01*
X121774209Y-78697272D01*
X121645228Y-78568291D01*
X121543889Y-78416626D01*
X121474085Y-78248104D01*
X121438500Y-78069203D01*
X121438500Y-77886797D01*
X121474085Y-77707896D01*
X121543889Y-77539374D01*
X121645228Y-77387709D01*
X121774209Y-77258728D01*
X121925874Y-77157389D01*
X122094396Y-77087585D01*
X122273297Y-77052000D01*
X122455703Y-77052000D01*
X122634604Y-77087585D01*
X122634604Y-77087585D01*
G37*
G36*
X135334604Y-77087585D02*
G01*
X135503126Y-77157389D01*
X135654791Y-77258728D01*
X135783772Y-77387709D01*
X135885111Y-77539374D01*
X135954915Y-77707896D01*
X135990500Y-77886797D01*
X135990500Y-78069203D01*
X135954915Y-78248104D01*
X135885111Y-78416626D01*
X135783772Y-78568291D01*
X135654791Y-78697272D01*
X135503126Y-78798611D01*
X135334604Y-78868415D01*
X135155703Y-78904000D01*
X134973297Y-78904000D01*
X134794396Y-78868415D01*
X134625874Y-78798611D01*
X134474209Y-78697272D01*
X134345228Y-78568291D01*
X134243889Y-78416626D01*
X134174085Y-78248104D01*
X134138500Y-78069203D01*
X134138500Y-77886797D01*
X134174085Y-77707896D01*
X134243889Y-77539374D01*
X134345228Y-77387709D01*
X134474209Y-77258728D01*
X134625874Y-77157389D01*
X134794396Y-77087585D01*
X134973297Y-77052000D01*
X135155703Y-77052000D01*
X135334604Y-77087585D01*
X135334604Y-77087585D01*
G37*
G36*
X142954604Y-77087585D02*
G01*
X143123126Y-77157389D01*
X143274791Y-77258728D01*
X143403772Y-77387709D01*
X143505111Y-77539374D01*
X143574915Y-77707896D01*
X143610500Y-77886797D01*
X143610500Y-78069203D01*
X143574915Y-78248104D01*
X143505111Y-78416626D01*
X143403772Y-78568291D01*
X143274791Y-78697272D01*
X143123126Y-78798611D01*
X142954604Y-78868415D01*
X142775703Y-78904000D01*
X142593297Y-78904000D01*
X142414396Y-78868415D01*
X142245874Y-78798611D01*
X142094209Y-78697272D01*
X141965228Y-78568291D01*
X141863889Y-78416626D01*
X141794085Y-78248104D01*
X141758500Y-78069203D01*
X141758500Y-77886797D01*
X141794085Y-77707896D01*
X141863889Y-77539374D01*
X141965228Y-77387709D01*
X142094209Y-77258728D01*
X142245874Y-77157389D01*
X142414396Y-77087585D01*
X142593297Y-77052000D01*
X142775703Y-77052000D01*
X142954604Y-77087585D01*
X142954604Y-77087585D01*
G37*
G36*
X125174604Y-77087585D02*
G01*
X125343126Y-77157389D01*
X125494791Y-77258728D01*
X125623772Y-77387709D01*
X125725111Y-77539374D01*
X125794915Y-77707896D01*
X125830500Y-77886797D01*
X125830500Y-78069203D01*
X125794915Y-78248104D01*
X125725111Y-78416626D01*
X125623772Y-78568291D01*
X125494791Y-78697272D01*
X125343126Y-78798611D01*
X125174604Y-78868415D01*
X124995703Y-78904000D01*
X124813297Y-78904000D01*
X124634396Y-78868415D01*
X124465874Y-78798611D01*
X124314209Y-78697272D01*
X124185228Y-78568291D01*
X124083889Y-78416626D01*
X124014085Y-78248104D01*
X123978500Y-78069203D01*
X123978500Y-77886797D01*
X124014085Y-77707896D01*
X124083889Y-77539374D01*
X124185228Y-77387709D01*
X124314209Y-77258728D01*
X124465874Y-77157389D01*
X124634396Y-77087585D01*
X124813297Y-77052000D01*
X124995703Y-77052000D01*
X125174604Y-77087585D01*
X125174604Y-77087585D01*
G37*
G36*
X140414604Y-77087585D02*
G01*
X140583126Y-77157389D01*
X140734791Y-77258728D01*
X140863772Y-77387709D01*
X140965111Y-77539374D01*
X141034915Y-77707896D01*
X141070500Y-77886797D01*
X141070500Y-78069203D01*
X141034915Y-78248104D01*
X140965111Y-78416626D01*
X140863772Y-78568291D01*
X140734791Y-78697272D01*
X140583126Y-78798611D01*
X140414604Y-78868415D01*
X140235703Y-78904000D01*
X140053297Y-78904000D01*
X139874396Y-78868415D01*
X139705874Y-78798611D01*
X139554209Y-78697272D01*
X139425228Y-78568291D01*
X139323889Y-78416626D01*
X139254085Y-78248104D01*
X139218500Y-78069203D01*
X139218500Y-77886797D01*
X139254085Y-77707896D01*
X139323889Y-77539374D01*
X139425228Y-77387709D01*
X139554209Y-77258728D01*
X139705874Y-77157389D01*
X139874396Y-77087585D01*
X140053297Y-77052000D01*
X140235703Y-77052000D01*
X140414604Y-77087585D01*
X140414604Y-77087585D01*
G37*
G36*
X127714604Y-77087585D02*
G01*
X127883126Y-77157389D01*
X128034791Y-77258728D01*
X128163772Y-77387709D01*
X128265111Y-77539374D01*
X128334915Y-77707896D01*
X128370500Y-77886797D01*
X128370500Y-78069203D01*
X128334915Y-78248104D01*
X128265111Y-78416626D01*
X128163772Y-78568291D01*
X128034791Y-78697272D01*
X127883126Y-78798611D01*
X127714604Y-78868415D01*
X127535703Y-78904000D01*
X127353297Y-78904000D01*
X127174396Y-78868415D01*
X127005874Y-78798611D01*
X126854209Y-78697272D01*
X126725228Y-78568291D01*
X126623889Y-78416626D01*
X126554085Y-78248104D01*
X126518500Y-78069203D01*
X126518500Y-77886797D01*
X126554085Y-77707896D01*
X126623889Y-77539374D01*
X126725228Y-77387709D01*
X126854209Y-77258728D01*
X127005874Y-77157389D01*
X127174396Y-77087585D01*
X127353297Y-77052000D01*
X127535703Y-77052000D01*
X127714604Y-77087585D01*
X127714604Y-77087585D01*
G37*
G36*
X130254604Y-77087585D02*
G01*
X130423126Y-77157389D01*
X130574791Y-77258728D01*
X130703772Y-77387709D01*
X130805111Y-77539374D01*
X130874915Y-77707896D01*
X130910500Y-77886797D01*
X130910500Y-78069203D01*
X130874915Y-78248104D01*
X130805111Y-78416626D01*
X130703772Y-78568291D01*
X130574791Y-78697272D01*
X130423126Y-78798611D01*
X130254604Y-78868415D01*
X130075703Y-78904000D01*
X129893297Y-78904000D01*
X129714396Y-78868415D01*
X129545874Y-78798611D01*
X129394209Y-78697272D01*
X129265228Y-78568291D01*
X129163889Y-78416626D01*
X129094085Y-78248104D01*
X129058500Y-78069203D01*
X129058500Y-77886797D01*
X129094085Y-77707896D01*
X129163889Y-77539374D01*
X129265228Y-77387709D01*
X129394209Y-77258728D01*
X129545874Y-77157389D01*
X129714396Y-77087585D01*
X129893297Y-77052000D01*
X130075703Y-77052000D01*
X130254604Y-77087585D01*
X130254604Y-77087585D01*
G37*
G36*
X132794604Y-77087585D02*
G01*
X132963126Y-77157389D01*
X133114791Y-77258728D01*
X133243772Y-77387709D01*
X133345111Y-77539374D01*
X133414915Y-77707896D01*
X133450500Y-77886797D01*
X133450500Y-78069203D01*
X133414915Y-78248104D01*
X133345111Y-78416626D01*
X133243772Y-78568291D01*
X133114791Y-78697272D01*
X132963126Y-78798611D01*
X132794604Y-78868415D01*
X132615703Y-78904000D01*
X132433297Y-78904000D01*
X132254396Y-78868415D01*
X132085874Y-78798611D01*
X131934209Y-78697272D01*
X131805228Y-78568291D01*
X131703889Y-78416626D01*
X131634085Y-78248104D01*
X131598500Y-78069203D01*
X131598500Y-77886797D01*
X131634085Y-77707896D01*
X131703889Y-77539374D01*
X131805228Y-77387709D01*
X131934209Y-77258728D01*
X132085874Y-77157389D01*
X132254396Y-77087585D01*
X132433297Y-77052000D01*
X132615703Y-77052000D01*
X132794604Y-77087585D01*
X132794604Y-77087585D01*
G37*
G36*
X137874604Y-77087585D02*
G01*
X138043126Y-77157389D01*
X138194791Y-77258728D01*
X138323772Y-77387709D01*
X138425111Y-77539374D01*
X138494915Y-77707896D01*
X138530500Y-77886797D01*
X138530500Y-78069203D01*
X138494915Y-78248104D01*
X138425111Y-78416626D01*
X138323772Y-78568291D01*
X138194791Y-78697272D01*
X138043126Y-78798611D01*
X137874604Y-78868415D01*
X137695703Y-78904000D01*
X137513297Y-78904000D01*
X137334396Y-78868415D01*
X137165874Y-78798611D01*
X137014209Y-78697272D01*
X136885228Y-78568291D01*
X136783889Y-78416626D01*
X136714085Y-78248104D01*
X136678500Y-78069203D01*
X136678500Y-77886797D01*
X136714085Y-77707896D01*
X136783889Y-77539374D01*
X136885228Y-77387709D01*
X137014209Y-77258728D01*
X137165874Y-77157389D01*
X137334396Y-77087585D01*
X137513297Y-77052000D01*
X137695703Y-77052000D01*
X137874604Y-77087585D01*
X137874604Y-77087585D01*
G37*
G36*
X145494604Y-77087585D02*
G01*
X145663126Y-77157389D01*
X145814791Y-77258728D01*
X145943772Y-77387709D01*
X146045111Y-77539374D01*
X146114915Y-77707896D01*
X146150500Y-77886797D01*
X146150500Y-78069203D01*
X146114915Y-78248104D01*
X146045111Y-78416626D01*
X145943772Y-78568291D01*
X145814791Y-78697272D01*
X145663126Y-78798611D01*
X145494604Y-78868415D01*
X145315703Y-78904000D01*
X145133297Y-78904000D01*
X144954396Y-78868415D01*
X144785874Y-78798611D01*
X144634209Y-78697272D01*
X144505228Y-78568291D01*
X144403889Y-78416626D01*
X144334085Y-78248104D01*
X144298500Y-78069203D01*
X144298500Y-77886797D01*
X144334085Y-77707896D01*
X144403889Y-77539374D01*
X144505228Y-77387709D01*
X144634209Y-77258728D01*
X144785874Y-77157389D01*
X144954396Y-77087585D01*
X145133297Y-77052000D01*
X145315703Y-77052000D01*
X145494604Y-77087585D01*
X145494604Y-77087585D01*
G37*
G36*
X107394604Y-77087585D02*
G01*
X107563126Y-77157389D01*
X107714791Y-77258728D01*
X107843772Y-77387709D01*
X107945111Y-77539374D01*
X108014915Y-77707896D01*
X108050500Y-77886797D01*
X108050500Y-78069203D01*
X108014915Y-78248104D01*
X107945111Y-78416626D01*
X107843772Y-78568291D01*
X107714791Y-78697272D01*
X107563126Y-78798611D01*
X107394604Y-78868415D01*
X107215703Y-78904000D01*
X107033297Y-78904000D01*
X106854396Y-78868415D01*
X106685874Y-78798611D01*
X106534209Y-78697272D01*
X106405228Y-78568291D01*
X106303889Y-78416626D01*
X106234085Y-78248104D01*
X106198500Y-78069203D01*
X106198500Y-77886797D01*
X106234085Y-77707896D01*
X106303889Y-77539374D01*
X106405228Y-77387709D01*
X106534209Y-77258728D01*
X106685874Y-77157389D01*
X106854396Y-77087585D01*
X107033297Y-77052000D01*
X107215703Y-77052000D01*
X107394604Y-77087585D01*
X107394604Y-77087585D01*
G37*
G36*
X109934604Y-77087585D02*
G01*
X110103126Y-77157389D01*
X110254791Y-77258728D01*
X110383772Y-77387709D01*
X110485111Y-77539374D01*
X110554915Y-77707896D01*
X110590500Y-77886797D01*
X110590500Y-78069203D01*
X110554915Y-78248104D01*
X110485111Y-78416626D01*
X110383772Y-78568291D01*
X110254791Y-78697272D01*
X110103126Y-78798611D01*
X109934604Y-78868415D01*
X109755703Y-78904000D01*
X109573297Y-78904000D01*
X109394396Y-78868415D01*
X109225874Y-78798611D01*
X109074209Y-78697272D01*
X108945228Y-78568291D01*
X108843889Y-78416626D01*
X108774085Y-78248104D01*
X108738500Y-78069203D01*
X108738500Y-77886797D01*
X108774085Y-77707896D01*
X108843889Y-77539374D01*
X108945228Y-77387709D01*
X109074209Y-77258728D01*
X109225874Y-77157389D01*
X109394396Y-77087585D01*
X109573297Y-77052000D01*
X109755703Y-77052000D01*
X109934604Y-77087585D01*
X109934604Y-77087585D01*
G37*
G36*
X112474604Y-77087585D02*
G01*
X112643126Y-77157389D01*
X112794791Y-77258728D01*
X112923772Y-77387709D01*
X113025111Y-77539374D01*
X113094915Y-77707896D01*
X113130500Y-77886797D01*
X113130500Y-78069203D01*
X113094915Y-78248104D01*
X113025111Y-78416626D01*
X112923772Y-78568291D01*
X112794791Y-78697272D01*
X112643126Y-78798611D01*
X112474604Y-78868415D01*
X112295703Y-78904000D01*
X112113297Y-78904000D01*
X111934396Y-78868415D01*
X111765874Y-78798611D01*
X111614209Y-78697272D01*
X111485228Y-78568291D01*
X111383889Y-78416626D01*
X111314085Y-78248104D01*
X111278500Y-78069203D01*
X111278500Y-77886797D01*
X111314085Y-77707896D01*
X111383889Y-77539374D01*
X111485228Y-77387709D01*
X111614209Y-77258728D01*
X111765874Y-77157389D01*
X111934396Y-77087585D01*
X112113297Y-77052000D01*
X112295703Y-77052000D01*
X112474604Y-77087585D01*
X112474604Y-77087585D01*
G37*
G36*
X115014604Y-77087585D02*
G01*
X115183126Y-77157389D01*
X115334791Y-77258728D01*
X115463772Y-77387709D01*
X115565111Y-77539374D01*
X115634915Y-77707896D01*
X115670500Y-77886797D01*
X115670500Y-78069203D01*
X115634915Y-78248104D01*
X115565111Y-78416626D01*
X115463772Y-78568291D01*
X115334791Y-78697272D01*
X115183126Y-78798611D01*
X115014604Y-78868415D01*
X114835703Y-78904000D01*
X114653297Y-78904000D01*
X114474396Y-78868415D01*
X114305874Y-78798611D01*
X114154209Y-78697272D01*
X114025228Y-78568291D01*
X113923889Y-78416626D01*
X113854085Y-78248104D01*
X113818500Y-78069203D01*
X113818500Y-77886797D01*
X113854085Y-77707896D01*
X113923889Y-77539374D01*
X114025228Y-77387709D01*
X114154209Y-77258728D01*
X114305874Y-77157389D01*
X114474396Y-77087585D01*
X114653297Y-77052000D01*
X114835703Y-77052000D01*
X115014604Y-77087585D01*
X115014604Y-77087585D01*
G37*
G36*
X117554604Y-77087585D02*
G01*
X117723126Y-77157389D01*
X117874791Y-77258728D01*
X118003772Y-77387709D01*
X118105111Y-77539374D01*
X118174915Y-77707896D01*
X118210500Y-77886797D01*
X118210500Y-78069203D01*
X118174915Y-78248104D01*
X118105111Y-78416626D01*
X118003772Y-78568291D01*
X117874791Y-78697272D01*
X117723126Y-78798611D01*
X117554604Y-78868415D01*
X117375703Y-78904000D01*
X117193297Y-78904000D01*
X117014396Y-78868415D01*
X116845874Y-78798611D01*
X116694209Y-78697272D01*
X116565228Y-78568291D01*
X116463889Y-78416626D01*
X116394085Y-78248104D01*
X116358500Y-78069203D01*
X116358500Y-77886797D01*
X116394085Y-77707896D01*
X116463889Y-77539374D01*
X116565228Y-77387709D01*
X116694209Y-77258728D01*
X116845874Y-77157389D01*
X117014396Y-77087585D01*
X117193297Y-77052000D01*
X117375703Y-77052000D01*
X117554604Y-77087585D01*
X117554604Y-77087585D01*
G37*
G36*
X148034604Y-77087585D02*
G01*
X148203126Y-77157389D01*
X148354791Y-77258728D01*
X148483772Y-77387709D01*
X148585111Y-77539374D01*
X148654915Y-77707896D01*
X148690500Y-77886797D01*
X148690500Y-78069203D01*
X148654915Y-78248104D01*
X148585111Y-78416626D01*
X148483772Y-78568291D01*
X148354791Y-78697272D01*
X148203126Y-78798611D01*
X148034604Y-78868415D01*
X147855703Y-78904000D01*
X147673297Y-78904000D01*
X147494396Y-78868415D01*
X147325874Y-78798611D01*
X147174209Y-78697272D01*
X147045228Y-78568291D01*
X146943889Y-78416626D01*
X146874085Y-78248104D01*
X146838500Y-78069203D01*
X146838500Y-77886797D01*
X146874085Y-77707896D01*
X146943889Y-77539374D01*
X147045228Y-77387709D01*
X147174209Y-77258728D01*
X147325874Y-77157389D01*
X147494396Y-77087585D01*
X147673297Y-77052000D01*
X147855703Y-77052000D01*
X148034604Y-77087585D01*
X148034604Y-77087585D01*
G37*
G36*
X150574604Y-77087585D02*
G01*
X150743126Y-77157389D01*
X150894791Y-77258728D01*
X151023772Y-77387709D01*
X151125111Y-77539374D01*
X151194915Y-77707896D01*
X151230500Y-77886797D01*
X151230500Y-78069203D01*
X151194915Y-78248104D01*
X151125111Y-78416626D01*
X151023772Y-78568291D01*
X150894791Y-78697272D01*
X150743126Y-78798611D01*
X150574604Y-78868415D01*
X150395703Y-78904000D01*
X150213297Y-78904000D01*
X150034396Y-78868415D01*
X149865874Y-78798611D01*
X149714209Y-78697272D01*
X149585228Y-78568291D01*
X149483889Y-78416626D01*
X149414085Y-78248104D01*
X149378500Y-78069203D01*
X149378500Y-77886797D01*
X149414085Y-77707896D01*
X149483889Y-77539374D01*
X149585228Y-77387709D01*
X149714209Y-77258728D01*
X149865874Y-77157389D01*
X150034396Y-77087585D01*
X150213297Y-77052000D01*
X150395703Y-77052000D01*
X150574604Y-77087585D01*
X150574604Y-77087585D01*
G37*
G36*
X153114604Y-77087585D02*
G01*
X153283126Y-77157389D01*
X153434791Y-77258728D01*
X153563772Y-77387709D01*
X153665111Y-77539374D01*
X153734915Y-77707896D01*
X153770500Y-77886797D01*
X153770500Y-78069203D01*
X153734915Y-78248104D01*
X153665111Y-78416626D01*
X153563772Y-78568291D01*
X153434791Y-78697272D01*
X153283126Y-78798611D01*
X153114604Y-78868415D01*
X152935703Y-78904000D01*
X152753297Y-78904000D01*
X152574396Y-78868415D01*
X152405874Y-78798611D01*
X152254209Y-78697272D01*
X152125228Y-78568291D01*
X152023889Y-78416626D01*
X151954085Y-78248104D01*
X151918500Y-78069203D01*
X151918500Y-77886797D01*
X151954085Y-77707896D01*
X152023889Y-77539374D01*
X152125228Y-77387709D01*
X152254209Y-77258728D01*
X152405874Y-77157389D01*
X152574396Y-77087585D01*
X152753297Y-77052000D01*
X152935703Y-77052000D01*
X153114604Y-77087585D01*
X153114604Y-77087585D01*
G37*
G36*
X155654604Y-77087585D02*
G01*
X155823126Y-77157389D01*
X155974791Y-77258728D01*
X156103772Y-77387709D01*
X156205111Y-77539374D01*
X156274915Y-77707896D01*
X156310500Y-77886797D01*
X156310500Y-78069203D01*
X156274915Y-78248104D01*
X156205111Y-78416626D01*
X156103772Y-78568291D01*
X155974791Y-78697272D01*
X155823126Y-78798611D01*
X155654604Y-78868415D01*
X155475703Y-78904000D01*
X155293297Y-78904000D01*
X155114396Y-78868415D01*
X154945874Y-78798611D01*
X154794209Y-78697272D01*
X154665228Y-78568291D01*
X154563889Y-78416626D01*
X154494085Y-78248104D01*
X154458500Y-78069203D01*
X154458500Y-77886797D01*
X154494085Y-77707896D01*
X154563889Y-77539374D01*
X154665228Y-77387709D01*
X154794209Y-77258728D01*
X154945874Y-77157389D01*
X155114396Y-77087585D01*
X155293297Y-77052000D01*
X155475703Y-77052000D01*
X155654604Y-77087585D01*
X155654604Y-77087585D01*
G37*
M02*
