G04 #@! TF.GenerationSoftware,KiCad,Pcbnew,(5.1.4-0-10_14)*
G04 #@! TF.CreationDate,2021-01-03T20:32:44+00:00*
G04 #@! TF.ProjectId,mt32-pi-midi-hat,6d743332-2d70-4692-9d6d-6964692d6861,rev?*
G04 #@! TF.SameCoordinates,Original*
G04 #@! TF.FileFunction,Copper,L2,Bot*
G04 #@! TF.FilePolarity,Positive*
%FSLAX46Y46*%
G04 Gerber Fmt 4.6, Leading zero omitted, Abs format (unit mm)*
G04 Created by KiCad (PCBNEW (5.1.4-0-10_14)) date 2021-01-03 20:32:44*
%MOMM*%
%LPD*%
G04 APERTURE LIST*
%ADD10C,2.000000*%
%ADD11O,1.700000X1.700000*%
%ADD12R,1.700000X1.700000*%
%ADD13C,1.750000*%
%ADD14R,1.750000X1.750000*%
%ADD15O,1.600000X1.600000*%
%ADD16C,1.600000*%
%ADD17R,1.600000X1.600000*%
%ADD18C,2.200000*%
%ADD19C,2.100000*%
%ADD20C,0.800000*%
%ADD21C,0.250000*%
%ADD22C,0.254000*%
G04 APERTURE END LIST*
D10*
X110337600Y-85854400D03*
X114837600Y-85854400D03*
X110337600Y-92354400D03*
X114837600Y-92354400D03*
X117449600Y-85854400D03*
X121949600Y-85854400D03*
X117449600Y-92354400D03*
X121949600Y-92354400D03*
X124561600Y-85854400D03*
X129061600Y-85854400D03*
X124561600Y-92354400D03*
X129061600Y-92354400D03*
X131673600Y-85854400D03*
X136173600Y-85854400D03*
X131673600Y-92354400D03*
X136173600Y-92354400D03*
X156156800Y-91338400D03*
X156156800Y-95838400D03*
X149656800Y-91338400D03*
X149656800Y-95838400D03*
X156156800Y-84328000D03*
X156156800Y-88828000D03*
X149656800Y-84328000D03*
X149656800Y-88828000D03*
X147114400Y-84328000D03*
X147114400Y-88828000D03*
X140614400Y-84328000D03*
X140614400Y-88828000D03*
X147114400Y-91338400D03*
X147114400Y-95838400D03*
X140614400Y-91338400D03*
X140614400Y-95838400D03*
D11*
X160883600Y-95808800D03*
X160883600Y-93268800D03*
X160883600Y-90728800D03*
X160883600Y-88188800D03*
X160883600Y-85648800D03*
D12*
X160883600Y-83108800D03*
X120650000Y-130302000D03*
D11*
X127508000Y-105410000D03*
X124968000Y-105410000D03*
X122428000Y-105410000D03*
D12*
X119888000Y-105410000D03*
D11*
X107950000Y-109728000D03*
X110490000Y-109728000D03*
X113030000Y-109728000D03*
X115570000Y-109728000D03*
X118110000Y-109728000D03*
X120650000Y-109728000D03*
X123190000Y-109728000D03*
X125730000Y-109728000D03*
X128270000Y-109728000D03*
X130810000Y-109728000D03*
D12*
X133350000Y-109728000D03*
X130048000Y-116078000D03*
D13*
X155384500Y-80518000D03*
X155384500Y-77978000D03*
X152844500Y-80518000D03*
X152844500Y-77978000D03*
X150304500Y-80518000D03*
X150304500Y-77978000D03*
X147764500Y-80518000D03*
X147764500Y-77978000D03*
X145224500Y-80518000D03*
X145224500Y-77978000D03*
X137604500Y-77978000D03*
X137604500Y-80518000D03*
X132524500Y-77978000D03*
X132524500Y-80518000D03*
X129984500Y-77978000D03*
X129984500Y-80518000D03*
X127444500Y-77978000D03*
X127444500Y-80518000D03*
X124904500Y-77978000D03*
X124904500Y-80518000D03*
X122364500Y-77978000D03*
X122364500Y-80518000D03*
X119824500Y-77978000D03*
X119824500Y-80518000D03*
X117284500Y-77978000D03*
X117284500Y-80518000D03*
X114744500Y-77978000D03*
X114744500Y-80518000D03*
X112204500Y-77978000D03*
X112204500Y-80518000D03*
X109664500Y-77978000D03*
X109664500Y-80518000D03*
X107124500Y-77978000D03*
D14*
X107124500Y-80518000D03*
D13*
X135064500Y-80518000D03*
X135064500Y-77978000D03*
X142684500Y-77978000D03*
X142684500Y-80518000D03*
X140144500Y-77978000D03*
X140144500Y-80518000D03*
D15*
X160883600Y-100838000D03*
D16*
X160883600Y-110998000D03*
D15*
X156972000Y-110998000D03*
D16*
X156972000Y-100838000D03*
D15*
X139700000Y-110998000D03*
D17*
X139700000Y-100838000D03*
D18*
X153416000Y-116753000D03*
X143416000Y-116753000D03*
X155916000Y-119253000D03*
X148416000Y-119253000D03*
X140916000Y-119253000D03*
D19*
X143416000Y-128953000D03*
X153416000Y-128953000D03*
X145916000Y-129253000D03*
X150916000Y-129253000D03*
D11*
X105918000Y-129286000D03*
X105918000Y-126746000D03*
X105918000Y-124206000D03*
X105918000Y-121666000D03*
X105918000Y-119126000D03*
D12*
X105918000Y-116586000D03*
D16*
X150872200Y-100126800D03*
X145872200Y-100126800D03*
D15*
X145876000Y-103428800D03*
X150956000Y-111048800D03*
X148416000Y-103428800D03*
X148416000Y-111048800D03*
X150956000Y-103428800D03*
D17*
X145876000Y-111048800D03*
D11*
X105918000Y-105410000D03*
X105918000Y-102870000D03*
X105918000Y-100330000D03*
D12*
X105918000Y-97790000D03*
D20*
X120613000Y-100330000D03*
X118364000Y-97790000D03*
X161696400Y-108305600D03*
X132588000Y-105664000D03*
X113030000Y-117094000D03*
X115570000Y-113538000D03*
D21*
X143416000Y-114714000D02*
X143416000Y-116753000D01*
X139700000Y-110998000D02*
X143416000Y-114714000D01*
X143416000Y-114714000D02*
X146855200Y-114714000D01*
X148416000Y-113153200D02*
X146855200Y-114714000D01*
X148416000Y-111048800D02*
X148416000Y-113153200D01*
X139700000Y-106121200D02*
X139700000Y-100838000D01*
X156972000Y-106121200D02*
X154228800Y-108864400D01*
X142443200Y-108864400D02*
X139700000Y-106121200D01*
X156972000Y-100838000D02*
X156972000Y-106121200D01*
X144881600Y-109004400D02*
X144881600Y-108864400D01*
X145876000Y-109998800D02*
X144881600Y-109004400D01*
X145876000Y-111048800D02*
X145876000Y-109998800D01*
X144881600Y-108864400D02*
X142443200Y-108864400D01*
X154228800Y-108864400D02*
X144881600Y-108864400D01*
X153416000Y-114554000D02*
X153416000Y-116753000D01*
X156972000Y-110998000D02*
X153416000Y-114554000D01*
X110648045Y-82074455D02*
X109244174Y-82074455D01*
X112204500Y-80518000D02*
X110648045Y-82074455D01*
X109244174Y-82074455D02*
X107698914Y-83619714D01*
X107499990Y-83818639D02*
X107499990Y-99865610D01*
X107035600Y-100330000D02*
X105918000Y-100330000D01*
X107499990Y-99865610D02*
X107035600Y-100330000D01*
X107698914Y-83619714D02*
X107499990Y-83818639D01*
X120338010Y-103980410D02*
X120338010Y-100604990D01*
X121710199Y-104234999D02*
X120592599Y-104234999D01*
X120592599Y-104234999D02*
X120338010Y-103980410D01*
X122428000Y-104952800D02*
X121710199Y-104234999D01*
X122428000Y-105410000D02*
X122428000Y-104952800D01*
X120338010Y-100604990D02*
X120613000Y-100330000D01*
X119888000Y-105410000D02*
X119888000Y-99314000D01*
X119888000Y-99314000D02*
X118364000Y-97790000D01*
X107049980Y-96658020D02*
X107049980Y-83132520D01*
X107049980Y-83132520D02*
X109664500Y-80518000D01*
X105918000Y-97790000D02*
X107049980Y-96658020D01*
X117284500Y-77978000D02*
X119157465Y-76105035D01*
X162085186Y-77372082D02*
X162148178Y-77459621D01*
X162019294Y-77286783D02*
X162085186Y-77372082D01*
X161950488Y-77203710D02*
X162019294Y-77286783D01*
X161878943Y-77123074D02*
X161950488Y-77203710D01*
X161804663Y-77044879D02*
X161878943Y-77123074D01*
X161727816Y-76969302D02*
X161804663Y-77044879D01*
X161648392Y-76896331D02*
X161727816Y-76969302D01*
X161566570Y-76826134D02*
X161648392Y-76896331D01*
X161482387Y-76758741D02*
X161566570Y-76826134D01*
X161395979Y-76694259D02*
X161482387Y-76758741D01*
X119157465Y-76105035D02*
X159772768Y-76105035D01*
X161307406Y-76632736D02*
X161395979Y-76694259D01*
X161216824Y-76574279D02*
X161307406Y-76632736D01*
X161124280Y-76518920D02*
X161216824Y-76574279D01*
X161029953Y-76466762D02*
X161124280Y-76518920D01*
X160933850Y-76417810D02*
X161029953Y-76466762D01*
X160836156Y-76372161D02*
X160933850Y-76417810D01*
X160736986Y-76329868D02*
X160836156Y-76372161D01*
X160636419Y-76290964D02*
X160736986Y-76329868D01*
X160534578Y-76255497D02*
X160636419Y-76290964D01*
X160010665Y-76131094D02*
X160117038Y-76148822D01*
X160431610Y-76223518D02*
X160534578Y-76255497D01*
X160117038Y-76148822D02*
X160222699Y-76170146D01*
X159796443Y-76106533D02*
X159903760Y-76116992D01*
X160327646Y-76195066D02*
X160431610Y-76223518D01*
X160222699Y-76170146D02*
X160327646Y-76195066D01*
X159772768Y-76105035D02*
X159796443Y-76106533D01*
X159903760Y-76116992D02*
X160010665Y-76131094D01*
X162687226Y-78854483D02*
X162699473Y-78961637D01*
X162671349Y-78747847D02*
X162687226Y-78854483D01*
X162708067Y-79069086D02*
X162712912Y-79174778D01*
X162699473Y-78961637D02*
X162708067Y-79069086D01*
X162651856Y-78641802D02*
X162671349Y-78747847D01*
X162628763Y-78536455D02*
X162651856Y-78641802D01*
X162602111Y-78431984D02*
X162628763Y-78536455D01*
X162571918Y-78328462D02*
X162602111Y-78431984D01*
X162208149Y-77549239D02*
X162265018Y-77640807D01*
X162369309Y-77829573D02*
X162416561Y-77926458D01*
X162318753Y-77734277D02*
X162369309Y-77829573D01*
X162538235Y-78226060D02*
X162571918Y-78328462D01*
X162460501Y-78024913D02*
X162501072Y-78124810D01*
X162501072Y-78124810D02*
X162538235Y-78226060D01*
X162148178Y-77459621D02*
X162208149Y-77549239D01*
X162265018Y-77640807D02*
X162318753Y-77734277D01*
X162416561Y-77926458D02*
X162460501Y-78024913D01*
X162712912Y-99008688D02*
X160883600Y-100838000D01*
X162712912Y-79174778D02*
X162712912Y-99008688D01*
X161452801Y-81392999D02*
X156259499Y-81392999D01*
X162262902Y-82203100D02*
X161452801Y-81392999D01*
X162262902Y-94429498D02*
X162262902Y-82203100D01*
X156259499Y-81392999D02*
X155384500Y-80518000D01*
X160883600Y-95808800D02*
X162262902Y-94429498D01*
X107950000Y-108525919D02*
X109033919Y-107442000D01*
X107950000Y-109728000D02*
X107950000Y-108525919D01*
X109033919Y-107442000D02*
X130810000Y-107442000D01*
X130810000Y-107442000D02*
X132588000Y-105664000D01*
X113030000Y-117094000D02*
X113030000Y-109728000D01*
X148983700Y-81838800D02*
X150304500Y-80518000D01*
X119203610Y-81838800D02*
X148983700Y-81838800D01*
X117991600Y-83050810D02*
X119203610Y-81838800D01*
X109556110Y-83050810D02*
X117991600Y-83050810D01*
X108407200Y-84199720D02*
X109556110Y-83050810D01*
X105918000Y-108332410D02*
X108383210Y-105867200D01*
X108407200Y-105867200D02*
X108407200Y-84199720D01*
X107662000Y-113504000D02*
X105918000Y-111760000D01*
X105918000Y-111760000D02*
X105918000Y-108332410D01*
X107093001Y-118587409D02*
X107662000Y-118018410D01*
X107662000Y-118018410D02*
X107662000Y-113504000D01*
X107093001Y-119690001D02*
X107093001Y-118587409D01*
X105353999Y-120490999D02*
X106292003Y-120490999D01*
X104742999Y-121101999D02*
X105353999Y-120490999D01*
X108383210Y-105867200D02*
X108407200Y-105867200D01*
X104742999Y-123030999D02*
X104742999Y-121101999D01*
X106292003Y-120490999D02*
X107093001Y-119690001D01*
X105918000Y-124206000D02*
X104742999Y-123030999D01*
X115570000Y-113538000D02*
X115570000Y-109728000D01*
X108112010Y-118204810D02*
X107543011Y-118773809D01*
X108112010Y-113317600D02*
X108112010Y-118204810D01*
X106936820Y-107950000D02*
X106368010Y-108518810D01*
X108857210Y-84386120D02*
X108857210Y-106053600D01*
X154184499Y-80954003D02*
X152849692Y-82288810D01*
X119390010Y-82288810D02*
X118173780Y-83505040D01*
X108857210Y-106053600D02*
X106960810Y-107950000D01*
X106960810Y-107950000D02*
X106936820Y-107950000D01*
X109208690Y-84034640D02*
X108857210Y-84386120D01*
X109220000Y-84034640D02*
X109208690Y-84034640D01*
X152849692Y-82288810D02*
X119390010Y-82288810D01*
X107543011Y-118773809D02*
X107543011Y-120040989D01*
X106368010Y-111573600D02*
X108112010Y-113317600D01*
X106368010Y-108518810D02*
X106368010Y-111573600D01*
X109749600Y-83505040D02*
X109220000Y-84034640D01*
X118173780Y-83505040D02*
X109749600Y-83505040D01*
X107543011Y-120040989D02*
X105918000Y-121666000D01*
X154184499Y-79178001D02*
X154184499Y-80954003D01*
X155384500Y-77978000D02*
X154184499Y-79178001D01*
X107950000Y-84005039D02*
X107950000Y-105664000D01*
X109354239Y-82600800D02*
X107950000Y-84005039D01*
X118624499Y-81781501D02*
X117805200Y-82600800D01*
X117805200Y-82600800D02*
X109354239Y-82600800D01*
X118624499Y-79178001D02*
X118624499Y-81781501D01*
X119824500Y-77978000D02*
X118624499Y-79178001D01*
X105467991Y-111946401D02*
X107211990Y-113690400D01*
X107950000Y-105664000D02*
X105467990Y-108146010D01*
X105467990Y-108146010D02*
X105467991Y-111946401D01*
X107211990Y-117832010D02*
X105918000Y-119126000D01*
X107211990Y-113690400D02*
X107211990Y-117832010D01*
X160883600Y-93268800D02*
X160687402Y-93268800D01*
X114837600Y-87268613D02*
X114837600Y-92354400D01*
X114837600Y-85854400D02*
X114837600Y-87268613D01*
X156796000Y-88188800D02*
X156156800Y-88828000D01*
X160883600Y-88188800D02*
X156796000Y-88188800D01*
X121949600Y-85854400D02*
X121949600Y-92354400D01*
X150656799Y-89827999D02*
X149656800Y-88828000D01*
X150292801Y-92663401D02*
X150981801Y-91974401D01*
X150981801Y-90153001D02*
X150656799Y-89827999D01*
X139791999Y-97613411D02*
X141436802Y-97613410D01*
X121949600Y-92354400D02*
X123724611Y-94129411D01*
X138741990Y-95307990D02*
X138741991Y-96563403D01*
X141436802Y-97613410D02*
X146386811Y-92663401D01*
X138741991Y-96563403D02*
X139791999Y-97613411D01*
X150981801Y-91974401D02*
X150981801Y-90153001D01*
X137563411Y-94129411D02*
X138741990Y-95307990D01*
X123724611Y-94129411D02*
X137563411Y-94129411D01*
X146386811Y-92663401D02*
X150292801Y-92663401D01*
X148439401Y-87502999D02*
X147114400Y-88828000D01*
X159029401Y-87502999D02*
X148439401Y-87502999D01*
X160883600Y-85648800D02*
X159029401Y-87502999D01*
X129061600Y-85854400D02*
X129061600Y-92354400D01*
X141614399Y-89827999D02*
X140614400Y-88828000D01*
X141939401Y-96474401D02*
X141939401Y-90153001D01*
X141250401Y-97163401D02*
X141939401Y-96474401D01*
X139978399Y-97163401D02*
X141250401Y-97163401D01*
X139192000Y-96377002D02*
X139978399Y-97163401D01*
X139192000Y-95097600D02*
X139192000Y-96377002D01*
X141939401Y-90153001D02*
X141614399Y-89827999D01*
X137773801Y-93679401D02*
X139192000Y-95097600D01*
X130386601Y-93679401D02*
X137773801Y-93679401D01*
X129061600Y-92354400D02*
X130386601Y-93679401D01*
X137871200Y-93095200D02*
X140614400Y-95838400D01*
X137871200Y-83007200D02*
X137871200Y-93095200D01*
X159783600Y-83108800D02*
X159413620Y-82738820D01*
X138139580Y-82738820D02*
X137871200Y-83007200D01*
X159413620Y-82738820D02*
X138139580Y-82738820D01*
X160883600Y-83108800D02*
X159783600Y-83108800D01*
X137871200Y-92637787D02*
X137871200Y-93095200D01*
X137587813Y-92354400D02*
X137871200Y-92637787D01*
X136173600Y-92354400D02*
X137587813Y-92354400D01*
X136173600Y-87268613D02*
X136173600Y-92354400D01*
X136173600Y-85854400D02*
X136173600Y-87268613D01*
D22*
G36*
X117672169Y-76515530D02*
G01*
X117433222Y-76468000D01*
X117135778Y-76468000D01*
X116844049Y-76526029D01*
X116569247Y-76639856D01*
X116321931Y-76805107D01*
X116111607Y-77015431D01*
X116014500Y-77160762D01*
X115917393Y-77015431D01*
X115707069Y-76805107D01*
X115459753Y-76639856D01*
X115184951Y-76526029D01*
X114893222Y-76468000D01*
X114595778Y-76468000D01*
X114304049Y-76526029D01*
X114029247Y-76639856D01*
X113781931Y-76805107D01*
X113571607Y-77015431D01*
X113462212Y-77179153D01*
X113250740Y-77111365D01*
X112384105Y-77978000D01*
X113250740Y-78844635D01*
X113462212Y-78776847D01*
X113571607Y-78940569D01*
X113781931Y-79150893D01*
X113927262Y-79248000D01*
X113781931Y-79345107D01*
X113571607Y-79555431D01*
X113474500Y-79700762D01*
X113377393Y-79555431D01*
X113167069Y-79345107D01*
X113003347Y-79235712D01*
X113071135Y-79024240D01*
X112204500Y-78157605D01*
X111337865Y-79024240D01*
X111405653Y-79235712D01*
X111241931Y-79345107D01*
X111031607Y-79555431D01*
X110934500Y-79700762D01*
X110837393Y-79555431D01*
X110627069Y-79345107D01*
X110481738Y-79248000D01*
X110627069Y-79150893D01*
X110837393Y-78940569D01*
X110946788Y-78776847D01*
X111158260Y-78844635D01*
X112024895Y-77978000D01*
X111158260Y-77111365D01*
X110946788Y-77179153D01*
X110837393Y-77015431D01*
X110753722Y-76931760D01*
X111337865Y-76931760D01*
X112204500Y-77798395D01*
X113071135Y-76931760D01*
X112990475Y-76680132D01*
X112722171Y-76551733D01*
X112433974Y-76478145D01*
X112136957Y-76462196D01*
X111842537Y-76504499D01*
X111562026Y-76603428D01*
X111418525Y-76680132D01*
X111337865Y-76931760D01*
X110753722Y-76931760D01*
X110627069Y-76805107D01*
X110379753Y-76639856D01*
X110104951Y-76526029D01*
X109813222Y-76468000D01*
X109515778Y-76468000D01*
X109224049Y-76526029D01*
X108949247Y-76639856D01*
X108701931Y-76805107D01*
X108491607Y-77015431D01*
X108394500Y-77160762D01*
X108297393Y-77015431D01*
X108087069Y-76805107D01*
X107839753Y-76639856D01*
X107564951Y-76526029D01*
X107273222Y-76468000D01*
X106975778Y-76468000D01*
X106684049Y-76526029D01*
X106409247Y-76639856D01*
X106161931Y-76805107D01*
X105951607Y-77015431D01*
X105786356Y-77262747D01*
X105672529Y-77537549D01*
X105614500Y-77829278D01*
X105614500Y-78126722D01*
X105672529Y-78418451D01*
X105786356Y-78693253D01*
X105951607Y-78940569D01*
X106050754Y-79039716D01*
X106005320Y-79053498D01*
X105895006Y-79112463D01*
X105798315Y-79191815D01*
X105718963Y-79288506D01*
X105659998Y-79398820D01*
X105623688Y-79518518D01*
X105611428Y-79643000D01*
X105611428Y-81393000D01*
X105623688Y-81517482D01*
X105659998Y-81637180D01*
X105718963Y-81747494D01*
X105798315Y-81844185D01*
X105895006Y-81923537D01*
X106005320Y-81982502D01*
X106125018Y-82018812D01*
X106249500Y-82031072D01*
X107076627Y-82031072D01*
X106538978Y-82568721D01*
X106509980Y-82592519D01*
X106486182Y-82621517D01*
X106486181Y-82621518D01*
X106415006Y-82708244D01*
X106344434Y-82840274D01*
X106322020Y-82914167D01*
X106300978Y-82983534D01*
X106296296Y-83031067D01*
X106286304Y-83132520D01*
X106289981Y-83169852D01*
X106289980Y-96301928D01*
X105068000Y-96301928D01*
X104943518Y-96314188D01*
X104823820Y-96350498D01*
X104713506Y-96409463D01*
X104616815Y-96488815D01*
X104537463Y-96585506D01*
X104478498Y-96695820D01*
X104442188Y-96815518D01*
X104429928Y-96940000D01*
X104429928Y-98640000D01*
X104442188Y-98764482D01*
X104478498Y-98884180D01*
X104537463Y-98994494D01*
X104616815Y-99091185D01*
X104713506Y-99170537D01*
X104823820Y-99229502D01*
X104892687Y-99250393D01*
X104862866Y-99274866D01*
X104677294Y-99500986D01*
X104539401Y-99758966D01*
X104454487Y-100038889D01*
X104425815Y-100330000D01*
X104454487Y-100621111D01*
X104539401Y-100901034D01*
X104677294Y-101159014D01*
X104862866Y-101385134D01*
X105088986Y-101570706D01*
X105143791Y-101600000D01*
X105088986Y-101629294D01*
X104862866Y-101814866D01*
X104677294Y-102040986D01*
X104539401Y-102298966D01*
X104454487Y-102578889D01*
X104425815Y-102870000D01*
X104454487Y-103161111D01*
X104539401Y-103441034D01*
X104677294Y-103699014D01*
X104862866Y-103925134D01*
X105088986Y-104110706D01*
X105153523Y-104145201D01*
X105036645Y-104214822D01*
X104820412Y-104409731D01*
X104646359Y-104643080D01*
X104521175Y-104905901D01*
X104476524Y-105053110D01*
X104597845Y-105283000D01*
X105791000Y-105283000D01*
X105791000Y-105263000D01*
X106045000Y-105263000D01*
X106045000Y-105283000D01*
X106065000Y-105283000D01*
X106065000Y-105537000D01*
X106045000Y-105537000D01*
X106045000Y-105557000D01*
X105791000Y-105557000D01*
X105791000Y-105537000D01*
X104597845Y-105537000D01*
X104476524Y-105766890D01*
X104521175Y-105914099D01*
X104646359Y-106176920D01*
X104820412Y-106410269D01*
X105036645Y-106605178D01*
X105286748Y-106754157D01*
X105561109Y-106851481D01*
X105790998Y-106730815D01*
X105790998Y-106748201D01*
X104956987Y-107582212D01*
X104927989Y-107606010D01*
X104904191Y-107635008D01*
X104833016Y-107721734D01*
X104795239Y-107792409D01*
X104762444Y-107853764D01*
X104718987Y-107997025D01*
X104707990Y-108108678D01*
X104707990Y-108108688D01*
X104704314Y-108146010D01*
X104707990Y-108183333D01*
X104707992Y-111909069D01*
X104704315Y-111946401D01*
X104718989Y-112095386D01*
X104762445Y-112238647D01*
X104833017Y-112370677D01*
X104884165Y-112433000D01*
X104927991Y-112486402D01*
X104956989Y-112510200D01*
X106451990Y-114005202D01*
X106451990Y-115099648D01*
X106203750Y-115101000D01*
X106045000Y-115259750D01*
X106045000Y-116459000D01*
X106065000Y-116459000D01*
X106065000Y-116713000D01*
X106045000Y-116713000D01*
X106045000Y-116733000D01*
X105791000Y-116733000D01*
X105791000Y-116713000D01*
X104591750Y-116713000D01*
X104433000Y-116871750D01*
X104429928Y-117436000D01*
X104442188Y-117560482D01*
X104478498Y-117680180D01*
X104537463Y-117790494D01*
X104616815Y-117887185D01*
X104713506Y-117966537D01*
X104823820Y-118025502D01*
X104892687Y-118046393D01*
X104862866Y-118070866D01*
X104677294Y-118296986D01*
X104539401Y-118554966D01*
X104454487Y-118834889D01*
X104425815Y-119126000D01*
X104454487Y-119417111D01*
X104539401Y-119697034D01*
X104677294Y-119955014D01*
X104739447Y-120030748D01*
X104231996Y-120538201D01*
X104202999Y-120561998D01*
X104179201Y-120590996D01*
X104179200Y-120590997D01*
X104108025Y-120677723D01*
X104037453Y-120809753D01*
X104007179Y-120909557D01*
X104005445Y-120915275D01*
X103993997Y-120953014D01*
X103979323Y-121101999D01*
X103983000Y-121139331D01*
X103982999Y-122993676D01*
X103979323Y-123030999D01*
X103982999Y-123068321D01*
X103982999Y-123068331D01*
X103993996Y-123179984D01*
X104037453Y-123323245D01*
X104108025Y-123455275D01*
X104147870Y-123503825D01*
X104202998Y-123571000D01*
X104232002Y-123594803D01*
X104477203Y-123840004D01*
X104454487Y-123914889D01*
X104425815Y-124206000D01*
X104454487Y-124497111D01*
X104539401Y-124777034D01*
X104677294Y-125035014D01*
X104862866Y-125261134D01*
X105088986Y-125446706D01*
X105153523Y-125481201D01*
X105036645Y-125550822D01*
X104820412Y-125745731D01*
X104646359Y-125979080D01*
X104521175Y-126241901D01*
X104476524Y-126389110D01*
X104597845Y-126619000D01*
X105791000Y-126619000D01*
X105791000Y-126599000D01*
X106045000Y-126599000D01*
X106045000Y-126619000D01*
X107238155Y-126619000D01*
X107359476Y-126389110D01*
X107314825Y-126241901D01*
X107189641Y-125979080D01*
X107015588Y-125745731D01*
X106799355Y-125550822D01*
X106682477Y-125481201D01*
X106747014Y-125446706D01*
X106973134Y-125261134D01*
X107158706Y-125035014D01*
X107296599Y-124777034D01*
X107381513Y-124497111D01*
X107410185Y-124206000D01*
X107381513Y-123914889D01*
X107296599Y-123634966D01*
X107158706Y-123376986D01*
X106973134Y-123150866D01*
X106747014Y-122965294D01*
X106692209Y-122936000D01*
X106747014Y-122906706D01*
X106973134Y-122721134D01*
X107158706Y-122495014D01*
X107296599Y-122237034D01*
X107381513Y-121957111D01*
X107410185Y-121666000D01*
X107381513Y-121374889D01*
X107358797Y-121300005D01*
X108054014Y-120604788D01*
X108083012Y-120580990D01*
X108177985Y-120465265D01*
X108248557Y-120333236D01*
X108292014Y-120189975D01*
X108303011Y-120078322D01*
X108306688Y-120040989D01*
X108303011Y-120003656D01*
X108303011Y-119088610D01*
X108309504Y-119082117D01*
X139181000Y-119082117D01*
X139181000Y-119423883D01*
X139247675Y-119759081D01*
X139378463Y-120074831D01*
X139568337Y-120358998D01*
X139810002Y-120600663D01*
X140094169Y-120790537D01*
X140409919Y-120921325D01*
X140745117Y-120988000D01*
X141086883Y-120988000D01*
X141422081Y-120921325D01*
X141737831Y-120790537D01*
X142021998Y-120600663D01*
X142263663Y-120358998D01*
X142453537Y-120074831D01*
X142584325Y-119759081D01*
X142651000Y-119423883D01*
X142651000Y-119082117D01*
X146681000Y-119082117D01*
X146681000Y-119423883D01*
X146747675Y-119759081D01*
X146878463Y-120074831D01*
X147068337Y-120358998D01*
X147310002Y-120600663D01*
X147594169Y-120790537D01*
X147909919Y-120921325D01*
X148245117Y-120988000D01*
X148586883Y-120988000D01*
X148922081Y-120921325D01*
X149237831Y-120790537D01*
X149521998Y-120600663D01*
X149763663Y-120358998D01*
X149953537Y-120074831D01*
X150084325Y-119759081D01*
X150151000Y-119423883D01*
X150151000Y-119082117D01*
X154181000Y-119082117D01*
X154181000Y-119423883D01*
X154247675Y-119759081D01*
X154378463Y-120074831D01*
X154568337Y-120358998D01*
X154810002Y-120600663D01*
X155094169Y-120790537D01*
X155409919Y-120921325D01*
X155745117Y-120988000D01*
X156086883Y-120988000D01*
X156422081Y-120921325D01*
X156737831Y-120790537D01*
X157021998Y-120600663D01*
X157263663Y-120358998D01*
X157453537Y-120074831D01*
X157584325Y-119759081D01*
X157651000Y-119423883D01*
X157651000Y-119082117D01*
X157584325Y-118746919D01*
X157453537Y-118431169D01*
X157263663Y-118147002D01*
X157021998Y-117905337D01*
X156737831Y-117715463D01*
X156422081Y-117584675D01*
X156086883Y-117518000D01*
X155745117Y-117518000D01*
X155409919Y-117584675D01*
X155094169Y-117715463D01*
X154810002Y-117905337D01*
X154568337Y-118147002D01*
X154378463Y-118431169D01*
X154247675Y-118746919D01*
X154181000Y-119082117D01*
X150151000Y-119082117D01*
X150084325Y-118746919D01*
X149953537Y-118431169D01*
X149763663Y-118147002D01*
X149521998Y-117905337D01*
X149237831Y-117715463D01*
X148922081Y-117584675D01*
X148586883Y-117518000D01*
X148245117Y-117518000D01*
X147909919Y-117584675D01*
X147594169Y-117715463D01*
X147310002Y-117905337D01*
X147068337Y-118147002D01*
X146878463Y-118431169D01*
X146747675Y-118746919D01*
X146681000Y-119082117D01*
X142651000Y-119082117D01*
X142584325Y-118746919D01*
X142453537Y-118431169D01*
X142263663Y-118147002D01*
X142021998Y-117905337D01*
X141737831Y-117715463D01*
X141422081Y-117584675D01*
X141086883Y-117518000D01*
X140745117Y-117518000D01*
X140409919Y-117584675D01*
X140094169Y-117715463D01*
X139810002Y-117905337D01*
X139568337Y-118147002D01*
X139378463Y-118431169D01*
X139247675Y-118746919D01*
X139181000Y-119082117D01*
X108309504Y-119082117D01*
X108623012Y-118768610D01*
X108652011Y-118744811D01*
X108687372Y-118701724D01*
X108746984Y-118629087D01*
X108817556Y-118497057D01*
X108826678Y-118466984D01*
X108861013Y-118353796D01*
X108872010Y-118242143D01*
X108872010Y-118242134D01*
X108875686Y-118204811D01*
X108872010Y-118167488D01*
X108872010Y-113354922D01*
X108875686Y-113317599D01*
X108872010Y-113280276D01*
X108872010Y-113280267D01*
X108861013Y-113168614D01*
X108817556Y-113025353D01*
X108746984Y-112893324D01*
X108720419Y-112860954D01*
X108675809Y-112806596D01*
X108675805Y-112806592D01*
X108652011Y-112777599D01*
X108623019Y-112753806D01*
X107128010Y-111258799D01*
X107128010Y-110972460D01*
X107378966Y-111106599D01*
X107658889Y-111191513D01*
X107877050Y-111213000D01*
X108022950Y-111213000D01*
X108241111Y-111191513D01*
X108521034Y-111106599D01*
X108779014Y-110968706D01*
X109005134Y-110783134D01*
X109190706Y-110557014D01*
X109225201Y-110492477D01*
X109294822Y-110609355D01*
X109489731Y-110825588D01*
X109723080Y-110999641D01*
X109985901Y-111124825D01*
X110133110Y-111169476D01*
X110363000Y-111048155D01*
X110363000Y-109855000D01*
X110343000Y-109855000D01*
X110343000Y-109601000D01*
X110363000Y-109601000D01*
X110363000Y-108407845D01*
X110617000Y-108407845D01*
X110617000Y-109601000D01*
X110637000Y-109601000D01*
X110637000Y-109855000D01*
X110617000Y-109855000D01*
X110617000Y-111048155D01*
X110846890Y-111169476D01*
X110994099Y-111124825D01*
X111256920Y-110999641D01*
X111490269Y-110825588D01*
X111685178Y-110609355D01*
X111754799Y-110492477D01*
X111789294Y-110557014D01*
X111974866Y-110783134D01*
X112200986Y-110968706D01*
X112270001Y-111005595D01*
X112270000Y-116390289D01*
X112226063Y-116434226D01*
X112112795Y-116603744D01*
X112034774Y-116792102D01*
X111995000Y-116992061D01*
X111995000Y-117195939D01*
X112034774Y-117395898D01*
X112112795Y-117584256D01*
X112226063Y-117753774D01*
X112370226Y-117897937D01*
X112539744Y-118011205D01*
X112728102Y-118089226D01*
X112928061Y-118129000D01*
X113131939Y-118129000D01*
X113331898Y-118089226D01*
X113520256Y-118011205D01*
X113689774Y-117897937D01*
X113833937Y-117753774D01*
X113947205Y-117584256D01*
X114025226Y-117395898D01*
X114065000Y-117195939D01*
X114065000Y-116992061D01*
X114025226Y-116792102D01*
X113947205Y-116603744D01*
X113833937Y-116434226D01*
X113790000Y-116390289D01*
X113790000Y-115228000D01*
X128559928Y-115228000D01*
X128559928Y-116928000D01*
X128572188Y-117052482D01*
X128608498Y-117172180D01*
X128667463Y-117282494D01*
X128746815Y-117379185D01*
X128843506Y-117458537D01*
X128953820Y-117517502D01*
X129073518Y-117553812D01*
X129198000Y-117566072D01*
X130898000Y-117566072D01*
X131022482Y-117553812D01*
X131142180Y-117517502D01*
X131252494Y-117458537D01*
X131349185Y-117379185D01*
X131428537Y-117282494D01*
X131487502Y-117172180D01*
X131523812Y-117052482D01*
X131536072Y-116928000D01*
X131536072Y-115228000D01*
X131523812Y-115103518D01*
X131487502Y-114983820D01*
X131428537Y-114873506D01*
X131349185Y-114776815D01*
X131252494Y-114697463D01*
X131142180Y-114638498D01*
X131022482Y-114602188D01*
X130898000Y-114589928D01*
X129198000Y-114589928D01*
X129073518Y-114602188D01*
X128953820Y-114638498D01*
X128843506Y-114697463D01*
X128746815Y-114776815D01*
X128667463Y-114873506D01*
X128608498Y-114983820D01*
X128572188Y-115103518D01*
X128559928Y-115228000D01*
X113790000Y-115228000D01*
X113790000Y-111005595D01*
X113859014Y-110968706D01*
X114085134Y-110783134D01*
X114270706Y-110557014D01*
X114300000Y-110502209D01*
X114329294Y-110557014D01*
X114514866Y-110783134D01*
X114740986Y-110968706D01*
X114810001Y-111005595D01*
X114810000Y-112834289D01*
X114766063Y-112878226D01*
X114652795Y-113047744D01*
X114574774Y-113236102D01*
X114535000Y-113436061D01*
X114535000Y-113639939D01*
X114574774Y-113839898D01*
X114652795Y-114028256D01*
X114766063Y-114197774D01*
X114910226Y-114341937D01*
X115079744Y-114455205D01*
X115268102Y-114533226D01*
X115468061Y-114573000D01*
X115671939Y-114573000D01*
X115871898Y-114533226D01*
X116060256Y-114455205D01*
X116229774Y-114341937D01*
X116373937Y-114197774D01*
X116487205Y-114028256D01*
X116565226Y-113839898D01*
X116605000Y-113639939D01*
X116605000Y-113436061D01*
X116565226Y-113236102D01*
X116487205Y-113047744D01*
X116373937Y-112878226D01*
X116330000Y-112834289D01*
X116330000Y-111005595D01*
X116399014Y-110968706D01*
X116625134Y-110783134D01*
X116810706Y-110557014D01*
X116840000Y-110502209D01*
X116869294Y-110557014D01*
X117054866Y-110783134D01*
X117280986Y-110968706D01*
X117538966Y-111106599D01*
X117818889Y-111191513D01*
X118037050Y-111213000D01*
X118182950Y-111213000D01*
X118401111Y-111191513D01*
X118681034Y-111106599D01*
X118939014Y-110968706D01*
X119165134Y-110783134D01*
X119350706Y-110557014D01*
X119385201Y-110492477D01*
X119454822Y-110609355D01*
X119649731Y-110825588D01*
X119883080Y-110999641D01*
X120145901Y-111124825D01*
X120293110Y-111169476D01*
X120523000Y-111048155D01*
X120523000Y-109855000D01*
X120777000Y-109855000D01*
X120777000Y-111048155D01*
X121006890Y-111169476D01*
X121154099Y-111124825D01*
X121416920Y-110999641D01*
X121650269Y-110825588D01*
X121845178Y-110609355D01*
X121920000Y-110483745D01*
X121994822Y-110609355D01*
X122189731Y-110825588D01*
X122423080Y-110999641D01*
X122685901Y-111124825D01*
X122833110Y-111169476D01*
X123063000Y-111048155D01*
X123063000Y-109855000D01*
X123317000Y-109855000D01*
X123317000Y-111048155D01*
X123546890Y-111169476D01*
X123694099Y-111124825D01*
X123956920Y-110999641D01*
X124190269Y-110825588D01*
X124385178Y-110609355D01*
X124460000Y-110483745D01*
X124534822Y-110609355D01*
X124729731Y-110825588D01*
X124963080Y-110999641D01*
X125225901Y-111124825D01*
X125373110Y-111169476D01*
X125603000Y-111048155D01*
X125603000Y-109855000D01*
X125857000Y-109855000D01*
X125857000Y-111048155D01*
X126086890Y-111169476D01*
X126234099Y-111124825D01*
X126496920Y-110999641D01*
X126730269Y-110825588D01*
X126925178Y-110609355D01*
X127000000Y-110483745D01*
X127074822Y-110609355D01*
X127269731Y-110825588D01*
X127503080Y-110999641D01*
X127765901Y-111124825D01*
X127913110Y-111169476D01*
X128143000Y-111048155D01*
X128143000Y-109855000D01*
X125857000Y-109855000D01*
X125603000Y-109855000D01*
X123317000Y-109855000D01*
X123063000Y-109855000D01*
X120777000Y-109855000D01*
X120523000Y-109855000D01*
X120503000Y-109855000D01*
X120503000Y-109601000D01*
X120523000Y-109601000D01*
X120523000Y-108407845D01*
X120777000Y-108407845D01*
X120777000Y-109601000D01*
X123063000Y-109601000D01*
X123063000Y-108407845D01*
X123317000Y-108407845D01*
X123317000Y-109601000D01*
X125603000Y-109601000D01*
X125603000Y-108407845D01*
X125857000Y-108407845D01*
X125857000Y-109601000D01*
X128143000Y-109601000D01*
X128143000Y-108407845D01*
X128397000Y-108407845D01*
X128397000Y-109601000D01*
X128417000Y-109601000D01*
X128417000Y-109855000D01*
X128397000Y-109855000D01*
X128397000Y-111048155D01*
X128626890Y-111169476D01*
X128774099Y-111124825D01*
X129036920Y-110999641D01*
X129270269Y-110825588D01*
X129465178Y-110609355D01*
X129534799Y-110492477D01*
X129569294Y-110557014D01*
X129754866Y-110783134D01*
X129980986Y-110968706D01*
X130238966Y-111106599D01*
X130518889Y-111191513D01*
X130737050Y-111213000D01*
X130882950Y-111213000D01*
X131101111Y-111191513D01*
X131381034Y-111106599D01*
X131639014Y-110968706D01*
X131865134Y-110783134D01*
X131889607Y-110753313D01*
X131910498Y-110822180D01*
X131969463Y-110932494D01*
X132048815Y-111029185D01*
X132145506Y-111108537D01*
X132255820Y-111167502D01*
X132375518Y-111203812D01*
X132500000Y-111216072D01*
X134200000Y-111216072D01*
X134324482Y-111203812D01*
X134444180Y-111167502D01*
X134554494Y-111108537D01*
X134651185Y-111029185D01*
X134676777Y-110998000D01*
X138258057Y-110998000D01*
X138285764Y-111279309D01*
X138367818Y-111549808D01*
X138501068Y-111799101D01*
X138680392Y-112017608D01*
X138898899Y-112196932D01*
X139148192Y-112330182D01*
X139418691Y-112412236D01*
X139629508Y-112433000D01*
X139770492Y-112433000D01*
X139981309Y-112412236D01*
X140025906Y-112398708D01*
X142656000Y-115028802D01*
X142656000Y-115189852D01*
X142594169Y-115215463D01*
X142310002Y-115405337D01*
X142068337Y-115647002D01*
X141878463Y-115931169D01*
X141747675Y-116246919D01*
X141681000Y-116582117D01*
X141681000Y-116923883D01*
X141747675Y-117259081D01*
X141878463Y-117574831D01*
X142068337Y-117858998D01*
X142310002Y-118100663D01*
X142594169Y-118290537D01*
X142909919Y-118421325D01*
X143245117Y-118488000D01*
X143586883Y-118488000D01*
X143922081Y-118421325D01*
X144237831Y-118290537D01*
X144521998Y-118100663D01*
X144763663Y-117858998D01*
X144953537Y-117574831D01*
X145084325Y-117259081D01*
X145151000Y-116923883D01*
X145151000Y-116582117D01*
X151681000Y-116582117D01*
X151681000Y-116923883D01*
X151747675Y-117259081D01*
X151878463Y-117574831D01*
X152068337Y-117858998D01*
X152310002Y-118100663D01*
X152594169Y-118290537D01*
X152909919Y-118421325D01*
X153245117Y-118488000D01*
X153586883Y-118488000D01*
X153922081Y-118421325D01*
X154237831Y-118290537D01*
X154521998Y-118100663D01*
X154763663Y-117858998D01*
X154953537Y-117574831D01*
X155084325Y-117259081D01*
X155151000Y-116923883D01*
X155151000Y-116582117D01*
X155084325Y-116246919D01*
X154953537Y-115931169D01*
X154763663Y-115647002D01*
X154521998Y-115405337D01*
X154237831Y-115215463D01*
X154176000Y-115189852D01*
X154176000Y-114868801D01*
X156646095Y-112398708D01*
X156690691Y-112412236D01*
X156901508Y-112433000D01*
X157042492Y-112433000D01*
X157253309Y-112412236D01*
X157523808Y-112330182D01*
X157773101Y-112196932D01*
X157991608Y-112017608D01*
X158170932Y-111799101D01*
X158304182Y-111549808D01*
X158386236Y-111279309D01*
X158413943Y-110998000D01*
X158400023Y-110856665D01*
X159448600Y-110856665D01*
X159448600Y-111139335D01*
X159503747Y-111416574D01*
X159611920Y-111677727D01*
X159768963Y-111912759D01*
X159968841Y-112112637D01*
X160203873Y-112269680D01*
X160465026Y-112377853D01*
X160742265Y-112433000D01*
X161024935Y-112433000D01*
X161302174Y-112377853D01*
X161563327Y-112269680D01*
X161798359Y-112112637D01*
X161998237Y-111912759D01*
X162155280Y-111677727D01*
X162263453Y-111416574D01*
X162318600Y-111139335D01*
X162318600Y-110856665D01*
X162263453Y-110579426D01*
X162155280Y-110318273D01*
X161998237Y-110083241D01*
X161798359Y-109883363D01*
X161563327Y-109726320D01*
X161302174Y-109618147D01*
X161024935Y-109563000D01*
X160742265Y-109563000D01*
X160465026Y-109618147D01*
X160203873Y-109726320D01*
X159968841Y-109883363D01*
X159768963Y-110083241D01*
X159611920Y-110318273D01*
X159503747Y-110579426D01*
X159448600Y-110856665D01*
X158400023Y-110856665D01*
X158386236Y-110716691D01*
X158304182Y-110446192D01*
X158170932Y-110196899D01*
X157991608Y-109978392D01*
X157773101Y-109799068D01*
X157523808Y-109665818D01*
X157253309Y-109583764D01*
X157042492Y-109563000D01*
X156901508Y-109563000D01*
X156690691Y-109583764D01*
X156420192Y-109665818D01*
X156170899Y-109799068D01*
X155952392Y-109978392D01*
X155773068Y-110196899D01*
X155639818Y-110446192D01*
X155557764Y-110716691D01*
X155530057Y-110998000D01*
X155557764Y-111279309D01*
X155571292Y-111323905D01*
X152905003Y-113990196D01*
X152875999Y-114013999D01*
X152832829Y-114066602D01*
X152781026Y-114129724D01*
X152715132Y-114253002D01*
X152710454Y-114261754D01*
X152666997Y-114405015D01*
X152656000Y-114516668D01*
X152656000Y-114516678D01*
X152652324Y-114554000D01*
X152656000Y-114591323D01*
X152656000Y-115189852D01*
X152594169Y-115215463D01*
X152310002Y-115405337D01*
X152068337Y-115647002D01*
X151878463Y-115931169D01*
X151747675Y-116246919D01*
X151681000Y-116582117D01*
X145151000Y-116582117D01*
X145084325Y-116246919D01*
X144953537Y-115931169D01*
X144763663Y-115647002D01*
X144590661Y-115474000D01*
X146817878Y-115474000D01*
X146855200Y-115477676D01*
X146892522Y-115474000D01*
X146892533Y-115474000D01*
X147004186Y-115463003D01*
X147147447Y-115419546D01*
X147279476Y-115348974D01*
X147395201Y-115254001D01*
X147419004Y-115224997D01*
X148927003Y-113716999D01*
X148956001Y-113693201D01*
X149050974Y-113577476D01*
X149121546Y-113445447D01*
X149165003Y-113302186D01*
X149176000Y-113190533D01*
X149179677Y-113153200D01*
X149176000Y-113115867D01*
X149176000Y-112269701D01*
X149217101Y-112247732D01*
X149435608Y-112068408D01*
X149614932Y-111849901D01*
X149686000Y-111716942D01*
X149757068Y-111849901D01*
X149936392Y-112068408D01*
X150154899Y-112247732D01*
X150404192Y-112380982D01*
X150674691Y-112463036D01*
X150885508Y-112483800D01*
X151026492Y-112483800D01*
X151237309Y-112463036D01*
X151507808Y-112380982D01*
X151757101Y-112247732D01*
X151975608Y-112068408D01*
X152154932Y-111849901D01*
X152288182Y-111600608D01*
X152370236Y-111330109D01*
X152397943Y-111048800D01*
X152370236Y-110767491D01*
X152288182Y-110496992D01*
X152154932Y-110247699D01*
X151975608Y-110029192D01*
X151757101Y-109849868D01*
X151507808Y-109716618D01*
X151237309Y-109634564D01*
X151134114Y-109624400D01*
X154191478Y-109624400D01*
X154228800Y-109628076D01*
X154266122Y-109624400D01*
X154266133Y-109624400D01*
X154377786Y-109613403D01*
X154521047Y-109569946D01*
X154653076Y-109499374D01*
X154768801Y-109404401D01*
X154792604Y-109375397D01*
X157483003Y-106684999D01*
X157512001Y-106661201D01*
X157606974Y-106545476D01*
X157677546Y-106413447D01*
X157721003Y-106270186D01*
X157732000Y-106158533D01*
X157732000Y-106158525D01*
X157735676Y-106121200D01*
X157732000Y-106083875D01*
X157732000Y-102056043D01*
X157886759Y-101952637D01*
X158086637Y-101752759D01*
X158243680Y-101517727D01*
X158351853Y-101256574D01*
X158407000Y-100979335D01*
X158407000Y-100696665D01*
X158351853Y-100419426D01*
X158243680Y-100158273D01*
X158086637Y-99923241D01*
X157886759Y-99723363D01*
X157651727Y-99566320D01*
X157390574Y-99458147D01*
X157113335Y-99403000D01*
X156830665Y-99403000D01*
X156553426Y-99458147D01*
X156292273Y-99566320D01*
X156057241Y-99723363D01*
X155857363Y-99923241D01*
X155700320Y-100158273D01*
X155592147Y-100419426D01*
X155537000Y-100696665D01*
X155537000Y-100979335D01*
X155592147Y-101256574D01*
X155700320Y-101517727D01*
X155857363Y-101752759D01*
X156057241Y-101952637D01*
X156212000Y-102056044D01*
X156212001Y-105806397D01*
X153913999Y-108104400D01*
X144918933Y-108104400D01*
X144881600Y-108100723D01*
X144844267Y-108104400D01*
X142758002Y-108104400D01*
X140460000Y-105806399D01*
X140460000Y-103428800D01*
X144434057Y-103428800D01*
X144461764Y-103710109D01*
X144543818Y-103980608D01*
X144677068Y-104229901D01*
X144856392Y-104448408D01*
X145074899Y-104627732D01*
X145324192Y-104760982D01*
X145594691Y-104843036D01*
X145805508Y-104863800D01*
X145946492Y-104863800D01*
X146157309Y-104843036D01*
X146427808Y-104760982D01*
X146677101Y-104627732D01*
X146895608Y-104448408D01*
X147074932Y-104229901D01*
X147148579Y-104092118D01*
X147263615Y-104283931D01*
X147452586Y-104492319D01*
X147678580Y-104659837D01*
X147932913Y-104780046D01*
X148066961Y-104820704D01*
X148289000Y-104698715D01*
X148289000Y-103555800D01*
X148269000Y-103555800D01*
X148269000Y-103301800D01*
X148289000Y-103301800D01*
X148289000Y-102158885D01*
X148543000Y-102158885D01*
X148543000Y-103301800D01*
X148563000Y-103301800D01*
X148563000Y-103555800D01*
X148543000Y-103555800D01*
X148543000Y-104698715D01*
X148765039Y-104820704D01*
X148899087Y-104780046D01*
X149153420Y-104659837D01*
X149379414Y-104492319D01*
X149568385Y-104283931D01*
X149683421Y-104092118D01*
X149757068Y-104229901D01*
X149936392Y-104448408D01*
X150154899Y-104627732D01*
X150404192Y-104760982D01*
X150674691Y-104843036D01*
X150885508Y-104863800D01*
X151026492Y-104863800D01*
X151237309Y-104843036D01*
X151507808Y-104760982D01*
X151757101Y-104627732D01*
X151975608Y-104448408D01*
X152154932Y-104229901D01*
X152288182Y-103980608D01*
X152370236Y-103710109D01*
X152397943Y-103428800D01*
X152370236Y-103147491D01*
X152288182Y-102876992D01*
X152154932Y-102627699D01*
X151975608Y-102409192D01*
X151757101Y-102229868D01*
X151507808Y-102096618D01*
X151237309Y-102014564D01*
X151026492Y-101993800D01*
X150885508Y-101993800D01*
X150674691Y-102014564D01*
X150404192Y-102096618D01*
X150154899Y-102229868D01*
X149936392Y-102409192D01*
X149757068Y-102627699D01*
X149683421Y-102765482D01*
X149568385Y-102573669D01*
X149379414Y-102365281D01*
X149153420Y-102197763D01*
X148899087Y-102077554D01*
X148765039Y-102036896D01*
X148543000Y-102158885D01*
X148289000Y-102158885D01*
X148066961Y-102036896D01*
X147932913Y-102077554D01*
X147678580Y-102197763D01*
X147452586Y-102365281D01*
X147263615Y-102573669D01*
X147148579Y-102765482D01*
X147074932Y-102627699D01*
X146895608Y-102409192D01*
X146677101Y-102229868D01*
X146427808Y-102096618D01*
X146157309Y-102014564D01*
X145946492Y-101993800D01*
X145805508Y-101993800D01*
X145594691Y-102014564D01*
X145324192Y-102096618D01*
X145074899Y-102229868D01*
X144856392Y-102409192D01*
X144677068Y-102627699D01*
X144543818Y-102876992D01*
X144461764Y-103147491D01*
X144434057Y-103428800D01*
X140460000Y-103428800D01*
X140460000Y-102276072D01*
X140500000Y-102276072D01*
X140624482Y-102263812D01*
X140744180Y-102227502D01*
X140854494Y-102168537D01*
X140951185Y-102089185D01*
X141030537Y-101992494D01*
X141089502Y-101882180D01*
X141125812Y-101762482D01*
X141138072Y-101638000D01*
X141138072Y-100038000D01*
X141132898Y-99985465D01*
X144437200Y-99985465D01*
X144437200Y-100268135D01*
X144492347Y-100545374D01*
X144600520Y-100806527D01*
X144757563Y-101041559D01*
X144957441Y-101241437D01*
X145192473Y-101398480D01*
X145453626Y-101506653D01*
X145730865Y-101561800D01*
X146013535Y-101561800D01*
X146290774Y-101506653D01*
X146551927Y-101398480D01*
X146786959Y-101241437D01*
X146908894Y-101119502D01*
X150059103Y-101119502D01*
X150130686Y-101363471D01*
X150386196Y-101484371D01*
X150660384Y-101553100D01*
X150942712Y-101567017D01*
X151222330Y-101525587D01*
X151488492Y-101430403D01*
X151613714Y-101363471D01*
X151685297Y-101119502D01*
X150872200Y-100306405D01*
X150059103Y-101119502D01*
X146908894Y-101119502D01*
X146986837Y-101041559D01*
X147143880Y-100806527D01*
X147252053Y-100545374D01*
X147307200Y-100268135D01*
X147307200Y-100197312D01*
X149431983Y-100197312D01*
X149473413Y-100476930D01*
X149568597Y-100743092D01*
X149635529Y-100868314D01*
X149879498Y-100939897D01*
X150692595Y-100126800D01*
X151051805Y-100126800D01*
X151864902Y-100939897D01*
X152108871Y-100868314D01*
X152229771Y-100612804D01*
X152298500Y-100338616D01*
X152312417Y-100056288D01*
X152270987Y-99776670D01*
X152175803Y-99510508D01*
X152108871Y-99385286D01*
X151864902Y-99313703D01*
X151051805Y-100126800D01*
X150692595Y-100126800D01*
X149879498Y-99313703D01*
X149635529Y-99385286D01*
X149514629Y-99640796D01*
X149445900Y-99914984D01*
X149431983Y-100197312D01*
X147307200Y-100197312D01*
X147307200Y-99985465D01*
X147252053Y-99708226D01*
X147143880Y-99447073D01*
X146986837Y-99212041D01*
X146908894Y-99134098D01*
X150059103Y-99134098D01*
X150872200Y-99947195D01*
X151685297Y-99134098D01*
X151613714Y-98890129D01*
X151358204Y-98769229D01*
X151084016Y-98700500D01*
X150801688Y-98686583D01*
X150522070Y-98728013D01*
X150255908Y-98823197D01*
X150130686Y-98890129D01*
X150059103Y-99134098D01*
X146908894Y-99134098D01*
X146786959Y-99012163D01*
X146551927Y-98855120D01*
X146290774Y-98746947D01*
X146013535Y-98691800D01*
X145730865Y-98691800D01*
X145453626Y-98746947D01*
X145192473Y-98855120D01*
X144957441Y-99012163D01*
X144757563Y-99212041D01*
X144600520Y-99447073D01*
X144492347Y-99708226D01*
X144437200Y-99985465D01*
X141132898Y-99985465D01*
X141125812Y-99913518D01*
X141089502Y-99793820D01*
X141030537Y-99683506D01*
X140951185Y-99586815D01*
X140854494Y-99507463D01*
X140744180Y-99448498D01*
X140624482Y-99412188D01*
X140500000Y-99399928D01*
X138900000Y-99399928D01*
X138775518Y-99412188D01*
X138655820Y-99448498D01*
X138545506Y-99507463D01*
X138448815Y-99586815D01*
X138369463Y-99683506D01*
X138310498Y-99793820D01*
X138274188Y-99913518D01*
X138261928Y-100038000D01*
X138261928Y-101638000D01*
X138274188Y-101762482D01*
X138310498Y-101882180D01*
X138369463Y-101992494D01*
X138448815Y-102089185D01*
X138545506Y-102168537D01*
X138655820Y-102227502D01*
X138775518Y-102263812D01*
X138900000Y-102276072D01*
X138940001Y-102276072D01*
X138940000Y-106083877D01*
X138936324Y-106121200D01*
X138940000Y-106158522D01*
X138940000Y-106158532D01*
X138950997Y-106270185D01*
X138983764Y-106378204D01*
X138994454Y-106413446D01*
X139065026Y-106545476D01*
X139104522Y-106593601D01*
X139159999Y-106661201D01*
X139189003Y-106685004D01*
X141879401Y-109375403D01*
X141903199Y-109404401D01*
X142018924Y-109499374D01*
X142150953Y-109569946D01*
X142294214Y-109613403D01*
X142405867Y-109624400D01*
X142405875Y-109624400D01*
X142443200Y-109628076D01*
X142480525Y-109624400D01*
X144426799Y-109624400D01*
X144613636Y-109811237D01*
X144545463Y-109894306D01*
X144486498Y-110004620D01*
X144450188Y-110124318D01*
X144437928Y-110248800D01*
X144437928Y-111848800D01*
X144450188Y-111973282D01*
X144486498Y-112092980D01*
X144545463Y-112203294D01*
X144624815Y-112299985D01*
X144721506Y-112379337D01*
X144831820Y-112438302D01*
X144951518Y-112474612D01*
X145076000Y-112486872D01*
X146676000Y-112486872D01*
X146800482Y-112474612D01*
X146920180Y-112438302D01*
X147030494Y-112379337D01*
X147127185Y-112299985D01*
X147206537Y-112203294D01*
X147265502Y-112092980D01*
X147301812Y-111973282D01*
X147303581Y-111955318D01*
X147396392Y-112068408D01*
X147614899Y-112247732D01*
X147656001Y-112269701D01*
X147656001Y-112838397D01*
X146540399Y-113954000D01*
X143730802Y-113954000D01*
X141100708Y-111323906D01*
X141114236Y-111279309D01*
X141141943Y-110998000D01*
X141114236Y-110716691D01*
X141032182Y-110446192D01*
X140898932Y-110196899D01*
X140719608Y-109978392D01*
X140501101Y-109799068D01*
X140251808Y-109665818D01*
X139981309Y-109583764D01*
X139770492Y-109563000D01*
X139629508Y-109563000D01*
X139418691Y-109583764D01*
X139148192Y-109665818D01*
X138898899Y-109799068D01*
X138680392Y-109978392D01*
X138501068Y-110196899D01*
X138367818Y-110446192D01*
X138285764Y-110716691D01*
X138258057Y-110998000D01*
X134676777Y-110998000D01*
X134730537Y-110932494D01*
X134789502Y-110822180D01*
X134825812Y-110702482D01*
X134838072Y-110578000D01*
X134838072Y-108878000D01*
X134825812Y-108753518D01*
X134789502Y-108633820D01*
X134730537Y-108523506D01*
X134651185Y-108426815D01*
X134554494Y-108347463D01*
X134444180Y-108288498D01*
X134324482Y-108252188D01*
X134200000Y-108239928D01*
X132500000Y-108239928D01*
X132375518Y-108252188D01*
X132255820Y-108288498D01*
X132145506Y-108347463D01*
X132048815Y-108426815D01*
X131969463Y-108523506D01*
X131910498Y-108633820D01*
X131889607Y-108702687D01*
X131865134Y-108672866D01*
X131639014Y-108487294D01*
X131381034Y-108349401D01*
X131101111Y-108264487D01*
X130882950Y-108243000D01*
X130737050Y-108243000D01*
X130518889Y-108264487D01*
X130238966Y-108349401D01*
X129980986Y-108487294D01*
X129754866Y-108672866D01*
X129569294Y-108898986D01*
X129534799Y-108963523D01*
X129465178Y-108846645D01*
X129270269Y-108630412D01*
X129036920Y-108456359D01*
X128774099Y-108331175D01*
X128626890Y-108286524D01*
X128397000Y-108407845D01*
X128143000Y-108407845D01*
X127913110Y-108286524D01*
X127765901Y-108331175D01*
X127503080Y-108456359D01*
X127269731Y-108630412D01*
X127074822Y-108846645D01*
X127000000Y-108972255D01*
X126925178Y-108846645D01*
X126730269Y-108630412D01*
X126496920Y-108456359D01*
X126234099Y-108331175D01*
X126086890Y-108286524D01*
X125857000Y-108407845D01*
X125603000Y-108407845D01*
X125373110Y-108286524D01*
X125225901Y-108331175D01*
X124963080Y-108456359D01*
X124729731Y-108630412D01*
X124534822Y-108846645D01*
X124460000Y-108972255D01*
X124385178Y-108846645D01*
X124190269Y-108630412D01*
X123956920Y-108456359D01*
X123694099Y-108331175D01*
X123546890Y-108286524D01*
X123317000Y-108407845D01*
X123063000Y-108407845D01*
X122833110Y-108286524D01*
X122685901Y-108331175D01*
X122423080Y-108456359D01*
X122189731Y-108630412D01*
X121994822Y-108846645D01*
X121920000Y-108972255D01*
X121845178Y-108846645D01*
X121650269Y-108630412D01*
X121416920Y-108456359D01*
X121154099Y-108331175D01*
X121006890Y-108286524D01*
X120777000Y-108407845D01*
X120523000Y-108407845D01*
X120293110Y-108286524D01*
X120145901Y-108331175D01*
X119883080Y-108456359D01*
X119649731Y-108630412D01*
X119454822Y-108846645D01*
X119385201Y-108963523D01*
X119350706Y-108898986D01*
X119165134Y-108672866D01*
X118939014Y-108487294D01*
X118681034Y-108349401D01*
X118401111Y-108264487D01*
X118182950Y-108243000D01*
X118037050Y-108243000D01*
X117818889Y-108264487D01*
X117538966Y-108349401D01*
X117280986Y-108487294D01*
X117054866Y-108672866D01*
X116869294Y-108898986D01*
X116840000Y-108953791D01*
X116810706Y-108898986D01*
X116625134Y-108672866D01*
X116399014Y-108487294D01*
X116141034Y-108349401D01*
X115861111Y-108264487D01*
X115642950Y-108243000D01*
X115497050Y-108243000D01*
X115278889Y-108264487D01*
X114998966Y-108349401D01*
X114740986Y-108487294D01*
X114514866Y-108672866D01*
X114329294Y-108898986D01*
X114300000Y-108953791D01*
X114270706Y-108898986D01*
X114085134Y-108672866D01*
X113859014Y-108487294D01*
X113601034Y-108349401D01*
X113321111Y-108264487D01*
X113102950Y-108243000D01*
X112957050Y-108243000D01*
X112738889Y-108264487D01*
X112458966Y-108349401D01*
X112200986Y-108487294D01*
X111974866Y-108672866D01*
X111789294Y-108898986D01*
X111754799Y-108963523D01*
X111685178Y-108846645D01*
X111490269Y-108630412D01*
X111256920Y-108456359D01*
X110994099Y-108331175D01*
X110846890Y-108286524D01*
X110617000Y-108407845D01*
X110363000Y-108407845D01*
X110133110Y-108286524D01*
X109985901Y-108331175D01*
X109723080Y-108456359D01*
X109489731Y-108630412D01*
X109294822Y-108846645D01*
X109225201Y-108963523D01*
X109190706Y-108898986D01*
X109005134Y-108672866D01*
X108935226Y-108615494D01*
X109348721Y-108202000D01*
X130772678Y-108202000D01*
X130810000Y-108205676D01*
X130847322Y-108202000D01*
X130847333Y-108202000D01*
X130958986Y-108191003D01*
X131102247Y-108147546D01*
X131234276Y-108076974D01*
X131350001Y-107982001D01*
X131373804Y-107952997D01*
X132627802Y-106699000D01*
X132689939Y-106699000D01*
X132889898Y-106659226D01*
X133078256Y-106581205D01*
X133247774Y-106467937D01*
X133391937Y-106323774D01*
X133505205Y-106154256D01*
X133583226Y-105965898D01*
X133623000Y-105765939D01*
X133623000Y-105562061D01*
X133583226Y-105362102D01*
X133505205Y-105173744D01*
X133391937Y-105004226D01*
X133247774Y-104860063D01*
X133078256Y-104746795D01*
X132889898Y-104668774D01*
X132689939Y-104629000D01*
X132486061Y-104629000D01*
X132286102Y-104668774D01*
X132097744Y-104746795D01*
X131928226Y-104860063D01*
X131784063Y-105004226D01*
X131670795Y-105173744D01*
X131592774Y-105362102D01*
X131553000Y-105562061D01*
X131553000Y-105624198D01*
X130495199Y-106682000D01*
X128274166Y-106682000D01*
X128274920Y-106681641D01*
X128508269Y-106507588D01*
X128703178Y-106291355D01*
X128852157Y-106041252D01*
X128949481Y-105766891D01*
X128828814Y-105537000D01*
X127635000Y-105537000D01*
X127635000Y-105557000D01*
X127381000Y-105557000D01*
X127381000Y-105537000D01*
X127361000Y-105537000D01*
X127361000Y-105283000D01*
X127381000Y-105283000D01*
X127381000Y-104089845D01*
X127635000Y-104089845D01*
X127635000Y-105283000D01*
X128828814Y-105283000D01*
X128949481Y-105053109D01*
X128852157Y-104778748D01*
X128703178Y-104528645D01*
X128508269Y-104312412D01*
X128274920Y-104138359D01*
X128012099Y-104013175D01*
X127864890Y-103968524D01*
X127635000Y-104089845D01*
X127381000Y-104089845D01*
X127151110Y-103968524D01*
X127003901Y-104013175D01*
X126741080Y-104138359D01*
X126507731Y-104312412D01*
X126312822Y-104528645D01*
X126243201Y-104645523D01*
X126208706Y-104580986D01*
X126023134Y-104354866D01*
X125797014Y-104169294D01*
X125539034Y-104031401D01*
X125259111Y-103946487D01*
X125040950Y-103925000D01*
X124895050Y-103925000D01*
X124676889Y-103946487D01*
X124396966Y-104031401D01*
X124138986Y-104169294D01*
X123912866Y-104354866D01*
X123727294Y-104580986D01*
X123698000Y-104635791D01*
X123668706Y-104580986D01*
X123483134Y-104354866D01*
X123257014Y-104169294D01*
X122999034Y-104031401D01*
X122719111Y-103946487D01*
X122500950Y-103925000D01*
X122475001Y-103925000D01*
X122274002Y-103724001D01*
X122250200Y-103694998D01*
X122134475Y-103600025D01*
X122002446Y-103529453D01*
X121859185Y-103485996D01*
X121747532Y-103474999D01*
X121747521Y-103474999D01*
X121710199Y-103471323D01*
X121672877Y-103474999D01*
X121098010Y-103474999D01*
X121098010Y-101249378D01*
X121103256Y-101247205D01*
X121272774Y-101133937D01*
X121416937Y-100989774D01*
X121530205Y-100820256D01*
X121608226Y-100631898D01*
X121648000Y-100431939D01*
X121648000Y-100228061D01*
X121608226Y-100028102D01*
X121530205Y-99839744D01*
X121416937Y-99670226D01*
X121272774Y-99526063D01*
X121103256Y-99412795D01*
X120914898Y-99334774D01*
X120714939Y-99295000D01*
X120649805Y-99295000D01*
X120648000Y-99276676D01*
X120648000Y-99276667D01*
X120637003Y-99165014D01*
X120593546Y-99021753D01*
X120522974Y-98889724D01*
X120486270Y-98845000D01*
X120451799Y-98802996D01*
X120451795Y-98802992D01*
X120428001Y-98773999D01*
X120399008Y-98750205D01*
X119399000Y-97750198D01*
X119399000Y-97688061D01*
X119359226Y-97488102D01*
X119281205Y-97299744D01*
X119167937Y-97130226D01*
X119023774Y-96986063D01*
X118854256Y-96872795D01*
X118665898Y-96794774D01*
X118465939Y-96755000D01*
X118262061Y-96755000D01*
X118062102Y-96794774D01*
X117873744Y-96872795D01*
X117704226Y-96986063D01*
X117560063Y-97130226D01*
X117446795Y-97299744D01*
X117368774Y-97488102D01*
X117329000Y-97688061D01*
X117329000Y-97891939D01*
X117368774Y-98091898D01*
X117446795Y-98280256D01*
X117560063Y-98449774D01*
X117704226Y-98593937D01*
X117873744Y-98707205D01*
X118062102Y-98785226D01*
X118262061Y-98825000D01*
X118324198Y-98825000D01*
X119128001Y-99628804D01*
X119128000Y-103921928D01*
X119038000Y-103921928D01*
X118913518Y-103934188D01*
X118793820Y-103970498D01*
X118683506Y-104029463D01*
X118586815Y-104108815D01*
X118507463Y-104205506D01*
X118448498Y-104315820D01*
X118412188Y-104435518D01*
X118399928Y-104560000D01*
X118399928Y-106260000D01*
X118412188Y-106384482D01*
X118448498Y-106504180D01*
X118507463Y-106614494D01*
X118562864Y-106682000D01*
X109303612Y-106682000D01*
X109368213Y-106617399D01*
X109397211Y-106593601D01*
X109492184Y-106477876D01*
X109562756Y-106345847D01*
X109606213Y-106202586D01*
X109617210Y-106090933D01*
X109620887Y-106053600D01*
X109617210Y-106016267D01*
X109617210Y-93822152D01*
X109767171Y-93895104D01*
X110078708Y-93976784D01*
X110400195Y-93996118D01*
X110719275Y-93952361D01*
X111023688Y-93847195D01*
X111197644Y-93754214D01*
X111293408Y-93489813D01*
X110337600Y-92534005D01*
X110323458Y-92548148D01*
X110143853Y-92368543D01*
X110157995Y-92354400D01*
X110517205Y-92354400D01*
X111473013Y-93310208D01*
X111737414Y-93214444D01*
X111878304Y-92924829D01*
X111959984Y-92613292D01*
X111979318Y-92291805D01*
X111935561Y-91972725D01*
X111830395Y-91668312D01*
X111737414Y-91494356D01*
X111473013Y-91398592D01*
X110517205Y-92354400D01*
X110157995Y-92354400D01*
X110143853Y-92340258D01*
X110323458Y-92160653D01*
X110337600Y-92174795D01*
X111293408Y-91218987D01*
X111197644Y-90954586D01*
X110908029Y-90813696D01*
X110596492Y-90732016D01*
X110275005Y-90712682D01*
X109955925Y-90756439D01*
X109651512Y-90861605D01*
X109617210Y-90879940D01*
X109617210Y-87322152D01*
X109767171Y-87395104D01*
X110078708Y-87476784D01*
X110400195Y-87496118D01*
X110719275Y-87452361D01*
X111023688Y-87347195D01*
X111197644Y-87254214D01*
X111293408Y-86989813D01*
X110337600Y-86034005D01*
X110323458Y-86048148D01*
X110143853Y-85868543D01*
X110157995Y-85854400D01*
X110517205Y-85854400D01*
X111473013Y-86810208D01*
X111737414Y-86714444D01*
X111878304Y-86424829D01*
X111959984Y-86113292D01*
X111979318Y-85791805D01*
X111935561Y-85472725D01*
X111830395Y-85168312D01*
X111737414Y-84994356D01*
X111473013Y-84898592D01*
X110517205Y-85854400D01*
X110157995Y-85854400D01*
X110143853Y-85840258D01*
X110323458Y-85660653D01*
X110337600Y-85674795D01*
X111293408Y-84718987D01*
X111197644Y-84454586D01*
X110908029Y-84313696D01*
X110722449Y-84265040D01*
X114447118Y-84265040D01*
X114360688Y-84282232D01*
X114063137Y-84405482D01*
X113795348Y-84584413D01*
X113567613Y-84812148D01*
X113388682Y-85079937D01*
X113265432Y-85377488D01*
X113202600Y-85693367D01*
X113202600Y-86015433D01*
X113265432Y-86331312D01*
X113388682Y-86628863D01*
X113567613Y-86896652D01*
X113795348Y-87124387D01*
X114063137Y-87303318D01*
X114077600Y-87309309D01*
X114077601Y-90899491D01*
X114063137Y-90905482D01*
X113795348Y-91084413D01*
X113567613Y-91312148D01*
X113388682Y-91579937D01*
X113265432Y-91877488D01*
X113202600Y-92193367D01*
X113202600Y-92515433D01*
X113265432Y-92831312D01*
X113388682Y-93128863D01*
X113567613Y-93396652D01*
X113795348Y-93624387D01*
X114063137Y-93803318D01*
X114360688Y-93926568D01*
X114676567Y-93989400D01*
X114998633Y-93989400D01*
X115314512Y-93926568D01*
X115612063Y-93803318D01*
X115879852Y-93624387D01*
X116014426Y-93489813D01*
X116493792Y-93489813D01*
X116589556Y-93754214D01*
X116879171Y-93895104D01*
X117190708Y-93976784D01*
X117512195Y-93996118D01*
X117831275Y-93952361D01*
X118135688Y-93847195D01*
X118309644Y-93754214D01*
X118405408Y-93489813D01*
X117449600Y-92534005D01*
X116493792Y-93489813D01*
X116014426Y-93489813D01*
X116107587Y-93396652D01*
X116194349Y-93266804D01*
X116314187Y-93310208D01*
X117269995Y-92354400D01*
X117629205Y-92354400D01*
X118585013Y-93310208D01*
X118849414Y-93214444D01*
X118990304Y-92924829D01*
X119071984Y-92613292D01*
X119091318Y-92291805D01*
X119047561Y-91972725D01*
X118942395Y-91668312D01*
X118849414Y-91494356D01*
X118585013Y-91398592D01*
X117629205Y-92354400D01*
X117269995Y-92354400D01*
X116314187Y-91398592D01*
X116194349Y-91441996D01*
X116107587Y-91312148D01*
X116014426Y-91218987D01*
X116493792Y-91218987D01*
X117449600Y-92174795D01*
X118405408Y-91218987D01*
X118309644Y-90954586D01*
X118020029Y-90813696D01*
X117708492Y-90732016D01*
X117387005Y-90712682D01*
X117067925Y-90756439D01*
X116763512Y-90861605D01*
X116589556Y-90954586D01*
X116493792Y-91218987D01*
X116014426Y-91218987D01*
X115879852Y-91084413D01*
X115612063Y-90905482D01*
X115597600Y-90899491D01*
X115597600Y-87309309D01*
X115612063Y-87303318D01*
X115879852Y-87124387D01*
X116014426Y-86989813D01*
X116493792Y-86989813D01*
X116589556Y-87254214D01*
X116879171Y-87395104D01*
X117190708Y-87476784D01*
X117512195Y-87496118D01*
X117831275Y-87452361D01*
X118135688Y-87347195D01*
X118309644Y-87254214D01*
X118405408Y-86989813D01*
X117449600Y-86034005D01*
X116493792Y-86989813D01*
X116014426Y-86989813D01*
X116107587Y-86896652D01*
X116194349Y-86766804D01*
X116314187Y-86810208D01*
X117269995Y-85854400D01*
X117629205Y-85854400D01*
X118585013Y-86810208D01*
X118849414Y-86714444D01*
X118990304Y-86424829D01*
X119071984Y-86113292D01*
X119091318Y-85791805D01*
X119047561Y-85472725D01*
X118942395Y-85168312D01*
X118849414Y-84994356D01*
X118585013Y-84898592D01*
X117629205Y-85854400D01*
X117269995Y-85854400D01*
X116314187Y-84898592D01*
X116194349Y-84941996D01*
X116107587Y-84812148D01*
X115879852Y-84584413D01*
X115612063Y-84405482D01*
X115314512Y-84282232D01*
X115228082Y-84265040D01*
X117043029Y-84265040D01*
X116763512Y-84361605D01*
X116589556Y-84454586D01*
X116493792Y-84718987D01*
X117449600Y-85674795D01*
X118405408Y-84718987D01*
X118309644Y-84454586D01*
X118020029Y-84313696D01*
X117834449Y-84265040D01*
X118136458Y-84265040D01*
X118173780Y-84268716D01*
X118211102Y-84265040D01*
X118211113Y-84265040D01*
X118322766Y-84254043D01*
X118466027Y-84210586D01*
X118598056Y-84140014D01*
X118713781Y-84045041D01*
X118737584Y-84016037D01*
X119704812Y-83048810D01*
X137111200Y-83048810D01*
X137111200Y-84514487D01*
X136948063Y-84405482D01*
X136650512Y-84282232D01*
X136334633Y-84219400D01*
X136012567Y-84219400D01*
X135696688Y-84282232D01*
X135399137Y-84405482D01*
X135131348Y-84584413D01*
X134903613Y-84812148D01*
X134724682Y-85079937D01*
X134601432Y-85377488D01*
X134538600Y-85693367D01*
X134538600Y-86015433D01*
X134601432Y-86331312D01*
X134724682Y-86628863D01*
X134903613Y-86896652D01*
X135131348Y-87124387D01*
X135399137Y-87303318D01*
X135413600Y-87309309D01*
X135413601Y-90899491D01*
X135399137Y-90905482D01*
X135131348Y-91084413D01*
X134903613Y-91312148D01*
X134724682Y-91579937D01*
X134601432Y-91877488D01*
X134538600Y-92193367D01*
X134538600Y-92515433D01*
X134601432Y-92831312D01*
X134637920Y-92919401D01*
X133215727Y-92919401D01*
X133295984Y-92613292D01*
X133315318Y-92291805D01*
X133271561Y-91972725D01*
X133166395Y-91668312D01*
X133073414Y-91494356D01*
X132809013Y-91398592D01*
X131853205Y-92354400D01*
X131867348Y-92368543D01*
X131687743Y-92548148D01*
X131673600Y-92534005D01*
X131659458Y-92548148D01*
X131479853Y-92368543D01*
X131493995Y-92354400D01*
X130538187Y-91398592D01*
X130418349Y-91441996D01*
X130331587Y-91312148D01*
X130238426Y-91218987D01*
X130717792Y-91218987D01*
X131673600Y-92174795D01*
X132629408Y-91218987D01*
X132533644Y-90954586D01*
X132244029Y-90813696D01*
X131932492Y-90732016D01*
X131611005Y-90712682D01*
X131291925Y-90756439D01*
X130987512Y-90861605D01*
X130813556Y-90954586D01*
X130717792Y-91218987D01*
X130238426Y-91218987D01*
X130103852Y-91084413D01*
X129836063Y-90905482D01*
X129821600Y-90899491D01*
X129821600Y-87309309D01*
X129836063Y-87303318D01*
X130103852Y-87124387D01*
X130238426Y-86989813D01*
X130717792Y-86989813D01*
X130813556Y-87254214D01*
X131103171Y-87395104D01*
X131414708Y-87476784D01*
X131736195Y-87496118D01*
X132055275Y-87452361D01*
X132359688Y-87347195D01*
X132533644Y-87254214D01*
X132629408Y-86989813D01*
X131673600Y-86034005D01*
X130717792Y-86989813D01*
X130238426Y-86989813D01*
X130331587Y-86896652D01*
X130418349Y-86766804D01*
X130538187Y-86810208D01*
X131493995Y-85854400D01*
X131853205Y-85854400D01*
X132809013Y-86810208D01*
X133073414Y-86714444D01*
X133214304Y-86424829D01*
X133295984Y-86113292D01*
X133315318Y-85791805D01*
X133271561Y-85472725D01*
X133166395Y-85168312D01*
X133073414Y-84994356D01*
X132809013Y-84898592D01*
X131853205Y-85854400D01*
X131493995Y-85854400D01*
X130538187Y-84898592D01*
X130418349Y-84941996D01*
X130331587Y-84812148D01*
X130238426Y-84718987D01*
X130717792Y-84718987D01*
X131673600Y-85674795D01*
X132629408Y-84718987D01*
X132533644Y-84454586D01*
X132244029Y-84313696D01*
X131932492Y-84232016D01*
X131611005Y-84212682D01*
X131291925Y-84256439D01*
X130987512Y-84361605D01*
X130813556Y-84454586D01*
X130717792Y-84718987D01*
X130238426Y-84718987D01*
X130103852Y-84584413D01*
X129836063Y-84405482D01*
X129538512Y-84282232D01*
X129222633Y-84219400D01*
X128900567Y-84219400D01*
X128584688Y-84282232D01*
X128287137Y-84405482D01*
X128019348Y-84584413D01*
X127791613Y-84812148D01*
X127612682Y-85079937D01*
X127489432Y-85377488D01*
X127426600Y-85693367D01*
X127426600Y-86015433D01*
X127489432Y-86331312D01*
X127612682Y-86628863D01*
X127791613Y-86896652D01*
X128019348Y-87124387D01*
X128287137Y-87303318D01*
X128301600Y-87309309D01*
X128301601Y-90899491D01*
X128287137Y-90905482D01*
X128019348Y-91084413D01*
X127791613Y-91312148D01*
X127612682Y-91579937D01*
X127489432Y-91877488D01*
X127426600Y-92193367D01*
X127426600Y-92515433D01*
X127489432Y-92831312D01*
X127612682Y-93128863D01*
X127773411Y-93369411D01*
X125756219Y-93369411D01*
X125697015Y-93310207D01*
X125961414Y-93214444D01*
X126102304Y-92924829D01*
X126183984Y-92613292D01*
X126203318Y-92291805D01*
X126159561Y-91972725D01*
X126054395Y-91668312D01*
X125961414Y-91494356D01*
X125697013Y-91398592D01*
X124741205Y-92354400D01*
X124755348Y-92368543D01*
X124575743Y-92548148D01*
X124561600Y-92534005D01*
X124547458Y-92548148D01*
X124367853Y-92368543D01*
X124381995Y-92354400D01*
X123426187Y-91398592D01*
X123306349Y-91441996D01*
X123219587Y-91312148D01*
X123126426Y-91218987D01*
X123605792Y-91218987D01*
X124561600Y-92174795D01*
X125517408Y-91218987D01*
X125421644Y-90954586D01*
X125132029Y-90813696D01*
X124820492Y-90732016D01*
X124499005Y-90712682D01*
X124179925Y-90756439D01*
X123875512Y-90861605D01*
X123701556Y-90954586D01*
X123605792Y-91218987D01*
X123126426Y-91218987D01*
X122991852Y-91084413D01*
X122724063Y-90905482D01*
X122709600Y-90899491D01*
X122709600Y-87309309D01*
X122724063Y-87303318D01*
X122991852Y-87124387D01*
X123126426Y-86989813D01*
X123605792Y-86989813D01*
X123701556Y-87254214D01*
X123991171Y-87395104D01*
X124302708Y-87476784D01*
X124624195Y-87496118D01*
X124943275Y-87452361D01*
X125247688Y-87347195D01*
X125421644Y-87254214D01*
X125517408Y-86989813D01*
X124561600Y-86034005D01*
X123605792Y-86989813D01*
X123126426Y-86989813D01*
X123219587Y-86896652D01*
X123306349Y-86766804D01*
X123426187Y-86810208D01*
X124381995Y-85854400D01*
X124741205Y-85854400D01*
X125697013Y-86810208D01*
X125961414Y-86714444D01*
X126102304Y-86424829D01*
X126183984Y-86113292D01*
X126203318Y-85791805D01*
X126159561Y-85472725D01*
X126054395Y-85168312D01*
X125961414Y-84994356D01*
X125697013Y-84898592D01*
X124741205Y-85854400D01*
X124381995Y-85854400D01*
X123426187Y-84898592D01*
X123306349Y-84941996D01*
X123219587Y-84812148D01*
X123126426Y-84718987D01*
X123605792Y-84718987D01*
X124561600Y-85674795D01*
X125517408Y-84718987D01*
X125421644Y-84454586D01*
X125132029Y-84313696D01*
X124820492Y-84232016D01*
X124499005Y-84212682D01*
X124179925Y-84256439D01*
X123875512Y-84361605D01*
X123701556Y-84454586D01*
X123605792Y-84718987D01*
X123126426Y-84718987D01*
X122991852Y-84584413D01*
X122724063Y-84405482D01*
X122426512Y-84282232D01*
X122110633Y-84219400D01*
X121788567Y-84219400D01*
X121472688Y-84282232D01*
X121175137Y-84405482D01*
X120907348Y-84584413D01*
X120679613Y-84812148D01*
X120500682Y-85079937D01*
X120377432Y-85377488D01*
X120314600Y-85693367D01*
X120314600Y-86015433D01*
X120377432Y-86331312D01*
X120500682Y-86628863D01*
X120679613Y-86896652D01*
X120907348Y-87124387D01*
X121175137Y-87303318D01*
X121189600Y-87309309D01*
X121189601Y-90899491D01*
X121175137Y-90905482D01*
X120907348Y-91084413D01*
X120679613Y-91312148D01*
X120500682Y-91579937D01*
X120377432Y-91877488D01*
X120314600Y-92193367D01*
X120314600Y-92515433D01*
X120377432Y-92831312D01*
X120500682Y-93128863D01*
X120679613Y-93396652D01*
X120907348Y-93624387D01*
X121175137Y-93803318D01*
X121472688Y-93926568D01*
X121788567Y-93989400D01*
X122110633Y-93989400D01*
X122426512Y-93926568D01*
X122440975Y-93920577D01*
X123160811Y-94640413D01*
X123184610Y-94669412D01*
X123300335Y-94764385D01*
X123432364Y-94834957D01*
X123575625Y-94878414D01*
X123687278Y-94889411D01*
X123687286Y-94889411D01*
X123724611Y-94893087D01*
X123761936Y-94889411D01*
X137248610Y-94889411D01*
X137981991Y-95622793D01*
X137981992Y-96526072D01*
X137978315Y-96563403D01*
X137992989Y-96712388D01*
X138036445Y-96855649D01*
X138107017Y-96987679D01*
X138177375Y-97073409D01*
X138201991Y-97103404D01*
X138230989Y-97127202D01*
X139228205Y-98124419D01*
X139251999Y-98153412D01*
X139280992Y-98177206D01*
X139280996Y-98177210D01*
X139367723Y-98248385D01*
X139499752Y-98318957D01*
X139643013Y-98362414D01*
X139791999Y-98377088D01*
X139829333Y-98373411D01*
X141399470Y-98373409D01*
X141436802Y-98377086D01*
X141474135Y-98373409D01*
X141585788Y-98362412D01*
X141629244Y-98349230D01*
X141729048Y-98318956D01*
X141861078Y-98248384D01*
X141947804Y-98177209D01*
X141947805Y-98177208D01*
X141976803Y-98153410D01*
X142000601Y-98124412D01*
X144447646Y-95677367D01*
X145479400Y-95677367D01*
X145479400Y-95999433D01*
X145542232Y-96315312D01*
X145665482Y-96612863D01*
X145844413Y-96880652D01*
X146072148Y-97108387D01*
X146339937Y-97287318D01*
X146637488Y-97410568D01*
X146953367Y-97473400D01*
X147275433Y-97473400D01*
X147591312Y-97410568D01*
X147888863Y-97287318D01*
X148156652Y-97108387D01*
X148384387Y-96880652D01*
X148385600Y-96878837D01*
X148386813Y-96880652D01*
X148614548Y-97108387D01*
X148882337Y-97287318D01*
X149179888Y-97410568D01*
X149495767Y-97473400D01*
X149817833Y-97473400D01*
X150133712Y-97410568D01*
X150431263Y-97287318D01*
X150699052Y-97108387D01*
X150926787Y-96880652D01*
X151105718Y-96612863D01*
X151228968Y-96315312D01*
X151291800Y-95999433D01*
X151291800Y-95677367D01*
X154521800Y-95677367D01*
X154521800Y-95999433D01*
X154584632Y-96315312D01*
X154707882Y-96612863D01*
X154886813Y-96880652D01*
X155114548Y-97108387D01*
X155382337Y-97287318D01*
X155679888Y-97410568D01*
X155995767Y-97473400D01*
X156317833Y-97473400D01*
X156633712Y-97410568D01*
X156931263Y-97287318D01*
X157199052Y-97108387D01*
X157426787Y-96880652D01*
X157605718Y-96612863D01*
X157728968Y-96315312D01*
X157758729Y-96165690D01*
X159442124Y-96165690D01*
X159486775Y-96312899D01*
X159611959Y-96575720D01*
X159786012Y-96809069D01*
X160002245Y-97003978D01*
X160252348Y-97152957D01*
X160526709Y-97250281D01*
X160756600Y-97129614D01*
X160756600Y-95935800D01*
X159563445Y-95935800D01*
X159442124Y-96165690D01*
X157758729Y-96165690D01*
X157791800Y-95999433D01*
X157791800Y-95677367D01*
X157728968Y-95361488D01*
X157605718Y-95063937D01*
X157426787Y-94796148D01*
X157199052Y-94568413D01*
X156931263Y-94389482D01*
X156633712Y-94266232D01*
X156317833Y-94203400D01*
X155995767Y-94203400D01*
X155679888Y-94266232D01*
X155382337Y-94389482D01*
X155114548Y-94568413D01*
X154886813Y-94796148D01*
X154707882Y-95063937D01*
X154584632Y-95361488D01*
X154521800Y-95677367D01*
X151291800Y-95677367D01*
X151228968Y-95361488D01*
X151105718Y-95063937D01*
X150926787Y-94796148D01*
X150699052Y-94568413D01*
X150431263Y-94389482D01*
X150133712Y-94266232D01*
X149817833Y-94203400D01*
X149495767Y-94203400D01*
X149179888Y-94266232D01*
X148882337Y-94389482D01*
X148614548Y-94568413D01*
X148386813Y-94796148D01*
X148385600Y-94797963D01*
X148384387Y-94796148D01*
X148156652Y-94568413D01*
X147888863Y-94389482D01*
X147591312Y-94266232D01*
X147275433Y-94203400D01*
X146953367Y-94203400D01*
X146637488Y-94266232D01*
X146339937Y-94389482D01*
X146072148Y-94568413D01*
X145844413Y-94796148D01*
X145665482Y-95063937D01*
X145542232Y-95361488D01*
X145479400Y-95677367D01*
X144447646Y-95677367D01*
X146701613Y-93423401D01*
X150255479Y-93423401D01*
X150292801Y-93427077D01*
X150330123Y-93423401D01*
X150330134Y-93423401D01*
X150441787Y-93412404D01*
X150585048Y-93368947D01*
X150717077Y-93298375D01*
X150832802Y-93203402D01*
X150856604Y-93174399D01*
X151492805Y-92538199D01*
X151521802Y-92514402D01*
X151555112Y-92473813D01*
X155200992Y-92473813D01*
X155296756Y-92738214D01*
X155586371Y-92879104D01*
X155897908Y-92960784D01*
X156219395Y-92980118D01*
X156538475Y-92936361D01*
X156842888Y-92831195D01*
X157016844Y-92738214D01*
X157112608Y-92473813D01*
X156156800Y-91518005D01*
X155200992Y-92473813D01*
X151555112Y-92473813D01*
X151601742Y-92416995D01*
X151616775Y-92398678D01*
X151687347Y-92266648D01*
X151703378Y-92213800D01*
X151730804Y-92123387D01*
X151741801Y-92011734D01*
X151741801Y-92011725D01*
X151745477Y-91974402D01*
X151741801Y-91937079D01*
X151741801Y-91400995D01*
X154515082Y-91400995D01*
X154558839Y-91720075D01*
X154664005Y-92024488D01*
X154756986Y-92198444D01*
X155021387Y-92294208D01*
X155977195Y-91338400D01*
X156336405Y-91338400D01*
X157292213Y-92294208D01*
X157556614Y-92198444D01*
X157697504Y-91908829D01*
X157779184Y-91597292D01*
X157798518Y-91275805D01*
X157754761Y-90956725D01*
X157649595Y-90652312D01*
X157556614Y-90478356D01*
X157292213Y-90382592D01*
X156336405Y-91338400D01*
X155977195Y-91338400D01*
X155021387Y-90382592D01*
X154756986Y-90478356D01*
X154616096Y-90767971D01*
X154534416Y-91079508D01*
X154515082Y-91400995D01*
X151741801Y-91400995D01*
X151741801Y-90190323D01*
X151745477Y-90153000D01*
X151741801Y-90115677D01*
X151741801Y-90115668D01*
X151730804Y-90004015D01*
X151687347Y-89860754D01*
X151616775Y-89728725D01*
X151521802Y-89613000D01*
X151492798Y-89589197D01*
X151222977Y-89319376D01*
X151228968Y-89304912D01*
X151291800Y-88989033D01*
X151291800Y-88666967D01*
X151228968Y-88351088D01*
X151192480Y-88262999D01*
X154621120Y-88262999D01*
X154584632Y-88351088D01*
X154521800Y-88666967D01*
X154521800Y-88989033D01*
X154584632Y-89304912D01*
X154707882Y-89602463D01*
X154886813Y-89870252D01*
X155114548Y-90097987D01*
X155214768Y-90164952D01*
X155200992Y-90202987D01*
X156156800Y-91158795D01*
X157112608Y-90202987D01*
X157098832Y-90164952D01*
X157199052Y-90097987D01*
X157426787Y-89870252D01*
X157605718Y-89602463D01*
X157728968Y-89304912D01*
X157791800Y-88989033D01*
X157791800Y-88948800D01*
X159606005Y-88948800D01*
X159642894Y-89017814D01*
X159828466Y-89243934D01*
X160054586Y-89429506D01*
X160109391Y-89458800D01*
X160054586Y-89488094D01*
X159828466Y-89673666D01*
X159642894Y-89899786D01*
X159505001Y-90157766D01*
X159420087Y-90437689D01*
X159391415Y-90728800D01*
X159420087Y-91019911D01*
X159505001Y-91299834D01*
X159642894Y-91557814D01*
X159828466Y-91783934D01*
X160054586Y-91969506D01*
X160109391Y-91998800D01*
X160054586Y-92028094D01*
X159828466Y-92213666D01*
X159642894Y-92439786D01*
X159505001Y-92697766D01*
X159420087Y-92977689D01*
X159391415Y-93268800D01*
X159420087Y-93559911D01*
X159505001Y-93839834D01*
X159642894Y-94097814D01*
X159828466Y-94323934D01*
X160054586Y-94509506D01*
X160119123Y-94544001D01*
X160002245Y-94613622D01*
X159786012Y-94808531D01*
X159611959Y-95041880D01*
X159486775Y-95304701D01*
X159442124Y-95451910D01*
X159563445Y-95681800D01*
X160756600Y-95681800D01*
X160756600Y-95661800D01*
X161010600Y-95661800D01*
X161010600Y-95681800D01*
X161030600Y-95681800D01*
X161030600Y-95935800D01*
X161010600Y-95935800D01*
X161010600Y-97129614D01*
X161240491Y-97250281D01*
X161514852Y-97152957D01*
X161764955Y-97003978D01*
X161952913Y-96834556D01*
X161952913Y-98693885D01*
X161209506Y-99437292D01*
X161164909Y-99423764D01*
X160954092Y-99403000D01*
X160813108Y-99403000D01*
X160602291Y-99423764D01*
X160331792Y-99505818D01*
X160082499Y-99639068D01*
X159863992Y-99818392D01*
X159684668Y-100036899D01*
X159551418Y-100286192D01*
X159469364Y-100556691D01*
X159441657Y-100838000D01*
X159469364Y-101119309D01*
X159551418Y-101389808D01*
X159684668Y-101639101D01*
X159863992Y-101857608D01*
X160082499Y-102036932D01*
X160331792Y-102170182D01*
X160602291Y-102252236D01*
X160813108Y-102273000D01*
X160954092Y-102273000D01*
X161164909Y-102252236D01*
X161435408Y-102170182D01*
X161684701Y-102036932D01*
X161903208Y-101857608D01*
X162082532Y-101639101D01*
X162215782Y-101389808D01*
X162297836Y-101119309D01*
X162325543Y-100838000D01*
X162297836Y-100556691D01*
X162284308Y-100512094D01*
X162405122Y-100391280D01*
X162407998Y-128117960D01*
X162389500Y-128361195D01*
X162389500Y-128037721D01*
X162307453Y-127625244D01*
X162146512Y-127236698D01*
X161912863Y-126887017D01*
X161615483Y-126589637D01*
X161265802Y-126355988D01*
X160877256Y-126195047D01*
X160464779Y-126113000D01*
X160044221Y-126113000D01*
X159631744Y-126195047D01*
X159243198Y-126355988D01*
X158893517Y-126589637D01*
X158596137Y-126887017D01*
X158362488Y-127236698D01*
X158201547Y-127625244D01*
X158119500Y-128037721D01*
X158119500Y-128458279D01*
X158201547Y-128870756D01*
X158362488Y-129259302D01*
X158596137Y-129608983D01*
X158893517Y-129906363D01*
X159243198Y-130140012D01*
X159631744Y-130300953D01*
X160044221Y-130383000D01*
X160464779Y-130383000D01*
X160877256Y-130300953D01*
X161265802Y-130140012D01*
X161615483Y-129906363D01*
X161912863Y-129608983D01*
X162146512Y-129259302D01*
X162307453Y-128870756D01*
X162377547Y-128518373D01*
X162362684Y-128713800D01*
X162213123Y-129251311D01*
X161962010Y-129749532D01*
X161618909Y-130189487D01*
X161196884Y-130554424D01*
X160712013Y-130830440D01*
X160182766Y-131007020D01*
X159611850Y-131079659D01*
X122138072Y-131099552D01*
X122138072Y-129452000D01*
X122125812Y-129327518D01*
X122089502Y-129207820D01*
X122030537Y-129097506D01*
X121951185Y-129000815D01*
X121854494Y-128921463D01*
X121744180Y-128862498D01*
X121624482Y-128826188D01*
X121500000Y-128813928D01*
X119800000Y-128813928D01*
X119675518Y-128826188D01*
X119555820Y-128862498D01*
X119445506Y-128921463D01*
X119348815Y-129000815D01*
X119269463Y-129097506D01*
X119210498Y-129207820D01*
X119174188Y-129327518D01*
X119161928Y-129452000D01*
X119161928Y-131101132D01*
X102261384Y-131110104D01*
X101680191Y-131053183D01*
X101151081Y-130893499D01*
X100663068Y-130634088D01*
X100234730Y-130284824D01*
X99882393Y-129859020D01*
X99619471Y-129372885D01*
X99455980Y-128844941D01*
X99395006Y-128265426D01*
X99395049Y-128037721D01*
X100119500Y-128037721D01*
X100119500Y-128458279D01*
X100201547Y-128870756D01*
X100362488Y-129259302D01*
X100596137Y-129608983D01*
X100893517Y-129906363D01*
X101243198Y-130140012D01*
X101631744Y-130300953D01*
X102044221Y-130383000D01*
X102464779Y-130383000D01*
X102877256Y-130300953D01*
X103265802Y-130140012D01*
X103615483Y-129906363D01*
X103912863Y-129608983D01*
X104128672Y-129286000D01*
X104425815Y-129286000D01*
X104454487Y-129577111D01*
X104539401Y-129857034D01*
X104677294Y-130115014D01*
X104862866Y-130341134D01*
X105088986Y-130526706D01*
X105346966Y-130664599D01*
X105626889Y-130749513D01*
X105845050Y-130771000D01*
X105990950Y-130771000D01*
X106209111Y-130749513D01*
X106489034Y-130664599D01*
X106747014Y-130526706D01*
X106973134Y-130341134D01*
X107158706Y-130115014D01*
X107296599Y-129857034D01*
X107381513Y-129577111D01*
X107410185Y-129286000D01*
X107381513Y-128994889D01*
X107318464Y-128787042D01*
X141731000Y-128787042D01*
X141731000Y-129118958D01*
X141795754Y-129444496D01*
X141922772Y-129751147D01*
X142107175Y-130027125D01*
X142341875Y-130261825D01*
X142617853Y-130446228D01*
X142924504Y-130573246D01*
X143250042Y-130638000D01*
X143581958Y-130638000D01*
X143907496Y-130573246D01*
X144214147Y-130446228D01*
X144490125Y-130261825D01*
X144534136Y-130217814D01*
X144607175Y-130327125D01*
X144841875Y-130561825D01*
X145117853Y-130746228D01*
X145424504Y-130873246D01*
X145750042Y-130938000D01*
X146081958Y-130938000D01*
X146407496Y-130873246D01*
X146714147Y-130746228D01*
X146990125Y-130561825D01*
X147224825Y-130327125D01*
X147409228Y-130051147D01*
X147536246Y-129744496D01*
X147601000Y-129418958D01*
X147601000Y-129087042D01*
X149231000Y-129087042D01*
X149231000Y-129418958D01*
X149295754Y-129744496D01*
X149422772Y-130051147D01*
X149607175Y-130327125D01*
X149841875Y-130561825D01*
X150117853Y-130746228D01*
X150424504Y-130873246D01*
X150750042Y-130938000D01*
X151081958Y-130938000D01*
X151407496Y-130873246D01*
X151714147Y-130746228D01*
X151990125Y-130561825D01*
X152224825Y-130327125D01*
X152297864Y-130217814D01*
X152341875Y-130261825D01*
X152617853Y-130446228D01*
X152924504Y-130573246D01*
X153250042Y-130638000D01*
X153581958Y-130638000D01*
X153907496Y-130573246D01*
X154214147Y-130446228D01*
X154490125Y-130261825D01*
X154724825Y-130027125D01*
X154909228Y-129751147D01*
X155036246Y-129444496D01*
X155101000Y-129118958D01*
X155101000Y-128787042D01*
X155036246Y-128461504D01*
X154909228Y-128154853D01*
X154724825Y-127878875D01*
X154490125Y-127644175D01*
X154214147Y-127459772D01*
X153907496Y-127332754D01*
X153581958Y-127268000D01*
X153250042Y-127268000D01*
X152924504Y-127332754D01*
X152617853Y-127459772D01*
X152341875Y-127644175D01*
X152107175Y-127878875D01*
X152034136Y-127988186D01*
X151990125Y-127944175D01*
X151714147Y-127759772D01*
X151407496Y-127632754D01*
X151081958Y-127568000D01*
X150750042Y-127568000D01*
X150424504Y-127632754D01*
X150117853Y-127759772D01*
X149841875Y-127944175D01*
X149607175Y-128178875D01*
X149422772Y-128454853D01*
X149295754Y-128761504D01*
X149231000Y-129087042D01*
X147601000Y-129087042D01*
X147536246Y-128761504D01*
X147409228Y-128454853D01*
X147224825Y-128178875D01*
X146990125Y-127944175D01*
X146714147Y-127759772D01*
X146407496Y-127632754D01*
X146081958Y-127568000D01*
X145750042Y-127568000D01*
X145424504Y-127632754D01*
X145117853Y-127759772D01*
X144841875Y-127944175D01*
X144797864Y-127988186D01*
X144724825Y-127878875D01*
X144490125Y-127644175D01*
X144214147Y-127459772D01*
X143907496Y-127332754D01*
X143581958Y-127268000D01*
X143250042Y-127268000D01*
X142924504Y-127332754D01*
X142617853Y-127459772D01*
X142341875Y-127644175D01*
X142107175Y-127878875D01*
X141922772Y-128154853D01*
X141795754Y-128461504D01*
X141731000Y-128787042D01*
X107318464Y-128787042D01*
X107296599Y-128714966D01*
X107158706Y-128456986D01*
X106973134Y-128230866D01*
X106747014Y-128045294D01*
X106682477Y-128010799D01*
X106799355Y-127941178D01*
X107015588Y-127746269D01*
X107189641Y-127512920D01*
X107314825Y-127250099D01*
X107359476Y-127102890D01*
X107238155Y-126873000D01*
X106045000Y-126873000D01*
X106045000Y-126893000D01*
X105791000Y-126893000D01*
X105791000Y-126873000D01*
X104597845Y-126873000D01*
X104476524Y-127102890D01*
X104521175Y-127250099D01*
X104646359Y-127512920D01*
X104820412Y-127746269D01*
X105036645Y-127941178D01*
X105153523Y-128010799D01*
X105088986Y-128045294D01*
X104862866Y-128230866D01*
X104677294Y-128456986D01*
X104539401Y-128714966D01*
X104454487Y-128994889D01*
X104425815Y-129286000D01*
X104128672Y-129286000D01*
X104146512Y-129259302D01*
X104307453Y-128870756D01*
X104389500Y-128458279D01*
X104389500Y-128037721D01*
X104307453Y-127625244D01*
X104146512Y-127236698D01*
X103912863Y-126887017D01*
X103615483Y-126589637D01*
X103265802Y-126355988D01*
X102877256Y-126195047D01*
X102464779Y-126113000D01*
X102044221Y-126113000D01*
X101631744Y-126195047D01*
X101243198Y-126355988D01*
X100893517Y-126589637D01*
X100596137Y-126887017D01*
X100362488Y-127236698D01*
X100201547Y-127625244D01*
X100119500Y-128037721D01*
X99395049Y-128037721D01*
X99397383Y-115736000D01*
X104429928Y-115736000D01*
X104433000Y-116300250D01*
X104591750Y-116459000D01*
X105791000Y-116459000D01*
X105791000Y-115259750D01*
X105632250Y-115101000D01*
X105068000Y-115097928D01*
X104943518Y-115110188D01*
X104823820Y-115146498D01*
X104713506Y-115205463D01*
X104616815Y-115284815D01*
X104537463Y-115381506D01*
X104478498Y-115491820D01*
X104442188Y-115611518D01*
X104429928Y-115736000D01*
X99397383Y-115736000D01*
X99404283Y-79380630D01*
X99430361Y-79037721D01*
X100119500Y-79037721D01*
X100119500Y-79458279D01*
X100201547Y-79870756D01*
X100362488Y-80259302D01*
X100596137Y-80608983D01*
X100893517Y-80906363D01*
X101243198Y-81140012D01*
X101631744Y-81300953D01*
X102044221Y-81383000D01*
X102464779Y-81383000D01*
X102877256Y-81300953D01*
X103265802Y-81140012D01*
X103615483Y-80906363D01*
X103912863Y-80608983D01*
X104146512Y-80259302D01*
X104307453Y-79870756D01*
X104389500Y-79458279D01*
X104389500Y-79037721D01*
X104307453Y-78625244D01*
X104146512Y-78236698D01*
X103912863Y-77887017D01*
X103615483Y-77589637D01*
X103265802Y-77355988D01*
X102877256Y-77195047D01*
X102464779Y-77113000D01*
X102044221Y-77113000D01*
X101631744Y-77195047D01*
X101243198Y-77355988D01*
X100893517Y-77589637D01*
X100596137Y-77887017D01*
X100362488Y-78236698D01*
X100201547Y-78625244D01*
X100119500Y-79037721D01*
X99430361Y-79037721D01*
X99449604Y-78784700D01*
X99599164Y-78247192D01*
X99850278Y-77748968D01*
X100193379Y-77309013D01*
X100615403Y-76944077D01*
X101100272Y-76668061D01*
X101629519Y-76491481D01*
X102206795Y-76418032D01*
X117772427Y-76415272D01*
X117672169Y-76515530D01*
X117672169Y-76515530D01*
G37*
X117672169Y-76515530D02*
X117433222Y-76468000D01*
X117135778Y-76468000D01*
X116844049Y-76526029D01*
X116569247Y-76639856D01*
X116321931Y-76805107D01*
X116111607Y-77015431D01*
X116014500Y-77160762D01*
X115917393Y-77015431D01*
X115707069Y-76805107D01*
X115459753Y-76639856D01*
X115184951Y-76526029D01*
X114893222Y-76468000D01*
X114595778Y-76468000D01*
X114304049Y-76526029D01*
X114029247Y-76639856D01*
X113781931Y-76805107D01*
X113571607Y-77015431D01*
X113462212Y-77179153D01*
X113250740Y-77111365D01*
X112384105Y-77978000D01*
X113250740Y-78844635D01*
X113462212Y-78776847D01*
X113571607Y-78940569D01*
X113781931Y-79150893D01*
X113927262Y-79248000D01*
X113781931Y-79345107D01*
X113571607Y-79555431D01*
X113474500Y-79700762D01*
X113377393Y-79555431D01*
X113167069Y-79345107D01*
X113003347Y-79235712D01*
X113071135Y-79024240D01*
X112204500Y-78157605D01*
X111337865Y-79024240D01*
X111405653Y-79235712D01*
X111241931Y-79345107D01*
X111031607Y-79555431D01*
X110934500Y-79700762D01*
X110837393Y-79555431D01*
X110627069Y-79345107D01*
X110481738Y-79248000D01*
X110627069Y-79150893D01*
X110837393Y-78940569D01*
X110946788Y-78776847D01*
X111158260Y-78844635D01*
X112024895Y-77978000D01*
X111158260Y-77111365D01*
X110946788Y-77179153D01*
X110837393Y-77015431D01*
X110753722Y-76931760D01*
X111337865Y-76931760D01*
X112204500Y-77798395D01*
X113071135Y-76931760D01*
X112990475Y-76680132D01*
X112722171Y-76551733D01*
X112433974Y-76478145D01*
X112136957Y-76462196D01*
X111842537Y-76504499D01*
X111562026Y-76603428D01*
X111418525Y-76680132D01*
X111337865Y-76931760D01*
X110753722Y-76931760D01*
X110627069Y-76805107D01*
X110379753Y-76639856D01*
X110104951Y-76526029D01*
X109813222Y-76468000D01*
X109515778Y-76468000D01*
X109224049Y-76526029D01*
X108949247Y-76639856D01*
X108701931Y-76805107D01*
X108491607Y-77015431D01*
X108394500Y-77160762D01*
X108297393Y-77015431D01*
X108087069Y-76805107D01*
X107839753Y-76639856D01*
X107564951Y-76526029D01*
X107273222Y-76468000D01*
X106975778Y-76468000D01*
X106684049Y-76526029D01*
X106409247Y-76639856D01*
X106161931Y-76805107D01*
X105951607Y-77015431D01*
X105786356Y-77262747D01*
X105672529Y-77537549D01*
X105614500Y-77829278D01*
X105614500Y-78126722D01*
X105672529Y-78418451D01*
X105786356Y-78693253D01*
X105951607Y-78940569D01*
X106050754Y-79039716D01*
X106005320Y-79053498D01*
X105895006Y-79112463D01*
X105798315Y-79191815D01*
X105718963Y-79288506D01*
X105659998Y-79398820D01*
X105623688Y-79518518D01*
X105611428Y-79643000D01*
X105611428Y-81393000D01*
X105623688Y-81517482D01*
X105659998Y-81637180D01*
X105718963Y-81747494D01*
X105798315Y-81844185D01*
X105895006Y-81923537D01*
X106005320Y-81982502D01*
X106125018Y-82018812D01*
X106249500Y-82031072D01*
X107076627Y-82031072D01*
X106538978Y-82568721D01*
X106509980Y-82592519D01*
X106486182Y-82621517D01*
X106486181Y-82621518D01*
X106415006Y-82708244D01*
X106344434Y-82840274D01*
X106322020Y-82914167D01*
X106300978Y-82983534D01*
X106296296Y-83031067D01*
X106286304Y-83132520D01*
X106289981Y-83169852D01*
X106289980Y-96301928D01*
X105068000Y-96301928D01*
X104943518Y-96314188D01*
X104823820Y-96350498D01*
X104713506Y-96409463D01*
X104616815Y-96488815D01*
X104537463Y-96585506D01*
X104478498Y-96695820D01*
X104442188Y-96815518D01*
X104429928Y-96940000D01*
X104429928Y-98640000D01*
X104442188Y-98764482D01*
X104478498Y-98884180D01*
X104537463Y-98994494D01*
X104616815Y-99091185D01*
X104713506Y-99170537D01*
X104823820Y-99229502D01*
X104892687Y-99250393D01*
X104862866Y-99274866D01*
X104677294Y-99500986D01*
X104539401Y-99758966D01*
X104454487Y-100038889D01*
X104425815Y-100330000D01*
X104454487Y-100621111D01*
X104539401Y-100901034D01*
X104677294Y-101159014D01*
X104862866Y-101385134D01*
X105088986Y-101570706D01*
X105143791Y-101600000D01*
X105088986Y-101629294D01*
X104862866Y-101814866D01*
X104677294Y-102040986D01*
X104539401Y-102298966D01*
X104454487Y-102578889D01*
X104425815Y-102870000D01*
X104454487Y-103161111D01*
X104539401Y-103441034D01*
X104677294Y-103699014D01*
X104862866Y-103925134D01*
X105088986Y-104110706D01*
X105153523Y-104145201D01*
X105036645Y-104214822D01*
X104820412Y-104409731D01*
X104646359Y-104643080D01*
X104521175Y-104905901D01*
X104476524Y-105053110D01*
X104597845Y-105283000D01*
X105791000Y-105283000D01*
X105791000Y-105263000D01*
X106045000Y-105263000D01*
X106045000Y-105283000D01*
X106065000Y-105283000D01*
X106065000Y-105537000D01*
X106045000Y-105537000D01*
X106045000Y-105557000D01*
X105791000Y-105557000D01*
X105791000Y-105537000D01*
X104597845Y-105537000D01*
X104476524Y-105766890D01*
X104521175Y-105914099D01*
X104646359Y-106176920D01*
X104820412Y-106410269D01*
X105036645Y-106605178D01*
X105286748Y-106754157D01*
X105561109Y-106851481D01*
X105790998Y-106730815D01*
X105790998Y-106748201D01*
X104956987Y-107582212D01*
X104927989Y-107606010D01*
X104904191Y-107635008D01*
X104833016Y-107721734D01*
X104795239Y-107792409D01*
X104762444Y-107853764D01*
X104718987Y-107997025D01*
X104707990Y-108108678D01*
X104707990Y-108108688D01*
X104704314Y-108146010D01*
X104707990Y-108183333D01*
X104707992Y-111909069D01*
X104704315Y-111946401D01*
X104718989Y-112095386D01*
X104762445Y-112238647D01*
X104833017Y-112370677D01*
X104884165Y-112433000D01*
X104927991Y-112486402D01*
X104956989Y-112510200D01*
X106451990Y-114005202D01*
X106451990Y-115099648D01*
X106203750Y-115101000D01*
X106045000Y-115259750D01*
X106045000Y-116459000D01*
X106065000Y-116459000D01*
X106065000Y-116713000D01*
X106045000Y-116713000D01*
X106045000Y-116733000D01*
X105791000Y-116733000D01*
X105791000Y-116713000D01*
X104591750Y-116713000D01*
X104433000Y-116871750D01*
X104429928Y-117436000D01*
X104442188Y-117560482D01*
X104478498Y-117680180D01*
X104537463Y-117790494D01*
X104616815Y-117887185D01*
X104713506Y-117966537D01*
X104823820Y-118025502D01*
X104892687Y-118046393D01*
X104862866Y-118070866D01*
X104677294Y-118296986D01*
X104539401Y-118554966D01*
X104454487Y-118834889D01*
X104425815Y-119126000D01*
X104454487Y-119417111D01*
X104539401Y-119697034D01*
X104677294Y-119955014D01*
X104739447Y-120030748D01*
X104231996Y-120538201D01*
X104202999Y-120561998D01*
X104179201Y-120590996D01*
X104179200Y-120590997D01*
X104108025Y-120677723D01*
X104037453Y-120809753D01*
X104007179Y-120909557D01*
X104005445Y-120915275D01*
X103993997Y-120953014D01*
X103979323Y-121101999D01*
X103983000Y-121139331D01*
X103982999Y-122993676D01*
X103979323Y-123030999D01*
X103982999Y-123068321D01*
X103982999Y-123068331D01*
X103993996Y-123179984D01*
X104037453Y-123323245D01*
X104108025Y-123455275D01*
X104147870Y-123503825D01*
X104202998Y-123571000D01*
X104232002Y-123594803D01*
X104477203Y-123840004D01*
X104454487Y-123914889D01*
X104425815Y-124206000D01*
X104454487Y-124497111D01*
X104539401Y-124777034D01*
X104677294Y-125035014D01*
X104862866Y-125261134D01*
X105088986Y-125446706D01*
X105153523Y-125481201D01*
X105036645Y-125550822D01*
X104820412Y-125745731D01*
X104646359Y-125979080D01*
X104521175Y-126241901D01*
X104476524Y-126389110D01*
X104597845Y-126619000D01*
X105791000Y-126619000D01*
X105791000Y-126599000D01*
X106045000Y-126599000D01*
X106045000Y-126619000D01*
X107238155Y-126619000D01*
X107359476Y-126389110D01*
X107314825Y-126241901D01*
X107189641Y-125979080D01*
X107015588Y-125745731D01*
X106799355Y-125550822D01*
X106682477Y-125481201D01*
X106747014Y-125446706D01*
X106973134Y-125261134D01*
X107158706Y-125035014D01*
X107296599Y-124777034D01*
X107381513Y-124497111D01*
X107410185Y-124206000D01*
X107381513Y-123914889D01*
X107296599Y-123634966D01*
X107158706Y-123376986D01*
X106973134Y-123150866D01*
X106747014Y-122965294D01*
X106692209Y-122936000D01*
X106747014Y-122906706D01*
X106973134Y-122721134D01*
X107158706Y-122495014D01*
X107296599Y-122237034D01*
X107381513Y-121957111D01*
X107410185Y-121666000D01*
X107381513Y-121374889D01*
X107358797Y-121300005D01*
X108054014Y-120604788D01*
X108083012Y-120580990D01*
X108177985Y-120465265D01*
X108248557Y-120333236D01*
X108292014Y-120189975D01*
X108303011Y-120078322D01*
X108306688Y-120040989D01*
X108303011Y-120003656D01*
X108303011Y-119088610D01*
X108309504Y-119082117D01*
X139181000Y-119082117D01*
X139181000Y-119423883D01*
X139247675Y-119759081D01*
X139378463Y-120074831D01*
X139568337Y-120358998D01*
X139810002Y-120600663D01*
X140094169Y-120790537D01*
X140409919Y-120921325D01*
X140745117Y-120988000D01*
X141086883Y-120988000D01*
X141422081Y-120921325D01*
X141737831Y-120790537D01*
X142021998Y-120600663D01*
X142263663Y-120358998D01*
X142453537Y-120074831D01*
X142584325Y-119759081D01*
X142651000Y-119423883D01*
X142651000Y-119082117D01*
X146681000Y-119082117D01*
X146681000Y-119423883D01*
X146747675Y-119759081D01*
X146878463Y-120074831D01*
X147068337Y-120358998D01*
X147310002Y-120600663D01*
X147594169Y-120790537D01*
X147909919Y-120921325D01*
X148245117Y-120988000D01*
X148586883Y-120988000D01*
X148922081Y-120921325D01*
X149237831Y-120790537D01*
X149521998Y-120600663D01*
X149763663Y-120358998D01*
X149953537Y-120074831D01*
X150084325Y-119759081D01*
X150151000Y-119423883D01*
X150151000Y-119082117D01*
X154181000Y-119082117D01*
X154181000Y-119423883D01*
X154247675Y-119759081D01*
X154378463Y-120074831D01*
X154568337Y-120358998D01*
X154810002Y-120600663D01*
X155094169Y-120790537D01*
X155409919Y-120921325D01*
X155745117Y-120988000D01*
X156086883Y-120988000D01*
X156422081Y-120921325D01*
X156737831Y-120790537D01*
X157021998Y-120600663D01*
X157263663Y-120358998D01*
X157453537Y-120074831D01*
X157584325Y-119759081D01*
X157651000Y-119423883D01*
X157651000Y-119082117D01*
X157584325Y-118746919D01*
X157453537Y-118431169D01*
X157263663Y-118147002D01*
X157021998Y-117905337D01*
X156737831Y-117715463D01*
X156422081Y-117584675D01*
X156086883Y-117518000D01*
X155745117Y-117518000D01*
X155409919Y-117584675D01*
X155094169Y-117715463D01*
X154810002Y-117905337D01*
X154568337Y-118147002D01*
X154378463Y-118431169D01*
X154247675Y-118746919D01*
X154181000Y-119082117D01*
X150151000Y-119082117D01*
X150084325Y-118746919D01*
X149953537Y-118431169D01*
X149763663Y-118147002D01*
X149521998Y-117905337D01*
X149237831Y-117715463D01*
X148922081Y-117584675D01*
X148586883Y-117518000D01*
X148245117Y-117518000D01*
X147909919Y-117584675D01*
X147594169Y-117715463D01*
X147310002Y-117905337D01*
X147068337Y-118147002D01*
X146878463Y-118431169D01*
X146747675Y-118746919D01*
X146681000Y-119082117D01*
X142651000Y-119082117D01*
X142584325Y-118746919D01*
X142453537Y-118431169D01*
X142263663Y-118147002D01*
X142021998Y-117905337D01*
X141737831Y-117715463D01*
X141422081Y-117584675D01*
X141086883Y-117518000D01*
X140745117Y-117518000D01*
X140409919Y-117584675D01*
X140094169Y-117715463D01*
X139810002Y-117905337D01*
X139568337Y-118147002D01*
X139378463Y-118431169D01*
X139247675Y-118746919D01*
X139181000Y-119082117D01*
X108309504Y-119082117D01*
X108623012Y-118768610D01*
X108652011Y-118744811D01*
X108687372Y-118701724D01*
X108746984Y-118629087D01*
X108817556Y-118497057D01*
X108826678Y-118466984D01*
X108861013Y-118353796D01*
X108872010Y-118242143D01*
X108872010Y-118242134D01*
X108875686Y-118204811D01*
X108872010Y-118167488D01*
X108872010Y-113354922D01*
X108875686Y-113317599D01*
X108872010Y-113280276D01*
X108872010Y-113280267D01*
X108861013Y-113168614D01*
X108817556Y-113025353D01*
X108746984Y-112893324D01*
X108720419Y-112860954D01*
X108675809Y-112806596D01*
X108675805Y-112806592D01*
X108652011Y-112777599D01*
X108623019Y-112753806D01*
X107128010Y-111258799D01*
X107128010Y-110972460D01*
X107378966Y-111106599D01*
X107658889Y-111191513D01*
X107877050Y-111213000D01*
X108022950Y-111213000D01*
X108241111Y-111191513D01*
X108521034Y-111106599D01*
X108779014Y-110968706D01*
X109005134Y-110783134D01*
X109190706Y-110557014D01*
X109225201Y-110492477D01*
X109294822Y-110609355D01*
X109489731Y-110825588D01*
X109723080Y-110999641D01*
X109985901Y-111124825D01*
X110133110Y-111169476D01*
X110363000Y-111048155D01*
X110363000Y-109855000D01*
X110343000Y-109855000D01*
X110343000Y-109601000D01*
X110363000Y-109601000D01*
X110363000Y-108407845D01*
X110617000Y-108407845D01*
X110617000Y-109601000D01*
X110637000Y-109601000D01*
X110637000Y-109855000D01*
X110617000Y-109855000D01*
X110617000Y-111048155D01*
X110846890Y-111169476D01*
X110994099Y-111124825D01*
X111256920Y-110999641D01*
X111490269Y-110825588D01*
X111685178Y-110609355D01*
X111754799Y-110492477D01*
X111789294Y-110557014D01*
X111974866Y-110783134D01*
X112200986Y-110968706D01*
X112270001Y-111005595D01*
X112270000Y-116390289D01*
X112226063Y-116434226D01*
X112112795Y-116603744D01*
X112034774Y-116792102D01*
X111995000Y-116992061D01*
X111995000Y-117195939D01*
X112034774Y-117395898D01*
X112112795Y-117584256D01*
X112226063Y-117753774D01*
X112370226Y-117897937D01*
X112539744Y-118011205D01*
X112728102Y-118089226D01*
X112928061Y-118129000D01*
X113131939Y-118129000D01*
X113331898Y-118089226D01*
X113520256Y-118011205D01*
X113689774Y-117897937D01*
X113833937Y-117753774D01*
X113947205Y-117584256D01*
X114025226Y-117395898D01*
X114065000Y-117195939D01*
X114065000Y-116992061D01*
X114025226Y-116792102D01*
X113947205Y-116603744D01*
X113833937Y-116434226D01*
X113790000Y-116390289D01*
X113790000Y-115228000D01*
X128559928Y-115228000D01*
X128559928Y-116928000D01*
X128572188Y-117052482D01*
X128608498Y-117172180D01*
X128667463Y-117282494D01*
X128746815Y-117379185D01*
X128843506Y-117458537D01*
X128953820Y-117517502D01*
X129073518Y-117553812D01*
X129198000Y-117566072D01*
X130898000Y-117566072D01*
X131022482Y-117553812D01*
X131142180Y-117517502D01*
X131252494Y-117458537D01*
X131349185Y-117379185D01*
X131428537Y-117282494D01*
X131487502Y-117172180D01*
X131523812Y-117052482D01*
X131536072Y-116928000D01*
X131536072Y-115228000D01*
X131523812Y-115103518D01*
X131487502Y-114983820D01*
X131428537Y-114873506D01*
X131349185Y-114776815D01*
X131252494Y-114697463D01*
X131142180Y-114638498D01*
X131022482Y-114602188D01*
X130898000Y-114589928D01*
X129198000Y-114589928D01*
X129073518Y-114602188D01*
X128953820Y-114638498D01*
X128843506Y-114697463D01*
X128746815Y-114776815D01*
X128667463Y-114873506D01*
X128608498Y-114983820D01*
X128572188Y-115103518D01*
X128559928Y-115228000D01*
X113790000Y-115228000D01*
X113790000Y-111005595D01*
X113859014Y-110968706D01*
X114085134Y-110783134D01*
X114270706Y-110557014D01*
X114300000Y-110502209D01*
X114329294Y-110557014D01*
X114514866Y-110783134D01*
X114740986Y-110968706D01*
X114810001Y-111005595D01*
X114810000Y-112834289D01*
X114766063Y-112878226D01*
X114652795Y-113047744D01*
X114574774Y-113236102D01*
X114535000Y-113436061D01*
X114535000Y-113639939D01*
X114574774Y-113839898D01*
X114652795Y-114028256D01*
X114766063Y-114197774D01*
X114910226Y-114341937D01*
X115079744Y-114455205D01*
X115268102Y-114533226D01*
X115468061Y-114573000D01*
X115671939Y-114573000D01*
X115871898Y-114533226D01*
X116060256Y-114455205D01*
X116229774Y-114341937D01*
X116373937Y-114197774D01*
X116487205Y-114028256D01*
X116565226Y-113839898D01*
X116605000Y-113639939D01*
X116605000Y-113436061D01*
X116565226Y-113236102D01*
X116487205Y-113047744D01*
X116373937Y-112878226D01*
X116330000Y-112834289D01*
X116330000Y-111005595D01*
X116399014Y-110968706D01*
X116625134Y-110783134D01*
X116810706Y-110557014D01*
X116840000Y-110502209D01*
X116869294Y-110557014D01*
X117054866Y-110783134D01*
X117280986Y-110968706D01*
X117538966Y-111106599D01*
X117818889Y-111191513D01*
X118037050Y-111213000D01*
X118182950Y-111213000D01*
X118401111Y-111191513D01*
X118681034Y-111106599D01*
X118939014Y-110968706D01*
X119165134Y-110783134D01*
X119350706Y-110557014D01*
X119385201Y-110492477D01*
X119454822Y-110609355D01*
X119649731Y-110825588D01*
X119883080Y-110999641D01*
X120145901Y-111124825D01*
X120293110Y-111169476D01*
X120523000Y-111048155D01*
X120523000Y-109855000D01*
X120777000Y-109855000D01*
X120777000Y-111048155D01*
X121006890Y-111169476D01*
X121154099Y-111124825D01*
X121416920Y-110999641D01*
X121650269Y-110825588D01*
X121845178Y-110609355D01*
X121920000Y-110483745D01*
X121994822Y-110609355D01*
X122189731Y-110825588D01*
X122423080Y-110999641D01*
X122685901Y-111124825D01*
X122833110Y-111169476D01*
X123063000Y-111048155D01*
X123063000Y-109855000D01*
X123317000Y-109855000D01*
X123317000Y-111048155D01*
X123546890Y-111169476D01*
X123694099Y-111124825D01*
X123956920Y-110999641D01*
X124190269Y-110825588D01*
X124385178Y-110609355D01*
X124460000Y-110483745D01*
X124534822Y-110609355D01*
X124729731Y-110825588D01*
X124963080Y-110999641D01*
X125225901Y-111124825D01*
X125373110Y-111169476D01*
X125603000Y-111048155D01*
X125603000Y-109855000D01*
X125857000Y-109855000D01*
X125857000Y-111048155D01*
X126086890Y-111169476D01*
X126234099Y-111124825D01*
X126496920Y-110999641D01*
X126730269Y-110825588D01*
X126925178Y-110609355D01*
X127000000Y-110483745D01*
X127074822Y-110609355D01*
X127269731Y-110825588D01*
X127503080Y-110999641D01*
X127765901Y-111124825D01*
X127913110Y-111169476D01*
X128143000Y-111048155D01*
X128143000Y-109855000D01*
X125857000Y-109855000D01*
X125603000Y-109855000D01*
X123317000Y-109855000D01*
X123063000Y-109855000D01*
X120777000Y-109855000D01*
X120523000Y-109855000D01*
X120503000Y-109855000D01*
X120503000Y-109601000D01*
X120523000Y-109601000D01*
X120523000Y-108407845D01*
X120777000Y-108407845D01*
X120777000Y-109601000D01*
X123063000Y-109601000D01*
X123063000Y-108407845D01*
X123317000Y-108407845D01*
X123317000Y-109601000D01*
X125603000Y-109601000D01*
X125603000Y-108407845D01*
X125857000Y-108407845D01*
X125857000Y-109601000D01*
X128143000Y-109601000D01*
X128143000Y-108407845D01*
X128397000Y-108407845D01*
X128397000Y-109601000D01*
X128417000Y-109601000D01*
X128417000Y-109855000D01*
X128397000Y-109855000D01*
X128397000Y-111048155D01*
X128626890Y-111169476D01*
X128774099Y-111124825D01*
X129036920Y-110999641D01*
X129270269Y-110825588D01*
X129465178Y-110609355D01*
X129534799Y-110492477D01*
X129569294Y-110557014D01*
X129754866Y-110783134D01*
X129980986Y-110968706D01*
X130238966Y-111106599D01*
X130518889Y-111191513D01*
X130737050Y-111213000D01*
X130882950Y-111213000D01*
X131101111Y-111191513D01*
X131381034Y-111106599D01*
X131639014Y-110968706D01*
X131865134Y-110783134D01*
X131889607Y-110753313D01*
X131910498Y-110822180D01*
X131969463Y-110932494D01*
X132048815Y-111029185D01*
X132145506Y-111108537D01*
X132255820Y-111167502D01*
X132375518Y-111203812D01*
X132500000Y-111216072D01*
X134200000Y-111216072D01*
X134324482Y-111203812D01*
X134444180Y-111167502D01*
X134554494Y-111108537D01*
X134651185Y-111029185D01*
X134676777Y-110998000D01*
X138258057Y-110998000D01*
X138285764Y-111279309D01*
X138367818Y-111549808D01*
X138501068Y-111799101D01*
X138680392Y-112017608D01*
X138898899Y-112196932D01*
X139148192Y-112330182D01*
X139418691Y-112412236D01*
X139629508Y-112433000D01*
X139770492Y-112433000D01*
X139981309Y-112412236D01*
X140025906Y-112398708D01*
X142656000Y-115028802D01*
X142656000Y-115189852D01*
X142594169Y-115215463D01*
X142310002Y-115405337D01*
X142068337Y-115647002D01*
X141878463Y-115931169D01*
X141747675Y-116246919D01*
X141681000Y-116582117D01*
X141681000Y-116923883D01*
X141747675Y-117259081D01*
X141878463Y-117574831D01*
X142068337Y-117858998D01*
X142310002Y-118100663D01*
X142594169Y-118290537D01*
X142909919Y-118421325D01*
X143245117Y-118488000D01*
X143586883Y-118488000D01*
X143922081Y-118421325D01*
X144237831Y-118290537D01*
X144521998Y-118100663D01*
X144763663Y-117858998D01*
X144953537Y-117574831D01*
X145084325Y-117259081D01*
X145151000Y-116923883D01*
X145151000Y-116582117D01*
X151681000Y-116582117D01*
X151681000Y-116923883D01*
X151747675Y-117259081D01*
X151878463Y-117574831D01*
X152068337Y-117858998D01*
X152310002Y-118100663D01*
X152594169Y-118290537D01*
X152909919Y-118421325D01*
X153245117Y-118488000D01*
X153586883Y-118488000D01*
X153922081Y-118421325D01*
X154237831Y-118290537D01*
X154521998Y-118100663D01*
X154763663Y-117858998D01*
X154953537Y-117574831D01*
X155084325Y-117259081D01*
X155151000Y-116923883D01*
X155151000Y-116582117D01*
X155084325Y-116246919D01*
X154953537Y-115931169D01*
X154763663Y-115647002D01*
X154521998Y-115405337D01*
X154237831Y-115215463D01*
X154176000Y-115189852D01*
X154176000Y-114868801D01*
X156646095Y-112398708D01*
X156690691Y-112412236D01*
X156901508Y-112433000D01*
X157042492Y-112433000D01*
X157253309Y-112412236D01*
X157523808Y-112330182D01*
X157773101Y-112196932D01*
X157991608Y-112017608D01*
X158170932Y-111799101D01*
X158304182Y-111549808D01*
X158386236Y-111279309D01*
X158413943Y-110998000D01*
X158400023Y-110856665D01*
X159448600Y-110856665D01*
X159448600Y-111139335D01*
X159503747Y-111416574D01*
X159611920Y-111677727D01*
X159768963Y-111912759D01*
X159968841Y-112112637D01*
X160203873Y-112269680D01*
X160465026Y-112377853D01*
X160742265Y-112433000D01*
X161024935Y-112433000D01*
X161302174Y-112377853D01*
X161563327Y-112269680D01*
X161798359Y-112112637D01*
X161998237Y-111912759D01*
X162155280Y-111677727D01*
X162263453Y-111416574D01*
X162318600Y-111139335D01*
X162318600Y-110856665D01*
X162263453Y-110579426D01*
X162155280Y-110318273D01*
X161998237Y-110083241D01*
X161798359Y-109883363D01*
X161563327Y-109726320D01*
X161302174Y-109618147D01*
X161024935Y-109563000D01*
X160742265Y-109563000D01*
X160465026Y-109618147D01*
X160203873Y-109726320D01*
X159968841Y-109883363D01*
X159768963Y-110083241D01*
X159611920Y-110318273D01*
X159503747Y-110579426D01*
X159448600Y-110856665D01*
X158400023Y-110856665D01*
X158386236Y-110716691D01*
X158304182Y-110446192D01*
X158170932Y-110196899D01*
X157991608Y-109978392D01*
X157773101Y-109799068D01*
X157523808Y-109665818D01*
X157253309Y-109583764D01*
X157042492Y-109563000D01*
X156901508Y-109563000D01*
X156690691Y-109583764D01*
X156420192Y-109665818D01*
X156170899Y-109799068D01*
X155952392Y-109978392D01*
X155773068Y-110196899D01*
X155639818Y-110446192D01*
X155557764Y-110716691D01*
X155530057Y-110998000D01*
X155557764Y-111279309D01*
X155571292Y-111323905D01*
X152905003Y-113990196D01*
X152875999Y-114013999D01*
X152832829Y-114066602D01*
X152781026Y-114129724D01*
X152715132Y-114253002D01*
X152710454Y-114261754D01*
X152666997Y-114405015D01*
X152656000Y-114516668D01*
X152656000Y-114516678D01*
X152652324Y-114554000D01*
X152656000Y-114591323D01*
X152656000Y-115189852D01*
X152594169Y-115215463D01*
X152310002Y-115405337D01*
X152068337Y-115647002D01*
X151878463Y-115931169D01*
X151747675Y-116246919D01*
X151681000Y-116582117D01*
X145151000Y-116582117D01*
X145084325Y-116246919D01*
X144953537Y-115931169D01*
X144763663Y-115647002D01*
X144590661Y-115474000D01*
X146817878Y-115474000D01*
X146855200Y-115477676D01*
X146892522Y-115474000D01*
X146892533Y-115474000D01*
X147004186Y-115463003D01*
X147147447Y-115419546D01*
X147279476Y-115348974D01*
X147395201Y-115254001D01*
X147419004Y-115224997D01*
X148927003Y-113716999D01*
X148956001Y-113693201D01*
X149050974Y-113577476D01*
X149121546Y-113445447D01*
X149165003Y-113302186D01*
X149176000Y-113190533D01*
X149179677Y-113153200D01*
X149176000Y-113115867D01*
X149176000Y-112269701D01*
X149217101Y-112247732D01*
X149435608Y-112068408D01*
X149614932Y-111849901D01*
X149686000Y-111716942D01*
X149757068Y-111849901D01*
X149936392Y-112068408D01*
X150154899Y-112247732D01*
X150404192Y-112380982D01*
X150674691Y-112463036D01*
X150885508Y-112483800D01*
X151026492Y-112483800D01*
X151237309Y-112463036D01*
X151507808Y-112380982D01*
X151757101Y-112247732D01*
X151975608Y-112068408D01*
X152154932Y-111849901D01*
X152288182Y-111600608D01*
X152370236Y-111330109D01*
X152397943Y-111048800D01*
X152370236Y-110767491D01*
X152288182Y-110496992D01*
X152154932Y-110247699D01*
X151975608Y-110029192D01*
X151757101Y-109849868D01*
X151507808Y-109716618D01*
X151237309Y-109634564D01*
X151134114Y-109624400D01*
X154191478Y-109624400D01*
X154228800Y-109628076D01*
X154266122Y-109624400D01*
X154266133Y-109624400D01*
X154377786Y-109613403D01*
X154521047Y-109569946D01*
X154653076Y-109499374D01*
X154768801Y-109404401D01*
X154792604Y-109375397D01*
X157483003Y-106684999D01*
X157512001Y-106661201D01*
X157606974Y-106545476D01*
X157677546Y-106413447D01*
X157721003Y-106270186D01*
X157732000Y-106158533D01*
X157732000Y-106158525D01*
X157735676Y-106121200D01*
X157732000Y-106083875D01*
X157732000Y-102056043D01*
X157886759Y-101952637D01*
X158086637Y-101752759D01*
X158243680Y-101517727D01*
X158351853Y-101256574D01*
X158407000Y-100979335D01*
X158407000Y-100696665D01*
X158351853Y-100419426D01*
X158243680Y-100158273D01*
X158086637Y-99923241D01*
X157886759Y-99723363D01*
X157651727Y-99566320D01*
X157390574Y-99458147D01*
X157113335Y-99403000D01*
X156830665Y-99403000D01*
X156553426Y-99458147D01*
X156292273Y-99566320D01*
X156057241Y-99723363D01*
X155857363Y-99923241D01*
X155700320Y-100158273D01*
X155592147Y-100419426D01*
X155537000Y-100696665D01*
X155537000Y-100979335D01*
X155592147Y-101256574D01*
X155700320Y-101517727D01*
X155857363Y-101752759D01*
X156057241Y-101952637D01*
X156212000Y-102056044D01*
X156212001Y-105806397D01*
X153913999Y-108104400D01*
X144918933Y-108104400D01*
X144881600Y-108100723D01*
X144844267Y-108104400D01*
X142758002Y-108104400D01*
X140460000Y-105806399D01*
X140460000Y-103428800D01*
X144434057Y-103428800D01*
X144461764Y-103710109D01*
X144543818Y-103980608D01*
X144677068Y-104229901D01*
X144856392Y-104448408D01*
X145074899Y-104627732D01*
X145324192Y-104760982D01*
X145594691Y-104843036D01*
X145805508Y-104863800D01*
X145946492Y-104863800D01*
X146157309Y-104843036D01*
X146427808Y-104760982D01*
X146677101Y-104627732D01*
X146895608Y-104448408D01*
X147074932Y-104229901D01*
X147148579Y-104092118D01*
X147263615Y-104283931D01*
X147452586Y-104492319D01*
X147678580Y-104659837D01*
X147932913Y-104780046D01*
X148066961Y-104820704D01*
X148289000Y-104698715D01*
X148289000Y-103555800D01*
X148269000Y-103555800D01*
X148269000Y-103301800D01*
X148289000Y-103301800D01*
X148289000Y-102158885D01*
X148543000Y-102158885D01*
X148543000Y-103301800D01*
X148563000Y-103301800D01*
X148563000Y-103555800D01*
X148543000Y-103555800D01*
X148543000Y-104698715D01*
X148765039Y-104820704D01*
X148899087Y-104780046D01*
X149153420Y-104659837D01*
X149379414Y-104492319D01*
X149568385Y-104283931D01*
X149683421Y-104092118D01*
X149757068Y-104229901D01*
X149936392Y-104448408D01*
X150154899Y-104627732D01*
X150404192Y-104760982D01*
X150674691Y-104843036D01*
X150885508Y-104863800D01*
X151026492Y-104863800D01*
X151237309Y-104843036D01*
X151507808Y-104760982D01*
X151757101Y-104627732D01*
X151975608Y-104448408D01*
X152154932Y-104229901D01*
X152288182Y-103980608D01*
X152370236Y-103710109D01*
X152397943Y-103428800D01*
X152370236Y-103147491D01*
X152288182Y-102876992D01*
X152154932Y-102627699D01*
X151975608Y-102409192D01*
X151757101Y-102229868D01*
X151507808Y-102096618D01*
X151237309Y-102014564D01*
X151026492Y-101993800D01*
X150885508Y-101993800D01*
X150674691Y-102014564D01*
X150404192Y-102096618D01*
X150154899Y-102229868D01*
X149936392Y-102409192D01*
X149757068Y-102627699D01*
X149683421Y-102765482D01*
X149568385Y-102573669D01*
X149379414Y-102365281D01*
X149153420Y-102197763D01*
X148899087Y-102077554D01*
X148765039Y-102036896D01*
X148543000Y-102158885D01*
X148289000Y-102158885D01*
X148066961Y-102036896D01*
X147932913Y-102077554D01*
X147678580Y-102197763D01*
X147452586Y-102365281D01*
X147263615Y-102573669D01*
X147148579Y-102765482D01*
X147074932Y-102627699D01*
X146895608Y-102409192D01*
X146677101Y-102229868D01*
X146427808Y-102096618D01*
X146157309Y-102014564D01*
X145946492Y-101993800D01*
X145805508Y-101993800D01*
X145594691Y-102014564D01*
X145324192Y-102096618D01*
X145074899Y-102229868D01*
X144856392Y-102409192D01*
X144677068Y-102627699D01*
X144543818Y-102876992D01*
X144461764Y-103147491D01*
X144434057Y-103428800D01*
X140460000Y-103428800D01*
X140460000Y-102276072D01*
X140500000Y-102276072D01*
X140624482Y-102263812D01*
X140744180Y-102227502D01*
X140854494Y-102168537D01*
X140951185Y-102089185D01*
X141030537Y-101992494D01*
X141089502Y-101882180D01*
X141125812Y-101762482D01*
X141138072Y-101638000D01*
X141138072Y-100038000D01*
X141132898Y-99985465D01*
X144437200Y-99985465D01*
X144437200Y-100268135D01*
X144492347Y-100545374D01*
X144600520Y-100806527D01*
X144757563Y-101041559D01*
X144957441Y-101241437D01*
X145192473Y-101398480D01*
X145453626Y-101506653D01*
X145730865Y-101561800D01*
X146013535Y-101561800D01*
X146290774Y-101506653D01*
X146551927Y-101398480D01*
X146786959Y-101241437D01*
X146908894Y-101119502D01*
X150059103Y-101119502D01*
X150130686Y-101363471D01*
X150386196Y-101484371D01*
X150660384Y-101553100D01*
X150942712Y-101567017D01*
X151222330Y-101525587D01*
X151488492Y-101430403D01*
X151613714Y-101363471D01*
X151685297Y-101119502D01*
X150872200Y-100306405D01*
X150059103Y-101119502D01*
X146908894Y-101119502D01*
X146986837Y-101041559D01*
X147143880Y-100806527D01*
X147252053Y-100545374D01*
X147307200Y-100268135D01*
X147307200Y-100197312D01*
X149431983Y-100197312D01*
X149473413Y-100476930D01*
X149568597Y-100743092D01*
X149635529Y-100868314D01*
X149879498Y-100939897D01*
X150692595Y-100126800D01*
X151051805Y-100126800D01*
X151864902Y-100939897D01*
X152108871Y-100868314D01*
X152229771Y-100612804D01*
X152298500Y-100338616D01*
X152312417Y-100056288D01*
X152270987Y-99776670D01*
X152175803Y-99510508D01*
X152108871Y-99385286D01*
X151864902Y-99313703D01*
X151051805Y-100126800D01*
X150692595Y-100126800D01*
X149879498Y-99313703D01*
X149635529Y-99385286D01*
X149514629Y-99640796D01*
X149445900Y-99914984D01*
X149431983Y-100197312D01*
X147307200Y-100197312D01*
X147307200Y-99985465D01*
X147252053Y-99708226D01*
X147143880Y-99447073D01*
X146986837Y-99212041D01*
X146908894Y-99134098D01*
X150059103Y-99134098D01*
X150872200Y-99947195D01*
X151685297Y-99134098D01*
X151613714Y-98890129D01*
X151358204Y-98769229D01*
X151084016Y-98700500D01*
X150801688Y-98686583D01*
X150522070Y-98728013D01*
X150255908Y-98823197D01*
X150130686Y-98890129D01*
X150059103Y-99134098D01*
X146908894Y-99134098D01*
X146786959Y-99012163D01*
X146551927Y-98855120D01*
X146290774Y-98746947D01*
X146013535Y-98691800D01*
X145730865Y-98691800D01*
X145453626Y-98746947D01*
X145192473Y-98855120D01*
X144957441Y-99012163D01*
X144757563Y-99212041D01*
X144600520Y-99447073D01*
X144492347Y-99708226D01*
X144437200Y-99985465D01*
X141132898Y-99985465D01*
X141125812Y-99913518D01*
X141089502Y-99793820D01*
X141030537Y-99683506D01*
X140951185Y-99586815D01*
X140854494Y-99507463D01*
X140744180Y-99448498D01*
X140624482Y-99412188D01*
X140500000Y-99399928D01*
X138900000Y-99399928D01*
X138775518Y-99412188D01*
X138655820Y-99448498D01*
X138545506Y-99507463D01*
X138448815Y-99586815D01*
X138369463Y-99683506D01*
X138310498Y-99793820D01*
X138274188Y-99913518D01*
X138261928Y-100038000D01*
X138261928Y-101638000D01*
X138274188Y-101762482D01*
X138310498Y-101882180D01*
X138369463Y-101992494D01*
X138448815Y-102089185D01*
X138545506Y-102168537D01*
X138655820Y-102227502D01*
X138775518Y-102263812D01*
X138900000Y-102276072D01*
X138940001Y-102276072D01*
X138940000Y-106083877D01*
X138936324Y-106121200D01*
X138940000Y-106158522D01*
X138940000Y-106158532D01*
X138950997Y-106270185D01*
X138983764Y-106378204D01*
X138994454Y-106413446D01*
X139065026Y-106545476D01*
X139104522Y-106593601D01*
X139159999Y-106661201D01*
X139189003Y-106685004D01*
X141879401Y-109375403D01*
X141903199Y-109404401D01*
X142018924Y-109499374D01*
X142150953Y-109569946D01*
X142294214Y-109613403D01*
X142405867Y-109624400D01*
X142405875Y-109624400D01*
X142443200Y-109628076D01*
X142480525Y-109624400D01*
X144426799Y-109624400D01*
X144613636Y-109811237D01*
X144545463Y-109894306D01*
X144486498Y-110004620D01*
X144450188Y-110124318D01*
X144437928Y-110248800D01*
X144437928Y-111848800D01*
X144450188Y-111973282D01*
X144486498Y-112092980D01*
X144545463Y-112203294D01*
X144624815Y-112299985D01*
X144721506Y-112379337D01*
X144831820Y-112438302D01*
X144951518Y-112474612D01*
X145076000Y-112486872D01*
X146676000Y-112486872D01*
X146800482Y-112474612D01*
X146920180Y-112438302D01*
X147030494Y-112379337D01*
X147127185Y-112299985D01*
X147206537Y-112203294D01*
X147265502Y-112092980D01*
X147301812Y-111973282D01*
X147303581Y-111955318D01*
X147396392Y-112068408D01*
X147614899Y-112247732D01*
X147656001Y-112269701D01*
X147656001Y-112838397D01*
X146540399Y-113954000D01*
X143730802Y-113954000D01*
X141100708Y-111323906D01*
X141114236Y-111279309D01*
X141141943Y-110998000D01*
X141114236Y-110716691D01*
X141032182Y-110446192D01*
X140898932Y-110196899D01*
X140719608Y-109978392D01*
X140501101Y-109799068D01*
X140251808Y-109665818D01*
X139981309Y-109583764D01*
X139770492Y-109563000D01*
X139629508Y-109563000D01*
X139418691Y-109583764D01*
X139148192Y-109665818D01*
X138898899Y-109799068D01*
X138680392Y-109978392D01*
X138501068Y-110196899D01*
X138367818Y-110446192D01*
X138285764Y-110716691D01*
X138258057Y-110998000D01*
X134676777Y-110998000D01*
X134730537Y-110932494D01*
X134789502Y-110822180D01*
X134825812Y-110702482D01*
X134838072Y-110578000D01*
X134838072Y-108878000D01*
X134825812Y-108753518D01*
X134789502Y-108633820D01*
X134730537Y-108523506D01*
X134651185Y-108426815D01*
X134554494Y-108347463D01*
X134444180Y-108288498D01*
X134324482Y-108252188D01*
X134200000Y-108239928D01*
X132500000Y-108239928D01*
X132375518Y-108252188D01*
X132255820Y-108288498D01*
X132145506Y-108347463D01*
X132048815Y-108426815D01*
X131969463Y-108523506D01*
X131910498Y-108633820D01*
X131889607Y-108702687D01*
X131865134Y-108672866D01*
X131639014Y-108487294D01*
X131381034Y-108349401D01*
X131101111Y-108264487D01*
X130882950Y-108243000D01*
X130737050Y-108243000D01*
X130518889Y-108264487D01*
X130238966Y-108349401D01*
X129980986Y-108487294D01*
X129754866Y-108672866D01*
X129569294Y-108898986D01*
X129534799Y-108963523D01*
X129465178Y-108846645D01*
X129270269Y-108630412D01*
X129036920Y-108456359D01*
X128774099Y-108331175D01*
X128626890Y-108286524D01*
X128397000Y-108407845D01*
X128143000Y-108407845D01*
X127913110Y-108286524D01*
X127765901Y-108331175D01*
X127503080Y-108456359D01*
X127269731Y-108630412D01*
X127074822Y-108846645D01*
X127000000Y-108972255D01*
X126925178Y-108846645D01*
X126730269Y-108630412D01*
X126496920Y-108456359D01*
X126234099Y-108331175D01*
X126086890Y-108286524D01*
X125857000Y-108407845D01*
X125603000Y-108407845D01*
X125373110Y-108286524D01*
X125225901Y-108331175D01*
X124963080Y-108456359D01*
X124729731Y-108630412D01*
X124534822Y-108846645D01*
X124460000Y-108972255D01*
X124385178Y-108846645D01*
X124190269Y-108630412D01*
X123956920Y-108456359D01*
X123694099Y-108331175D01*
X123546890Y-108286524D01*
X123317000Y-108407845D01*
X123063000Y-108407845D01*
X122833110Y-108286524D01*
X122685901Y-108331175D01*
X122423080Y-108456359D01*
X122189731Y-108630412D01*
X121994822Y-108846645D01*
X121920000Y-108972255D01*
X121845178Y-108846645D01*
X121650269Y-108630412D01*
X121416920Y-108456359D01*
X121154099Y-108331175D01*
X121006890Y-108286524D01*
X120777000Y-108407845D01*
X120523000Y-108407845D01*
X120293110Y-108286524D01*
X120145901Y-108331175D01*
X119883080Y-108456359D01*
X119649731Y-108630412D01*
X119454822Y-108846645D01*
X119385201Y-108963523D01*
X119350706Y-108898986D01*
X119165134Y-108672866D01*
X118939014Y-108487294D01*
X118681034Y-108349401D01*
X118401111Y-108264487D01*
X118182950Y-108243000D01*
X118037050Y-108243000D01*
X117818889Y-108264487D01*
X117538966Y-108349401D01*
X117280986Y-108487294D01*
X117054866Y-108672866D01*
X116869294Y-108898986D01*
X116840000Y-108953791D01*
X116810706Y-108898986D01*
X116625134Y-108672866D01*
X116399014Y-108487294D01*
X116141034Y-108349401D01*
X115861111Y-108264487D01*
X115642950Y-108243000D01*
X115497050Y-108243000D01*
X115278889Y-108264487D01*
X114998966Y-108349401D01*
X114740986Y-108487294D01*
X114514866Y-108672866D01*
X114329294Y-108898986D01*
X114300000Y-108953791D01*
X114270706Y-108898986D01*
X114085134Y-108672866D01*
X113859014Y-108487294D01*
X113601034Y-108349401D01*
X113321111Y-108264487D01*
X113102950Y-108243000D01*
X112957050Y-108243000D01*
X112738889Y-108264487D01*
X112458966Y-108349401D01*
X112200986Y-108487294D01*
X111974866Y-108672866D01*
X111789294Y-108898986D01*
X111754799Y-108963523D01*
X111685178Y-108846645D01*
X111490269Y-108630412D01*
X111256920Y-108456359D01*
X110994099Y-108331175D01*
X110846890Y-108286524D01*
X110617000Y-108407845D01*
X110363000Y-108407845D01*
X110133110Y-108286524D01*
X109985901Y-108331175D01*
X109723080Y-108456359D01*
X109489731Y-108630412D01*
X109294822Y-108846645D01*
X109225201Y-108963523D01*
X109190706Y-108898986D01*
X109005134Y-108672866D01*
X108935226Y-108615494D01*
X109348721Y-108202000D01*
X130772678Y-108202000D01*
X130810000Y-108205676D01*
X130847322Y-108202000D01*
X130847333Y-108202000D01*
X130958986Y-108191003D01*
X131102247Y-108147546D01*
X131234276Y-108076974D01*
X131350001Y-107982001D01*
X131373804Y-107952997D01*
X132627802Y-106699000D01*
X132689939Y-106699000D01*
X132889898Y-106659226D01*
X133078256Y-106581205D01*
X133247774Y-106467937D01*
X133391937Y-106323774D01*
X133505205Y-106154256D01*
X133583226Y-105965898D01*
X133623000Y-105765939D01*
X133623000Y-105562061D01*
X133583226Y-105362102D01*
X133505205Y-105173744D01*
X133391937Y-105004226D01*
X133247774Y-104860063D01*
X133078256Y-104746795D01*
X132889898Y-104668774D01*
X132689939Y-104629000D01*
X132486061Y-104629000D01*
X132286102Y-104668774D01*
X132097744Y-104746795D01*
X131928226Y-104860063D01*
X131784063Y-105004226D01*
X131670795Y-105173744D01*
X131592774Y-105362102D01*
X131553000Y-105562061D01*
X131553000Y-105624198D01*
X130495199Y-106682000D01*
X128274166Y-106682000D01*
X128274920Y-106681641D01*
X128508269Y-106507588D01*
X128703178Y-106291355D01*
X128852157Y-106041252D01*
X128949481Y-105766891D01*
X128828814Y-105537000D01*
X127635000Y-105537000D01*
X127635000Y-105557000D01*
X127381000Y-105557000D01*
X127381000Y-105537000D01*
X127361000Y-105537000D01*
X127361000Y-105283000D01*
X127381000Y-105283000D01*
X127381000Y-104089845D01*
X127635000Y-104089845D01*
X127635000Y-105283000D01*
X128828814Y-105283000D01*
X128949481Y-105053109D01*
X128852157Y-104778748D01*
X128703178Y-104528645D01*
X128508269Y-104312412D01*
X128274920Y-104138359D01*
X128012099Y-104013175D01*
X127864890Y-103968524D01*
X127635000Y-104089845D01*
X127381000Y-104089845D01*
X127151110Y-103968524D01*
X127003901Y-104013175D01*
X126741080Y-104138359D01*
X126507731Y-104312412D01*
X126312822Y-104528645D01*
X126243201Y-104645523D01*
X126208706Y-104580986D01*
X126023134Y-104354866D01*
X125797014Y-104169294D01*
X125539034Y-104031401D01*
X125259111Y-103946487D01*
X125040950Y-103925000D01*
X124895050Y-103925000D01*
X124676889Y-103946487D01*
X124396966Y-104031401D01*
X124138986Y-104169294D01*
X123912866Y-104354866D01*
X123727294Y-104580986D01*
X123698000Y-104635791D01*
X123668706Y-104580986D01*
X123483134Y-104354866D01*
X123257014Y-104169294D01*
X122999034Y-104031401D01*
X122719111Y-103946487D01*
X122500950Y-103925000D01*
X122475001Y-103925000D01*
X122274002Y-103724001D01*
X122250200Y-103694998D01*
X122134475Y-103600025D01*
X122002446Y-103529453D01*
X121859185Y-103485996D01*
X121747532Y-103474999D01*
X121747521Y-103474999D01*
X121710199Y-103471323D01*
X121672877Y-103474999D01*
X121098010Y-103474999D01*
X121098010Y-101249378D01*
X121103256Y-101247205D01*
X121272774Y-101133937D01*
X121416937Y-100989774D01*
X121530205Y-100820256D01*
X121608226Y-100631898D01*
X121648000Y-100431939D01*
X121648000Y-100228061D01*
X121608226Y-100028102D01*
X121530205Y-99839744D01*
X121416937Y-99670226D01*
X121272774Y-99526063D01*
X121103256Y-99412795D01*
X120914898Y-99334774D01*
X120714939Y-99295000D01*
X120649805Y-99295000D01*
X120648000Y-99276676D01*
X120648000Y-99276667D01*
X120637003Y-99165014D01*
X120593546Y-99021753D01*
X120522974Y-98889724D01*
X120486270Y-98845000D01*
X120451799Y-98802996D01*
X120451795Y-98802992D01*
X120428001Y-98773999D01*
X120399008Y-98750205D01*
X119399000Y-97750198D01*
X119399000Y-97688061D01*
X119359226Y-97488102D01*
X119281205Y-97299744D01*
X119167937Y-97130226D01*
X119023774Y-96986063D01*
X118854256Y-96872795D01*
X118665898Y-96794774D01*
X118465939Y-96755000D01*
X118262061Y-96755000D01*
X118062102Y-96794774D01*
X117873744Y-96872795D01*
X117704226Y-96986063D01*
X117560063Y-97130226D01*
X117446795Y-97299744D01*
X117368774Y-97488102D01*
X117329000Y-97688061D01*
X117329000Y-97891939D01*
X117368774Y-98091898D01*
X117446795Y-98280256D01*
X117560063Y-98449774D01*
X117704226Y-98593937D01*
X117873744Y-98707205D01*
X118062102Y-98785226D01*
X118262061Y-98825000D01*
X118324198Y-98825000D01*
X119128001Y-99628804D01*
X119128000Y-103921928D01*
X119038000Y-103921928D01*
X118913518Y-103934188D01*
X118793820Y-103970498D01*
X118683506Y-104029463D01*
X118586815Y-104108815D01*
X118507463Y-104205506D01*
X118448498Y-104315820D01*
X118412188Y-104435518D01*
X118399928Y-104560000D01*
X118399928Y-106260000D01*
X118412188Y-106384482D01*
X118448498Y-106504180D01*
X118507463Y-106614494D01*
X118562864Y-106682000D01*
X109303612Y-106682000D01*
X109368213Y-106617399D01*
X109397211Y-106593601D01*
X109492184Y-106477876D01*
X109562756Y-106345847D01*
X109606213Y-106202586D01*
X109617210Y-106090933D01*
X109620887Y-106053600D01*
X109617210Y-106016267D01*
X109617210Y-93822152D01*
X109767171Y-93895104D01*
X110078708Y-93976784D01*
X110400195Y-93996118D01*
X110719275Y-93952361D01*
X111023688Y-93847195D01*
X111197644Y-93754214D01*
X111293408Y-93489813D01*
X110337600Y-92534005D01*
X110323458Y-92548148D01*
X110143853Y-92368543D01*
X110157995Y-92354400D01*
X110517205Y-92354400D01*
X111473013Y-93310208D01*
X111737414Y-93214444D01*
X111878304Y-92924829D01*
X111959984Y-92613292D01*
X111979318Y-92291805D01*
X111935561Y-91972725D01*
X111830395Y-91668312D01*
X111737414Y-91494356D01*
X111473013Y-91398592D01*
X110517205Y-92354400D01*
X110157995Y-92354400D01*
X110143853Y-92340258D01*
X110323458Y-92160653D01*
X110337600Y-92174795D01*
X111293408Y-91218987D01*
X111197644Y-90954586D01*
X110908029Y-90813696D01*
X110596492Y-90732016D01*
X110275005Y-90712682D01*
X109955925Y-90756439D01*
X109651512Y-90861605D01*
X109617210Y-90879940D01*
X109617210Y-87322152D01*
X109767171Y-87395104D01*
X110078708Y-87476784D01*
X110400195Y-87496118D01*
X110719275Y-87452361D01*
X111023688Y-87347195D01*
X111197644Y-87254214D01*
X111293408Y-86989813D01*
X110337600Y-86034005D01*
X110323458Y-86048148D01*
X110143853Y-85868543D01*
X110157995Y-85854400D01*
X110517205Y-85854400D01*
X111473013Y-86810208D01*
X111737414Y-86714444D01*
X111878304Y-86424829D01*
X111959984Y-86113292D01*
X111979318Y-85791805D01*
X111935561Y-85472725D01*
X111830395Y-85168312D01*
X111737414Y-84994356D01*
X111473013Y-84898592D01*
X110517205Y-85854400D01*
X110157995Y-85854400D01*
X110143853Y-85840258D01*
X110323458Y-85660653D01*
X110337600Y-85674795D01*
X111293408Y-84718987D01*
X111197644Y-84454586D01*
X110908029Y-84313696D01*
X110722449Y-84265040D01*
X114447118Y-84265040D01*
X114360688Y-84282232D01*
X114063137Y-84405482D01*
X113795348Y-84584413D01*
X113567613Y-84812148D01*
X113388682Y-85079937D01*
X113265432Y-85377488D01*
X113202600Y-85693367D01*
X113202600Y-86015433D01*
X113265432Y-86331312D01*
X113388682Y-86628863D01*
X113567613Y-86896652D01*
X113795348Y-87124387D01*
X114063137Y-87303318D01*
X114077600Y-87309309D01*
X114077601Y-90899491D01*
X114063137Y-90905482D01*
X113795348Y-91084413D01*
X113567613Y-91312148D01*
X113388682Y-91579937D01*
X113265432Y-91877488D01*
X113202600Y-92193367D01*
X113202600Y-92515433D01*
X113265432Y-92831312D01*
X113388682Y-93128863D01*
X113567613Y-93396652D01*
X113795348Y-93624387D01*
X114063137Y-93803318D01*
X114360688Y-93926568D01*
X114676567Y-93989400D01*
X114998633Y-93989400D01*
X115314512Y-93926568D01*
X115612063Y-93803318D01*
X115879852Y-93624387D01*
X116014426Y-93489813D01*
X116493792Y-93489813D01*
X116589556Y-93754214D01*
X116879171Y-93895104D01*
X117190708Y-93976784D01*
X117512195Y-93996118D01*
X117831275Y-93952361D01*
X118135688Y-93847195D01*
X118309644Y-93754214D01*
X118405408Y-93489813D01*
X117449600Y-92534005D01*
X116493792Y-93489813D01*
X116014426Y-93489813D01*
X116107587Y-93396652D01*
X116194349Y-93266804D01*
X116314187Y-93310208D01*
X117269995Y-92354400D01*
X117629205Y-92354400D01*
X118585013Y-93310208D01*
X118849414Y-93214444D01*
X118990304Y-92924829D01*
X119071984Y-92613292D01*
X119091318Y-92291805D01*
X119047561Y-91972725D01*
X118942395Y-91668312D01*
X118849414Y-91494356D01*
X118585013Y-91398592D01*
X117629205Y-92354400D01*
X117269995Y-92354400D01*
X116314187Y-91398592D01*
X116194349Y-91441996D01*
X116107587Y-91312148D01*
X116014426Y-91218987D01*
X116493792Y-91218987D01*
X117449600Y-92174795D01*
X118405408Y-91218987D01*
X118309644Y-90954586D01*
X118020029Y-90813696D01*
X117708492Y-90732016D01*
X117387005Y-90712682D01*
X117067925Y-90756439D01*
X116763512Y-90861605D01*
X116589556Y-90954586D01*
X116493792Y-91218987D01*
X116014426Y-91218987D01*
X115879852Y-91084413D01*
X115612063Y-90905482D01*
X115597600Y-90899491D01*
X115597600Y-87309309D01*
X115612063Y-87303318D01*
X115879852Y-87124387D01*
X116014426Y-86989813D01*
X116493792Y-86989813D01*
X116589556Y-87254214D01*
X116879171Y-87395104D01*
X117190708Y-87476784D01*
X117512195Y-87496118D01*
X117831275Y-87452361D01*
X118135688Y-87347195D01*
X118309644Y-87254214D01*
X118405408Y-86989813D01*
X117449600Y-86034005D01*
X116493792Y-86989813D01*
X116014426Y-86989813D01*
X116107587Y-86896652D01*
X116194349Y-86766804D01*
X116314187Y-86810208D01*
X117269995Y-85854400D01*
X117629205Y-85854400D01*
X118585013Y-86810208D01*
X118849414Y-86714444D01*
X118990304Y-86424829D01*
X119071984Y-86113292D01*
X119091318Y-85791805D01*
X119047561Y-85472725D01*
X118942395Y-85168312D01*
X118849414Y-84994356D01*
X118585013Y-84898592D01*
X117629205Y-85854400D01*
X117269995Y-85854400D01*
X116314187Y-84898592D01*
X116194349Y-84941996D01*
X116107587Y-84812148D01*
X115879852Y-84584413D01*
X115612063Y-84405482D01*
X115314512Y-84282232D01*
X115228082Y-84265040D01*
X117043029Y-84265040D01*
X116763512Y-84361605D01*
X116589556Y-84454586D01*
X116493792Y-84718987D01*
X117449600Y-85674795D01*
X118405408Y-84718987D01*
X118309644Y-84454586D01*
X118020029Y-84313696D01*
X117834449Y-84265040D01*
X118136458Y-84265040D01*
X118173780Y-84268716D01*
X118211102Y-84265040D01*
X118211113Y-84265040D01*
X118322766Y-84254043D01*
X118466027Y-84210586D01*
X118598056Y-84140014D01*
X118713781Y-84045041D01*
X118737584Y-84016037D01*
X119704812Y-83048810D01*
X137111200Y-83048810D01*
X137111200Y-84514487D01*
X136948063Y-84405482D01*
X136650512Y-84282232D01*
X136334633Y-84219400D01*
X136012567Y-84219400D01*
X135696688Y-84282232D01*
X135399137Y-84405482D01*
X135131348Y-84584413D01*
X134903613Y-84812148D01*
X134724682Y-85079937D01*
X134601432Y-85377488D01*
X134538600Y-85693367D01*
X134538600Y-86015433D01*
X134601432Y-86331312D01*
X134724682Y-86628863D01*
X134903613Y-86896652D01*
X135131348Y-87124387D01*
X135399137Y-87303318D01*
X135413600Y-87309309D01*
X135413601Y-90899491D01*
X135399137Y-90905482D01*
X135131348Y-91084413D01*
X134903613Y-91312148D01*
X134724682Y-91579937D01*
X134601432Y-91877488D01*
X134538600Y-92193367D01*
X134538600Y-92515433D01*
X134601432Y-92831312D01*
X134637920Y-92919401D01*
X133215727Y-92919401D01*
X133295984Y-92613292D01*
X133315318Y-92291805D01*
X133271561Y-91972725D01*
X133166395Y-91668312D01*
X133073414Y-91494356D01*
X132809013Y-91398592D01*
X131853205Y-92354400D01*
X131867348Y-92368543D01*
X131687743Y-92548148D01*
X131673600Y-92534005D01*
X131659458Y-92548148D01*
X131479853Y-92368543D01*
X131493995Y-92354400D01*
X130538187Y-91398592D01*
X130418349Y-91441996D01*
X130331587Y-91312148D01*
X130238426Y-91218987D01*
X130717792Y-91218987D01*
X131673600Y-92174795D01*
X132629408Y-91218987D01*
X132533644Y-90954586D01*
X132244029Y-90813696D01*
X131932492Y-90732016D01*
X131611005Y-90712682D01*
X131291925Y-90756439D01*
X130987512Y-90861605D01*
X130813556Y-90954586D01*
X130717792Y-91218987D01*
X130238426Y-91218987D01*
X130103852Y-91084413D01*
X129836063Y-90905482D01*
X129821600Y-90899491D01*
X129821600Y-87309309D01*
X129836063Y-87303318D01*
X130103852Y-87124387D01*
X130238426Y-86989813D01*
X130717792Y-86989813D01*
X130813556Y-87254214D01*
X131103171Y-87395104D01*
X131414708Y-87476784D01*
X131736195Y-87496118D01*
X132055275Y-87452361D01*
X132359688Y-87347195D01*
X132533644Y-87254214D01*
X132629408Y-86989813D01*
X131673600Y-86034005D01*
X130717792Y-86989813D01*
X130238426Y-86989813D01*
X130331587Y-86896652D01*
X130418349Y-86766804D01*
X130538187Y-86810208D01*
X131493995Y-85854400D01*
X131853205Y-85854400D01*
X132809013Y-86810208D01*
X133073414Y-86714444D01*
X133214304Y-86424829D01*
X133295984Y-86113292D01*
X133315318Y-85791805D01*
X133271561Y-85472725D01*
X133166395Y-85168312D01*
X133073414Y-84994356D01*
X132809013Y-84898592D01*
X131853205Y-85854400D01*
X131493995Y-85854400D01*
X130538187Y-84898592D01*
X130418349Y-84941996D01*
X130331587Y-84812148D01*
X130238426Y-84718987D01*
X130717792Y-84718987D01*
X131673600Y-85674795D01*
X132629408Y-84718987D01*
X132533644Y-84454586D01*
X132244029Y-84313696D01*
X131932492Y-84232016D01*
X131611005Y-84212682D01*
X131291925Y-84256439D01*
X130987512Y-84361605D01*
X130813556Y-84454586D01*
X130717792Y-84718987D01*
X130238426Y-84718987D01*
X130103852Y-84584413D01*
X129836063Y-84405482D01*
X129538512Y-84282232D01*
X129222633Y-84219400D01*
X128900567Y-84219400D01*
X128584688Y-84282232D01*
X128287137Y-84405482D01*
X128019348Y-84584413D01*
X127791613Y-84812148D01*
X127612682Y-85079937D01*
X127489432Y-85377488D01*
X127426600Y-85693367D01*
X127426600Y-86015433D01*
X127489432Y-86331312D01*
X127612682Y-86628863D01*
X127791613Y-86896652D01*
X128019348Y-87124387D01*
X128287137Y-87303318D01*
X128301600Y-87309309D01*
X128301601Y-90899491D01*
X128287137Y-90905482D01*
X128019348Y-91084413D01*
X127791613Y-91312148D01*
X127612682Y-91579937D01*
X127489432Y-91877488D01*
X127426600Y-92193367D01*
X127426600Y-92515433D01*
X127489432Y-92831312D01*
X127612682Y-93128863D01*
X127773411Y-93369411D01*
X125756219Y-93369411D01*
X125697015Y-93310207D01*
X125961414Y-93214444D01*
X126102304Y-92924829D01*
X126183984Y-92613292D01*
X126203318Y-92291805D01*
X126159561Y-91972725D01*
X126054395Y-91668312D01*
X125961414Y-91494356D01*
X125697013Y-91398592D01*
X124741205Y-92354400D01*
X124755348Y-92368543D01*
X124575743Y-92548148D01*
X124561600Y-92534005D01*
X124547458Y-92548148D01*
X124367853Y-92368543D01*
X124381995Y-92354400D01*
X123426187Y-91398592D01*
X123306349Y-91441996D01*
X123219587Y-91312148D01*
X123126426Y-91218987D01*
X123605792Y-91218987D01*
X124561600Y-92174795D01*
X125517408Y-91218987D01*
X125421644Y-90954586D01*
X125132029Y-90813696D01*
X124820492Y-90732016D01*
X124499005Y-90712682D01*
X124179925Y-90756439D01*
X123875512Y-90861605D01*
X123701556Y-90954586D01*
X123605792Y-91218987D01*
X123126426Y-91218987D01*
X122991852Y-91084413D01*
X122724063Y-90905482D01*
X122709600Y-90899491D01*
X122709600Y-87309309D01*
X122724063Y-87303318D01*
X122991852Y-87124387D01*
X123126426Y-86989813D01*
X123605792Y-86989813D01*
X123701556Y-87254214D01*
X123991171Y-87395104D01*
X124302708Y-87476784D01*
X124624195Y-87496118D01*
X124943275Y-87452361D01*
X125247688Y-87347195D01*
X125421644Y-87254214D01*
X125517408Y-86989813D01*
X124561600Y-86034005D01*
X123605792Y-86989813D01*
X123126426Y-86989813D01*
X123219587Y-86896652D01*
X123306349Y-86766804D01*
X123426187Y-86810208D01*
X124381995Y-85854400D01*
X124741205Y-85854400D01*
X125697013Y-86810208D01*
X125961414Y-86714444D01*
X126102304Y-86424829D01*
X126183984Y-86113292D01*
X126203318Y-85791805D01*
X126159561Y-85472725D01*
X126054395Y-85168312D01*
X125961414Y-84994356D01*
X125697013Y-84898592D01*
X124741205Y-85854400D01*
X124381995Y-85854400D01*
X123426187Y-84898592D01*
X123306349Y-84941996D01*
X123219587Y-84812148D01*
X123126426Y-84718987D01*
X123605792Y-84718987D01*
X124561600Y-85674795D01*
X125517408Y-84718987D01*
X125421644Y-84454586D01*
X125132029Y-84313696D01*
X124820492Y-84232016D01*
X124499005Y-84212682D01*
X124179925Y-84256439D01*
X123875512Y-84361605D01*
X123701556Y-84454586D01*
X123605792Y-84718987D01*
X123126426Y-84718987D01*
X122991852Y-84584413D01*
X122724063Y-84405482D01*
X122426512Y-84282232D01*
X122110633Y-84219400D01*
X121788567Y-84219400D01*
X121472688Y-84282232D01*
X121175137Y-84405482D01*
X120907348Y-84584413D01*
X120679613Y-84812148D01*
X120500682Y-85079937D01*
X120377432Y-85377488D01*
X120314600Y-85693367D01*
X120314600Y-86015433D01*
X120377432Y-86331312D01*
X120500682Y-86628863D01*
X120679613Y-86896652D01*
X120907348Y-87124387D01*
X121175137Y-87303318D01*
X121189600Y-87309309D01*
X121189601Y-90899491D01*
X121175137Y-90905482D01*
X120907348Y-91084413D01*
X120679613Y-91312148D01*
X120500682Y-91579937D01*
X120377432Y-91877488D01*
X120314600Y-92193367D01*
X120314600Y-92515433D01*
X120377432Y-92831312D01*
X120500682Y-93128863D01*
X120679613Y-93396652D01*
X120907348Y-93624387D01*
X121175137Y-93803318D01*
X121472688Y-93926568D01*
X121788567Y-93989400D01*
X122110633Y-93989400D01*
X122426512Y-93926568D01*
X122440975Y-93920577D01*
X123160811Y-94640413D01*
X123184610Y-94669412D01*
X123300335Y-94764385D01*
X123432364Y-94834957D01*
X123575625Y-94878414D01*
X123687278Y-94889411D01*
X123687286Y-94889411D01*
X123724611Y-94893087D01*
X123761936Y-94889411D01*
X137248610Y-94889411D01*
X137981991Y-95622793D01*
X137981992Y-96526072D01*
X137978315Y-96563403D01*
X137992989Y-96712388D01*
X138036445Y-96855649D01*
X138107017Y-96987679D01*
X138177375Y-97073409D01*
X138201991Y-97103404D01*
X138230989Y-97127202D01*
X139228205Y-98124419D01*
X139251999Y-98153412D01*
X139280992Y-98177206D01*
X139280996Y-98177210D01*
X139367723Y-98248385D01*
X139499752Y-98318957D01*
X139643013Y-98362414D01*
X139791999Y-98377088D01*
X139829333Y-98373411D01*
X141399470Y-98373409D01*
X141436802Y-98377086D01*
X141474135Y-98373409D01*
X141585788Y-98362412D01*
X141629244Y-98349230D01*
X141729048Y-98318956D01*
X141861078Y-98248384D01*
X141947804Y-98177209D01*
X141947805Y-98177208D01*
X141976803Y-98153410D01*
X142000601Y-98124412D01*
X144447646Y-95677367D01*
X145479400Y-95677367D01*
X145479400Y-95999433D01*
X145542232Y-96315312D01*
X145665482Y-96612863D01*
X145844413Y-96880652D01*
X146072148Y-97108387D01*
X146339937Y-97287318D01*
X146637488Y-97410568D01*
X146953367Y-97473400D01*
X147275433Y-97473400D01*
X147591312Y-97410568D01*
X147888863Y-97287318D01*
X148156652Y-97108387D01*
X148384387Y-96880652D01*
X148385600Y-96878837D01*
X148386813Y-96880652D01*
X148614548Y-97108387D01*
X148882337Y-97287318D01*
X149179888Y-97410568D01*
X149495767Y-97473400D01*
X149817833Y-97473400D01*
X150133712Y-97410568D01*
X150431263Y-97287318D01*
X150699052Y-97108387D01*
X150926787Y-96880652D01*
X151105718Y-96612863D01*
X151228968Y-96315312D01*
X151291800Y-95999433D01*
X151291800Y-95677367D01*
X154521800Y-95677367D01*
X154521800Y-95999433D01*
X154584632Y-96315312D01*
X154707882Y-96612863D01*
X154886813Y-96880652D01*
X155114548Y-97108387D01*
X155382337Y-97287318D01*
X155679888Y-97410568D01*
X155995767Y-97473400D01*
X156317833Y-97473400D01*
X156633712Y-97410568D01*
X156931263Y-97287318D01*
X157199052Y-97108387D01*
X157426787Y-96880652D01*
X157605718Y-96612863D01*
X157728968Y-96315312D01*
X157758729Y-96165690D01*
X159442124Y-96165690D01*
X159486775Y-96312899D01*
X159611959Y-96575720D01*
X159786012Y-96809069D01*
X160002245Y-97003978D01*
X160252348Y-97152957D01*
X160526709Y-97250281D01*
X160756600Y-97129614D01*
X160756600Y-95935800D01*
X159563445Y-95935800D01*
X159442124Y-96165690D01*
X157758729Y-96165690D01*
X157791800Y-95999433D01*
X157791800Y-95677367D01*
X157728968Y-95361488D01*
X157605718Y-95063937D01*
X157426787Y-94796148D01*
X157199052Y-94568413D01*
X156931263Y-94389482D01*
X156633712Y-94266232D01*
X156317833Y-94203400D01*
X155995767Y-94203400D01*
X155679888Y-94266232D01*
X155382337Y-94389482D01*
X155114548Y-94568413D01*
X154886813Y-94796148D01*
X154707882Y-95063937D01*
X154584632Y-95361488D01*
X154521800Y-95677367D01*
X151291800Y-95677367D01*
X151228968Y-95361488D01*
X151105718Y-95063937D01*
X150926787Y-94796148D01*
X150699052Y-94568413D01*
X150431263Y-94389482D01*
X150133712Y-94266232D01*
X149817833Y-94203400D01*
X149495767Y-94203400D01*
X149179888Y-94266232D01*
X148882337Y-94389482D01*
X148614548Y-94568413D01*
X148386813Y-94796148D01*
X148385600Y-94797963D01*
X148384387Y-94796148D01*
X148156652Y-94568413D01*
X147888863Y-94389482D01*
X147591312Y-94266232D01*
X147275433Y-94203400D01*
X146953367Y-94203400D01*
X146637488Y-94266232D01*
X146339937Y-94389482D01*
X146072148Y-94568413D01*
X145844413Y-94796148D01*
X145665482Y-95063937D01*
X145542232Y-95361488D01*
X145479400Y-95677367D01*
X144447646Y-95677367D01*
X146701613Y-93423401D01*
X150255479Y-93423401D01*
X150292801Y-93427077D01*
X150330123Y-93423401D01*
X150330134Y-93423401D01*
X150441787Y-93412404D01*
X150585048Y-93368947D01*
X150717077Y-93298375D01*
X150832802Y-93203402D01*
X150856604Y-93174399D01*
X151492805Y-92538199D01*
X151521802Y-92514402D01*
X151555112Y-92473813D01*
X155200992Y-92473813D01*
X155296756Y-92738214D01*
X155586371Y-92879104D01*
X155897908Y-92960784D01*
X156219395Y-92980118D01*
X156538475Y-92936361D01*
X156842888Y-92831195D01*
X157016844Y-92738214D01*
X157112608Y-92473813D01*
X156156800Y-91518005D01*
X155200992Y-92473813D01*
X151555112Y-92473813D01*
X151601742Y-92416995D01*
X151616775Y-92398678D01*
X151687347Y-92266648D01*
X151703378Y-92213800D01*
X151730804Y-92123387D01*
X151741801Y-92011734D01*
X151741801Y-92011725D01*
X151745477Y-91974402D01*
X151741801Y-91937079D01*
X151741801Y-91400995D01*
X154515082Y-91400995D01*
X154558839Y-91720075D01*
X154664005Y-92024488D01*
X154756986Y-92198444D01*
X155021387Y-92294208D01*
X155977195Y-91338400D01*
X156336405Y-91338400D01*
X157292213Y-92294208D01*
X157556614Y-92198444D01*
X157697504Y-91908829D01*
X157779184Y-91597292D01*
X157798518Y-91275805D01*
X157754761Y-90956725D01*
X157649595Y-90652312D01*
X157556614Y-90478356D01*
X157292213Y-90382592D01*
X156336405Y-91338400D01*
X155977195Y-91338400D01*
X155021387Y-90382592D01*
X154756986Y-90478356D01*
X154616096Y-90767971D01*
X154534416Y-91079508D01*
X154515082Y-91400995D01*
X151741801Y-91400995D01*
X151741801Y-90190323D01*
X151745477Y-90153000D01*
X151741801Y-90115677D01*
X151741801Y-90115668D01*
X151730804Y-90004015D01*
X151687347Y-89860754D01*
X151616775Y-89728725D01*
X151521802Y-89613000D01*
X151492798Y-89589197D01*
X151222977Y-89319376D01*
X151228968Y-89304912D01*
X151291800Y-88989033D01*
X151291800Y-88666967D01*
X151228968Y-88351088D01*
X151192480Y-88262999D01*
X154621120Y-88262999D01*
X154584632Y-88351088D01*
X154521800Y-88666967D01*
X154521800Y-88989033D01*
X154584632Y-89304912D01*
X154707882Y-89602463D01*
X154886813Y-89870252D01*
X155114548Y-90097987D01*
X155214768Y-90164952D01*
X155200992Y-90202987D01*
X156156800Y-91158795D01*
X157112608Y-90202987D01*
X157098832Y-90164952D01*
X157199052Y-90097987D01*
X157426787Y-89870252D01*
X157605718Y-89602463D01*
X157728968Y-89304912D01*
X157791800Y-88989033D01*
X157791800Y-88948800D01*
X159606005Y-88948800D01*
X159642894Y-89017814D01*
X159828466Y-89243934D01*
X160054586Y-89429506D01*
X160109391Y-89458800D01*
X160054586Y-89488094D01*
X159828466Y-89673666D01*
X159642894Y-89899786D01*
X159505001Y-90157766D01*
X159420087Y-90437689D01*
X159391415Y-90728800D01*
X159420087Y-91019911D01*
X159505001Y-91299834D01*
X159642894Y-91557814D01*
X159828466Y-91783934D01*
X160054586Y-91969506D01*
X160109391Y-91998800D01*
X160054586Y-92028094D01*
X159828466Y-92213666D01*
X159642894Y-92439786D01*
X159505001Y-92697766D01*
X159420087Y-92977689D01*
X159391415Y-93268800D01*
X159420087Y-93559911D01*
X159505001Y-93839834D01*
X159642894Y-94097814D01*
X159828466Y-94323934D01*
X160054586Y-94509506D01*
X160119123Y-94544001D01*
X160002245Y-94613622D01*
X159786012Y-94808531D01*
X159611959Y-95041880D01*
X159486775Y-95304701D01*
X159442124Y-95451910D01*
X159563445Y-95681800D01*
X160756600Y-95681800D01*
X160756600Y-95661800D01*
X161010600Y-95661800D01*
X161010600Y-95681800D01*
X161030600Y-95681800D01*
X161030600Y-95935800D01*
X161010600Y-95935800D01*
X161010600Y-97129614D01*
X161240491Y-97250281D01*
X161514852Y-97152957D01*
X161764955Y-97003978D01*
X161952913Y-96834556D01*
X161952913Y-98693885D01*
X161209506Y-99437292D01*
X161164909Y-99423764D01*
X160954092Y-99403000D01*
X160813108Y-99403000D01*
X160602291Y-99423764D01*
X160331792Y-99505818D01*
X160082499Y-99639068D01*
X159863992Y-99818392D01*
X159684668Y-100036899D01*
X159551418Y-100286192D01*
X159469364Y-100556691D01*
X159441657Y-100838000D01*
X159469364Y-101119309D01*
X159551418Y-101389808D01*
X159684668Y-101639101D01*
X159863992Y-101857608D01*
X160082499Y-102036932D01*
X160331792Y-102170182D01*
X160602291Y-102252236D01*
X160813108Y-102273000D01*
X160954092Y-102273000D01*
X161164909Y-102252236D01*
X161435408Y-102170182D01*
X161684701Y-102036932D01*
X161903208Y-101857608D01*
X162082532Y-101639101D01*
X162215782Y-101389808D01*
X162297836Y-101119309D01*
X162325543Y-100838000D01*
X162297836Y-100556691D01*
X162284308Y-100512094D01*
X162405122Y-100391280D01*
X162407998Y-128117960D01*
X162389500Y-128361195D01*
X162389500Y-128037721D01*
X162307453Y-127625244D01*
X162146512Y-127236698D01*
X161912863Y-126887017D01*
X161615483Y-126589637D01*
X161265802Y-126355988D01*
X160877256Y-126195047D01*
X160464779Y-126113000D01*
X160044221Y-126113000D01*
X159631744Y-126195047D01*
X159243198Y-126355988D01*
X158893517Y-126589637D01*
X158596137Y-126887017D01*
X158362488Y-127236698D01*
X158201547Y-127625244D01*
X158119500Y-128037721D01*
X158119500Y-128458279D01*
X158201547Y-128870756D01*
X158362488Y-129259302D01*
X158596137Y-129608983D01*
X158893517Y-129906363D01*
X159243198Y-130140012D01*
X159631744Y-130300953D01*
X160044221Y-130383000D01*
X160464779Y-130383000D01*
X160877256Y-130300953D01*
X161265802Y-130140012D01*
X161615483Y-129906363D01*
X161912863Y-129608983D01*
X162146512Y-129259302D01*
X162307453Y-128870756D01*
X162377547Y-128518373D01*
X162362684Y-128713800D01*
X162213123Y-129251311D01*
X161962010Y-129749532D01*
X161618909Y-130189487D01*
X161196884Y-130554424D01*
X160712013Y-130830440D01*
X160182766Y-131007020D01*
X159611850Y-131079659D01*
X122138072Y-131099552D01*
X122138072Y-129452000D01*
X122125812Y-129327518D01*
X122089502Y-129207820D01*
X122030537Y-129097506D01*
X121951185Y-129000815D01*
X121854494Y-128921463D01*
X121744180Y-128862498D01*
X121624482Y-128826188D01*
X121500000Y-128813928D01*
X119800000Y-128813928D01*
X119675518Y-128826188D01*
X119555820Y-128862498D01*
X119445506Y-128921463D01*
X119348815Y-129000815D01*
X119269463Y-129097506D01*
X119210498Y-129207820D01*
X119174188Y-129327518D01*
X119161928Y-129452000D01*
X119161928Y-131101132D01*
X102261384Y-131110104D01*
X101680191Y-131053183D01*
X101151081Y-130893499D01*
X100663068Y-130634088D01*
X100234730Y-130284824D01*
X99882393Y-129859020D01*
X99619471Y-129372885D01*
X99455980Y-128844941D01*
X99395006Y-128265426D01*
X99395049Y-128037721D01*
X100119500Y-128037721D01*
X100119500Y-128458279D01*
X100201547Y-128870756D01*
X100362488Y-129259302D01*
X100596137Y-129608983D01*
X100893517Y-129906363D01*
X101243198Y-130140012D01*
X101631744Y-130300953D01*
X102044221Y-130383000D01*
X102464779Y-130383000D01*
X102877256Y-130300953D01*
X103265802Y-130140012D01*
X103615483Y-129906363D01*
X103912863Y-129608983D01*
X104128672Y-129286000D01*
X104425815Y-129286000D01*
X104454487Y-129577111D01*
X104539401Y-129857034D01*
X104677294Y-130115014D01*
X104862866Y-130341134D01*
X105088986Y-130526706D01*
X105346966Y-130664599D01*
X105626889Y-130749513D01*
X105845050Y-130771000D01*
X105990950Y-130771000D01*
X106209111Y-130749513D01*
X106489034Y-130664599D01*
X106747014Y-130526706D01*
X106973134Y-130341134D01*
X107158706Y-130115014D01*
X107296599Y-129857034D01*
X107381513Y-129577111D01*
X107410185Y-129286000D01*
X107381513Y-128994889D01*
X107318464Y-128787042D01*
X141731000Y-128787042D01*
X141731000Y-129118958D01*
X141795754Y-129444496D01*
X141922772Y-129751147D01*
X142107175Y-130027125D01*
X142341875Y-130261825D01*
X142617853Y-130446228D01*
X142924504Y-130573246D01*
X143250042Y-130638000D01*
X143581958Y-130638000D01*
X143907496Y-130573246D01*
X144214147Y-130446228D01*
X144490125Y-130261825D01*
X144534136Y-130217814D01*
X144607175Y-130327125D01*
X144841875Y-130561825D01*
X145117853Y-130746228D01*
X145424504Y-130873246D01*
X145750042Y-130938000D01*
X146081958Y-130938000D01*
X146407496Y-130873246D01*
X146714147Y-130746228D01*
X146990125Y-130561825D01*
X147224825Y-130327125D01*
X147409228Y-130051147D01*
X147536246Y-129744496D01*
X147601000Y-129418958D01*
X147601000Y-129087042D01*
X149231000Y-129087042D01*
X149231000Y-129418958D01*
X149295754Y-129744496D01*
X149422772Y-130051147D01*
X149607175Y-130327125D01*
X149841875Y-130561825D01*
X150117853Y-130746228D01*
X150424504Y-130873246D01*
X150750042Y-130938000D01*
X151081958Y-130938000D01*
X151407496Y-130873246D01*
X151714147Y-130746228D01*
X151990125Y-130561825D01*
X152224825Y-130327125D01*
X152297864Y-130217814D01*
X152341875Y-130261825D01*
X152617853Y-130446228D01*
X152924504Y-130573246D01*
X153250042Y-130638000D01*
X153581958Y-130638000D01*
X153907496Y-130573246D01*
X154214147Y-130446228D01*
X154490125Y-130261825D01*
X154724825Y-130027125D01*
X154909228Y-129751147D01*
X155036246Y-129444496D01*
X155101000Y-129118958D01*
X155101000Y-128787042D01*
X155036246Y-128461504D01*
X154909228Y-128154853D01*
X154724825Y-127878875D01*
X154490125Y-127644175D01*
X154214147Y-127459772D01*
X153907496Y-127332754D01*
X153581958Y-127268000D01*
X153250042Y-127268000D01*
X152924504Y-127332754D01*
X152617853Y-127459772D01*
X152341875Y-127644175D01*
X152107175Y-127878875D01*
X152034136Y-127988186D01*
X151990125Y-127944175D01*
X151714147Y-127759772D01*
X151407496Y-127632754D01*
X151081958Y-127568000D01*
X150750042Y-127568000D01*
X150424504Y-127632754D01*
X150117853Y-127759772D01*
X149841875Y-127944175D01*
X149607175Y-128178875D01*
X149422772Y-128454853D01*
X149295754Y-128761504D01*
X149231000Y-129087042D01*
X147601000Y-129087042D01*
X147536246Y-128761504D01*
X147409228Y-128454853D01*
X147224825Y-128178875D01*
X146990125Y-127944175D01*
X146714147Y-127759772D01*
X146407496Y-127632754D01*
X146081958Y-127568000D01*
X145750042Y-127568000D01*
X145424504Y-127632754D01*
X145117853Y-127759772D01*
X144841875Y-127944175D01*
X144797864Y-127988186D01*
X144724825Y-127878875D01*
X144490125Y-127644175D01*
X144214147Y-127459772D01*
X143907496Y-127332754D01*
X143581958Y-127268000D01*
X143250042Y-127268000D01*
X142924504Y-127332754D01*
X142617853Y-127459772D01*
X142341875Y-127644175D01*
X142107175Y-127878875D01*
X141922772Y-128154853D01*
X141795754Y-128461504D01*
X141731000Y-128787042D01*
X107318464Y-128787042D01*
X107296599Y-128714966D01*
X107158706Y-128456986D01*
X106973134Y-128230866D01*
X106747014Y-128045294D01*
X106682477Y-128010799D01*
X106799355Y-127941178D01*
X107015588Y-127746269D01*
X107189641Y-127512920D01*
X107314825Y-127250099D01*
X107359476Y-127102890D01*
X107238155Y-126873000D01*
X106045000Y-126873000D01*
X106045000Y-126893000D01*
X105791000Y-126893000D01*
X105791000Y-126873000D01*
X104597845Y-126873000D01*
X104476524Y-127102890D01*
X104521175Y-127250099D01*
X104646359Y-127512920D01*
X104820412Y-127746269D01*
X105036645Y-127941178D01*
X105153523Y-128010799D01*
X105088986Y-128045294D01*
X104862866Y-128230866D01*
X104677294Y-128456986D01*
X104539401Y-128714966D01*
X104454487Y-128994889D01*
X104425815Y-129286000D01*
X104128672Y-129286000D01*
X104146512Y-129259302D01*
X104307453Y-128870756D01*
X104389500Y-128458279D01*
X104389500Y-128037721D01*
X104307453Y-127625244D01*
X104146512Y-127236698D01*
X103912863Y-126887017D01*
X103615483Y-126589637D01*
X103265802Y-126355988D01*
X102877256Y-126195047D01*
X102464779Y-126113000D01*
X102044221Y-126113000D01*
X101631744Y-126195047D01*
X101243198Y-126355988D01*
X100893517Y-126589637D01*
X100596137Y-126887017D01*
X100362488Y-127236698D01*
X100201547Y-127625244D01*
X100119500Y-128037721D01*
X99395049Y-128037721D01*
X99397383Y-115736000D01*
X104429928Y-115736000D01*
X104433000Y-116300250D01*
X104591750Y-116459000D01*
X105791000Y-116459000D01*
X105791000Y-115259750D01*
X105632250Y-115101000D01*
X105068000Y-115097928D01*
X104943518Y-115110188D01*
X104823820Y-115146498D01*
X104713506Y-115205463D01*
X104616815Y-115284815D01*
X104537463Y-115381506D01*
X104478498Y-115491820D01*
X104442188Y-115611518D01*
X104429928Y-115736000D01*
X99397383Y-115736000D01*
X99404283Y-79380630D01*
X99430361Y-79037721D01*
X100119500Y-79037721D01*
X100119500Y-79458279D01*
X100201547Y-79870756D01*
X100362488Y-80259302D01*
X100596137Y-80608983D01*
X100893517Y-80906363D01*
X101243198Y-81140012D01*
X101631744Y-81300953D01*
X102044221Y-81383000D01*
X102464779Y-81383000D01*
X102877256Y-81300953D01*
X103265802Y-81140012D01*
X103615483Y-80906363D01*
X103912863Y-80608983D01*
X104146512Y-80259302D01*
X104307453Y-79870756D01*
X104389500Y-79458279D01*
X104389500Y-79037721D01*
X104307453Y-78625244D01*
X104146512Y-78236698D01*
X103912863Y-77887017D01*
X103615483Y-77589637D01*
X103265802Y-77355988D01*
X102877256Y-77195047D01*
X102464779Y-77113000D01*
X102044221Y-77113000D01*
X101631744Y-77195047D01*
X101243198Y-77355988D01*
X100893517Y-77589637D01*
X100596137Y-77887017D01*
X100362488Y-78236698D01*
X100201547Y-78625244D01*
X100119500Y-79037721D01*
X99430361Y-79037721D01*
X99449604Y-78784700D01*
X99599164Y-78247192D01*
X99850278Y-77748968D01*
X100193379Y-77309013D01*
X100615403Y-76944077D01*
X101100272Y-76668061D01*
X101629519Y-76491481D01*
X102206795Y-76418032D01*
X117772427Y-76415272D01*
X117672169Y-76515530D01*
G36*
X139073696Y-83757571D02*
G01*
X138992016Y-84069108D01*
X138972682Y-84390595D01*
X139016439Y-84709675D01*
X139121605Y-85014088D01*
X139214586Y-85188044D01*
X139478987Y-85283808D01*
X140434795Y-84328000D01*
X140420653Y-84313858D01*
X140600258Y-84134253D01*
X140614400Y-84148395D01*
X140628543Y-84134253D01*
X140808148Y-84313858D01*
X140794005Y-84328000D01*
X141749813Y-85283808D01*
X142014214Y-85188044D01*
X142155104Y-84898429D01*
X142236784Y-84586892D01*
X142256118Y-84265405D01*
X142212361Y-83946325D01*
X142107195Y-83641912D01*
X142030711Y-83498820D01*
X145699571Y-83498820D01*
X145573696Y-83757571D01*
X145492016Y-84069108D01*
X145472682Y-84390595D01*
X145516439Y-84709675D01*
X145621605Y-85014088D01*
X145714586Y-85188044D01*
X145978987Y-85283808D01*
X146934795Y-84328000D01*
X146920653Y-84313858D01*
X147100258Y-84134253D01*
X147114400Y-84148395D01*
X147128543Y-84134253D01*
X147308148Y-84313858D01*
X147294005Y-84328000D01*
X148249813Y-85283808D01*
X148385600Y-85234627D01*
X148521387Y-85283808D01*
X149477195Y-84328000D01*
X149463053Y-84313858D01*
X149642658Y-84134253D01*
X149656800Y-84148395D01*
X149670943Y-84134253D01*
X149850548Y-84313858D01*
X149836405Y-84328000D01*
X150792213Y-85283808D01*
X151056614Y-85188044D01*
X151197504Y-84898429D01*
X151279184Y-84586892D01*
X151298518Y-84265405D01*
X151254761Y-83946325D01*
X151149595Y-83641912D01*
X151073111Y-83498820D01*
X154741971Y-83498820D01*
X154616096Y-83757571D01*
X154534416Y-84069108D01*
X154515082Y-84390595D01*
X154558839Y-84709675D01*
X154664005Y-85014088D01*
X154756986Y-85188044D01*
X155021387Y-85283808D01*
X155977195Y-84328000D01*
X155963053Y-84313858D01*
X156142658Y-84134253D01*
X156156800Y-84148395D01*
X156170943Y-84134253D01*
X156350548Y-84313858D01*
X156336405Y-84328000D01*
X157292213Y-85283808D01*
X157556614Y-85188044D01*
X157697504Y-84898429D01*
X157779184Y-84586892D01*
X157798518Y-84265405D01*
X157754761Y-83946325D01*
X157649595Y-83641912D01*
X157573111Y-83498820D01*
X159098819Y-83498820D01*
X159219796Y-83619797D01*
X159243599Y-83648801D01*
X159359324Y-83743774D01*
X159395528Y-83763126D01*
X159395528Y-83958800D01*
X159407788Y-84083282D01*
X159444098Y-84202980D01*
X159503063Y-84313294D01*
X159582415Y-84409985D01*
X159679106Y-84489337D01*
X159789420Y-84548302D01*
X159858287Y-84569193D01*
X159828466Y-84593666D01*
X159642894Y-84819786D01*
X159505001Y-85077766D01*
X159420087Y-85357689D01*
X159391415Y-85648800D01*
X159420087Y-85939911D01*
X159442803Y-86014795D01*
X158714600Y-86742999D01*
X148476723Y-86742999D01*
X148439400Y-86739323D01*
X148402077Y-86742999D01*
X148402068Y-86742999D01*
X148290415Y-86753996D01*
X148147154Y-86797453D01*
X148015125Y-86868025D01*
X148015123Y-86868026D01*
X148015124Y-86868026D01*
X147928397Y-86939200D01*
X147928393Y-86939204D01*
X147899400Y-86962998D01*
X147875606Y-86991991D01*
X147605775Y-87261823D01*
X147591312Y-87255832D01*
X147275433Y-87193000D01*
X146953367Y-87193000D01*
X146637488Y-87255832D01*
X146339937Y-87379082D01*
X146072148Y-87558013D01*
X145844413Y-87785748D01*
X145665482Y-88053537D01*
X145542232Y-88351088D01*
X145479400Y-88666967D01*
X145479400Y-88989033D01*
X145542232Y-89304912D01*
X145665482Y-89602463D01*
X145844413Y-89870252D01*
X146072148Y-90097987D01*
X146172368Y-90164952D01*
X146158592Y-90202987D01*
X147114400Y-91158795D01*
X148070208Y-90202987D01*
X148056432Y-90164952D01*
X148156652Y-90097987D01*
X148384387Y-89870252D01*
X148385600Y-89868437D01*
X148386813Y-89870252D01*
X148614548Y-90097987D01*
X148714768Y-90164952D01*
X148700992Y-90202987D01*
X149656800Y-91158795D01*
X149670943Y-91144653D01*
X149850548Y-91324258D01*
X149836405Y-91338400D01*
X149850548Y-91352543D01*
X149670943Y-91532148D01*
X149656800Y-91518005D01*
X149642658Y-91532148D01*
X149463053Y-91352543D01*
X149477195Y-91338400D01*
X148521387Y-90382592D01*
X148385600Y-90431773D01*
X148249813Y-90382592D01*
X147294005Y-91338400D01*
X147308148Y-91352543D01*
X147128543Y-91532148D01*
X147114400Y-91518005D01*
X147100258Y-91532148D01*
X146920653Y-91352543D01*
X146934795Y-91338400D01*
X145978987Y-90382592D01*
X145714586Y-90478356D01*
X145573696Y-90767971D01*
X145492016Y-91079508D01*
X145472682Y-91400995D01*
X145516439Y-91720075D01*
X145621605Y-92024488D01*
X145714586Y-92198444D01*
X145760380Y-92215030D01*
X142699401Y-95276010D01*
X142699401Y-90190323D01*
X142703077Y-90153000D01*
X142699401Y-90115677D01*
X142699401Y-90115668D01*
X142688404Y-90004015D01*
X142644947Y-89860754D01*
X142574375Y-89728725D01*
X142479402Y-89613000D01*
X142450398Y-89589197D01*
X142180577Y-89319376D01*
X142186568Y-89304912D01*
X142249400Y-88989033D01*
X142249400Y-88666967D01*
X142186568Y-88351088D01*
X142063318Y-88053537D01*
X141884387Y-87785748D01*
X141656652Y-87558013D01*
X141388863Y-87379082D01*
X141091312Y-87255832D01*
X140775433Y-87193000D01*
X140453367Y-87193000D01*
X140137488Y-87255832D01*
X139839937Y-87379082D01*
X139572148Y-87558013D01*
X139344413Y-87785748D01*
X139165482Y-88053537D01*
X139042232Y-88351088D01*
X138979400Y-88666967D01*
X138979400Y-88989033D01*
X139042232Y-89304912D01*
X139165482Y-89602463D01*
X139344413Y-89870252D01*
X139572148Y-90097987D01*
X139672368Y-90164952D01*
X139658592Y-90202987D01*
X140614400Y-91158795D01*
X140628543Y-91144653D01*
X140808148Y-91324258D01*
X140794005Y-91338400D01*
X140808148Y-91352543D01*
X140628543Y-91532148D01*
X140614400Y-91518005D01*
X139658592Y-92473813D01*
X139754356Y-92738214D01*
X140043971Y-92879104D01*
X140355508Y-92960784D01*
X140676995Y-92980118D01*
X140996075Y-92936361D01*
X141179402Y-92873027D01*
X141179401Y-94302720D01*
X141091312Y-94266232D01*
X140775433Y-94203400D01*
X140453367Y-94203400D01*
X140137488Y-94266232D01*
X140123025Y-94272223D01*
X138631200Y-92780399D01*
X138631200Y-92675112D01*
X138634876Y-92637787D01*
X138631200Y-92600462D01*
X138631200Y-91400995D01*
X138972682Y-91400995D01*
X139016439Y-91720075D01*
X139121605Y-92024488D01*
X139214586Y-92198444D01*
X139478987Y-92294208D01*
X140434795Y-91338400D01*
X139478987Y-90382592D01*
X139214586Y-90478356D01*
X139073696Y-90767971D01*
X138992016Y-91079508D01*
X138972682Y-91400995D01*
X138631200Y-91400995D01*
X138631200Y-85463413D01*
X139658592Y-85463413D01*
X139754356Y-85727814D01*
X140043971Y-85868704D01*
X140355508Y-85950384D01*
X140676995Y-85969718D01*
X140996075Y-85925961D01*
X141300488Y-85820795D01*
X141474444Y-85727814D01*
X141570208Y-85463413D01*
X146158592Y-85463413D01*
X146254356Y-85727814D01*
X146543971Y-85868704D01*
X146855508Y-85950384D01*
X147176995Y-85969718D01*
X147496075Y-85925961D01*
X147800488Y-85820795D01*
X147974444Y-85727814D01*
X148070208Y-85463413D01*
X148700992Y-85463413D01*
X148796756Y-85727814D01*
X149086371Y-85868704D01*
X149397908Y-85950384D01*
X149719395Y-85969718D01*
X150038475Y-85925961D01*
X150342888Y-85820795D01*
X150516844Y-85727814D01*
X150612608Y-85463413D01*
X155200992Y-85463413D01*
X155296756Y-85727814D01*
X155586371Y-85868704D01*
X155897908Y-85950384D01*
X156219395Y-85969718D01*
X156538475Y-85925961D01*
X156842888Y-85820795D01*
X157016844Y-85727814D01*
X157112608Y-85463413D01*
X156156800Y-84507605D01*
X155200992Y-85463413D01*
X150612608Y-85463413D01*
X149656800Y-84507605D01*
X148700992Y-85463413D01*
X148070208Y-85463413D01*
X147114400Y-84507605D01*
X146158592Y-85463413D01*
X141570208Y-85463413D01*
X140614400Y-84507605D01*
X139658592Y-85463413D01*
X138631200Y-85463413D01*
X138631200Y-83498820D01*
X139199571Y-83498820D01*
X139073696Y-83757571D01*
X139073696Y-83757571D01*
G37*
X139073696Y-83757571D02*
X138992016Y-84069108D01*
X138972682Y-84390595D01*
X139016439Y-84709675D01*
X139121605Y-85014088D01*
X139214586Y-85188044D01*
X139478987Y-85283808D01*
X140434795Y-84328000D01*
X140420653Y-84313858D01*
X140600258Y-84134253D01*
X140614400Y-84148395D01*
X140628543Y-84134253D01*
X140808148Y-84313858D01*
X140794005Y-84328000D01*
X141749813Y-85283808D01*
X142014214Y-85188044D01*
X142155104Y-84898429D01*
X142236784Y-84586892D01*
X142256118Y-84265405D01*
X142212361Y-83946325D01*
X142107195Y-83641912D01*
X142030711Y-83498820D01*
X145699571Y-83498820D01*
X145573696Y-83757571D01*
X145492016Y-84069108D01*
X145472682Y-84390595D01*
X145516439Y-84709675D01*
X145621605Y-85014088D01*
X145714586Y-85188044D01*
X145978987Y-85283808D01*
X146934795Y-84328000D01*
X146920653Y-84313858D01*
X147100258Y-84134253D01*
X147114400Y-84148395D01*
X147128543Y-84134253D01*
X147308148Y-84313858D01*
X147294005Y-84328000D01*
X148249813Y-85283808D01*
X148385600Y-85234627D01*
X148521387Y-85283808D01*
X149477195Y-84328000D01*
X149463053Y-84313858D01*
X149642658Y-84134253D01*
X149656800Y-84148395D01*
X149670943Y-84134253D01*
X149850548Y-84313858D01*
X149836405Y-84328000D01*
X150792213Y-85283808D01*
X151056614Y-85188044D01*
X151197504Y-84898429D01*
X151279184Y-84586892D01*
X151298518Y-84265405D01*
X151254761Y-83946325D01*
X151149595Y-83641912D01*
X151073111Y-83498820D01*
X154741971Y-83498820D01*
X154616096Y-83757571D01*
X154534416Y-84069108D01*
X154515082Y-84390595D01*
X154558839Y-84709675D01*
X154664005Y-85014088D01*
X154756986Y-85188044D01*
X155021387Y-85283808D01*
X155977195Y-84328000D01*
X155963053Y-84313858D01*
X156142658Y-84134253D01*
X156156800Y-84148395D01*
X156170943Y-84134253D01*
X156350548Y-84313858D01*
X156336405Y-84328000D01*
X157292213Y-85283808D01*
X157556614Y-85188044D01*
X157697504Y-84898429D01*
X157779184Y-84586892D01*
X157798518Y-84265405D01*
X157754761Y-83946325D01*
X157649595Y-83641912D01*
X157573111Y-83498820D01*
X159098819Y-83498820D01*
X159219796Y-83619797D01*
X159243599Y-83648801D01*
X159359324Y-83743774D01*
X159395528Y-83763126D01*
X159395528Y-83958800D01*
X159407788Y-84083282D01*
X159444098Y-84202980D01*
X159503063Y-84313294D01*
X159582415Y-84409985D01*
X159679106Y-84489337D01*
X159789420Y-84548302D01*
X159858287Y-84569193D01*
X159828466Y-84593666D01*
X159642894Y-84819786D01*
X159505001Y-85077766D01*
X159420087Y-85357689D01*
X159391415Y-85648800D01*
X159420087Y-85939911D01*
X159442803Y-86014795D01*
X158714600Y-86742999D01*
X148476723Y-86742999D01*
X148439400Y-86739323D01*
X148402077Y-86742999D01*
X148402068Y-86742999D01*
X148290415Y-86753996D01*
X148147154Y-86797453D01*
X148015125Y-86868025D01*
X148015123Y-86868026D01*
X148015124Y-86868026D01*
X147928397Y-86939200D01*
X147928393Y-86939204D01*
X147899400Y-86962998D01*
X147875606Y-86991991D01*
X147605775Y-87261823D01*
X147591312Y-87255832D01*
X147275433Y-87193000D01*
X146953367Y-87193000D01*
X146637488Y-87255832D01*
X146339937Y-87379082D01*
X146072148Y-87558013D01*
X145844413Y-87785748D01*
X145665482Y-88053537D01*
X145542232Y-88351088D01*
X145479400Y-88666967D01*
X145479400Y-88989033D01*
X145542232Y-89304912D01*
X145665482Y-89602463D01*
X145844413Y-89870252D01*
X146072148Y-90097987D01*
X146172368Y-90164952D01*
X146158592Y-90202987D01*
X147114400Y-91158795D01*
X148070208Y-90202987D01*
X148056432Y-90164952D01*
X148156652Y-90097987D01*
X148384387Y-89870252D01*
X148385600Y-89868437D01*
X148386813Y-89870252D01*
X148614548Y-90097987D01*
X148714768Y-90164952D01*
X148700992Y-90202987D01*
X149656800Y-91158795D01*
X149670943Y-91144653D01*
X149850548Y-91324258D01*
X149836405Y-91338400D01*
X149850548Y-91352543D01*
X149670943Y-91532148D01*
X149656800Y-91518005D01*
X149642658Y-91532148D01*
X149463053Y-91352543D01*
X149477195Y-91338400D01*
X148521387Y-90382592D01*
X148385600Y-90431773D01*
X148249813Y-90382592D01*
X147294005Y-91338400D01*
X147308148Y-91352543D01*
X147128543Y-91532148D01*
X147114400Y-91518005D01*
X147100258Y-91532148D01*
X146920653Y-91352543D01*
X146934795Y-91338400D01*
X145978987Y-90382592D01*
X145714586Y-90478356D01*
X145573696Y-90767971D01*
X145492016Y-91079508D01*
X145472682Y-91400995D01*
X145516439Y-91720075D01*
X145621605Y-92024488D01*
X145714586Y-92198444D01*
X145760380Y-92215030D01*
X142699401Y-95276010D01*
X142699401Y-90190323D01*
X142703077Y-90153000D01*
X142699401Y-90115677D01*
X142699401Y-90115668D01*
X142688404Y-90004015D01*
X142644947Y-89860754D01*
X142574375Y-89728725D01*
X142479402Y-89613000D01*
X142450398Y-89589197D01*
X142180577Y-89319376D01*
X142186568Y-89304912D01*
X142249400Y-88989033D01*
X142249400Y-88666967D01*
X142186568Y-88351088D01*
X142063318Y-88053537D01*
X141884387Y-87785748D01*
X141656652Y-87558013D01*
X141388863Y-87379082D01*
X141091312Y-87255832D01*
X140775433Y-87193000D01*
X140453367Y-87193000D01*
X140137488Y-87255832D01*
X139839937Y-87379082D01*
X139572148Y-87558013D01*
X139344413Y-87785748D01*
X139165482Y-88053537D01*
X139042232Y-88351088D01*
X138979400Y-88666967D01*
X138979400Y-88989033D01*
X139042232Y-89304912D01*
X139165482Y-89602463D01*
X139344413Y-89870252D01*
X139572148Y-90097987D01*
X139672368Y-90164952D01*
X139658592Y-90202987D01*
X140614400Y-91158795D01*
X140628543Y-91144653D01*
X140808148Y-91324258D01*
X140794005Y-91338400D01*
X140808148Y-91352543D01*
X140628543Y-91532148D01*
X140614400Y-91518005D01*
X139658592Y-92473813D01*
X139754356Y-92738214D01*
X140043971Y-92879104D01*
X140355508Y-92960784D01*
X140676995Y-92980118D01*
X140996075Y-92936361D01*
X141179402Y-92873027D01*
X141179401Y-94302720D01*
X141091312Y-94266232D01*
X140775433Y-94203400D01*
X140453367Y-94203400D01*
X140137488Y-94266232D01*
X140123025Y-94272223D01*
X138631200Y-92780399D01*
X138631200Y-92675112D01*
X138634876Y-92637787D01*
X138631200Y-92600462D01*
X138631200Y-91400995D01*
X138972682Y-91400995D01*
X139016439Y-91720075D01*
X139121605Y-92024488D01*
X139214586Y-92198444D01*
X139478987Y-92294208D01*
X140434795Y-91338400D01*
X139478987Y-90382592D01*
X139214586Y-90478356D01*
X139073696Y-90767971D01*
X138992016Y-91079508D01*
X138972682Y-91400995D01*
X138631200Y-91400995D01*
X138631200Y-85463413D01*
X139658592Y-85463413D01*
X139754356Y-85727814D01*
X140043971Y-85868704D01*
X140355508Y-85950384D01*
X140676995Y-85969718D01*
X140996075Y-85925961D01*
X141300488Y-85820795D01*
X141474444Y-85727814D01*
X141570208Y-85463413D01*
X146158592Y-85463413D01*
X146254356Y-85727814D01*
X146543971Y-85868704D01*
X146855508Y-85950384D01*
X147176995Y-85969718D01*
X147496075Y-85925961D01*
X147800488Y-85820795D01*
X147974444Y-85727814D01*
X148070208Y-85463413D01*
X148700992Y-85463413D01*
X148796756Y-85727814D01*
X149086371Y-85868704D01*
X149397908Y-85950384D01*
X149719395Y-85969718D01*
X150038475Y-85925961D01*
X150342888Y-85820795D01*
X150516844Y-85727814D01*
X150612608Y-85463413D01*
X155200992Y-85463413D01*
X155296756Y-85727814D01*
X155586371Y-85868704D01*
X155897908Y-85950384D01*
X156219395Y-85969718D01*
X156538475Y-85925961D01*
X156842888Y-85820795D01*
X157016844Y-85727814D01*
X157112608Y-85463413D01*
X156156800Y-84507605D01*
X155200992Y-85463413D01*
X150612608Y-85463413D01*
X149656800Y-84507605D01*
X148700992Y-85463413D01*
X148070208Y-85463413D01*
X147114400Y-84507605D01*
X146158592Y-85463413D01*
X141570208Y-85463413D01*
X140614400Y-84507605D01*
X139658592Y-85463413D01*
X138631200Y-85463413D01*
X138631200Y-83498820D01*
X139199571Y-83498820D01*
X139073696Y-83757571D01*
G36*
X159817176Y-76872154D02*
G01*
X159898470Y-76882878D01*
X159979365Y-76896359D01*
X160059686Y-76912569D01*
X160139498Y-76931521D01*
X160218534Y-76953151D01*
X160296830Y-76977468D01*
X160374261Y-77004434D01*
X160450734Y-77034017D01*
X160526139Y-77066175D01*
X160600414Y-77100881D01*
X160673501Y-77138110D01*
X160719845Y-77163736D01*
X160464779Y-77113000D01*
X160044221Y-77113000D01*
X159631744Y-77195047D01*
X159243198Y-77355988D01*
X158893517Y-77589637D01*
X158596137Y-77887017D01*
X158362488Y-78236698D01*
X158201547Y-78625244D01*
X158119500Y-79037721D01*
X158119500Y-79458279D01*
X158201547Y-79870756D01*
X158362488Y-80259302D01*
X158596137Y-80608983D01*
X158893517Y-80906363D01*
X159243198Y-81140012D01*
X159631744Y-81300953D01*
X160044221Y-81383000D01*
X160464779Y-81383000D01*
X160877256Y-81300953D01*
X161265802Y-81140012D01*
X161615483Y-80906363D01*
X161912863Y-80608983D01*
X161952912Y-80549045D01*
X161952912Y-81661754D01*
X161858082Y-81632988D01*
X161733600Y-81620728D01*
X160033600Y-81620728D01*
X159909118Y-81632988D01*
X159789420Y-81669298D01*
X159679106Y-81728263D01*
X159582415Y-81807615D01*
X159503063Y-81904306D01*
X159462620Y-81979969D01*
X159450953Y-81978820D01*
X159450942Y-81978820D01*
X159413620Y-81975144D01*
X159376298Y-81978820D01*
X155782420Y-81978820D01*
X156026974Y-81892572D01*
X156170475Y-81815868D01*
X156251135Y-81564240D01*
X155384500Y-80697605D01*
X155370358Y-80711748D01*
X155190753Y-80532143D01*
X155204895Y-80518000D01*
X155564105Y-80518000D01*
X156430740Y-81384635D01*
X156682368Y-81303975D01*
X156810767Y-81035671D01*
X156884355Y-80747474D01*
X156900304Y-80450457D01*
X156858001Y-80156037D01*
X156759072Y-79875526D01*
X156682368Y-79732025D01*
X156430740Y-79651365D01*
X155564105Y-80518000D01*
X155204895Y-80518000D01*
X155190753Y-80503858D01*
X155370358Y-80324253D01*
X155384500Y-80338395D01*
X156251135Y-79471760D01*
X156183347Y-79260288D01*
X156347069Y-79150893D01*
X156557393Y-78940569D01*
X156722644Y-78693253D01*
X156836471Y-78418451D01*
X156894500Y-78126722D01*
X156894500Y-77829278D01*
X156836471Y-77537549D01*
X156722644Y-77262747D01*
X156557393Y-77015431D01*
X156406997Y-76865035D01*
X159744133Y-76865035D01*
X159817176Y-76872154D01*
X159817176Y-76872154D01*
G37*
X159817176Y-76872154D02*
X159898470Y-76882878D01*
X159979365Y-76896359D01*
X160059686Y-76912569D01*
X160139498Y-76931521D01*
X160218534Y-76953151D01*
X160296830Y-76977468D01*
X160374261Y-77004434D01*
X160450734Y-77034017D01*
X160526139Y-77066175D01*
X160600414Y-77100881D01*
X160673501Y-77138110D01*
X160719845Y-77163736D01*
X160464779Y-77113000D01*
X160044221Y-77113000D01*
X159631744Y-77195047D01*
X159243198Y-77355988D01*
X158893517Y-77589637D01*
X158596137Y-77887017D01*
X158362488Y-78236698D01*
X158201547Y-78625244D01*
X158119500Y-79037721D01*
X158119500Y-79458279D01*
X158201547Y-79870756D01*
X158362488Y-80259302D01*
X158596137Y-80608983D01*
X158893517Y-80906363D01*
X159243198Y-81140012D01*
X159631744Y-81300953D01*
X160044221Y-81383000D01*
X160464779Y-81383000D01*
X160877256Y-81300953D01*
X161265802Y-81140012D01*
X161615483Y-80906363D01*
X161912863Y-80608983D01*
X161952912Y-80549045D01*
X161952912Y-81661754D01*
X161858082Y-81632988D01*
X161733600Y-81620728D01*
X160033600Y-81620728D01*
X159909118Y-81632988D01*
X159789420Y-81669298D01*
X159679106Y-81728263D01*
X159582415Y-81807615D01*
X159503063Y-81904306D01*
X159462620Y-81979969D01*
X159450953Y-81978820D01*
X159450942Y-81978820D01*
X159413620Y-81975144D01*
X159376298Y-81978820D01*
X155782420Y-81978820D01*
X156026974Y-81892572D01*
X156170475Y-81815868D01*
X156251135Y-81564240D01*
X155384500Y-80697605D01*
X155370358Y-80711748D01*
X155190753Y-80532143D01*
X155204895Y-80518000D01*
X155564105Y-80518000D01*
X156430740Y-81384635D01*
X156682368Y-81303975D01*
X156810767Y-81035671D01*
X156884355Y-80747474D01*
X156900304Y-80450457D01*
X156858001Y-80156037D01*
X156759072Y-79875526D01*
X156682368Y-79732025D01*
X156430740Y-79651365D01*
X155564105Y-80518000D01*
X155204895Y-80518000D01*
X155190753Y-80503858D01*
X155370358Y-80324253D01*
X155384500Y-80338395D01*
X156251135Y-79471760D01*
X156183347Y-79260288D01*
X156347069Y-79150893D01*
X156557393Y-78940569D01*
X156722644Y-78693253D01*
X156836471Y-78418451D01*
X156894500Y-78126722D01*
X156894500Y-77829278D01*
X156836471Y-77537549D01*
X156722644Y-77262747D01*
X156557393Y-77015431D01*
X156406997Y-76865035D01*
X159744133Y-76865035D01*
X159817176Y-76872154D01*
G36*
X116111607Y-78940569D02*
G01*
X116321931Y-79150893D01*
X116485653Y-79260288D01*
X116417865Y-79471760D01*
X117284500Y-80338395D01*
X117298643Y-80324253D01*
X117478248Y-80503858D01*
X117464105Y-80518000D01*
X117478248Y-80532143D01*
X117298643Y-80711748D01*
X117284500Y-80697605D01*
X116417865Y-81564240D01*
X116498525Y-81815868D01*
X116550623Y-81840800D01*
X115482717Y-81840800D01*
X115707069Y-81690893D01*
X115917393Y-81480569D01*
X116026788Y-81316847D01*
X116238260Y-81384635D01*
X117104895Y-80518000D01*
X116238260Y-79651365D01*
X116026788Y-79719153D01*
X115917393Y-79555431D01*
X115707069Y-79345107D01*
X115561738Y-79248000D01*
X115707069Y-79150893D01*
X115917393Y-78940569D01*
X116014500Y-78795238D01*
X116111607Y-78940569D01*
X116111607Y-78940569D01*
G37*
X116111607Y-78940569D02*
X116321931Y-79150893D01*
X116485653Y-79260288D01*
X116417865Y-79471760D01*
X117284500Y-80338395D01*
X117298643Y-80324253D01*
X117478248Y-80503858D01*
X117464105Y-80518000D01*
X117478248Y-80532143D01*
X117298643Y-80711748D01*
X117284500Y-80697605D01*
X116417865Y-81564240D01*
X116498525Y-81815868D01*
X116550623Y-81840800D01*
X115482717Y-81840800D01*
X115707069Y-81690893D01*
X115917393Y-81480569D01*
X116026788Y-81316847D01*
X116238260Y-81384635D01*
X117104895Y-80518000D01*
X116238260Y-79651365D01*
X116026788Y-79719153D01*
X115917393Y-79555431D01*
X115707069Y-79345107D01*
X115561738Y-79248000D01*
X115707069Y-79150893D01*
X115917393Y-78940569D01*
X116014500Y-78795238D01*
X116111607Y-78940569D01*
G36*
X138971607Y-78940569D02*
G01*
X139181931Y-79150893D01*
X139327262Y-79248000D01*
X139181931Y-79345107D01*
X138971607Y-79555431D01*
X138862212Y-79719153D01*
X138650740Y-79651365D01*
X137784105Y-80518000D01*
X137798248Y-80532143D01*
X137618643Y-80711748D01*
X137604500Y-80697605D01*
X137590358Y-80711748D01*
X137410753Y-80532143D01*
X137424895Y-80518000D01*
X136558260Y-79651365D01*
X136346788Y-79719153D01*
X136237393Y-79555431D01*
X136027069Y-79345107D01*
X135881738Y-79248000D01*
X136027069Y-79150893D01*
X136237393Y-78940569D01*
X136334500Y-78795238D01*
X136431607Y-78940569D01*
X136641931Y-79150893D01*
X136805653Y-79260288D01*
X136737865Y-79471760D01*
X137604500Y-80338395D01*
X138471135Y-79471760D01*
X138403347Y-79260288D01*
X138567069Y-79150893D01*
X138777393Y-78940569D01*
X138874500Y-78795238D01*
X138971607Y-78940569D01*
X138971607Y-78940569D01*
G37*
X138971607Y-78940569D02*
X139181931Y-79150893D01*
X139327262Y-79248000D01*
X139181931Y-79345107D01*
X138971607Y-79555431D01*
X138862212Y-79719153D01*
X138650740Y-79651365D01*
X137784105Y-80518000D01*
X137798248Y-80532143D01*
X137618643Y-80711748D01*
X137604500Y-80697605D01*
X137590358Y-80711748D01*
X137410753Y-80532143D01*
X137424895Y-80518000D01*
X136558260Y-79651365D01*
X136346788Y-79719153D01*
X136237393Y-79555431D01*
X136027069Y-79345107D01*
X135881738Y-79248000D01*
X136027069Y-79150893D01*
X136237393Y-78940569D01*
X136334500Y-78795238D01*
X136431607Y-78940569D01*
X136641931Y-79150893D01*
X136805653Y-79260288D01*
X136737865Y-79471760D01*
X137604500Y-80338395D01*
X138471135Y-79471760D01*
X138403347Y-79260288D01*
X138567069Y-79150893D01*
X138777393Y-78940569D01*
X138874500Y-78795238D01*
X138971607Y-78940569D01*
G36*
X121497865Y-76931760D02*
G01*
X122364500Y-77798395D01*
X123231135Y-76931760D01*
X123209746Y-76865035D01*
X123882003Y-76865035D01*
X123731607Y-77015431D01*
X123622212Y-77179153D01*
X123410740Y-77111365D01*
X122544105Y-77978000D01*
X123410740Y-78844635D01*
X123622212Y-78776847D01*
X123731607Y-78940569D01*
X123941931Y-79150893D01*
X124087262Y-79248000D01*
X123941931Y-79345107D01*
X123731607Y-79555431D01*
X123634500Y-79700762D01*
X123537393Y-79555431D01*
X123327069Y-79345107D01*
X123163347Y-79235712D01*
X123231135Y-79024240D01*
X122364500Y-78157605D01*
X121497865Y-79024240D01*
X121565653Y-79235712D01*
X121401931Y-79345107D01*
X121191607Y-79555431D01*
X121094500Y-79700762D01*
X120997393Y-79555431D01*
X120787069Y-79345107D01*
X120641738Y-79248000D01*
X120787069Y-79150893D01*
X120997393Y-78940569D01*
X121106788Y-78776847D01*
X121318260Y-78844635D01*
X122184895Y-77978000D01*
X121318260Y-77111365D01*
X121106788Y-77179153D01*
X120997393Y-77015431D01*
X120846997Y-76865035D01*
X121519254Y-76865035D01*
X121497865Y-76931760D01*
X121497865Y-76931760D01*
G37*
X121497865Y-76931760D02*
X122364500Y-77798395D01*
X123231135Y-76931760D01*
X123209746Y-76865035D01*
X123882003Y-76865035D01*
X123731607Y-77015431D01*
X123622212Y-77179153D01*
X123410740Y-77111365D01*
X122544105Y-77978000D01*
X123410740Y-78844635D01*
X123622212Y-78776847D01*
X123731607Y-78940569D01*
X123941931Y-79150893D01*
X124087262Y-79248000D01*
X123941931Y-79345107D01*
X123731607Y-79555431D01*
X123634500Y-79700762D01*
X123537393Y-79555431D01*
X123327069Y-79345107D01*
X123163347Y-79235712D01*
X123231135Y-79024240D01*
X122364500Y-78157605D01*
X121497865Y-79024240D01*
X121565653Y-79235712D01*
X121401931Y-79345107D01*
X121191607Y-79555431D01*
X121094500Y-79700762D01*
X120997393Y-79555431D01*
X120787069Y-79345107D01*
X120641738Y-79248000D01*
X120787069Y-79150893D01*
X120997393Y-78940569D01*
X121106788Y-78776847D01*
X121318260Y-78844635D01*
X122184895Y-77978000D01*
X121318260Y-77111365D01*
X121106788Y-77179153D01*
X120997393Y-77015431D01*
X120846997Y-76865035D01*
X121519254Y-76865035D01*
X121497865Y-76931760D01*
M02*
