M48
; DRILL file {KiCad (5.1.9-0-10_14)} date Thursday, February 18, 2021 at 09:56:58 AM
; FORMAT={-:-/ absolute / inch / decimal}
; #@! TF.CreationDate,2021-02-18T09:56:58+00:00
; #@! TF.GenerationSoftware,Kicad,Pcbnew,(5.1.9-0-10_14)
; #@! TF.FileFunction,Plated,1,2,PTH
FMAT,2
INCH
T1C0.0157
T2C0.0315
T3C0.0394
T4C0.0400
T5C0.0433
T6C0.0472
T7C0.0512
%
G90
G05
T1
X4.45Y-4.61
X4.55Y-4.47
X4.66Y-3.85
X4.7485Y-3.95
X5.22Y-4.16
X6.366Y-4.264
T2
X5.5Y-3.97
X5.5Y-4.37
X5.743Y-3.942
X5.7431Y-4.072
X5.7431Y-4.372
X5.8431Y-4.072
X5.8431Y-4.372
X5.9399Y-3.942
X5.9431Y-4.072
X5.9431Y-4.372
X6.18Y-3.97
X6.18Y-4.37
X6.334Y-3.97
X6.334Y-4.37
T3
X4.17Y-3.85
X4.17Y-3.95
X4.17Y-4.05
X4.17Y-4.15
X4.17Y-4.59
X4.17Y-4.69
X4.17Y-4.79
X4.17Y-4.89
X4.17Y-4.99
X4.17Y-5.09
X4.25Y-4.32
X4.35Y-4.32
X4.45Y-4.32
X4.55Y-4.32
X4.65Y-4.32
X4.702Y-4.15
X4.75Y-4.32
X4.75Y-5.13
X4.802Y-4.15
X4.85Y-4.32
X4.902Y-4.15
X4.95Y-4.32
X5.002Y-4.15
X5.05Y-4.32
X5.12Y-4.57
X5.15Y-4.32
X5.25Y-4.32
X6.334Y-3.272
X6.334Y-3.372
X6.334Y-3.472
X6.334Y-3.572
X6.334Y-3.672
X6.334Y-3.772
T4
X4.2175Y-3.07
X4.2175Y-3.17
X4.3175Y-3.07
X4.3175Y-3.17
X4.4175Y-3.07
X4.4175Y-3.17
X4.5175Y-3.07
X4.5175Y-3.17
X4.6175Y-3.07
X4.6175Y-3.17
X4.7175Y-3.07
X4.7175Y-3.17
X4.8175Y-3.07
X4.8175Y-3.17
X4.9175Y-3.07
X4.9175Y-3.17
X5.0175Y-3.07
X5.0175Y-3.17
X5.1175Y-3.07
X5.1175Y-3.17
X5.2175Y-3.07
X5.2175Y-3.17
X5.3175Y-3.07
X5.3175Y-3.17
X5.4175Y-3.07
X5.4175Y-3.17
X5.5175Y-3.07
X5.5175Y-3.17
X5.6175Y-3.07
X5.6175Y-3.17
X5.7175Y-3.07
X5.7175Y-3.17
X5.8175Y-3.07
X5.8175Y-3.17
X5.9175Y-3.07
X5.9175Y-3.17
X6.0175Y-3.07
X6.0175Y-3.17
X6.1175Y-3.07
X6.1175Y-3.17
T5
X4.344Y-3.3801
X4.344Y-3.636
X4.5212Y-3.3801
X4.5212Y-3.636
X4.624Y-3.3801
X4.624Y-3.636
X4.8012Y-3.3801
X4.8012Y-3.636
X4.904Y-3.3801
X4.904Y-3.636
X5.0812Y-3.3801
X5.0812Y-3.636
X5.184Y-3.3801
X5.184Y-3.636
X5.3612Y-3.3801
X5.3612Y-3.636
X5.536Y-3.32
X5.536Y-3.4972
X5.536Y-3.596
X5.536Y-3.7732
X5.7919Y-3.32
X5.7919Y-3.4972
X5.7919Y-3.596
X5.7919Y-3.7732
X5.892Y-3.32
X5.892Y-3.4972
X5.892Y-3.596
X5.892Y-3.7732
X6.1479Y-3.32
X6.1479Y-3.4972
X6.1479Y-3.596
X6.1479Y-3.7732
T6
X5.6303Y-5.058
X5.7287Y-5.0698
X5.9256Y-5.0698
X6.024Y-5.058
T7
X5.5319Y-4.6761
X5.6303Y-4.5777
X5.8271Y-4.6761
X6.024Y-4.5777
X6.1224Y-4.6761
T0
M30
