M48
; DRILL file {KiCad (5.1.4-0-10_14)} date Saturday, 05 December 2020 at 11:56:50
; FORMAT={-:-/ absolute / inch / decimal}
; #@! TF.CreationDate,2020-12-05T11:56:50+00:00
; #@! TF.GenerationSoftware,Kicad,Pcbnew,(5.1.4-0-10_14)
; #@! TF.FileFunction,Plated,1,2,PTH
FMAT,2
INCH
T1C0.0157
T2C0.0315
T3C0.0394
T4C0.0400
T5C0.0472
T6C0.0512
%
G90
G05
T1
X4.45Y-4.61
X4.55Y-4.47
X4.66Y-3.85
X4.77Y-3.95
X5.47Y-3.23
T2
X5.7431Y-3.97
X5.7431Y-4.27
X5.8431Y-3.97
X5.8431Y-4.27
X5.9431Y-3.97
X5.9431Y-4.27
X5.5Y-3.97
X5.5Y-4.37
X5.743Y-3.84
X5.9399Y-3.84
X6.334Y-3.97
X6.18Y-3.97
X6.18Y-4.37
X6.334Y-4.37
T3
X5.12Y-4.57
X4.42Y-3.71
X4.25Y-4.32
X4.45Y-4.32
X4.55Y-4.32
X4.65Y-4.32
X4.75Y-4.32
X4.85Y-4.32
X4.95Y-4.32
X5.05Y-4.32
X5.15Y-4.32
X5.25Y-4.32
X4.75Y-5.13
X4.35Y-4.32
X4.52Y-3.71
X4.62Y-3.71
X4.72Y-3.71
X4.82Y-3.71
X4.92Y-3.71
X5.02Y-3.71
X5.12Y-3.71
X5.22Y-3.71
X5.32Y-3.71
X4.17Y-3.85
X4.17Y-4.59
X4.17Y-4.69
X4.17Y-4.79
X4.17Y-4.89
X4.17Y-4.99
X4.17Y-5.09
X4.72Y-4.15
X4.82Y-4.15
X4.92Y-4.15
X5.02Y-4.15
X4.17Y-3.95
X4.17Y-4.05
X4.17Y-4.15
T4
X4.2175Y-3.07
X4.2175Y-3.17
X4.3175Y-3.07
X4.3175Y-3.17
X4.4175Y-3.07
X4.4175Y-3.17
X4.5175Y-3.07
X4.5175Y-3.17
X4.6175Y-3.07
X4.6175Y-3.17
X4.7175Y-3.07
X4.7175Y-3.17
X4.8175Y-3.07
X4.8175Y-3.17
X4.9175Y-3.07
X4.9175Y-3.17
X5.0175Y-3.07
X5.0175Y-3.17
X5.1175Y-3.07
X5.1175Y-3.17
X5.2175Y-3.07
X5.2175Y-3.17
X5.3175Y-3.07
X5.3175Y-3.17
X5.4175Y-3.07
X5.4175Y-3.17
X5.5175Y-3.07
X5.5175Y-3.17
X5.6175Y-3.07
X5.6175Y-3.17
X5.7175Y-3.07
X5.7175Y-3.17
X5.8175Y-3.07
X5.8175Y-3.17
X5.9175Y-3.07
X5.9175Y-3.17
X6.0175Y-3.07
X6.0175Y-3.17
X6.1175Y-3.07
X6.1175Y-3.17
T5
X5.6463Y-5.0769
X5.7447Y-5.0887
X5.9416Y-5.0887
X6.04Y-5.0769
T6
X5.5479Y-4.695
X5.6463Y-4.5966
X5.8431Y-4.695
X6.04Y-4.5966
X6.1384Y-4.695
T0
M30
