G04 #@! TF.GenerationSoftware,KiCad,Pcbnew,(5.1.4-0-10_14)*
G04 #@! TF.CreationDate,2020-12-05T11:56:47+00:00*
G04 #@! TF.ProjectId,mt32-pi-midi-hat,6d743332-2d70-4692-9d6d-6964692d6861,rev?*
G04 #@! TF.SameCoordinates,Original*
G04 #@! TF.FileFunction,Legend,Top*
G04 #@! TF.FilePolarity,Positive*
%FSLAX46Y46*%
G04 Gerber Fmt 4.6, Leading zero omitted, Abs format (unit mm)*
G04 Created by KiCad (PCBNEW (5.1.4-0-10_14)) date 2020-12-05 11:56:47*
%MOMM*%
%LPD*%
G04 APERTURE LIST*
%ADD10C,0.120000*%
%ADD11C,0.150000*%
%ADD12C,0.100000*%
%ADD13C,0.140000*%
G04 APERTURE END LIST*
D10*
X127108000Y-103479523D02*
X127069904Y-103555714D01*
X127069904Y-103670000D01*
X127108000Y-103784285D01*
X127184190Y-103860476D01*
X127260380Y-103898571D01*
X127412761Y-103936666D01*
X127527047Y-103936666D01*
X127679428Y-103898571D01*
X127755619Y-103860476D01*
X127831809Y-103784285D01*
X127869904Y-103670000D01*
X127869904Y-103593809D01*
X127831809Y-103479523D01*
X127793714Y-103441428D01*
X127527047Y-103441428D01*
X127527047Y-103593809D01*
X127869904Y-103098571D02*
X127069904Y-103098571D01*
X127869904Y-102641428D01*
X127069904Y-102641428D01*
X127869904Y-102260476D02*
X127069904Y-102260476D01*
X127069904Y-102070000D01*
X127108000Y-101955714D01*
X127184190Y-101879523D01*
X127260380Y-101841428D01*
X127412761Y-101803333D01*
X127527047Y-101803333D01*
X127679428Y-101841428D01*
X127755619Y-101879523D01*
X127831809Y-101955714D01*
X127869904Y-102070000D01*
X127869904Y-102260476D01*
X125025142Y-103860476D02*
X125025142Y-103250952D01*
X125329904Y-103555714D02*
X124720380Y-103555714D01*
X124529904Y-102489047D02*
X124529904Y-102870000D01*
X124910857Y-102908095D01*
X124872761Y-102870000D01*
X124834666Y-102793809D01*
X124834666Y-102603333D01*
X124872761Y-102527142D01*
X124910857Y-102489047D01*
X124987047Y-102450952D01*
X125177523Y-102450952D01*
X125253714Y-102489047D01*
X125291809Y-102527142D01*
X125329904Y-102603333D01*
X125329904Y-102793809D01*
X125291809Y-102870000D01*
X125253714Y-102908095D01*
X124796571Y-102184285D02*
X125329904Y-101993809D01*
X124796571Y-101803333D01*
X122751809Y-103822380D02*
X122789904Y-103708095D01*
X122789904Y-103517619D01*
X122751809Y-103441428D01*
X122713714Y-103403333D01*
X122637523Y-103365238D01*
X122561333Y-103365238D01*
X122485142Y-103403333D01*
X122447047Y-103441428D01*
X122408952Y-103517619D01*
X122370857Y-103670000D01*
X122332761Y-103746190D01*
X122294666Y-103784285D01*
X122218476Y-103822380D01*
X122142285Y-103822380D01*
X122066095Y-103784285D01*
X122028000Y-103746190D01*
X121989904Y-103670000D01*
X121989904Y-103479523D01*
X122028000Y-103365238D01*
X122713714Y-102565238D02*
X122751809Y-102603333D01*
X122789904Y-102717619D01*
X122789904Y-102793809D01*
X122751809Y-102908095D01*
X122675619Y-102984285D01*
X122599428Y-103022380D01*
X122447047Y-103060476D01*
X122332761Y-103060476D01*
X122180380Y-103022380D01*
X122104190Y-102984285D01*
X122028000Y-102908095D01*
X121989904Y-102793809D01*
X121989904Y-102717619D01*
X122028000Y-102603333D01*
X122066095Y-102565238D01*
X122789904Y-101841428D02*
X122789904Y-102222380D01*
X121989904Y-102222380D01*
X120211809Y-103841428D02*
X120249904Y-103727142D01*
X120249904Y-103536666D01*
X120211809Y-103460476D01*
X120173714Y-103422380D01*
X120097523Y-103384285D01*
X120021333Y-103384285D01*
X119945142Y-103422380D01*
X119907047Y-103460476D01*
X119868952Y-103536666D01*
X119830857Y-103689047D01*
X119792761Y-103765238D01*
X119754666Y-103803333D01*
X119678476Y-103841428D01*
X119602285Y-103841428D01*
X119526095Y-103803333D01*
X119488000Y-103765238D01*
X119449904Y-103689047D01*
X119449904Y-103498571D01*
X119488000Y-103384285D01*
X120249904Y-103041428D02*
X119449904Y-103041428D01*
X119449904Y-102850952D01*
X119488000Y-102736666D01*
X119564190Y-102660476D01*
X119640380Y-102622380D01*
X119792761Y-102584285D01*
X119907047Y-102584285D01*
X120059428Y-102622380D01*
X120135619Y-102660476D01*
X120211809Y-102736666D01*
X120249904Y-102850952D01*
X120249904Y-103041428D01*
X120021333Y-102279523D02*
X120021333Y-101898571D01*
X120249904Y-102355714D02*
X119449904Y-102089047D01*
X120249904Y-101822380D01*
D11*
X99115619Y-81223809D02*
X100115619Y-81223809D01*
X99115619Y-81652380D02*
X99639428Y-81652380D01*
X99734666Y-81604761D01*
X99782285Y-81509523D01*
X99782285Y-81366666D01*
X99734666Y-81271428D01*
X99687047Y-81223809D01*
X99782285Y-81985714D02*
X99782285Y-82366666D01*
X100115619Y-82128571D02*
X99258476Y-82128571D01*
X99163238Y-82176190D01*
X99115619Y-82271428D01*
X99115619Y-82366666D01*
X99782285Y-82557142D02*
X99782285Y-82938095D01*
X100115619Y-82700000D02*
X99258476Y-82700000D01*
X99163238Y-82747619D01*
X99115619Y-82842857D01*
X99115619Y-82938095D01*
X99782285Y-83271428D02*
X98782285Y-83271428D01*
X99734666Y-83271428D02*
X99782285Y-83366666D01*
X99782285Y-83557142D01*
X99734666Y-83652380D01*
X99687047Y-83700000D01*
X99591809Y-83747619D01*
X99306095Y-83747619D01*
X99210857Y-83700000D01*
X99163238Y-83652380D01*
X99115619Y-83557142D01*
X99115619Y-83366666D01*
X99163238Y-83271428D01*
X99163238Y-84128571D02*
X99115619Y-84223809D01*
X99115619Y-84414285D01*
X99163238Y-84509523D01*
X99258476Y-84557142D01*
X99306095Y-84557142D01*
X99401333Y-84509523D01*
X99448952Y-84414285D01*
X99448952Y-84271428D01*
X99496571Y-84176190D01*
X99591809Y-84128571D01*
X99639428Y-84128571D01*
X99734666Y-84176190D01*
X99782285Y-84271428D01*
X99782285Y-84414285D01*
X99734666Y-84509523D01*
X99210857Y-84985714D02*
X99163238Y-85033333D01*
X99115619Y-84985714D01*
X99163238Y-84938095D01*
X99210857Y-84985714D01*
X99115619Y-84985714D01*
X99734666Y-84985714D02*
X99687047Y-85033333D01*
X99639428Y-84985714D01*
X99687047Y-84938095D01*
X99734666Y-84985714D01*
X99639428Y-84985714D01*
X100163238Y-86176190D02*
X98877523Y-85319047D01*
X100163238Y-87223809D02*
X98877523Y-86366666D01*
X99782285Y-87985714D02*
X98972761Y-87985714D01*
X98877523Y-87938095D01*
X98829904Y-87890476D01*
X98782285Y-87795238D01*
X98782285Y-87652380D01*
X98829904Y-87557142D01*
X99163238Y-87985714D02*
X99115619Y-87890476D01*
X99115619Y-87700000D01*
X99163238Y-87604761D01*
X99210857Y-87557142D01*
X99306095Y-87509523D01*
X99591809Y-87509523D01*
X99687047Y-87557142D01*
X99734666Y-87604761D01*
X99782285Y-87700000D01*
X99782285Y-87890476D01*
X99734666Y-87985714D01*
X99115619Y-88461904D02*
X99782285Y-88461904D01*
X100115619Y-88461904D02*
X100068000Y-88414285D01*
X100020380Y-88461904D01*
X100068000Y-88509523D01*
X100115619Y-88461904D01*
X100020380Y-88461904D01*
X99782285Y-88795238D02*
X99782285Y-89176190D01*
X100115619Y-88938095D02*
X99258476Y-88938095D01*
X99163238Y-88985714D01*
X99115619Y-89080952D01*
X99115619Y-89176190D01*
X99115619Y-89509523D02*
X100115619Y-89509523D01*
X99115619Y-89938095D02*
X99639428Y-89938095D01*
X99734666Y-89890476D01*
X99782285Y-89795238D01*
X99782285Y-89652380D01*
X99734666Y-89557142D01*
X99687047Y-89509523D01*
X99782285Y-90842857D02*
X99115619Y-90842857D01*
X99782285Y-90414285D02*
X99258476Y-90414285D01*
X99163238Y-90461904D01*
X99115619Y-90557142D01*
X99115619Y-90700000D01*
X99163238Y-90795238D01*
X99210857Y-90842857D01*
X99115619Y-91319047D02*
X100115619Y-91319047D01*
X99734666Y-91319047D02*
X99782285Y-91414285D01*
X99782285Y-91604761D01*
X99734666Y-91700000D01*
X99687047Y-91747619D01*
X99591809Y-91795238D01*
X99306095Y-91795238D01*
X99210857Y-91747619D01*
X99163238Y-91700000D01*
X99115619Y-91604761D01*
X99115619Y-91414285D01*
X99163238Y-91319047D01*
X99210857Y-92223809D02*
X99163238Y-92271428D01*
X99115619Y-92223809D01*
X99163238Y-92176190D01*
X99210857Y-92223809D01*
X99115619Y-92223809D01*
X99163238Y-93128571D02*
X99115619Y-93033333D01*
X99115619Y-92842857D01*
X99163238Y-92747619D01*
X99210857Y-92700000D01*
X99306095Y-92652380D01*
X99591809Y-92652380D01*
X99687047Y-92700000D01*
X99734666Y-92747619D01*
X99782285Y-92842857D01*
X99782285Y-93033333D01*
X99734666Y-93128571D01*
X99115619Y-93700000D02*
X99163238Y-93604761D01*
X99210857Y-93557142D01*
X99306095Y-93509523D01*
X99591809Y-93509523D01*
X99687047Y-93557142D01*
X99734666Y-93604761D01*
X99782285Y-93700000D01*
X99782285Y-93842857D01*
X99734666Y-93938095D01*
X99687047Y-93985714D01*
X99591809Y-94033333D01*
X99306095Y-94033333D01*
X99210857Y-93985714D01*
X99163238Y-93938095D01*
X99115619Y-93842857D01*
X99115619Y-93700000D01*
X99115619Y-94461904D02*
X99782285Y-94461904D01*
X99687047Y-94461904D02*
X99734666Y-94509523D01*
X99782285Y-94604761D01*
X99782285Y-94747619D01*
X99734666Y-94842857D01*
X99639428Y-94890476D01*
X99115619Y-94890476D01*
X99639428Y-94890476D02*
X99734666Y-94938095D01*
X99782285Y-95033333D01*
X99782285Y-95176190D01*
X99734666Y-95271428D01*
X99639428Y-95319047D01*
X99115619Y-95319047D01*
X100163238Y-96509523D02*
X98877523Y-95652380D01*
X99163238Y-97271428D02*
X99115619Y-97176190D01*
X99115619Y-96985714D01*
X99163238Y-96890476D01*
X99210857Y-96842857D01*
X99306095Y-96795238D01*
X99591809Y-96795238D01*
X99687047Y-96842857D01*
X99734666Y-96890476D01*
X99782285Y-96985714D01*
X99782285Y-97176190D01*
X99734666Y-97271428D01*
X99115619Y-97700000D02*
X100115619Y-97700000D01*
X99115619Y-98128571D02*
X99639428Y-98128571D01*
X99734666Y-98080952D01*
X99782285Y-97985714D01*
X99782285Y-97842857D01*
X99734666Y-97747619D01*
X99687047Y-97700000D01*
X99115619Y-98604761D02*
X99782285Y-98604761D01*
X99591809Y-98604761D02*
X99687047Y-98652380D01*
X99734666Y-98700000D01*
X99782285Y-98795238D01*
X99782285Y-98890476D01*
X99115619Y-99223809D02*
X99782285Y-99223809D01*
X100115619Y-99223809D02*
X100068000Y-99176190D01*
X100020380Y-99223809D01*
X100068000Y-99271428D01*
X100115619Y-99223809D01*
X100020380Y-99223809D01*
X99163238Y-99652380D02*
X99115619Y-99747619D01*
X99115619Y-99938095D01*
X99163238Y-100033333D01*
X99258476Y-100080952D01*
X99306095Y-100080952D01*
X99401333Y-100033333D01*
X99448952Y-99938095D01*
X99448952Y-99795238D01*
X99496571Y-99700000D01*
X99591809Y-99652380D01*
X99639428Y-99652380D01*
X99734666Y-99700000D01*
X99782285Y-99795238D01*
X99782285Y-99938095D01*
X99734666Y-100033333D01*
X99496571Y-100509523D02*
X99496571Y-101271428D01*
X99782285Y-101747619D02*
X98925142Y-101747619D01*
X98829904Y-101700000D01*
X98782285Y-101604761D01*
X98782285Y-101557142D01*
X100115619Y-101747619D02*
X100068000Y-101700000D01*
X100020380Y-101747619D01*
X100068000Y-101795238D01*
X100115619Y-101747619D01*
X100020380Y-101747619D01*
X99115619Y-102223809D02*
X100115619Y-102223809D01*
X99115619Y-102652380D02*
X99639428Y-102652380D01*
X99734666Y-102604761D01*
X99782285Y-102509523D01*
X99782285Y-102366666D01*
X99734666Y-102271428D01*
X99687047Y-102223809D01*
X100163238Y-103842857D02*
X98877523Y-102985714D01*
X99115619Y-104176190D02*
X99782285Y-104176190D01*
X99687047Y-104176190D02*
X99734666Y-104223809D01*
X99782285Y-104319047D01*
X99782285Y-104461904D01*
X99734666Y-104557142D01*
X99639428Y-104604761D01*
X99115619Y-104604761D01*
X99639428Y-104604761D02*
X99734666Y-104652380D01*
X99782285Y-104747619D01*
X99782285Y-104890476D01*
X99734666Y-104985714D01*
X99639428Y-105033333D01*
X99115619Y-105033333D01*
X99782285Y-105366666D02*
X99782285Y-105747619D01*
X100115619Y-105509523D02*
X99258476Y-105509523D01*
X99163238Y-105557142D01*
X99115619Y-105652380D01*
X99115619Y-105747619D01*
X100115619Y-105985714D02*
X100115619Y-106604761D01*
X99734666Y-106271428D01*
X99734666Y-106414285D01*
X99687047Y-106509523D01*
X99639428Y-106557142D01*
X99544190Y-106604761D01*
X99306095Y-106604761D01*
X99210857Y-106557142D01*
X99163238Y-106509523D01*
X99115619Y-106414285D01*
X99115619Y-106128571D01*
X99163238Y-106033333D01*
X99210857Y-105985714D01*
X100020380Y-106985714D02*
X100068000Y-107033333D01*
X100115619Y-107128571D01*
X100115619Y-107366666D01*
X100068000Y-107461904D01*
X100020380Y-107509523D01*
X99925142Y-107557142D01*
X99829904Y-107557142D01*
X99687047Y-107509523D01*
X99115619Y-106938095D01*
X99115619Y-107557142D01*
X99496571Y-107985714D02*
X99496571Y-108747619D01*
X99782285Y-109223809D02*
X98782285Y-109223809D01*
X99734666Y-109223809D02*
X99782285Y-109319047D01*
X99782285Y-109509523D01*
X99734666Y-109604761D01*
X99687047Y-109652380D01*
X99591809Y-109700000D01*
X99306095Y-109700000D01*
X99210857Y-109652380D01*
X99163238Y-109604761D01*
X99115619Y-109509523D01*
X99115619Y-109319047D01*
X99163238Y-109223809D01*
X99115619Y-110128571D02*
X99782285Y-110128571D01*
X100115619Y-110128571D02*
X100068000Y-110080952D01*
X100020380Y-110128571D01*
X100068000Y-110176190D01*
X100115619Y-110128571D01*
X100020380Y-110128571D01*
X99496571Y-110604761D02*
X99496571Y-111366666D01*
X99115619Y-111842857D02*
X99782285Y-111842857D01*
X99687047Y-111842857D02*
X99734666Y-111890476D01*
X99782285Y-111985714D01*
X99782285Y-112128571D01*
X99734666Y-112223809D01*
X99639428Y-112271428D01*
X99115619Y-112271428D01*
X99639428Y-112271428D02*
X99734666Y-112319047D01*
X99782285Y-112414285D01*
X99782285Y-112557142D01*
X99734666Y-112652380D01*
X99639428Y-112700000D01*
X99115619Y-112700000D01*
X99115619Y-113176190D02*
X99782285Y-113176190D01*
X100115619Y-113176190D02*
X100068000Y-113128571D01*
X100020380Y-113176190D01*
X100068000Y-113223809D01*
X100115619Y-113176190D01*
X100020380Y-113176190D01*
X99115619Y-114080952D02*
X100115619Y-114080952D01*
X99163238Y-114080952D02*
X99115619Y-113985714D01*
X99115619Y-113795238D01*
X99163238Y-113700000D01*
X99210857Y-113652380D01*
X99306095Y-113604761D01*
X99591809Y-113604761D01*
X99687047Y-113652380D01*
X99734666Y-113700000D01*
X99782285Y-113795238D01*
X99782285Y-113985714D01*
X99734666Y-114080952D01*
X99115619Y-114557142D02*
X99782285Y-114557142D01*
X100115619Y-114557142D02*
X100068000Y-114509523D01*
X100020380Y-114557142D01*
X100068000Y-114604761D01*
X100115619Y-114557142D01*
X100020380Y-114557142D01*
X99496571Y-115033333D02*
X99496571Y-115795238D01*
X99115619Y-116271428D02*
X100115619Y-116271428D01*
X99115619Y-116700000D02*
X99639428Y-116700000D01*
X99734666Y-116652380D01*
X99782285Y-116557142D01*
X99782285Y-116414285D01*
X99734666Y-116319047D01*
X99687047Y-116271428D01*
X99115619Y-117604761D02*
X99639428Y-117604761D01*
X99734666Y-117557142D01*
X99782285Y-117461904D01*
X99782285Y-117271428D01*
X99734666Y-117176190D01*
X99163238Y-117604761D02*
X99115619Y-117509523D01*
X99115619Y-117271428D01*
X99163238Y-117176190D01*
X99258476Y-117128571D01*
X99353714Y-117128571D01*
X99448952Y-117176190D01*
X99496571Y-117271428D01*
X99496571Y-117509523D01*
X99544190Y-117604761D01*
X99782285Y-117938095D02*
X99782285Y-118319047D01*
X100115619Y-118080952D02*
X99258476Y-118080952D01*
X99163238Y-118128571D01*
X99115619Y-118223809D01*
X99115619Y-118319047D01*
D12*
X107121428Y-113547428D02*
X107721428Y-113147428D01*
X107121428Y-113147428D02*
X107721428Y-113547428D01*
X107721428Y-112918857D02*
X107121428Y-112918857D01*
X107550000Y-112718857D01*
X107121428Y-112518857D01*
X107721428Y-112518857D01*
X107121428Y-112318857D02*
X107121428Y-111976000D01*
X107721428Y-112147428D02*
X107121428Y-112147428D01*
X108950000Y-114176000D02*
X108921428Y-114204571D01*
X108835714Y-114261714D01*
X108778571Y-114290285D01*
X108692857Y-114318857D01*
X108550000Y-114347428D01*
X108435714Y-114347428D01*
X108292857Y-114318857D01*
X108207142Y-114290285D01*
X108150000Y-114261714D01*
X108064285Y-114204571D01*
X108035714Y-114176000D01*
X108492857Y-113947428D02*
X108492857Y-113490285D01*
X108721428Y-113718857D02*
X108264285Y-113718857D01*
X108121428Y-113261714D02*
X108121428Y-112890285D01*
X108350000Y-113090285D01*
X108350000Y-113004571D01*
X108378571Y-112947428D01*
X108407142Y-112918857D01*
X108464285Y-112890285D01*
X108607142Y-112890285D01*
X108664285Y-112918857D01*
X108692857Y-112947428D01*
X108721428Y-113004571D01*
X108721428Y-113176000D01*
X108692857Y-113233142D01*
X108664285Y-113261714D01*
X108664285Y-112633142D02*
X108692857Y-112604571D01*
X108721428Y-112633142D01*
X108692857Y-112661714D01*
X108664285Y-112633142D01*
X108721428Y-112633142D01*
X108121428Y-112404571D02*
X108121428Y-112033142D01*
X108350000Y-112233142D01*
X108350000Y-112147428D01*
X108378571Y-112090285D01*
X108407142Y-112061714D01*
X108464285Y-112033142D01*
X108607142Y-112033142D01*
X108664285Y-112061714D01*
X108692857Y-112090285D01*
X108721428Y-112147428D01*
X108721428Y-112318857D01*
X108692857Y-112376000D01*
X108664285Y-112404571D01*
X108321428Y-111833142D02*
X108721428Y-111690285D01*
X108321428Y-111547428D01*
X108950000Y-111376000D02*
X108921428Y-111347428D01*
X108835714Y-111290285D01*
X108778571Y-111261714D01*
X108692857Y-111233142D01*
X108550000Y-111204571D01*
X108435714Y-111204571D01*
X108292857Y-111233142D01*
X108207142Y-111261714D01*
X108150000Y-111290285D01*
X108064285Y-111347428D01*
X108035714Y-111376000D01*
X120392857Y-113744285D02*
X120421428Y-113658571D01*
X120421428Y-113515714D01*
X120392857Y-113458571D01*
X120364285Y-113430000D01*
X120307142Y-113401428D01*
X120250000Y-113401428D01*
X120192857Y-113430000D01*
X120164285Y-113458571D01*
X120135714Y-113515714D01*
X120107142Y-113630000D01*
X120078571Y-113687142D01*
X120050000Y-113715714D01*
X119992857Y-113744285D01*
X119935714Y-113744285D01*
X119878571Y-113715714D01*
X119850000Y-113687142D01*
X119821428Y-113630000D01*
X119821428Y-113487142D01*
X119850000Y-113401428D01*
X120364285Y-112801428D02*
X120392857Y-112830000D01*
X120421428Y-112915714D01*
X120421428Y-112972857D01*
X120392857Y-113058571D01*
X120335714Y-113115714D01*
X120278571Y-113144285D01*
X120164285Y-113172857D01*
X120078571Y-113172857D01*
X119964285Y-113144285D01*
X119907142Y-113115714D01*
X119850000Y-113058571D01*
X119821428Y-112972857D01*
X119821428Y-112915714D01*
X119850000Y-112830000D01*
X119878571Y-112801428D01*
X120421428Y-112258571D02*
X120421428Y-112544285D01*
X119821428Y-112544285D01*
X121650000Y-114030000D02*
X121621428Y-114058571D01*
X121535714Y-114115714D01*
X121478571Y-114144285D01*
X121392857Y-114172857D01*
X121250000Y-114201428D01*
X121135714Y-114201428D01*
X120992857Y-114172857D01*
X120907142Y-114144285D01*
X120850000Y-114115714D01*
X120764285Y-114058571D01*
X120735714Y-114030000D01*
X120850000Y-113487142D02*
X120821428Y-113544285D01*
X120821428Y-113630000D01*
X120850000Y-113715714D01*
X120907142Y-113772857D01*
X120964285Y-113801428D01*
X121078571Y-113830000D01*
X121164285Y-113830000D01*
X121278571Y-113801428D01*
X121335714Y-113772857D01*
X121392857Y-113715714D01*
X121421428Y-113630000D01*
X121421428Y-113572857D01*
X121392857Y-113487142D01*
X121364285Y-113458571D01*
X121164285Y-113458571D01*
X121164285Y-113572857D01*
X121421428Y-113201428D02*
X120821428Y-113201428D01*
X121421428Y-112858571D01*
X120821428Y-112858571D01*
X121421428Y-112572857D02*
X120821428Y-112572857D01*
X120821428Y-112430000D01*
X120850000Y-112344285D01*
X120907142Y-112287142D01*
X120964285Y-112258571D01*
X121078571Y-112230000D01*
X121164285Y-112230000D01*
X121278571Y-112258571D01*
X121335714Y-112287142D01*
X121392857Y-112344285D01*
X121421428Y-112430000D01*
X121421428Y-112572857D01*
X121650000Y-112030000D02*
X121621428Y-112001428D01*
X121535714Y-111944285D01*
X121478571Y-111915714D01*
X121392857Y-111887142D01*
X121250000Y-111858571D01*
X121135714Y-111858571D01*
X120992857Y-111887142D01*
X120907142Y-111915714D01*
X120850000Y-111944285D01*
X120764285Y-112001428D01*
X120735714Y-112030000D01*
X122961428Y-113830000D02*
X122361428Y-113830000D01*
X122361428Y-113687142D01*
X122390000Y-113601428D01*
X122447142Y-113544285D01*
X122504285Y-113515714D01*
X122618571Y-113487142D01*
X122704285Y-113487142D01*
X122818571Y-113515714D01*
X122875714Y-113544285D01*
X122932857Y-113601428D01*
X122961428Y-113687142D01*
X122961428Y-113830000D01*
X122961428Y-113230000D02*
X122361428Y-113230000D01*
X122790000Y-113030000D01*
X122361428Y-112830000D01*
X122961428Y-112830000D01*
X122961428Y-112544285D02*
X122361428Y-112544285D01*
X122361428Y-112315714D01*
X122390000Y-112258571D01*
X122418571Y-112230000D01*
X122475714Y-112201428D01*
X122561428Y-112201428D01*
X122618571Y-112230000D01*
X122647142Y-112258571D01*
X122675714Y-112315714D01*
X122675714Y-112544285D01*
X124190000Y-114030000D02*
X124161428Y-114058571D01*
X124075714Y-114115714D01*
X124018571Y-114144285D01*
X123932857Y-114172857D01*
X123790000Y-114201428D01*
X123675714Y-114201428D01*
X123532857Y-114172857D01*
X123447142Y-114144285D01*
X123390000Y-114115714D01*
X123304285Y-114058571D01*
X123275714Y-114030000D01*
X123390000Y-113487142D02*
X123361428Y-113544285D01*
X123361428Y-113630000D01*
X123390000Y-113715714D01*
X123447142Y-113772857D01*
X123504285Y-113801428D01*
X123618571Y-113830000D01*
X123704285Y-113830000D01*
X123818571Y-113801428D01*
X123875714Y-113772857D01*
X123932857Y-113715714D01*
X123961428Y-113630000D01*
X123961428Y-113572857D01*
X123932857Y-113487142D01*
X123904285Y-113458571D01*
X123704285Y-113458571D01*
X123704285Y-113572857D01*
X123961428Y-113201428D02*
X123361428Y-113201428D01*
X123961428Y-112858571D01*
X123361428Y-112858571D01*
X123961428Y-112572857D02*
X123361428Y-112572857D01*
X123361428Y-112430000D01*
X123390000Y-112344285D01*
X123447142Y-112287142D01*
X123504285Y-112258571D01*
X123618571Y-112230000D01*
X123704285Y-112230000D01*
X123818571Y-112258571D01*
X123875714Y-112287142D01*
X123932857Y-112344285D01*
X123961428Y-112430000D01*
X123961428Y-112572857D01*
X124190000Y-112030000D02*
X124161428Y-112001428D01*
X124075714Y-111944285D01*
X124018571Y-111915714D01*
X123932857Y-111887142D01*
X123790000Y-111858571D01*
X123675714Y-111858571D01*
X123532857Y-111887142D01*
X123447142Y-111915714D01*
X123390000Y-111944285D01*
X123304285Y-112001428D01*
X123275714Y-112030000D01*
X125187142Y-113415714D02*
X125187142Y-113615714D01*
X125501428Y-113615714D02*
X124901428Y-113615714D01*
X124901428Y-113330000D01*
X125501428Y-112815714D02*
X125501428Y-113101428D01*
X124901428Y-113101428D01*
X124901428Y-112701428D02*
X124901428Y-112358571D01*
X125501428Y-112530000D02*
X124901428Y-112530000D01*
X126730000Y-114030000D02*
X126701428Y-114058571D01*
X126615714Y-114115714D01*
X126558571Y-114144285D01*
X126472857Y-114172857D01*
X126330000Y-114201428D01*
X126215714Y-114201428D01*
X126072857Y-114172857D01*
X125987142Y-114144285D01*
X125930000Y-114115714D01*
X125844285Y-114058571D01*
X125815714Y-114030000D01*
X125930000Y-113487142D02*
X125901428Y-113544285D01*
X125901428Y-113630000D01*
X125930000Y-113715714D01*
X125987142Y-113772857D01*
X126044285Y-113801428D01*
X126158571Y-113830000D01*
X126244285Y-113830000D01*
X126358571Y-113801428D01*
X126415714Y-113772857D01*
X126472857Y-113715714D01*
X126501428Y-113630000D01*
X126501428Y-113572857D01*
X126472857Y-113487142D01*
X126444285Y-113458571D01*
X126244285Y-113458571D01*
X126244285Y-113572857D01*
X126501428Y-113201428D02*
X125901428Y-113201428D01*
X126501428Y-112858571D01*
X125901428Y-112858571D01*
X126501428Y-112572857D02*
X125901428Y-112572857D01*
X125901428Y-112430000D01*
X125930000Y-112344285D01*
X125987142Y-112287142D01*
X126044285Y-112258571D01*
X126158571Y-112230000D01*
X126244285Y-112230000D01*
X126358571Y-112258571D01*
X126415714Y-112287142D01*
X126472857Y-112344285D01*
X126501428Y-112430000D01*
X126501428Y-112572857D01*
X126730000Y-112030000D02*
X126701428Y-112001428D01*
X126615714Y-111944285D01*
X126558571Y-111915714D01*
X126472857Y-111887142D01*
X126330000Y-111858571D01*
X126215714Y-111858571D01*
X126072857Y-111887142D01*
X125987142Y-111915714D01*
X125930000Y-111944285D01*
X125844285Y-112001428D01*
X125815714Y-112030000D01*
X130352857Y-114201428D02*
X130352857Y-113744285D01*
X130581428Y-113972857D02*
X130124285Y-113972857D01*
X129981428Y-113515714D02*
X129981428Y-113144285D01*
X130210000Y-113344285D01*
X130210000Y-113258571D01*
X130238571Y-113201428D01*
X130267142Y-113172857D01*
X130324285Y-113144285D01*
X130467142Y-113144285D01*
X130524285Y-113172857D01*
X130552857Y-113201428D01*
X130581428Y-113258571D01*
X130581428Y-113430000D01*
X130552857Y-113487142D01*
X130524285Y-113515714D01*
X130524285Y-112887142D02*
X130552857Y-112858571D01*
X130581428Y-112887142D01*
X130552857Y-112915714D01*
X130524285Y-112887142D01*
X130581428Y-112887142D01*
X129981428Y-112658571D02*
X129981428Y-112287142D01*
X130210000Y-112487142D01*
X130210000Y-112401428D01*
X130238571Y-112344285D01*
X130267142Y-112315714D01*
X130324285Y-112287142D01*
X130467142Y-112287142D01*
X130524285Y-112315714D01*
X130552857Y-112344285D01*
X130581428Y-112401428D01*
X130581428Y-112572857D01*
X130552857Y-112630000D01*
X130524285Y-112658571D01*
X130181428Y-112087142D02*
X130581428Y-111944285D01*
X130181428Y-111801428D01*
X131810000Y-113730000D02*
X131781428Y-113758571D01*
X131695714Y-113815714D01*
X131638571Y-113844285D01*
X131552857Y-113872857D01*
X131410000Y-113901428D01*
X131295714Y-113901428D01*
X131152857Y-113872857D01*
X131067142Y-113844285D01*
X131010000Y-113815714D01*
X130924285Y-113758571D01*
X130895714Y-113730000D01*
X131581428Y-113501428D02*
X130981428Y-113501428D01*
X131581428Y-113158571D01*
X130981428Y-113158571D01*
X131524285Y-112530000D02*
X131552857Y-112558571D01*
X131581428Y-112644285D01*
X131581428Y-112701428D01*
X131552857Y-112787142D01*
X131495714Y-112844285D01*
X131438571Y-112872857D01*
X131324285Y-112901428D01*
X131238571Y-112901428D01*
X131124285Y-112872857D01*
X131067142Y-112844285D01*
X131010000Y-112787142D01*
X130981428Y-112701428D01*
X130981428Y-112644285D01*
X131010000Y-112558571D01*
X131038571Y-112530000D01*
X131810000Y-112330000D02*
X131781428Y-112301428D01*
X131695714Y-112244285D01*
X131638571Y-112215714D01*
X131552857Y-112187142D01*
X131410000Y-112158571D01*
X131295714Y-112158571D01*
X131152857Y-112187142D01*
X131067142Y-112215714D01*
X131010000Y-112244285D01*
X130924285Y-112301428D01*
X130895714Y-112330000D01*
D11*
X133421428Y-114522095D02*
X133421428Y-113760190D01*
X133802380Y-114141142D02*
X133040476Y-114141142D01*
X132802380Y-112807809D02*
X132802380Y-113284000D01*
X133278571Y-113331619D01*
X133230952Y-113284000D01*
X133183333Y-113188761D01*
X133183333Y-112950666D01*
X133230952Y-112855428D01*
X133278571Y-112807809D01*
X133373809Y-112760190D01*
X133611904Y-112760190D01*
X133707142Y-112807809D01*
X133754761Y-112855428D01*
X133802380Y-112950666D01*
X133802380Y-113188761D01*
X133754761Y-113284000D01*
X133707142Y-113331619D01*
X133135714Y-112426857D02*
X133802380Y-112188761D01*
X133135714Y-111950666D01*
X127770000Y-113791904D02*
X127722380Y-113887142D01*
X127722380Y-114030000D01*
X127770000Y-114172857D01*
X127865238Y-114268095D01*
X127960476Y-114315714D01*
X128150952Y-114363333D01*
X128293809Y-114363333D01*
X128484285Y-114315714D01*
X128579523Y-114268095D01*
X128674761Y-114172857D01*
X128722380Y-114030000D01*
X128722380Y-113934761D01*
X128674761Y-113791904D01*
X128627142Y-113744285D01*
X128293809Y-113744285D01*
X128293809Y-113934761D01*
X128722380Y-113315714D02*
X127722380Y-113315714D01*
X128722380Y-112744285D01*
X127722380Y-112744285D01*
X128722380Y-112268095D02*
X127722380Y-112268095D01*
X127722380Y-112030000D01*
X127770000Y-111887142D01*
X127865238Y-111791904D01*
X127960476Y-111744285D01*
X128150952Y-111696666D01*
X128293809Y-111696666D01*
X128484285Y-111744285D01*
X128579523Y-111791904D01*
X128674761Y-111887142D01*
X128722380Y-112030000D01*
X128722380Y-112268095D01*
X118038571Y-113704571D02*
X118086190Y-113561714D01*
X118133809Y-113514095D01*
X118229047Y-113466476D01*
X118371904Y-113466476D01*
X118467142Y-113514095D01*
X118514761Y-113561714D01*
X118562380Y-113656952D01*
X118562380Y-114037904D01*
X117562380Y-114037904D01*
X117562380Y-113704571D01*
X117610000Y-113609333D01*
X117657619Y-113561714D01*
X117752857Y-113514095D01*
X117848095Y-113514095D01*
X117943333Y-113561714D01*
X117990952Y-113609333D01*
X118038571Y-113704571D01*
X118038571Y-114037904D01*
X118467142Y-112466476D02*
X118514761Y-112514095D01*
X118562380Y-112656952D01*
X118562380Y-112752190D01*
X118514761Y-112895047D01*
X118419523Y-112990285D01*
X118324285Y-113037904D01*
X118133809Y-113085523D01*
X117990952Y-113085523D01*
X117800476Y-113037904D01*
X117705238Y-112990285D01*
X117610000Y-112895047D01*
X117562380Y-112752190D01*
X117562380Y-112656952D01*
X117610000Y-112514095D01*
X117657619Y-112466476D01*
X118562380Y-112037904D02*
X117562380Y-112037904D01*
X118562380Y-111466476D02*
X117990952Y-111895047D01*
X117562380Y-111466476D02*
X118133809Y-112037904D01*
X116022380Y-114053809D02*
X115022380Y-114053809D01*
X115022380Y-113815714D01*
X115070000Y-113672857D01*
X115165238Y-113577619D01*
X115260476Y-113530000D01*
X115450952Y-113482380D01*
X115593809Y-113482380D01*
X115784285Y-113530000D01*
X115879523Y-113577619D01*
X115974761Y-113672857D01*
X116022380Y-113815714D01*
X116022380Y-114053809D01*
X116022380Y-113053809D02*
X115022380Y-113053809D01*
X116022380Y-112577619D02*
X115022380Y-112577619D01*
X116022380Y-112006190D01*
X115022380Y-112006190D01*
X113482380Y-113466476D02*
X113482380Y-113942666D01*
X112482380Y-113942666D01*
X113387142Y-112561714D02*
X113434761Y-112609333D01*
X113482380Y-112752190D01*
X113482380Y-112847428D01*
X113434761Y-112990285D01*
X113339523Y-113085523D01*
X113244285Y-113133142D01*
X113053809Y-113180761D01*
X112910952Y-113180761D01*
X112720476Y-113133142D01*
X112625238Y-113085523D01*
X112530000Y-112990285D01*
X112482380Y-112847428D01*
X112482380Y-112752190D01*
X112530000Y-112609333D01*
X112577619Y-112561714D01*
X113482380Y-112133142D02*
X112482380Y-112133142D01*
X113482380Y-111561714D02*
X112910952Y-111990285D01*
X112482380Y-111561714D02*
X113053809Y-112133142D01*
X110418571Y-113585523D02*
X110418571Y-113918857D01*
X110942380Y-113918857D02*
X109942380Y-113918857D01*
X109942380Y-113442666D01*
X110942380Y-113061714D02*
X109942380Y-113061714D01*
X110656666Y-112728380D01*
X109942380Y-112395047D01*
X110942380Y-112395047D01*
X109942380Y-112061714D02*
X109942380Y-111490285D01*
X110942380Y-111776000D02*
X109942380Y-111776000D01*
X134628000Y-91185904D02*
X134580380Y-91281142D01*
X134580380Y-91424000D01*
X134628000Y-91566857D01*
X134723238Y-91662095D01*
X134818476Y-91709714D01*
X135008952Y-91757333D01*
X135151809Y-91757333D01*
X135342285Y-91709714D01*
X135437523Y-91662095D01*
X135532761Y-91566857D01*
X135580380Y-91424000D01*
X135580380Y-91328761D01*
X135532761Y-91185904D01*
X135485142Y-91138285D01*
X135151809Y-91138285D01*
X135151809Y-91328761D01*
X135580380Y-90709714D02*
X134580380Y-90709714D01*
X135580380Y-90138285D01*
X134580380Y-90138285D01*
X135580380Y-89662095D02*
X134580380Y-89662095D01*
X134580380Y-89424000D01*
X134628000Y-89281142D01*
X134723238Y-89185904D01*
X134818476Y-89138285D01*
X135008952Y-89090666D01*
X135151809Y-89090666D01*
X135342285Y-89138285D01*
X135437523Y-89185904D01*
X135532761Y-89281142D01*
X135580380Y-89424000D01*
X135580380Y-89662095D01*
X132659428Y-92884380D02*
X132659428Y-92122476D01*
X133040380Y-92503428D02*
X132278476Y-92503428D01*
X132040380Y-91741523D02*
X132040380Y-91122476D01*
X132421333Y-91455809D01*
X132421333Y-91312952D01*
X132468952Y-91217714D01*
X132516571Y-91170095D01*
X132611809Y-91122476D01*
X132849904Y-91122476D01*
X132945142Y-91170095D01*
X132992761Y-91217714D01*
X133040380Y-91312952D01*
X133040380Y-91598666D01*
X132992761Y-91693904D01*
X132945142Y-91741523D01*
X132945142Y-90693904D02*
X132992761Y-90646285D01*
X133040380Y-90693904D01*
X132992761Y-90741523D01*
X132945142Y-90693904D01*
X133040380Y-90693904D01*
X132040380Y-90312952D02*
X132040380Y-89693904D01*
X132421333Y-90027238D01*
X132421333Y-89884380D01*
X132468952Y-89789142D01*
X132516571Y-89741523D01*
X132611809Y-89693904D01*
X132849904Y-89693904D01*
X132945142Y-89741523D01*
X132992761Y-89789142D01*
X133040380Y-89884380D01*
X133040380Y-90170095D01*
X132992761Y-90265333D01*
X132945142Y-90312952D01*
X132373714Y-89360571D02*
X133040380Y-89122476D01*
X132373714Y-88884380D01*
X130119428Y-92932095D02*
X130119428Y-92170190D01*
X130500380Y-92551142D02*
X129738476Y-92551142D01*
X129500380Y-91217809D02*
X129500380Y-91694000D01*
X129976571Y-91741619D01*
X129928952Y-91694000D01*
X129881333Y-91598761D01*
X129881333Y-91360666D01*
X129928952Y-91265428D01*
X129976571Y-91217809D01*
X130071809Y-91170190D01*
X130309904Y-91170190D01*
X130405142Y-91217809D01*
X130452761Y-91265428D01*
X130500380Y-91360666D01*
X130500380Y-91598761D01*
X130452761Y-91694000D01*
X130405142Y-91741619D01*
X129833714Y-90836857D02*
X130500380Y-90598761D01*
X129833714Y-90360666D01*
X127960380Y-91670095D02*
X126960380Y-91670095D01*
X126960380Y-91432000D01*
X127008000Y-91289142D01*
X127103238Y-91193904D01*
X127198476Y-91146285D01*
X127388952Y-91098666D01*
X127531809Y-91098666D01*
X127722285Y-91146285D01*
X127817523Y-91193904D01*
X127912761Y-91289142D01*
X127960380Y-91432000D01*
X127960380Y-91670095D01*
X126960380Y-90765333D02*
X126960380Y-90098666D01*
X127960380Y-90527238D01*
X125420380Y-91670095D02*
X124420380Y-91670095D01*
X124420380Y-91432000D01*
X124468000Y-91289142D01*
X124563238Y-91193904D01*
X124658476Y-91146285D01*
X124848952Y-91098666D01*
X124991809Y-91098666D01*
X125182285Y-91146285D01*
X125277523Y-91193904D01*
X125372761Y-91289142D01*
X125420380Y-91432000D01*
X125420380Y-91670095D01*
X124420380Y-90241523D02*
X124420380Y-90432000D01*
X124468000Y-90527238D01*
X124515619Y-90574857D01*
X124658476Y-90670095D01*
X124848952Y-90717714D01*
X125229904Y-90717714D01*
X125325142Y-90670095D01*
X125372761Y-90622476D01*
X125420380Y-90527238D01*
X125420380Y-90336761D01*
X125372761Y-90241523D01*
X125325142Y-90193904D01*
X125229904Y-90146285D01*
X124991809Y-90146285D01*
X124896571Y-90193904D01*
X124848952Y-90241523D01*
X124801333Y-90336761D01*
X124801333Y-90527238D01*
X124848952Y-90622476D01*
X124896571Y-90670095D01*
X124991809Y-90717714D01*
X122880380Y-91670095D02*
X121880380Y-91670095D01*
X121880380Y-91432000D01*
X121928000Y-91289142D01*
X122023238Y-91193904D01*
X122118476Y-91146285D01*
X122308952Y-91098666D01*
X122451809Y-91098666D01*
X122642285Y-91146285D01*
X122737523Y-91193904D01*
X122832761Y-91289142D01*
X122880380Y-91432000D01*
X122880380Y-91670095D01*
X121880380Y-90193904D02*
X121880380Y-90670095D01*
X122356571Y-90717714D01*
X122308952Y-90670095D01*
X122261333Y-90574857D01*
X122261333Y-90336761D01*
X122308952Y-90241523D01*
X122356571Y-90193904D01*
X122451809Y-90146285D01*
X122689904Y-90146285D01*
X122785142Y-90193904D01*
X122832761Y-90241523D01*
X122880380Y-90336761D01*
X122880380Y-90574857D01*
X122832761Y-90670095D01*
X122785142Y-90717714D01*
X120340380Y-91670095D02*
X119340380Y-91670095D01*
X119340380Y-91432000D01*
X119388000Y-91289142D01*
X119483238Y-91193904D01*
X119578476Y-91146285D01*
X119768952Y-91098666D01*
X119911809Y-91098666D01*
X120102285Y-91146285D01*
X120197523Y-91193904D01*
X120292761Y-91289142D01*
X120340380Y-91432000D01*
X120340380Y-91670095D01*
X119673714Y-90241523D02*
X120340380Y-90241523D01*
X119292761Y-90479619D02*
X120007047Y-90717714D01*
X120007047Y-90098666D01*
X117276571Y-91670095D02*
X117276571Y-91336761D01*
X117800380Y-91193904D02*
X117800380Y-91670095D01*
X116800380Y-91670095D01*
X116800380Y-91193904D01*
X117800380Y-90765333D02*
X116800380Y-90765333D01*
X117800380Y-90193904D01*
X116800380Y-90193904D01*
X115260380Y-91193904D02*
X114784190Y-91527238D01*
X115260380Y-91765333D02*
X114260380Y-91765333D01*
X114260380Y-91384380D01*
X114308000Y-91289142D01*
X114355619Y-91241523D01*
X114450857Y-91193904D01*
X114593714Y-91193904D01*
X114688952Y-91241523D01*
X114736571Y-91289142D01*
X114784190Y-91384380D01*
X114784190Y-91765333D01*
X114260380Y-90860571D02*
X115260380Y-90622476D01*
X114546095Y-90432000D01*
X115260380Y-90241523D01*
X114260380Y-90003428D01*
X112720380Y-91098666D02*
X112244190Y-91432000D01*
X112720380Y-91670095D02*
X111720380Y-91670095D01*
X111720380Y-91289142D01*
X111768000Y-91193904D01*
X111815619Y-91146285D01*
X111910857Y-91098666D01*
X112053714Y-91098666D01*
X112148952Y-91146285D01*
X112196571Y-91193904D01*
X112244190Y-91289142D01*
X112244190Y-91670095D01*
X112672761Y-90717714D02*
X112720380Y-90574857D01*
X112720380Y-90336761D01*
X112672761Y-90241523D01*
X112625142Y-90193904D01*
X112529904Y-90146285D01*
X112434666Y-90146285D01*
X112339428Y-90193904D01*
X112291809Y-90241523D01*
X112244190Y-90336761D01*
X112196571Y-90527238D01*
X112148952Y-90622476D01*
X112101333Y-90670095D01*
X112006095Y-90717714D01*
X111910857Y-90717714D01*
X111815619Y-90670095D01*
X111768000Y-90622476D01*
X111720380Y-90527238D01*
X111720380Y-90289142D01*
X111768000Y-90146285D01*
D10*
X104648000Y-108458000D02*
X136906000Y-108458000D01*
D11*
X116523333Y-121452666D02*
X116999523Y-121452666D01*
X116428095Y-121738380D02*
X116761428Y-120738380D01*
X117094761Y-121738380D01*
X117428095Y-120738380D02*
X117428095Y-121547904D01*
X117475714Y-121643142D01*
X117523333Y-121690761D01*
X117618571Y-121738380D01*
X117809047Y-121738380D01*
X117904285Y-121690761D01*
X117951904Y-121643142D01*
X117999523Y-121547904D01*
X117999523Y-120738380D01*
X118475714Y-121738380D02*
X118475714Y-120738380D01*
X118713809Y-120738380D01*
X118856666Y-120786000D01*
X118951904Y-120881238D01*
X118999523Y-120976476D01*
X119047142Y-121166952D01*
X119047142Y-121309809D01*
X118999523Y-121500285D01*
X118951904Y-121595523D01*
X118856666Y-121690761D01*
X118713809Y-121738380D01*
X118475714Y-121738380D01*
X119475714Y-121738380D02*
X119475714Y-120738380D01*
X120142380Y-120738380D02*
X120332857Y-120738380D01*
X120428095Y-120786000D01*
X120523333Y-120881238D01*
X120570952Y-121071714D01*
X120570952Y-121405047D01*
X120523333Y-121595523D01*
X120428095Y-121690761D01*
X120332857Y-121738380D01*
X120142380Y-121738380D01*
X120047142Y-121690761D01*
X119951904Y-121595523D01*
X119904285Y-121405047D01*
X119904285Y-121071714D01*
X119951904Y-120881238D01*
X120047142Y-120786000D01*
X120142380Y-120738380D01*
X121761428Y-121738380D02*
X121761428Y-120738380D01*
X121999523Y-120738380D01*
X122142380Y-120786000D01*
X122237619Y-120881238D01*
X122285238Y-120976476D01*
X122332857Y-121166952D01*
X122332857Y-121309809D01*
X122285238Y-121500285D01*
X122237619Y-121595523D01*
X122142380Y-121690761D01*
X121999523Y-121738380D01*
X121761428Y-121738380D01*
X122713809Y-121452666D02*
X123190000Y-121452666D01*
X122618571Y-121738380D02*
X122951904Y-120738380D01*
X123285238Y-121738380D01*
X124190000Y-121643142D02*
X124142380Y-121690761D01*
X123999523Y-121738380D01*
X123904285Y-121738380D01*
X123761428Y-121690761D01*
X123666190Y-121595523D01*
X123618571Y-121500285D01*
X123570952Y-121309809D01*
X123570952Y-121166952D01*
X123618571Y-120976476D01*
X123666190Y-120881238D01*
X123761428Y-120786000D01*
X123904285Y-120738380D01*
X123999523Y-120738380D01*
X124142380Y-120786000D01*
X124190000Y-120833619D01*
X125713809Y-121214571D02*
X125856666Y-121262190D01*
X125904285Y-121309809D01*
X125951904Y-121405047D01*
X125951904Y-121547904D01*
X125904285Y-121643142D01*
X125856666Y-121690761D01*
X125761428Y-121738380D01*
X125380476Y-121738380D01*
X125380476Y-120738380D01*
X125713809Y-120738380D01*
X125809047Y-120786000D01*
X125856666Y-120833619D01*
X125904285Y-120928857D01*
X125904285Y-121024095D01*
X125856666Y-121119333D01*
X125809047Y-121166952D01*
X125713809Y-121214571D01*
X125380476Y-121214571D01*
X126570952Y-120738380D02*
X126761428Y-120738380D01*
X126856666Y-120786000D01*
X126951904Y-120881238D01*
X126999523Y-121071714D01*
X126999523Y-121405047D01*
X126951904Y-121595523D01*
X126856666Y-121690761D01*
X126761428Y-121738380D01*
X126570952Y-121738380D01*
X126475714Y-121690761D01*
X126380476Y-121595523D01*
X126332857Y-121405047D01*
X126332857Y-121071714D01*
X126380476Y-120881238D01*
X126475714Y-120786000D01*
X126570952Y-120738380D01*
X127380476Y-121452666D02*
X127856666Y-121452666D01*
X127285238Y-121738380D02*
X127618571Y-120738380D01*
X127951904Y-121738380D01*
X128856666Y-121738380D02*
X128523333Y-121262190D01*
X128285238Y-121738380D02*
X128285238Y-120738380D01*
X128666190Y-120738380D01*
X128761428Y-120786000D01*
X128809047Y-120833619D01*
X128856666Y-120928857D01*
X128856666Y-121071714D01*
X128809047Y-121166952D01*
X128761428Y-121214571D01*
X128666190Y-121262190D01*
X128285238Y-121262190D01*
X129285238Y-121738380D02*
X129285238Y-120738380D01*
X129523333Y-120738380D01*
X129666190Y-120786000D01*
X129761428Y-120881238D01*
X129809047Y-120976476D01*
X129856666Y-121166952D01*
X129856666Y-121309809D01*
X129809047Y-121500285D01*
X129761428Y-121595523D01*
X129666190Y-121690761D01*
X129523333Y-121738380D01*
X129285238Y-121738380D01*
X112404285Y-122436000D02*
X112309047Y-122388380D01*
X112166190Y-122388380D01*
X112023333Y-122436000D01*
X111928095Y-122531238D01*
X111880476Y-122626476D01*
X111832857Y-122816952D01*
X111832857Y-122959809D01*
X111880476Y-123150285D01*
X111928095Y-123245523D01*
X112023333Y-123340761D01*
X112166190Y-123388380D01*
X112261428Y-123388380D01*
X112404285Y-123340761D01*
X112451904Y-123293142D01*
X112451904Y-122959809D01*
X112261428Y-122959809D01*
X113070952Y-122912190D02*
X113070952Y-123388380D01*
X112737619Y-122388380D02*
X113070952Y-122912190D01*
X113404285Y-122388380D01*
X113737619Y-123007428D02*
X114499523Y-123007428D01*
X114975714Y-123388380D02*
X114975714Y-122388380D01*
X115356666Y-122388380D01*
X115451904Y-122436000D01*
X115499523Y-122483619D01*
X115547142Y-122578857D01*
X115547142Y-122721714D01*
X115499523Y-122816952D01*
X115451904Y-122864571D01*
X115356666Y-122912190D01*
X114975714Y-122912190D01*
X116547142Y-123293142D02*
X116499523Y-123340761D01*
X116356666Y-123388380D01*
X116261428Y-123388380D01*
X116118571Y-123340761D01*
X116023333Y-123245523D01*
X115975714Y-123150285D01*
X115928095Y-122959809D01*
X115928095Y-122816952D01*
X115975714Y-122626476D01*
X116023333Y-122531238D01*
X116118571Y-122436000D01*
X116261428Y-122388380D01*
X116356666Y-122388380D01*
X116499523Y-122436000D01*
X116547142Y-122483619D01*
X116975714Y-123388380D02*
X116975714Y-122388380D01*
X117309047Y-123102666D01*
X117642380Y-122388380D01*
X117642380Y-123388380D01*
X118594761Y-122388380D02*
X118118571Y-122388380D01*
X118070952Y-122864571D01*
X118118571Y-122816952D01*
X118213809Y-122769333D01*
X118451904Y-122769333D01*
X118547142Y-122816952D01*
X118594761Y-122864571D01*
X118642380Y-122959809D01*
X118642380Y-123197904D01*
X118594761Y-123293142D01*
X118547142Y-123340761D01*
X118451904Y-123388380D01*
X118213809Y-123388380D01*
X118118571Y-123340761D01*
X118070952Y-123293142D01*
X119594761Y-123388380D02*
X119023333Y-123388380D01*
X119309047Y-123388380D02*
X119309047Y-122388380D01*
X119213809Y-122531238D01*
X119118571Y-122626476D01*
X119023333Y-122674095D01*
X120213809Y-122388380D02*
X120309047Y-122388380D01*
X120404285Y-122436000D01*
X120451904Y-122483619D01*
X120499523Y-122578857D01*
X120547142Y-122769333D01*
X120547142Y-123007428D01*
X120499523Y-123197904D01*
X120451904Y-123293142D01*
X120404285Y-123340761D01*
X120309047Y-123388380D01*
X120213809Y-123388380D01*
X120118571Y-123340761D01*
X120070952Y-123293142D01*
X120023333Y-123197904D01*
X119975714Y-123007428D01*
X119975714Y-122769333D01*
X120023333Y-122578857D01*
X120070952Y-122483619D01*
X120118571Y-122436000D01*
X120213809Y-122388380D01*
X120928095Y-122483619D02*
X120975714Y-122436000D01*
X121070952Y-122388380D01*
X121309047Y-122388380D01*
X121404285Y-122436000D01*
X121451904Y-122483619D01*
X121499523Y-122578857D01*
X121499523Y-122674095D01*
X121451904Y-122816952D01*
X120880476Y-123388380D01*
X121499523Y-123388380D01*
X122832857Y-123388380D02*
X122737619Y-123340761D01*
X122690000Y-123293142D01*
X122642380Y-123197904D01*
X122642380Y-122912190D01*
X122690000Y-122816952D01*
X122737619Y-122769333D01*
X122832857Y-122721714D01*
X122975714Y-122721714D01*
X123070952Y-122769333D01*
X123118571Y-122816952D01*
X123166190Y-122912190D01*
X123166190Y-123197904D01*
X123118571Y-123293142D01*
X123070952Y-123340761D01*
X122975714Y-123388380D01*
X122832857Y-123388380D01*
X123594761Y-123388380D02*
X123594761Y-122721714D01*
X123594761Y-122912190D02*
X123642380Y-122816952D01*
X123690000Y-122769333D01*
X123785238Y-122721714D01*
X123880476Y-122721714D01*
X125547142Y-123293142D02*
X125499523Y-123340761D01*
X125356666Y-123388380D01*
X125261428Y-123388380D01*
X125118571Y-123340761D01*
X125023333Y-123245523D01*
X124975714Y-123150285D01*
X124928095Y-122959809D01*
X124928095Y-122816952D01*
X124975714Y-122626476D01*
X125023333Y-122531238D01*
X125118571Y-122436000D01*
X125261428Y-122388380D01*
X125356666Y-122388380D01*
X125499523Y-122436000D01*
X125547142Y-122483619D01*
X126261428Y-122388380D02*
X126261428Y-123102666D01*
X126213809Y-123245523D01*
X126118571Y-123340761D01*
X125975714Y-123388380D01*
X125880476Y-123388380D01*
X126737619Y-123388380D02*
X126737619Y-122388380D01*
X127070952Y-123102666D01*
X127404285Y-122388380D01*
X127404285Y-123388380D01*
X128451904Y-123293142D02*
X128404285Y-123340761D01*
X128261428Y-123388380D01*
X128166190Y-123388380D01*
X128023333Y-123340761D01*
X127928095Y-123245523D01*
X127880476Y-123150285D01*
X127832857Y-122959809D01*
X127832857Y-122816952D01*
X127880476Y-122626476D01*
X127928095Y-122531238D01*
X128023333Y-122436000D01*
X128166190Y-122388380D01*
X128261428Y-122388380D01*
X128404285Y-122436000D01*
X128451904Y-122483619D01*
X128880476Y-122388380D02*
X128880476Y-123197904D01*
X128928095Y-123293142D01*
X128975714Y-123340761D01*
X129070952Y-123388380D01*
X129261428Y-123388380D01*
X129356666Y-123340761D01*
X129404285Y-123293142D01*
X129451904Y-123197904D01*
X129451904Y-122388380D01*
X129928095Y-123007428D02*
X130690000Y-123007428D01*
X131642380Y-122388380D02*
X131166190Y-122388380D01*
X131118571Y-122864571D01*
X131166190Y-122816952D01*
X131261428Y-122769333D01*
X131499523Y-122769333D01*
X131594761Y-122816952D01*
X131642380Y-122864571D01*
X131690000Y-122959809D01*
X131690000Y-123197904D01*
X131642380Y-123293142D01*
X131594761Y-123340761D01*
X131499523Y-123388380D01*
X131261428Y-123388380D01*
X131166190Y-123340761D01*
X131118571Y-123293142D01*
X132642380Y-123388380D02*
X132070952Y-123388380D01*
X132356666Y-123388380D02*
X132356666Y-122388380D01*
X132261428Y-122531238D01*
X132166190Y-122626476D01*
X132070952Y-122674095D01*
X133261428Y-122388380D02*
X133356666Y-122388380D01*
X133451904Y-122436000D01*
X133499523Y-122483619D01*
X133547142Y-122578857D01*
X133594761Y-122769333D01*
X133594761Y-123007428D01*
X133547142Y-123197904D01*
X133499523Y-123293142D01*
X133451904Y-123340761D01*
X133356666Y-123388380D01*
X133261428Y-123388380D01*
X133166190Y-123340761D01*
X133118571Y-123293142D01*
X133070952Y-123197904D01*
X133023333Y-123007428D01*
X133023333Y-122769333D01*
X133070952Y-122578857D01*
X133118571Y-122483619D01*
X133166190Y-122436000D01*
X133261428Y-122388380D01*
X133975714Y-122483619D02*
X134023333Y-122436000D01*
X134118571Y-122388380D01*
X134356666Y-122388380D01*
X134451904Y-122436000D01*
X134499523Y-122483619D01*
X134547142Y-122578857D01*
X134547142Y-122674095D01*
X134499523Y-122816952D01*
X133928095Y-123388380D01*
X134547142Y-123388380D01*
X114618571Y-124038380D02*
X114618571Y-124847904D01*
X114666190Y-124943142D01*
X114713809Y-124990761D01*
X114809047Y-125038380D01*
X114999523Y-125038380D01*
X115094761Y-124990761D01*
X115142380Y-124943142D01*
X115190000Y-124847904D01*
X115190000Y-124038380D01*
X115618571Y-124990761D02*
X115713809Y-125038380D01*
X115904285Y-125038380D01*
X115999523Y-124990761D01*
X116047142Y-124895523D01*
X116047142Y-124847904D01*
X115999523Y-124752666D01*
X115904285Y-124705047D01*
X115761428Y-124705047D01*
X115666190Y-124657428D01*
X115618571Y-124562190D01*
X115618571Y-124514571D01*
X115666190Y-124419333D01*
X115761428Y-124371714D01*
X115904285Y-124371714D01*
X115999523Y-124419333D01*
X116856666Y-124990761D02*
X116761428Y-125038380D01*
X116570952Y-125038380D01*
X116475714Y-124990761D01*
X116428095Y-124895523D01*
X116428095Y-124514571D01*
X116475714Y-124419333D01*
X116570952Y-124371714D01*
X116761428Y-124371714D01*
X116856666Y-124419333D01*
X116904285Y-124514571D01*
X116904285Y-124609809D01*
X116428095Y-124705047D01*
X118380476Y-124038380D02*
X118380476Y-124752666D01*
X118332857Y-124895523D01*
X118237619Y-124990761D01*
X118094761Y-125038380D01*
X117999523Y-125038380D01*
X119285238Y-124371714D02*
X119285238Y-125038380D01*
X119047142Y-123990761D02*
X118809047Y-124705047D01*
X119428095Y-124705047D01*
X120713809Y-125038380D02*
X120618571Y-124990761D01*
X120570952Y-124943142D01*
X120523333Y-124847904D01*
X120523333Y-124562190D01*
X120570952Y-124466952D01*
X120618571Y-124419333D01*
X120713809Y-124371714D01*
X120856666Y-124371714D01*
X120951904Y-124419333D01*
X120999523Y-124466952D01*
X121047142Y-124562190D01*
X121047142Y-124847904D01*
X120999523Y-124943142D01*
X120951904Y-124990761D01*
X120856666Y-125038380D01*
X120713809Y-125038380D01*
X121475714Y-125038380D02*
X121475714Y-124371714D01*
X121475714Y-124562190D02*
X121523333Y-124466952D01*
X121570952Y-124419333D01*
X121666190Y-124371714D01*
X121761428Y-124371714D01*
X123142380Y-124038380D02*
X123142380Y-124752666D01*
X123094761Y-124895523D01*
X122999523Y-124990761D01*
X122856666Y-125038380D01*
X122761428Y-125038380D01*
X124094761Y-124038380D02*
X123618571Y-124038380D01*
X123570952Y-124514571D01*
X123618571Y-124466952D01*
X123713809Y-124419333D01*
X123951904Y-124419333D01*
X124047142Y-124466952D01*
X124094761Y-124514571D01*
X124142380Y-124609809D01*
X124142380Y-124847904D01*
X124094761Y-124943142D01*
X124047142Y-124990761D01*
X123951904Y-125038380D01*
X123713809Y-125038380D01*
X123618571Y-124990761D01*
X123570952Y-124943142D01*
X124618571Y-124990761D02*
X124618571Y-125038380D01*
X124570952Y-125133619D01*
X124523333Y-125181238D01*
X125809047Y-124371714D02*
X125809047Y-125038380D01*
X125809047Y-124466952D02*
X125856666Y-124419333D01*
X125951904Y-124371714D01*
X126094761Y-124371714D01*
X126190000Y-124419333D01*
X126237619Y-124514571D01*
X126237619Y-125038380D01*
X126856666Y-125038380D02*
X126761428Y-124990761D01*
X126713809Y-124943142D01*
X126666190Y-124847904D01*
X126666190Y-124562190D01*
X126713809Y-124466952D01*
X126761428Y-124419333D01*
X126856666Y-124371714D01*
X126999523Y-124371714D01*
X127094761Y-124419333D01*
X127142380Y-124466952D01*
X127190000Y-124562190D01*
X127190000Y-124847904D01*
X127142380Y-124943142D01*
X127094761Y-124990761D01*
X126999523Y-125038380D01*
X126856666Y-125038380D01*
X127475714Y-124371714D02*
X127856666Y-124371714D01*
X127618571Y-124038380D02*
X127618571Y-124895523D01*
X127666190Y-124990761D01*
X127761428Y-125038380D01*
X127856666Y-125038380D01*
X128951904Y-125038380D02*
X128951904Y-124038380D01*
X128951904Y-124419333D02*
X129047142Y-124371714D01*
X129237619Y-124371714D01*
X129332857Y-124419333D01*
X129380476Y-124466952D01*
X129428095Y-124562190D01*
X129428095Y-124847904D01*
X129380476Y-124943142D01*
X129332857Y-124990761D01*
X129237619Y-125038380D01*
X129047142Y-125038380D01*
X128951904Y-124990761D01*
X129999523Y-125038380D02*
X129904285Y-124990761D01*
X129856666Y-124943142D01*
X129809047Y-124847904D01*
X129809047Y-124562190D01*
X129856666Y-124466952D01*
X129904285Y-124419333D01*
X129999523Y-124371714D01*
X130142380Y-124371714D01*
X130237619Y-124419333D01*
X130285238Y-124466952D01*
X130332857Y-124562190D01*
X130332857Y-124847904D01*
X130285238Y-124943142D01*
X130237619Y-124990761D01*
X130142380Y-125038380D01*
X129999523Y-125038380D01*
X130618571Y-124371714D02*
X130999523Y-124371714D01*
X130761428Y-124038380D02*
X130761428Y-124895523D01*
X130809047Y-124990761D01*
X130904285Y-125038380D01*
X130999523Y-125038380D01*
X131332857Y-125038380D02*
X131332857Y-124038380D01*
X131761428Y-125038380D02*
X131761428Y-124514571D01*
X131713809Y-124419333D01*
X131618571Y-124371714D01*
X131475714Y-124371714D01*
X131380476Y-124419333D01*
X131332857Y-124466952D01*
D10*
X104648000Y-131064000D02*
X104648000Y-108458000D01*
X136906000Y-131064000D02*
X104648000Y-131064000D01*
X136906000Y-108458000D02*
X136906000Y-131064000D01*
X104648000Y-114808000D02*
X136906000Y-114808000D01*
D13*
X115662285Y-96823142D02*
X115833714Y-96823142D01*
X115919428Y-96866000D01*
X116005142Y-96951714D01*
X116048000Y-97123142D01*
X116048000Y-97423142D01*
X116005142Y-97594571D01*
X115919428Y-97680285D01*
X115833714Y-97723142D01*
X115662285Y-97723142D01*
X115576571Y-97680285D01*
X115490857Y-97594571D01*
X115448000Y-97423142D01*
X115448000Y-97123142D01*
X115490857Y-96951714D01*
X115576571Y-96866000D01*
X115662285Y-96823142D01*
X116862285Y-97723142D02*
X116433714Y-97723142D01*
X116433714Y-96823142D01*
X117162285Y-97251714D02*
X117462285Y-97251714D01*
X117590857Y-97723142D02*
X117162285Y-97723142D01*
X117162285Y-96823142D01*
X117590857Y-96823142D01*
X117976571Y-97723142D02*
X117976571Y-96823142D01*
X118190857Y-96823142D01*
X118319428Y-96866000D01*
X118405142Y-96951714D01*
X118448000Y-97037428D01*
X118490857Y-97208857D01*
X118490857Y-97337428D01*
X118448000Y-97508857D01*
X118405142Y-97594571D01*
X118319428Y-97680285D01*
X118190857Y-97723142D01*
X117976571Y-97723142D01*
X120033714Y-97723142D02*
X119519428Y-97723142D01*
X119776571Y-97723142D02*
X119776571Y-96823142D01*
X119690857Y-96951714D01*
X119605142Y-97037428D01*
X119519428Y-97080285D01*
X120376571Y-96908857D02*
X120419428Y-96866000D01*
X120505142Y-96823142D01*
X120719428Y-96823142D01*
X120805142Y-96866000D01*
X120848000Y-96908857D01*
X120890857Y-96994571D01*
X120890857Y-97080285D01*
X120848000Y-97208857D01*
X120333714Y-97723142D01*
X120890857Y-97723142D01*
X121405142Y-97208857D02*
X121319428Y-97166000D01*
X121276571Y-97123142D01*
X121233714Y-97037428D01*
X121233714Y-96994571D01*
X121276571Y-96908857D01*
X121319428Y-96866000D01*
X121405142Y-96823142D01*
X121576571Y-96823142D01*
X121662285Y-96866000D01*
X121705142Y-96908857D01*
X121748000Y-96994571D01*
X121748000Y-97037428D01*
X121705142Y-97123142D01*
X121662285Y-97166000D01*
X121576571Y-97208857D01*
X121405142Y-97208857D01*
X121319428Y-97251714D01*
X121276571Y-97294571D01*
X121233714Y-97380285D01*
X121233714Y-97551714D01*
X121276571Y-97637428D01*
X121319428Y-97680285D01*
X121405142Y-97723142D01*
X121576571Y-97723142D01*
X121662285Y-97680285D01*
X121705142Y-97637428D01*
X121748000Y-97551714D01*
X121748000Y-97380285D01*
X121705142Y-97294571D01*
X121662285Y-97251714D01*
X121576571Y-97208857D01*
X122048000Y-97723142D02*
X122519428Y-97123142D01*
X122048000Y-97123142D02*
X122519428Y-97723142D01*
X122776571Y-96823142D02*
X123333714Y-96823142D01*
X123033714Y-97166000D01*
X123162285Y-97166000D01*
X123248000Y-97208857D01*
X123290857Y-97251714D01*
X123333714Y-97337428D01*
X123333714Y-97551714D01*
X123290857Y-97637428D01*
X123248000Y-97680285D01*
X123162285Y-97723142D01*
X122905142Y-97723142D01*
X122819428Y-97680285D01*
X122776571Y-97637428D01*
X123676571Y-96908857D02*
X123719428Y-96866000D01*
X123805142Y-96823142D01*
X124019428Y-96823142D01*
X124105142Y-96866000D01*
X124148000Y-96908857D01*
X124190857Y-96994571D01*
X124190857Y-97080285D01*
X124148000Y-97208857D01*
X123633714Y-97723142D01*
X124190857Y-97723142D01*
X125390857Y-97723142D02*
X125305142Y-97680285D01*
X125262285Y-97637428D01*
X125219428Y-97551714D01*
X125219428Y-97294571D01*
X125262285Y-97208857D01*
X125305142Y-97166000D01*
X125390857Y-97123142D01*
X125519428Y-97123142D01*
X125605142Y-97166000D01*
X125648000Y-97208857D01*
X125690857Y-97294571D01*
X125690857Y-97551714D01*
X125648000Y-97637428D01*
X125605142Y-97680285D01*
X125519428Y-97723142D01*
X125390857Y-97723142D01*
X126076571Y-97723142D02*
X126076571Y-97123142D01*
X126076571Y-97294571D02*
X126119428Y-97208857D01*
X126162285Y-97166000D01*
X126248000Y-97123142D01*
X126333714Y-97123142D01*
X127790857Y-97723142D02*
X127276571Y-97723142D01*
X127533714Y-97723142D02*
X127533714Y-96823142D01*
X127448000Y-96951714D01*
X127362285Y-97037428D01*
X127276571Y-97080285D01*
X128133714Y-96908857D02*
X128176571Y-96866000D01*
X128262285Y-96823142D01*
X128476571Y-96823142D01*
X128562285Y-96866000D01*
X128605142Y-96908857D01*
X128648000Y-96994571D01*
X128648000Y-97080285D01*
X128605142Y-97208857D01*
X128090857Y-97723142D01*
X128648000Y-97723142D01*
X129162285Y-97208857D02*
X129076571Y-97166000D01*
X129033714Y-97123142D01*
X128990857Y-97037428D01*
X128990857Y-96994571D01*
X129033714Y-96908857D01*
X129076571Y-96866000D01*
X129162285Y-96823142D01*
X129333714Y-96823142D01*
X129419428Y-96866000D01*
X129462285Y-96908857D01*
X129505142Y-96994571D01*
X129505142Y-97037428D01*
X129462285Y-97123142D01*
X129419428Y-97166000D01*
X129333714Y-97208857D01*
X129162285Y-97208857D01*
X129076571Y-97251714D01*
X129033714Y-97294571D01*
X128990857Y-97380285D01*
X128990857Y-97551714D01*
X129033714Y-97637428D01*
X129076571Y-97680285D01*
X129162285Y-97723142D01*
X129333714Y-97723142D01*
X129419428Y-97680285D01*
X129462285Y-97637428D01*
X129505142Y-97551714D01*
X129505142Y-97380285D01*
X129462285Y-97294571D01*
X129419428Y-97251714D01*
X129333714Y-97208857D01*
X129805142Y-97723142D02*
X130276571Y-97123142D01*
X129805142Y-97123142D02*
X130276571Y-97723142D01*
X131005142Y-96823142D02*
X130833714Y-96823142D01*
X130748000Y-96866000D01*
X130705142Y-96908857D01*
X130619428Y-97037428D01*
X130576571Y-97208857D01*
X130576571Y-97551714D01*
X130619428Y-97637428D01*
X130662285Y-97680285D01*
X130748000Y-97723142D01*
X130919428Y-97723142D01*
X131005142Y-97680285D01*
X131048000Y-97637428D01*
X131090857Y-97551714D01*
X131090857Y-97337428D01*
X131048000Y-97251714D01*
X131005142Y-97208857D01*
X130919428Y-97166000D01*
X130748000Y-97166000D01*
X130662285Y-97208857D01*
X130619428Y-97251714D01*
X130576571Y-97337428D01*
X131862285Y-97123142D02*
X131862285Y-97723142D01*
X131648000Y-96780285D02*
X131433714Y-97423142D01*
X131990857Y-97423142D01*
X119648000Y-99170285D02*
X119733714Y-99213142D01*
X119905142Y-99213142D01*
X119990857Y-99170285D01*
X120033714Y-99084571D01*
X120033714Y-99041714D01*
X119990857Y-98956000D01*
X119905142Y-98913142D01*
X119776571Y-98913142D01*
X119690857Y-98870285D01*
X119648000Y-98784571D01*
X119648000Y-98741714D01*
X119690857Y-98656000D01*
X119776571Y-98613142D01*
X119905142Y-98613142D01*
X119990857Y-98656000D01*
X120376571Y-99170285D02*
X120462285Y-99213142D01*
X120633714Y-99213142D01*
X120719428Y-99170285D01*
X120762285Y-99084571D01*
X120762285Y-99041714D01*
X120719428Y-98956000D01*
X120633714Y-98913142D01*
X120505142Y-98913142D01*
X120419428Y-98870285D01*
X120376571Y-98784571D01*
X120376571Y-98741714D01*
X120419428Y-98656000D01*
X120505142Y-98613142D01*
X120633714Y-98613142D01*
X120719428Y-98656000D01*
X121533714Y-99213142D02*
X121533714Y-98313142D01*
X121533714Y-99170285D02*
X121448000Y-99213142D01*
X121276571Y-99213142D01*
X121190857Y-99170285D01*
X121148000Y-99127428D01*
X121105142Y-99041714D01*
X121105142Y-98784571D01*
X121148000Y-98698857D01*
X121190857Y-98656000D01*
X121276571Y-98613142D01*
X121448000Y-98613142D01*
X121533714Y-98656000D01*
X122433714Y-99213142D02*
X121919428Y-99213142D01*
X122176571Y-99213142D02*
X122176571Y-98313142D01*
X122090857Y-98441714D01*
X122005142Y-98527428D01*
X121919428Y-98570285D01*
X122733714Y-98313142D02*
X123290857Y-98313142D01*
X122990857Y-98656000D01*
X123119428Y-98656000D01*
X123205142Y-98698857D01*
X123248000Y-98741714D01*
X123290857Y-98827428D01*
X123290857Y-99041714D01*
X123248000Y-99127428D01*
X123205142Y-99170285D01*
X123119428Y-99213142D01*
X122862285Y-99213142D01*
X122776571Y-99170285D01*
X122733714Y-99127428D01*
X123848000Y-98313142D02*
X123933714Y-98313142D01*
X124019428Y-98356000D01*
X124062285Y-98398857D01*
X124105142Y-98484571D01*
X124148000Y-98656000D01*
X124148000Y-98870285D01*
X124105142Y-99041714D01*
X124062285Y-99127428D01*
X124019428Y-99170285D01*
X123933714Y-99213142D01*
X123848000Y-99213142D01*
X123762285Y-99170285D01*
X123719428Y-99127428D01*
X123676571Y-99041714D01*
X123633714Y-98870285D01*
X123633714Y-98656000D01*
X123676571Y-98484571D01*
X123719428Y-98398857D01*
X123762285Y-98356000D01*
X123848000Y-98313142D01*
X124919428Y-98313142D02*
X124748000Y-98313142D01*
X124662285Y-98356000D01*
X124619428Y-98398857D01*
X124533714Y-98527428D01*
X124490857Y-98698857D01*
X124490857Y-99041714D01*
X124533714Y-99127428D01*
X124576571Y-99170285D01*
X124662285Y-99213142D01*
X124833714Y-99213142D01*
X124919428Y-99170285D01*
X124962285Y-99127428D01*
X125005142Y-99041714D01*
X125005142Y-98827428D01*
X124962285Y-98741714D01*
X124919428Y-98698857D01*
X124833714Y-98656000D01*
X124662285Y-98656000D01*
X124576571Y-98698857D01*
X124533714Y-98741714D01*
X124490857Y-98827428D01*
X126076571Y-99213142D02*
X126076571Y-98613142D01*
X126076571Y-98313142D02*
X126033714Y-98356000D01*
X126076571Y-98398857D01*
X126119428Y-98356000D01*
X126076571Y-98313142D01*
X126076571Y-98398857D01*
X126462285Y-98398857D02*
X126505142Y-98356000D01*
X126590857Y-98313142D01*
X126805142Y-98313142D01*
X126890857Y-98356000D01*
X126933714Y-98398857D01*
X126976571Y-98484571D01*
X126976571Y-98570285D01*
X126933714Y-98698857D01*
X126419428Y-99213142D01*
X126976571Y-99213142D01*
X127748000Y-99170285D02*
X127662285Y-99213142D01*
X127490857Y-99213142D01*
X127405142Y-99170285D01*
X127362285Y-99127428D01*
X127319428Y-99041714D01*
X127319428Y-98784571D01*
X127362285Y-98698857D01*
X127405142Y-98656000D01*
X127490857Y-98613142D01*
X127662285Y-98613142D01*
X127748000Y-98656000D01*
X115983714Y-99803142D02*
X115983714Y-100531714D01*
X116026571Y-100617428D01*
X116069428Y-100660285D01*
X116155142Y-100703142D01*
X116326571Y-100703142D01*
X116412285Y-100660285D01*
X116455142Y-100617428D01*
X116498000Y-100531714D01*
X116498000Y-99803142D01*
X116883714Y-100660285D02*
X116969428Y-100703142D01*
X117140857Y-100703142D01*
X117226571Y-100660285D01*
X117269428Y-100574571D01*
X117269428Y-100531714D01*
X117226571Y-100446000D01*
X117140857Y-100403142D01*
X117012285Y-100403142D01*
X116926571Y-100360285D01*
X116883714Y-100274571D01*
X116883714Y-100231714D01*
X116926571Y-100146000D01*
X117012285Y-100103142D01*
X117140857Y-100103142D01*
X117226571Y-100146000D01*
X117998000Y-100660285D02*
X117912285Y-100703142D01*
X117740857Y-100703142D01*
X117655142Y-100660285D01*
X117612285Y-100574571D01*
X117612285Y-100231714D01*
X117655142Y-100146000D01*
X117740857Y-100103142D01*
X117912285Y-100103142D01*
X117998000Y-100146000D01*
X118040857Y-100231714D01*
X118040857Y-100317428D01*
X117612285Y-100403142D01*
X119369428Y-99803142D02*
X119369428Y-100446000D01*
X119326571Y-100574571D01*
X119240857Y-100660285D01*
X119112285Y-100703142D01*
X119026571Y-100703142D01*
X119755142Y-99888857D02*
X119798000Y-99846000D01*
X119883714Y-99803142D01*
X120098000Y-99803142D01*
X120183714Y-99846000D01*
X120226571Y-99888857D01*
X120269428Y-99974571D01*
X120269428Y-100060285D01*
X120226571Y-100188857D01*
X119712285Y-100703142D01*
X120269428Y-100703142D01*
X121469428Y-100703142D02*
X121383714Y-100660285D01*
X121340857Y-100617428D01*
X121298000Y-100531714D01*
X121298000Y-100274571D01*
X121340857Y-100188857D01*
X121383714Y-100146000D01*
X121469428Y-100103142D01*
X121598000Y-100103142D01*
X121683714Y-100146000D01*
X121726571Y-100188857D01*
X121769428Y-100274571D01*
X121769428Y-100531714D01*
X121726571Y-100617428D01*
X121683714Y-100660285D01*
X121598000Y-100703142D01*
X121469428Y-100703142D01*
X122155142Y-100703142D02*
X122155142Y-100103142D01*
X122155142Y-100274571D02*
X122198000Y-100188857D01*
X122240857Y-100146000D01*
X122326571Y-100103142D01*
X122412285Y-100103142D01*
X123655142Y-99803142D02*
X123655142Y-100446000D01*
X123612285Y-100574571D01*
X123526571Y-100660285D01*
X123398000Y-100703142D01*
X123312285Y-100703142D01*
X123998000Y-99803142D02*
X124555142Y-99803142D01*
X124255142Y-100146000D01*
X124383714Y-100146000D01*
X124469428Y-100188857D01*
X124512285Y-100231714D01*
X124555142Y-100317428D01*
X124555142Y-100531714D01*
X124512285Y-100617428D01*
X124469428Y-100660285D01*
X124383714Y-100703142D01*
X124126571Y-100703142D01*
X124040857Y-100660285D01*
X123998000Y-100617428D01*
X124983714Y-100660285D02*
X124983714Y-100703142D01*
X124940857Y-100788857D01*
X124898000Y-100831714D01*
X126055142Y-100103142D02*
X126055142Y-100703142D01*
X126055142Y-100188857D02*
X126098000Y-100146000D01*
X126183714Y-100103142D01*
X126312285Y-100103142D01*
X126398000Y-100146000D01*
X126440857Y-100231714D01*
X126440857Y-100703142D01*
X126998000Y-100703142D02*
X126912285Y-100660285D01*
X126869428Y-100617428D01*
X126826571Y-100531714D01*
X126826571Y-100274571D01*
X126869428Y-100188857D01*
X126912285Y-100146000D01*
X126998000Y-100103142D01*
X127126571Y-100103142D01*
X127212285Y-100146000D01*
X127255142Y-100188857D01*
X127298000Y-100274571D01*
X127298000Y-100531714D01*
X127255142Y-100617428D01*
X127212285Y-100660285D01*
X127126571Y-100703142D01*
X126998000Y-100703142D01*
X127555142Y-100103142D02*
X127898000Y-100103142D01*
X127683714Y-99803142D02*
X127683714Y-100574571D01*
X127726571Y-100660285D01*
X127812285Y-100703142D01*
X127898000Y-100703142D01*
X128883714Y-100703142D02*
X128883714Y-99803142D01*
X128883714Y-100146000D02*
X128969428Y-100103142D01*
X129140857Y-100103142D01*
X129226571Y-100146000D01*
X129269428Y-100188857D01*
X129312285Y-100274571D01*
X129312285Y-100531714D01*
X129269428Y-100617428D01*
X129226571Y-100660285D01*
X129140857Y-100703142D01*
X128969428Y-100703142D01*
X128883714Y-100660285D01*
X129826571Y-100703142D02*
X129740857Y-100660285D01*
X129698000Y-100617428D01*
X129655142Y-100531714D01*
X129655142Y-100274571D01*
X129698000Y-100188857D01*
X129740857Y-100146000D01*
X129826571Y-100103142D01*
X129955142Y-100103142D01*
X130040857Y-100146000D01*
X130083714Y-100188857D01*
X130126571Y-100274571D01*
X130126571Y-100531714D01*
X130083714Y-100617428D01*
X130040857Y-100660285D01*
X129955142Y-100703142D01*
X129826571Y-100703142D01*
X130383714Y-100103142D02*
X130726571Y-100103142D01*
X130512285Y-99803142D02*
X130512285Y-100574571D01*
X130555142Y-100660285D01*
X130640857Y-100703142D01*
X130726571Y-100703142D01*
X131026571Y-100703142D02*
X131026571Y-99803142D01*
X131412285Y-100703142D02*
X131412285Y-100231714D01*
X131369428Y-100146000D01*
X131283714Y-100103142D01*
X131155142Y-100103142D01*
X131069428Y-100146000D01*
X131026571Y-100188857D01*
D10*
X104588000Y-106740000D02*
X138684000Y-106680000D01*
X104588000Y-96460000D02*
X138684000Y-96520000D01*
D11*
X143748095Y-112990380D02*
X143271904Y-112990380D01*
X143224285Y-113466571D01*
X143271904Y-113418952D01*
X143367142Y-113371333D01*
X143605238Y-113371333D01*
X143700476Y-113418952D01*
X143748095Y-113466571D01*
X143795714Y-113561809D01*
X143795714Y-113799904D01*
X143748095Y-113895142D01*
X143700476Y-113942761D01*
X143605238Y-113990380D01*
X143367142Y-113990380D01*
X143271904Y-113942761D01*
X143224285Y-113895142D01*
X153606476Y-113323714D02*
X153606476Y-113990380D01*
X153368380Y-112942761D02*
X153130285Y-113657047D01*
X153749333Y-113657047D01*
D10*
X107848476Y-105010000D02*
X107772285Y-104971904D01*
X107658000Y-104971904D01*
X107543714Y-105010000D01*
X107467523Y-105086190D01*
X107429428Y-105162380D01*
X107391333Y-105314761D01*
X107391333Y-105429047D01*
X107429428Y-105581428D01*
X107467523Y-105657619D01*
X107543714Y-105733809D01*
X107658000Y-105771904D01*
X107734190Y-105771904D01*
X107848476Y-105733809D01*
X107886571Y-105695714D01*
X107886571Y-105429047D01*
X107734190Y-105429047D01*
X108229428Y-105771904D02*
X108229428Y-104971904D01*
X108686571Y-105771904D01*
X108686571Y-104971904D01*
X109067523Y-105771904D02*
X109067523Y-104971904D01*
X109258000Y-104971904D01*
X109372285Y-105010000D01*
X109448476Y-105086190D01*
X109486571Y-105162380D01*
X109524666Y-105314761D01*
X109524666Y-105429047D01*
X109486571Y-105581428D01*
X109448476Y-105657619D01*
X109372285Y-105733809D01*
X109258000Y-105771904D01*
X109067523Y-105771904D01*
X107467523Y-103181142D02*
X108077047Y-103181142D01*
X107772285Y-103485904D02*
X107772285Y-102876380D01*
X108838952Y-102685904D02*
X108458000Y-102685904D01*
X108419904Y-103066857D01*
X108458000Y-103028761D01*
X108534190Y-102990666D01*
X108724666Y-102990666D01*
X108800857Y-103028761D01*
X108838952Y-103066857D01*
X108877047Y-103143047D01*
X108877047Y-103333523D01*
X108838952Y-103409714D01*
X108800857Y-103447809D01*
X108724666Y-103485904D01*
X108534190Y-103485904D01*
X108458000Y-103447809D01*
X108419904Y-103409714D01*
X109143714Y-102952571D02*
X109334190Y-103485904D01*
X109524666Y-102952571D01*
X107505619Y-100653809D02*
X107619904Y-100691904D01*
X107810380Y-100691904D01*
X107886571Y-100653809D01*
X107924666Y-100615714D01*
X107962761Y-100539523D01*
X107962761Y-100463333D01*
X107924666Y-100387142D01*
X107886571Y-100349047D01*
X107810380Y-100310952D01*
X107658000Y-100272857D01*
X107581809Y-100234761D01*
X107543714Y-100196666D01*
X107505619Y-100120476D01*
X107505619Y-100044285D01*
X107543714Y-99968095D01*
X107581809Y-99930000D01*
X107658000Y-99891904D01*
X107848476Y-99891904D01*
X107962761Y-99930000D01*
X108762761Y-100615714D02*
X108724666Y-100653809D01*
X108610380Y-100691904D01*
X108534190Y-100691904D01*
X108419904Y-100653809D01*
X108343714Y-100577619D01*
X108305619Y-100501428D01*
X108267523Y-100349047D01*
X108267523Y-100234761D01*
X108305619Y-100082380D01*
X108343714Y-100006190D01*
X108419904Y-99930000D01*
X108534190Y-99891904D01*
X108610380Y-99891904D01*
X108724666Y-99930000D01*
X108762761Y-99968095D01*
X109486571Y-100691904D02*
X109105619Y-100691904D01*
X109105619Y-99891904D01*
X107486571Y-98113809D02*
X107600857Y-98151904D01*
X107791333Y-98151904D01*
X107867523Y-98113809D01*
X107905619Y-98075714D01*
X107943714Y-97999523D01*
X107943714Y-97923333D01*
X107905619Y-97847142D01*
X107867523Y-97809047D01*
X107791333Y-97770952D01*
X107638952Y-97732857D01*
X107562761Y-97694761D01*
X107524666Y-97656666D01*
X107486571Y-97580476D01*
X107486571Y-97504285D01*
X107524666Y-97428095D01*
X107562761Y-97390000D01*
X107638952Y-97351904D01*
X107829428Y-97351904D01*
X107943714Y-97390000D01*
X108286571Y-98151904D02*
X108286571Y-97351904D01*
X108477047Y-97351904D01*
X108591333Y-97390000D01*
X108667523Y-97466190D01*
X108705619Y-97542380D01*
X108743714Y-97694761D01*
X108743714Y-97809047D01*
X108705619Y-97961428D01*
X108667523Y-98037619D01*
X108591333Y-98113809D01*
X108477047Y-98151904D01*
X108286571Y-98151904D01*
X109048476Y-97923333D02*
X109429428Y-97923333D01*
X108972285Y-98151904D02*
X109238952Y-97351904D01*
X109505619Y-98151904D01*
D11*
X107727904Y-129611428D02*
X108489809Y-129611428D01*
X108108857Y-129992380D02*
X108108857Y-129230476D01*
X109442190Y-128992380D02*
X108966000Y-128992380D01*
X108918380Y-129468571D01*
X108966000Y-129420952D01*
X109061238Y-129373333D01*
X109299333Y-129373333D01*
X109394571Y-129420952D01*
X109442190Y-129468571D01*
X109489809Y-129563809D01*
X109489809Y-129801904D01*
X109442190Y-129897142D01*
X109394571Y-129944761D01*
X109299333Y-129992380D01*
X109061238Y-129992380D01*
X108966000Y-129944761D01*
X108918380Y-129897142D01*
X109823142Y-129325714D02*
X110061238Y-129992380D01*
X110299333Y-129325714D01*
X108204095Y-126500000D02*
X108108857Y-126452380D01*
X107966000Y-126452380D01*
X107823142Y-126500000D01*
X107727904Y-126595238D01*
X107680285Y-126690476D01*
X107632666Y-126880952D01*
X107632666Y-127023809D01*
X107680285Y-127214285D01*
X107727904Y-127309523D01*
X107823142Y-127404761D01*
X107966000Y-127452380D01*
X108061238Y-127452380D01*
X108204095Y-127404761D01*
X108251714Y-127357142D01*
X108251714Y-127023809D01*
X108061238Y-127023809D01*
X108680285Y-127452380D02*
X108680285Y-126452380D01*
X109251714Y-127452380D01*
X109251714Y-126452380D01*
X109727904Y-127452380D02*
X109727904Y-126452380D01*
X109966000Y-126452380D01*
X110108857Y-126500000D01*
X110204095Y-126595238D01*
X110251714Y-126690476D01*
X110299333Y-126880952D01*
X110299333Y-127023809D01*
X110251714Y-127214285D01*
X110204095Y-127309523D01*
X110108857Y-127404761D01*
X109966000Y-127452380D01*
X109727904Y-127452380D01*
X108275523Y-124658380D02*
X107799333Y-124658380D01*
X107799333Y-123658380D01*
X109180285Y-124563142D02*
X109132666Y-124610761D01*
X108989809Y-124658380D01*
X108894571Y-124658380D01*
X108751714Y-124610761D01*
X108656476Y-124515523D01*
X108608857Y-124420285D01*
X108561238Y-124229809D01*
X108561238Y-124086952D01*
X108608857Y-123896476D01*
X108656476Y-123801238D01*
X108751714Y-123706000D01*
X108894571Y-123658380D01*
X108989809Y-123658380D01*
X109132666Y-123706000D01*
X109180285Y-123753619D01*
X109608857Y-124658380D02*
X109608857Y-123658380D01*
X110180285Y-124658380D02*
X109751714Y-124086952D01*
X110180285Y-123658380D02*
X109608857Y-124229809D01*
X107942190Y-122118380D02*
X107942190Y-121118380D01*
X108180285Y-121118380D01*
X108323142Y-121166000D01*
X108418380Y-121261238D01*
X108466000Y-121356476D01*
X108513619Y-121546952D01*
X108513619Y-121689809D01*
X108466000Y-121880285D01*
X108418380Y-121975523D01*
X108323142Y-122070761D01*
X108180285Y-122118380D01*
X107942190Y-122118380D01*
X108942190Y-122118380D02*
X108942190Y-121118380D01*
X109418380Y-122118380D02*
X109418380Y-121118380D01*
X109989809Y-122118380D01*
X109989809Y-121118380D01*
X108037428Y-119054571D02*
X108180285Y-119102190D01*
X108227904Y-119149809D01*
X108275523Y-119245047D01*
X108275523Y-119387904D01*
X108227904Y-119483142D01*
X108180285Y-119530761D01*
X108085047Y-119578380D01*
X107704095Y-119578380D01*
X107704095Y-118578380D01*
X108037428Y-118578380D01*
X108132666Y-118626000D01*
X108180285Y-118673619D01*
X108227904Y-118768857D01*
X108227904Y-118864095D01*
X108180285Y-118959333D01*
X108132666Y-119006952D01*
X108037428Y-119054571D01*
X107704095Y-119054571D01*
X109275523Y-119483142D02*
X109227904Y-119530761D01*
X109085047Y-119578380D01*
X108989809Y-119578380D01*
X108846952Y-119530761D01*
X108751714Y-119435523D01*
X108704095Y-119340285D01*
X108656476Y-119149809D01*
X108656476Y-119006952D01*
X108704095Y-118816476D01*
X108751714Y-118721238D01*
X108846952Y-118626000D01*
X108989809Y-118578380D01*
X109085047Y-118578380D01*
X109227904Y-118626000D01*
X109275523Y-118673619D01*
X109704095Y-119578380D02*
X109704095Y-118578380D01*
X110275523Y-119578380D02*
X109846952Y-119006952D01*
X110275523Y-118578380D02*
X109704095Y-119149809D01*
X107680285Y-116990761D02*
X107823142Y-117038380D01*
X108061238Y-117038380D01*
X108156476Y-116990761D01*
X108204095Y-116943142D01*
X108251714Y-116847904D01*
X108251714Y-116752666D01*
X108204095Y-116657428D01*
X108156476Y-116609809D01*
X108061238Y-116562190D01*
X107870761Y-116514571D01*
X107775523Y-116466952D01*
X107727904Y-116419333D01*
X107680285Y-116324095D01*
X107680285Y-116228857D01*
X107727904Y-116133619D01*
X107775523Y-116086000D01*
X107870761Y-116038380D01*
X108108857Y-116038380D01*
X108251714Y-116086000D01*
X109251714Y-116943142D02*
X109204095Y-116990761D01*
X109061238Y-117038380D01*
X108966000Y-117038380D01*
X108823142Y-116990761D01*
X108727904Y-116895523D01*
X108680285Y-116800285D01*
X108632666Y-116609809D01*
X108632666Y-116466952D01*
X108680285Y-116276476D01*
X108727904Y-116181238D01*
X108823142Y-116086000D01*
X108966000Y-116038380D01*
X109061238Y-116038380D01*
X109204095Y-116086000D01*
X109251714Y-116133619D01*
X109680285Y-117038380D02*
X109680285Y-116038380D01*
X110251714Y-117038380D02*
X109823142Y-116466952D01*
X110251714Y-116038380D02*
X109680285Y-116609809D01*
X101147619Y-81266000D02*
X102147619Y-81266000D01*
X101147619Y-81694571D02*
X101671428Y-81694571D01*
X101766666Y-81646952D01*
X101814285Y-81551714D01*
X101814285Y-81408857D01*
X101766666Y-81313619D01*
X101719047Y-81266000D01*
X101814285Y-82027904D02*
X101814285Y-82408857D01*
X102147619Y-82170761D02*
X101290476Y-82170761D01*
X101195238Y-82218380D01*
X101147619Y-82313619D01*
X101147619Y-82408857D01*
X101814285Y-82599333D02*
X101814285Y-82980285D01*
X102147619Y-82742190D02*
X101290476Y-82742190D01*
X101195238Y-82789809D01*
X101147619Y-82885047D01*
X101147619Y-82980285D01*
X101814285Y-83313619D02*
X100814285Y-83313619D01*
X101766666Y-83313619D02*
X101814285Y-83408857D01*
X101814285Y-83599333D01*
X101766666Y-83694571D01*
X101719047Y-83742190D01*
X101623809Y-83789809D01*
X101338095Y-83789809D01*
X101242857Y-83742190D01*
X101195238Y-83694571D01*
X101147619Y-83599333D01*
X101147619Y-83408857D01*
X101195238Y-83313619D01*
X101195238Y-84170761D02*
X101147619Y-84266000D01*
X101147619Y-84456476D01*
X101195238Y-84551714D01*
X101290476Y-84599333D01*
X101338095Y-84599333D01*
X101433333Y-84551714D01*
X101480952Y-84456476D01*
X101480952Y-84313619D01*
X101528571Y-84218380D01*
X101623809Y-84170761D01*
X101671428Y-84170761D01*
X101766666Y-84218380D01*
X101814285Y-84313619D01*
X101814285Y-84456476D01*
X101766666Y-84551714D01*
X101242857Y-85027904D02*
X101195238Y-85075523D01*
X101147619Y-85027904D01*
X101195238Y-84980285D01*
X101242857Y-85027904D01*
X101147619Y-85027904D01*
X101766666Y-85027904D02*
X101719047Y-85075523D01*
X101671428Y-85027904D01*
X101719047Y-84980285D01*
X101766666Y-85027904D01*
X101671428Y-85027904D01*
X102195238Y-86218380D02*
X100909523Y-85361238D01*
X102195238Y-87266000D02*
X100909523Y-86408857D01*
X101814285Y-88027904D02*
X101004761Y-88027904D01*
X100909523Y-87980285D01*
X100861904Y-87932666D01*
X100814285Y-87837428D01*
X100814285Y-87694571D01*
X100861904Y-87599333D01*
X101195238Y-88027904D02*
X101147619Y-87932666D01*
X101147619Y-87742190D01*
X101195238Y-87646952D01*
X101242857Y-87599333D01*
X101338095Y-87551714D01*
X101623809Y-87551714D01*
X101719047Y-87599333D01*
X101766666Y-87646952D01*
X101814285Y-87742190D01*
X101814285Y-87932666D01*
X101766666Y-88027904D01*
X101147619Y-88504095D02*
X101814285Y-88504095D01*
X102147619Y-88504095D02*
X102100000Y-88456476D01*
X102052380Y-88504095D01*
X102100000Y-88551714D01*
X102147619Y-88504095D01*
X102052380Y-88504095D01*
X101814285Y-88837428D02*
X101814285Y-89218380D01*
X102147619Y-88980285D02*
X101290476Y-88980285D01*
X101195238Y-89027904D01*
X101147619Y-89123142D01*
X101147619Y-89218380D01*
X101147619Y-89551714D02*
X102147619Y-89551714D01*
X101147619Y-89980285D02*
X101671428Y-89980285D01*
X101766666Y-89932666D01*
X101814285Y-89837428D01*
X101814285Y-89694571D01*
X101766666Y-89599333D01*
X101719047Y-89551714D01*
X101814285Y-90885047D02*
X101147619Y-90885047D01*
X101814285Y-90456476D02*
X101290476Y-90456476D01*
X101195238Y-90504095D01*
X101147619Y-90599333D01*
X101147619Y-90742190D01*
X101195238Y-90837428D01*
X101242857Y-90885047D01*
X101147619Y-91361238D02*
X102147619Y-91361238D01*
X101766666Y-91361238D02*
X101814285Y-91456476D01*
X101814285Y-91646952D01*
X101766666Y-91742190D01*
X101719047Y-91789809D01*
X101623809Y-91837428D01*
X101338095Y-91837428D01*
X101242857Y-91789809D01*
X101195238Y-91742190D01*
X101147619Y-91646952D01*
X101147619Y-91456476D01*
X101195238Y-91361238D01*
X101242857Y-92266000D02*
X101195238Y-92313619D01*
X101147619Y-92266000D01*
X101195238Y-92218380D01*
X101242857Y-92266000D01*
X101147619Y-92266000D01*
X101195238Y-93170761D02*
X101147619Y-93075523D01*
X101147619Y-92885047D01*
X101195238Y-92789809D01*
X101242857Y-92742190D01*
X101338095Y-92694571D01*
X101623809Y-92694571D01*
X101719047Y-92742190D01*
X101766666Y-92789809D01*
X101814285Y-92885047D01*
X101814285Y-93075523D01*
X101766666Y-93170761D01*
X101147619Y-93742190D02*
X101195238Y-93646952D01*
X101242857Y-93599333D01*
X101338095Y-93551714D01*
X101623809Y-93551714D01*
X101719047Y-93599333D01*
X101766666Y-93646952D01*
X101814285Y-93742190D01*
X101814285Y-93885047D01*
X101766666Y-93980285D01*
X101719047Y-94027904D01*
X101623809Y-94075523D01*
X101338095Y-94075523D01*
X101242857Y-94027904D01*
X101195238Y-93980285D01*
X101147619Y-93885047D01*
X101147619Y-93742190D01*
X101147619Y-94504095D02*
X101814285Y-94504095D01*
X101719047Y-94504095D02*
X101766666Y-94551714D01*
X101814285Y-94646952D01*
X101814285Y-94789809D01*
X101766666Y-94885047D01*
X101671428Y-94932666D01*
X101147619Y-94932666D01*
X101671428Y-94932666D02*
X101766666Y-94980285D01*
X101814285Y-95075523D01*
X101814285Y-95218380D01*
X101766666Y-95313619D01*
X101671428Y-95361238D01*
X101147619Y-95361238D01*
X102195238Y-96551714D02*
X100909523Y-95694571D01*
X101147619Y-97313619D02*
X102147619Y-97313619D01*
X101195238Y-97313619D02*
X101147619Y-97218380D01*
X101147619Y-97027904D01*
X101195238Y-96932666D01*
X101242857Y-96885047D01*
X101338095Y-96837428D01*
X101623809Y-96837428D01*
X101719047Y-96885047D01*
X101766666Y-96932666D01*
X101814285Y-97027904D01*
X101814285Y-97218380D01*
X101766666Y-97313619D01*
X101814285Y-97694571D02*
X101147619Y-97885047D01*
X101623809Y-98075523D01*
X101147619Y-98266000D01*
X101814285Y-98456476D01*
X101147619Y-98837428D02*
X102147619Y-98837428D01*
X101147619Y-99266000D02*
X101671428Y-99266000D01*
X101766666Y-99218380D01*
X101814285Y-99123142D01*
X101814285Y-98980285D01*
X101766666Y-98885047D01*
X101719047Y-98837428D01*
X101147619Y-99742190D02*
X101814285Y-99742190D01*
X102147619Y-99742190D02*
X102100000Y-99694571D01*
X102052380Y-99742190D01*
X102100000Y-99789809D01*
X102147619Y-99742190D01*
X102052380Y-99742190D01*
X101814285Y-100218380D02*
X101147619Y-100218380D01*
X101719047Y-100218380D02*
X101766666Y-100266000D01*
X101814285Y-100361238D01*
X101814285Y-100504095D01*
X101766666Y-100599333D01*
X101671428Y-100646952D01*
X101147619Y-100646952D01*
X101147619Y-101123142D02*
X102147619Y-101123142D01*
X101147619Y-101551714D02*
X101671428Y-101551714D01*
X101766666Y-101504095D01*
X101814285Y-101408857D01*
X101814285Y-101266000D01*
X101766666Y-101170761D01*
X101719047Y-101123142D01*
X101147619Y-102456476D02*
X101671428Y-102456476D01*
X101766666Y-102408857D01*
X101814285Y-102313619D01*
X101814285Y-102123142D01*
X101766666Y-102027904D01*
X101195238Y-102456476D02*
X101147619Y-102361238D01*
X101147619Y-102123142D01*
X101195238Y-102027904D01*
X101290476Y-101980285D01*
X101385714Y-101980285D01*
X101480952Y-102027904D01*
X101528571Y-102123142D01*
X101528571Y-102361238D01*
X101576190Y-102456476D01*
X101147619Y-102932666D02*
X101814285Y-102932666D01*
X101719047Y-102932666D02*
X101766666Y-102980285D01*
X101814285Y-103075523D01*
X101814285Y-103218380D01*
X101766666Y-103313619D01*
X101671428Y-103361238D01*
X101147619Y-103361238D01*
X101671428Y-103361238D02*
X101766666Y-103408857D01*
X101814285Y-103504095D01*
X101814285Y-103646952D01*
X101766666Y-103742190D01*
X101671428Y-103789809D01*
X101147619Y-103789809D01*
X102195238Y-104980285D02*
X100909523Y-104123142D01*
X101147619Y-105313619D02*
X101814285Y-105313619D01*
X101719047Y-105313619D02*
X101766666Y-105361238D01*
X101814285Y-105456476D01*
X101814285Y-105599333D01*
X101766666Y-105694571D01*
X101671428Y-105742190D01*
X101147619Y-105742190D01*
X101671428Y-105742190D02*
X101766666Y-105789809D01*
X101814285Y-105885047D01*
X101814285Y-106027904D01*
X101766666Y-106123142D01*
X101671428Y-106170761D01*
X101147619Y-106170761D01*
X101814285Y-106504095D02*
X101814285Y-106885047D01*
X102147619Y-106646952D02*
X101290476Y-106646952D01*
X101195238Y-106694571D01*
X101147619Y-106789809D01*
X101147619Y-106885047D01*
X102147619Y-107123142D02*
X102147619Y-107742190D01*
X101766666Y-107408857D01*
X101766666Y-107551714D01*
X101719047Y-107646952D01*
X101671428Y-107694571D01*
X101576190Y-107742190D01*
X101338095Y-107742190D01*
X101242857Y-107694571D01*
X101195238Y-107646952D01*
X101147619Y-107551714D01*
X101147619Y-107266000D01*
X101195238Y-107170761D01*
X101242857Y-107123142D01*
X102052380Y-108123142D02*
X102100000Y-108170761D01*
X102147619Y-108265999D01*
X102147619Y-108504095D01*
X102100000Y-108599333D01*
X102052380Y-108646952D01*
X101957142Y-108694571D01*
X101861904Y-108694571D01*
X101719047Y-108646952D01*
X101147619Y-108075523D01*
X101147619Y-108694571D01*
X101528571Y-109123142D02*
X101528571Y-109885047D01*
X101814285Y-110361238D02*
X100814285Y-110361238D01*
X101766666Y-110361238D02*
X101814285Y-110456476D01*
X101814285Y-110646952D01*
X101766666Y-110742190D01*
X101719047Y-110789809D01*
X101623809Y-110837428D01*
X101338095Y-110837428D01*
X101242857Y-110789809D01*
X101195238Y-110742190D01*
X101147619Y-110646952D01*
X101147619Y-110456476D01*
X101195238Y-110361238D01*
X101147619Y-111265999D02*
X101814285Y-111265999D01*
X102147619Y-111265999D02*
X102100000Y-111218380D01*
X102052380Y-111265999D01*
X102100000Y-111313619D01*
X102147619Y-111265999D01*
X102052380Y-111265999D01*
X103449428Y-81614666D02*
X103401809Y-81757523D01*
X103354190Y-81805142D01*
X103258952Y-81852761D01*
X103116095Y-81852761D01*
X103020857Y-81805142D01*
X102973238Y-81757523D01*
X102925619Y-81662285D01*
X102925619Y-81281333D01*
X103925619Y-81281333D01*
X103925619Y-81614666D01*
X103878000Y-81709904D01*
X103830380Y-81757523D01*
X103735142Y-81805142D01*
X103639904Y-81805142D01*
X103544666Y-81757523D01*
X103497047Y-81709904D01*
X103449428Y-81614666D01*
X103449428Y-81281333D01*
X103592285Y-82186095D02*
X102925619Y-82424190D01*
X103592285Y-82662285D02*
X102925619Y-82424190D01*
X102687523Y-82328952D01*
X102639904Y-82281333D01*
X102592285Y-82186095D01*
X103020857Y-84376571D02*
X102973238Y-84328952D01*
X102925619Y-84186095D01*
X102925619Y-84090857D01*
X102973238Y-83948000D01*
X103068476Y-83852761D01*
X103163714Y-83805142D01*
X103354190Y-83757523D01*
X103497047Y-83757523D01*
X103687523Y-83805142D01*
X103782761Y-83852761D01*
X103878000Y-83948000D01*
X103925619Y-84090857D01*
X103925619Y-84186095D01*
X103878000Y-84328952D01*
X103830380Y-84376571D01*
X102925619Y-84805142D02*
X103925619Y-84805142D01*
X102925619Y-85233714D02*
X103449428Y-85233714D01*
X103544666Y-85186095D01*
X103592285Y-85090857D01*
X103592285Y-84948000D01*
X103544666Y-84852761D01*
X103497047Y-84805142D01*
X102925619Y-85709904D02*
X103592285Y-85709904D01*
X103401809Y-85709904D02*
X103497047Y-85757523D01*
X103544666Y-85805142D01*
X103592285Y-85900380D01*
X103592285Y-85995619D01*
X102925619Y-86328952D02*
X103592285Y-86328952D01*
X103925619Y-86328952D02*
X103878000Y-86281333D01*
X103830380Y-86328952D01*
X103878000Y-86376571D01*
X103925619Y-86328952D01*
X103830380Y-86328952D01*
X102973238Y-86757523D02*
X102925619Y-86852761D01*
X102925619Y-87043238D01*
X102973238Y-87138476D01*
X103068476Y-87186095D01*
X103116095Y-87186095D01*
X103211333Y-87138476D01*
X103258952Y-87043238D01*
X103258952Y-86900380D01*
X103306571Y-86805142D01*
X103401809Y-86757523D01*
X103449428Y-86757523D01*
X103544666Y-86805142D01*
X103592285Y-86900380D01*
X103592285Y-87043238D01*
X103544666Y-87138476D01*
X102973238Y-87567047D02*
X102925619Y-87662285D01*
X102925619Y-87852761D01*
X102973238Y-87948000D01*
X103068476Y-87995619D01*
X103116095Y-87995619D01*
X103211333Y-87948000D01*
X103258952Y-87852761D01*
X103258952Y-87709904D01*
X103306571Y-87614666D01*
X103401809Y-87567047D01*
X103449428Y-87567047D01*
X103544666Y-87614666D01*
X103592285Y-87709904D01*
X103592285Y-87852761D01*
X103544666Y-87948000D01*
X103592285Y-88328952D02*
X102925619Y-88567047D01*
X103592285Y-88805142D02*
X102925619Y-88567047D01*
X102687523Y-88471809D01*
X102639904Y-88424190D01*
X102592285Y-88328952D01*
X103830380Y-89900380D02*
X103878000Y-89948000D01*
X103925619Y-90043238D01*
X103925619Y-90281333D01*
X103878000Y-90376571D01*
X103830380Y-90424190D01*
X103735142Y-90471809D01*
X103639904Y-90471809D01*
X103497047Y-90424190D01*
X102925619Y-89852761D01*
X102925619Y-90471809D01*
X103925619Y-91090857D02*
X103925619Y-91186095D01*
X103878000Y-91281333D01*
X103830380Y-91328952D01*
X103735142Y-91376571D01*
X103544666Y-91424190D01*
X103306571Y-91424190D01*
X103116095Y-91376571D01*
X103020857Y-91328952D01*
X102973238Y-91281333D01*
X102925619Y-91186095D01*
X102925619Y-91090857D01*
X102973238Y-90995619D01*
X103020857Y-90948000D01*
X103116095Y-90900380D01*
X103306571Y-90852761D01*
X103544666Y-90852761D01*
X103735142Y-90900380D01*
X103830380Y-90948000D01*
X103878000Y-90995619D01*
X103925619Y-91090857D01*
X103830380Y-91805142D02*
X103878000Y-91852761D01*
X103925619Y-91948000D01*
X103925619Y-92186095D01*
X103878000Y-92281333D01*
X103830380Y-92328952D01*
X103735142Y-92376571D01*
X103639904Y-92376571D01*
X103497047Y-92328952D01*
X102925619Y-91757523D01*
X102925619Y-92376571D01*
X103925619Y-92995619D02*
X103925619Y-93090857D01*
X103878000Y-93186095D01*
X103830380Y-93233714D01*
X103735142Y-93281333D01*
X103544666Y-93328952D01*
X103306571Y-93328952D01*
X103116095Y-93281333D01*
X103020857Y-93233714D01*
X102973238Y-93186095D01*
X102925619Y-93090857D01*
X102925619Y-92995619D01*
X102973238Y-92900380D01*
X103020857Y-92852761D01*
X103116095Y-92805142D01*
X103306571Y-92757523D01*
X103544666Y-92757523D01*
X103735142Y-92805142D01*
X103830380Y-92852761D01*
X103878000Y-92900380D01*
X103925619Y-92995619D01*
X103925619Y-94376571D02*
X102925619Y-94709904D01*
X103925619Y-95043238D01*
X102973238Y-95757523D02*
X102925619Y-95662285D01*
X102925619Y-95471809D01*
X102973238Y-95376571D01*
X103068476Y-95328952D01*
X103449428Y-95328952D01*
X103544666Y-95376571D01*
X103592285Y-95471809D01*
X103592285Y-95662285D01*
X103544666Y-95757523D01*
X103449428Y-95805142D01*
X103354190Y-95805142D01*
X103258952Y-95328952D01*
X102925619Y-96233714D02*
X103592285Y-96233714D01*
X103401809Y-96233714D02*
X103497047Y-96281333D01*
X103544666Y-96328952D01*
X103592285Y-96424190D01*
X103592285Y-96519428D01*
X102973238Y-96805142D02*
X102925619Y-96900380D01*
X102925619Y-97090857D01*
X102973238Y-97186095D01*
X103068476Y-97233714D01*
X103116095Y-97233714D01*
X103211333Y-97186095D01*
X103258952Y-97090857D01*
X103258952Y-96947999D01*
X103306571Y-96852761D01*
X103401809Y-96805142D01*
X103449428Y-96805142D01*
X103544666Y-96852761D01*
X103592285Y-96947999D01*
X103592285Y-97090857D01*
X103544666Y-97186095D01*
X102925619Y-97662285D02*
X103592285Y-97662285D01*
X103925619Y-97662285D02*
X103878000Y-97614666D01*
X103830380Y-97662285D01*
X103878000Y-97709904D01*
X103925619Y-97662285D01*
X103830380Y-97662285D01*
X102925619Y-98281333D02*
X102973238Y-98186095D01*
X103020857Y-98138476D01*
X103116095Y-98090857D01*
X103401809Y-98090857D01*
X103497047Y-98138476D01*
X103544666Y-98186095D01*
X103592285Y-98281333D01*
X103592285Y-98424190D01*
X103544666Y-98519428D01*
X103497047Y-98567047D01*
X103401809Y-98614666D01*
X103116095Y-98614666D01*
X103020857Y-98567047D01*
X102973238Y-98519428D01*
X102925619Y-98424190D01*
X102925619Y-98281333D01*
X103592285Y-99043238D02*
X102925619Y-99043238D01*
X103497047Y-99043238D02*
X103544666Y-99090857D01*
X103592285Y-99186095D01*
X103592285Y-99328952D01*
X103544666Y-99424190D01*
X103449428Y-99471809D01*
X102925619Y-99471809D01*
X102925619Y-101233714D02*
X102925619Y-100662285D01*
X102925619Y-100947999D02*
X103925619Y-100947999D01*
X103782761Y-100852761D01*
X103687523Y-100757523D01*
X103639904Y-100662285D01*
X103020857Y-101662285D02*
X102973238Y-101709904D01*
X102925619Y-101662285D01*
X102973238Y-101614666D01*
X103020857Y-101662285D01*
X102925619Y-101662285D01*
X103925619Y-102614666D02*
X103925619Y-102138476D01*
X103449428Y-102090857D01*
X103497047Y-102138476D01*
X103544666Y-102233714D01*
X103544666Y-102471809D01*
X103497047Y-102567047D01*
X103449428Y-102614666D01*
X103354190Y-102662285D01*
X103116095Y-102662285D01*
X103020857Y-102614666D01*
X102973238Y-102567047D01*
X102925619Y-102471809D01*
X102925619Y-102233714D01*
X102973238Y-102138476D01*
X103020857Y-102090857D01*
X104703619Y-81368190D02*
X105370285Y-81368190D01*
X105275047Y-81368190D02*
X105322666Y-81415809D01*
X105370285Y-81511047D01*
X105370285Y-81653904D01*
X105322666Y-81749142D01*
X105227428Y-81796761D01*
X104703619Y-81796761D01*
X105227428Y-81796761D02*
X105322666Y-81844380D01*
X105370285Y-81939619D01*
X105370285Y-82082476D01*
X105322666Y-82177714D01*
X105227428Y-82225333D01*
X104703619Y-82225333D01*
X105370285Y-82558666D02*
X105370285Y-82939619D01*
X105703619Y-82701523D02*
X104846476Y-82701523D01*
X104751238Y-82749142D01*
X104703619Y-82844380D01*
X104703619Y-82939619D01*
X105703619Y-83177714D02*
X105703619Y-83796761D01*
X105322666Y-83463428D01*
X105322666Y-83606285D01*
X105275047Y-83701523D01*
X105227428Y-83749142D01*
X105132190Y-83796761D01*
X104894095Y-83796761D01*
X104798857Y-83749142D01*
X104751238Y-83701523D01*
X104703619Y-83606285D01*
X104703619Y-83320571D01*
X104751238Y-83225333D01*
X104798857Y-83177714D01*
X105608380Y-84177714D02*
X105656000Y-84225333D01*
X105703619Y-84320571D01*
X105703619Y-84558666D01*
X105656000Y-84653904D01*
X105608380Y-84701523D01*
X105513142Y-84749142D01*
X105417904Y-84749142D01*
X105275047Y-84701523D01*
X104703619Y-84130095D01*
X104703619Y-84749142D01*
X105084571Y-85177714D02*
X105084571Y-85939619D01*
X104703619Y-86415809D02*
X105703619Y-86415809D01*
X105703619Y-86796761D01*
X105656000Y-86892000D01*
X105608380Y-86939619D01*
X105513142Y-86987238D01*
X105370285Y-86987238D01*
X105275047Y-86939619D01*
X105227428Y-86892000D01*
X105179809Y-86796761D01*
X105179809Y-86415809D01*
X104703619Y-87415809D02*
X105370285Y-87415809D01*
X105703619Y-87415809D02*
X105656000Y-87368190D01*
X105608380Y-87415809D01*
X105656000Y-87463428D01*
X105703619Y-87415809D01*
X105608380Y-87415809D01*
X105084571Y-87892000D02*
X105084571Y-88653904D01*
X104703619Y-89130095D02*
X105703619Y-89130095D01*
X104989333Y-89463428D01*
X105703619Y-89796761D01*
X104703619Y-89796761D01*
X104703619Y-90272952D02*
X105370285Y-90272952D01*
X105703619Y-90272952D02*
X105656000Y-90225333D01*
X105608380Y-90272952D01*
X105656000Y-90320571D01*
X105703619Y-90272952D01*
X105608380Y-90272952D01*
X104703619Y-91177714D02*
X105703619Y-91177714D01*
X104751238Y-91177714D02*
X104703619Y-91082476D01*
X104703619Y-90892000D01*
X104751238Y-90796761D01*
X104798857Y-90749142D01*
X104894095Y-90701523D01*
X105179809Y-90701523D01*
X105275047Y-90749142D01*
X105322666Y-90796761D01*
X105370285Y-90892000D01*
X105370285Y-91082476D01*
X105322666Y-91177714D01*
X104703619Y-91653904D02*
X105370285Y-91653904D01*
X105703619Y-91653904D02*
X105656000Y-91606285D01*
X105608380Y-91653904D01*
X105656000Y-91701523D01*
X105703619Y-91653904D01*
X105608380Y-91653904D01*
X105084571Y-92130095D02*
X105084571Y-92892000D01*
X104703619Y-93368190D02*
X105703619Y-93368190D01*
X105227428Y-93368190D02*
X105227428Y-93939619D01*
X104703619Y-93939619D02*
X105703619Y-93939619D01*
X104703619Y-94844380D02*
X105227428Y-94844380D01*
X105322666Y-94796761D01*
X105370285Y-94701523D01*
X105370285Y-94511047D01*
X105322666Y-94415809D01*
X104751238Y-94844380D02*
X104703619Y-94749142D01*
X104703619Y-94511047D01*
X104751238Y-94415809D01*
X104846476Y-94368190D01*
X104941714Y-94368190D01*
X105036952Y-94415809D01*
X105084571Y-94511047D01*
X105084571Y-94749142D01*
X105132190Y-94844380D01*
X105370285Y-95177714D02*
X105370285Y-95558666D01*
X105703619Y-95320571D02*
X104846476Y-95320571D01*
X104751238Y-95368190D01*
X104703619Y-95463428D01*
X104703619Y-95558666D01*
D10*
X119320000Y-128972000D02*
X120650000Y-128972000D01*
X119320000Y-130302000D02*
X119320000Y-128972000D01*
X119320000Y-131572000D02*
X121980000Y-131572000D01*
X121980000Y-131572000D02*
X121980000Y-131632000D01*
X119320000Y-131572000D02*
X119320000Y-131632000D01*
X119320000Y-131632000D02*
X121980000Y-131632000D01*
X110938000Y-95564000D02*
X110938000Y-94234000D01*
X112268000Y-95564000D02*
X110938000Y-95564000D01*
X113538000Y-95564000D02*
X113538000Y-92904000D01*
X113538000Y-92904000D02*
X136458000Y-92904000D01*
X113538000Y-95564000D02*
X136458000Y-95564000D01*
X136458000Y-95564000D02*
X136458000Y-92904000D01*
X118558000Y-106740000D02*
X118558000Y-105410000D01*
X119888000Y-106740000D02*
X118558000Y-106740000D01*
X121158000Y-106740000D02*
X121158000Y-104080000D01*
X121158000Y-104080000D02*
X128838000Y-104080000D01*
X121158000Y-106740000D02*
X128838000Y-106740000D01*
X128838000Y-106740000D02*
X128838000Y-104080000D01*
X134680000Y-108398000D02*
X134680000Y-109728000D01*
X133350000Y-108398000D02*
X134680000Y-108398000D01*
X132080000Y-108398000D02*
X132080000Y-111058000D01*
X132080000Y-111058000D02*
X106620000Y-111058000D01*
X132080000Y-108398000D02*
X106620000Y-108398000D01*
X106620000Y-108398000D02*
X106620000Y-111058000D01*
X131378000Y-114748000D02*
X131378000Y-116078000D01*
X130048000Y-114748000D02*
X131378000Y-114748000D01*
X128778000Y-114748000D02*
X128778000Y-117408000D01*
X128778000Y-117408000D02*
X128718000Y-117408000D01*
X128778000Y-114748000D02*
X128718000Y-114748000D01*
X128718000Y-114748000D02*
X128718000Y-117408000D01*
X160883600Y-101878000D02*
X160883600Y-102648000D01*
X160883600Y-109958000D02*
X160883600Y-109188000D01*
X159513600Y-102648000D02*
X159513600Y-109188000D01*
X162253600Y-102648000D02*
X159513600Y-102648000D01*
X162253600Y-109188000D02*
X162253600Y-102648000D01*
X159513600Y-109188000D02*
X162253600Y-109188000D01*
X156972000Y-109958000D02*
X156972000Y-109188000D01*
X156972000Y-101878000D02*
X156972000Y-102648000D01*
X158342000Y-109188000D02*
X158342000Y-102648000D01*
X155602000Y-109188000D02*
X158342000Y-109188000D01*
X155602000Y-102648000D02*
X155602000Y-109188000D01*
X158342000Y-102648000D02*
X155602000Y-102648000D01*
X140820000Y-104398000D02*
X138580000Y-104398000D01*
X140820000Y-104638000D02*
X138580000Y-104638000D01*
X140820000Y-104518000D02*
X138580000Y-104518000D01*
X139700000Y-109958000D02*
X139700000Y-108038000D01*
X139700000Y-101878000D02*
X139700000Y-103798000D01*
X140820000Y-108038000D02*
X140820000Y-103798000D01*
X138580000Y-108038000D02*
X140820000Y-108038000D01*
X138580000Y-103798000D02*
X138580000Y-108038000D01*
X140820000Y-103798000D02*
X138580000Y-103798000D01*
D11*
X141916000Y-129753000D02*
X138916000Y-129753000D01*
X149616000Y-129753000D02*
X147216000Y-129753000D01*
X157916000Y-129753000D02*
X154916000Y-129753000D01*
X138416000Y-131753000D02*
X158416000Y-131753000D01*
X158416000Y-131753000D02*
X158416000Y-112753000D01*
X158416000Y-112753000D02*
X138416000Y-112753000D01*
X138416000Y-112753000D02*
X138416000Y-131753000D01*
D10*
X104588000Y-115256000D02*
X105918000Y-115256000D01*
X104588000Y-116586000D02*
X104588000Y-115256000D01*
X104588000Y-117856000D02*
X107248000Y-117856000D01*
X107248000Y-117856000D02*
X107248000Y-130616000D01*
X104588000Y-117856000D02*
X104588000Y-130616000D01*
X104588000Y-130616000D02*
X107248000Y-130616000D01*
X151992200Y-96166000D02*
X151992200Y-98906000D01*
X144752200Y-96166000D02*
X144752200Y-98906000D01*
X144752200Y-98906000D02*
X151992200Y-98906000D01*
X144752200Y-96166000D02*
X151992200Y-96166000D01*
X144546000Y-101998000D02*
X144546000Y-103648000D01*
X152286000Y-101998000D02*
X144546000Y-101998000D01*
X152286000Y-107298000D02*
X152286000Y-101998000D01*
X144546000Y-107298000D02*
X152286000Y-107298000D01*
X144546000Y-105648000D02*
X144546000Y-107298000D01*
X144546000Y-103648000D02*
G75*
G02X144546000Y-105648000I0J-1000000D01*
G01*
X104588000Y-96460000D02*
X105918000Y-96460000D01*
X104588000Y-97790000D02*
X104588000Y-96460000D01*
X104588000Y-99060000D02*
X107248000Y-99060000D01*
X107248000Y-99060000D02*
X107248000Y-106740000D01*
X104588000Y-99060000D02*
X104588000Y-106740000D01*
X104588000Y-106740000D02*
X107248000Y-106740000D01*
D12*
X161704500Y-128248000D02*
G75*
G03X161704500Y-128248000I-1450000J0D01*
G01*
X103704500Y-128248000D02*
G75*
G03X103704500Y-128248000I-1450000J0D01*
G01*
X161704500Y-79248000D02*
G75*
G03X161704500Y-79248000I-1450000J0D01*
G01*
X103704500Y-79248000D02*
G75*
G03X103704500Y-79248000I-1450000J0D01*
G01*
X156209500Y-80518000D02*
G75*
G03X156209500Y-80518000I-825000J0D01*
G01*
X156209500Y-77978000D02*
G75*
G03X156209500Y-77978000I-825000J0D01*
G01*
X153669500Y-80518000D02*
G75*
G03X153669500Y-80518000I-825000J0D01*
G01*
X153669500Y-77978000D02*
G75*
G03X153669500Y-77978000I-825000J0D01*
G01*
X151129500Y-80518000D02*
G75*
G03X151129500Y-80518000I-825000J0D01*
G01*
X151129500Y-77978000D02*
G75*
G03X151129500Y-77978000I-825000J0D01*
G01*
X148589500Y-80518000D02*
G75*
G03X148589500Y-80518000I-825000J0D01*
G01*
X148589500Y-77978000D02*
G75*
G03X148589500Y-77978000I-825000J0D01*
G01*
X146049500Y-80518000D02*
G75*
G03X146049500Y-80518000I-825000J0D01*
G01*
X146049500Y-77978000D02*
G75*
G03X146049500Y-77978000I-825000J0D01*
G01*
X138429500Y-77978000D02*
G75*
G03X138429500Y-77978000I-825000J0D01*
G01*
X138429500Y-80518000D02*
G75*
G03X138429500Y-80518000I-825000J0D01*
G01*
X133349500Y-77978000D02*
G75*
G03X133349500Y-77978000I-825000J0D01*
G01*
X133349500Y-80518000D02*
G75*
G03X133349500Y-80518000I-825000J0D01*
G01*
X130809500Y-77978000D02*
G75*
G03X130809500Y-77978000I-825000J0D01*
G01*
X130809500Y-80518000D02*
G75*
G03X130809500Y-80518000I-825000J0D01*
G01*
X128269500Y-77978000D02*
G75*
G03X128269500Y-77978000I-825000J0D01*
G01*
X128269500Y-80518000D02*
G75*
G03X128269500Y-80518000I-825000J0D01*
G01*
X125729500Y-77978000D02*
G75*
G03X125729500Y-77978000I-825000J0D01*
G01*
X125729500Y-80518000D02*
G75*
G03X125729500Y-80518000I-825000J0D01*
G01*
X123189500Y-77978000D02*
G75*
G03X123189500Y-77978000I-825000J0D01*
G01*
X123189500Y-80518000D02*
G75*
G03X123189500Y-80518000I-825000J0D01*
G01*
X120649500Y-77978000D02*
G75*
G03X120649500Y-77978000I-825000J0D01*
G01*
X120649500Y-80518000D02*
G75*
G03X120649500Y-80518000I-825000J0D01*
G01*
X118109500Y-77978000D02*
G75*
G03X118109500Y-77978000I-825000J0D01*
G01*
X118109500Y-80518000D02*
G75*
G03X118109500Y-80518000I-825000J0D01*
G01*
X115569500Y-77978000D02*
G75*
G03X115569500Y-77978000I-825000J0D01*
G01*
X115569500Y-80518000D02*
G75*
G03X115569500Y-80518000I-825000J0D01*
G01*
X113029500Y-77978000D02*
G75*
G03X113029500Y-77978000I-825000J0D01*
G01*
X113029500Y-80518000D02*
G75*
G03X113029500Y-80518000I-825000J0D01*
G01*
X110489500Y-77978000D02*
G75*
G03X110489500Y-77978000I-825000J0D01*
G01*
X110489500Y-80518000D02*
G75*
G03X110489500Y-80518000I-825000J0D01*
G01*
X107949500Y-77978000D02*
G75*
G03X107949500Y-77978000I-825000J0D01*
G01*
X106299500Y-79693000D02*
X106299500Y-81343000D01*
X107949500Y-81343000D01*
X107949500Y-79693000D01*
X106299500Y-79693000D01*
X135889500Y-80518000D02*
G75*
G03X135889500Y-80518000I-825000J0D01*
G01*
X135889500Y-77978000D02*
G75*
G03X135889500Y-77978000I-825000J0D01*
G01*
X143509500Y-77978000D02*
G75*
G03X143509500Y-77978000I-825000J0D01*
G01*
X143509500Y-80518000D02*
G75*
G03X143509500Y-80518000I-825000J0D01*
G01*
X140969500Y-77978000D02*
G75*
G03X140969500Y-77978000I-825000J0D01*
G01*
X140969500Y-80518000D02*
G75*
G03X140969500Y-80518000I-825000J0D01*
G01*
D11*
X109390380Y-94567333D02*
X110104666Y-94567333D01*
X110247523Y-94614952D01*
X110342761Y-94710190D01*
X110390380Y-94853047D01*
X110390380Y-94948285D01*
X109390380Y-93662571D02*
X109390380Y-93853047D01*
X109438000Y-93948285D01*
X109485619Y-93995904D01*
X109628476Y-94091142D01*
X109818952Y-94138761D01*
X110199904Y-94138761D01*
X110295142Y-94091142D01*
X110342761Y-94043523D01*
X110390380Y-93948285D01*
X110390380Y-93757809D01*
X110342761Y-93662571D01*
X110295142Y-93614952D01*
X110199904Y-93567333D01*
X109961809Y-93567333D01*
X109866571Y-93614952D01*
X109818952Y-93662571D01*
X109771333Y-93757809D01*
X109771333Y-93948285D01*
X109818952Y-94043523D01*
X109866571Y-94091142D01*
X109961809Y-94138761D01*
X117531333Y-89352380D02*
X117531333Y-88352380D01*
X117531333Y-88828571D02*
X118102761Y-88828571D01*
X118102761Y-89352380D02*
X118102761Y-88352380D01*
X118578952Y-89352380D02*
X118578952Y-88685714D01*
X118578952Y-88352380D02*
X118531333Y-88400000D01*
X118578952Y-88447619D01*
X118626571Y-88400000D01*
X118578952Y-88352380D01*
X118578952Y-88447619D01*
X118912285Y-88685714D02*
X119293238Y-88685714D01*
X119055142Y-88352380D02*
X119055142Y-89209523D01*
X119102761Y-89304761D01*
X119198000Y-89352380D01*
X119293238Y-89352380D01*
X120055142Y-89352380D02*
X120055142Y-88828571D01*
X120007523Y-88733333D01*
X119912285Y-88685714D01*
X119721809Y-88685714D01*
X119626571Y-88733333D01*
X120055142Y-89304761D02*
X119959904Y-89352380D01*
X119721809Y-89352380D01*
X119626571Y-89304761D01*
X119578952Y-89209523D01*
X119578952Y-89114285D01*
X119626571Y-89019047D01*
X119721809Y-88971428D01*
X119959904Y-88971428D01*
X120055142Y-88923809D01*
X120959904Y-89304761D02*
X120864666Y-89352380D01*
X120674190Y-89352380D01*
X120578952Y-89304761D01*
X120531333Y-89257142D01*
X120483714Y-89161904D01*
X120483714Y-88876190D01*
X120531333Y-88780952D01*
X120578952Y-88733333D01*
X120674190Y-88685714D01*
X120864666Y-88685714D01*
X120959904Y-88733333D01*
X121388476Y-89352380D02*
X121388476Y-88352380D01*
X121817047Y-89352380D02*
X121817047Y-88828571D01*
X121769428Y-88733333D01*
X121674190Y-88685714D01*
X121531333Y-88685714D01*
X121436095Y-88733333D01*
X121388476Y-88780952D01*
X122293238Y-89352380D02*
X122293238Y-88685714D01*
X122293238Y-88352380D02*
X122245619Y-88400000D01*
X122293238Y-88447619D01*
X122340857Y-88400000D01*
X122293238Y-88352380D01*
X122293238Y-88447619D01*
X123531333Y-89352380D02*
X123531333Y-88352380D01*
X123531333Y-88828571D02*
X124102761Y-88828571D01*
X124102761Y-89352380D02*
X124102761Y-88352380D01*
X124578952Y-89352380D02*
X124578952Y-88352380D01*
X124817047Y-88352380D01*
X124959904Y-88400000D01*
X125055142Y-88495238D01*
X125102761Y-88590476D01*
X125150380Y-88780952D01*
X125150380Y-88923809D01*
X125102761Y-89114285D01*
X125055142Y-89209523D01*
X124959904Y-89304761D01*
X124817047Y-89352380D01*
X124578952Y-89352380D01*
X126007523Y-88685714D02*
X126007523Y-89352380D01*
X125769428Y-88304761D02*
X125531333Y-89019047D01*
X126150380Y-89019047D01*
X126959904Y-88685714D02*
X126959904Y-89352380D01*
X126721809Y-88304761D02*
X126483714Y-89019047D01*
X127102761Y-89019047D01*
X127388476Y-88352380D02*
X128055142Y-88352380D01*
X127626571Y-89352380D01*
X128578952Y-88780952D02*
X128483714Y-88733333D01*
X128436095Y-88685714D01*
X128388476Y-88590476D01*
X128388476Y-88542857D01*
X128436095Y-88447619D01*
X128483714Y-88400000D01*
X128578952Y-88352380D01*
X128769428Y-88352380D01*
X128864666Y-88400000D01*
X128912285Y-88447619D01*
X128959904Y-88542857D01*
X128959904Y-88590476D01*
X128912285Y-88685714D01*
X128864666Y-88733333D01*
X128769428Y-88780952D01*
X128578952Y-88780952D01*
X128483714Y-88828571D01*
X128436095Y-88876190D01*
X128388476Y-88971428D01*
X128388476Y-89161904D01*
X128436095Y-89257142D01*
X128483714Y-89304761D01*
X128578952Y-89352380D01*
X128769428Y-89352380D01*
X128864666Y-89304761D01*
X128912285Y-89257142D01*
X128959904Y-89161904D01*
X128959904Y-88971428D01*
X128912285Y-88876190D01*
X128864666Y-88828571D01*
X128769428Y-88780952D01*
X129578952Y-88352380D02*
X129674190Y-88352380D01*
X129769428Y-88400000D01*
X129817047Y-88447619D01*
X129864666Y-88542857D01*
X129912285Y-88733333D01*
X129912285Y-88971428D01*
X129864666Y-89161904D01*
X129817047Y-89257142D01*
X129769428Y-89304761D01*
X129674190Y-89352380D01*
X129578952Y-89352380D01*
X129483714Y-89304761D01*
X129436095Y-89257142D01*
X129388476Y-89161904D01*
X129340857Y-88971428D01*
X129340857Y-88733333D01*
X129388476Y-88542857D01*
X129436095Y-88447619D01*
X129483714Y-88400000D01*
X129578952Y-88352380D01*
X116760666Y-104862380D02*
X116760666Y-105576666D01*
X116713047Y-105719523D01*
X116617809Y-105814761D01*
X116474952Y-105862380D01*
X116379714Y-105862380D01*
X117141619Y-104862380D02*
X117760666Y-104862380D01*
X117427333Y-105243333D01*
X117570190Y-105243333D01*
X117665428Y-105290952D01*
X117713047Y-105338571D01*
X117760666Y-105433809D01*
X117760666Y-105671904D01*
X117713047Y-105767142D01*
X117665428Y-105814761D01*
X117570190Y-105862380D01*
X117284476Y-105862380D01*
X117189238Y-105814761D01*
X117141619Y-105767142D01*
D10*
X129394095Y-104971904D02*
X129546476Y-104971904D01*
X129622666Y-105010000D01*
X129698857Y-105086190D01*
X129736952Y-105238571D01*
X129736952Y-105505238D01*
X129698857Y-105657619D01*
X129622666Y-105733809D01*
X129546476Y-105771904D01*
X129394095Y-105771904D01*
X129317904Y-105733809D01*
X129241714Y-105657619D01*
X129203619Y-105505238D01*
X129203619Y-105238571D01*
X129241714Y-105086190D01*
X129317904Y-105010000D01*
X129394095Y-104971904D01*
X130460761Y-105771904D02*
X130079809Y-105771904D01*
X130079809Y-104971904D01*
X130727428Y-105352857D02*
X130994095Y-105352857D01*
X131108380Y-105771904D02*
X130727428Y-105771904D01*
X130727428Y-104971904D01*
X131108380Y-104971904D01*
X131451238Y-105771904D02*
X131451238Y-104971904D01*
X131641714Y-104971904D01*
X131756000Y-105010000D01*
X131832190Y-105086190D01*
X131870285Y-105162380D01*
X131908380Y-105314761D01*
X131908380Y-105429047D01*
X131870285Y-105581428D01*
X131832190Y-105657619D01*
X131756000Y-105733809D01*
X131641714Y-105771904D01*
X131451238Y-105771904D01*
D11*
X133778666Y-106894380D02*
X133778666Y-107608666D01*
X133731047Y-107751523D01*
X133635809Y-107846761D01*
X133492952Y-107894380D01*
X133397714Y-107894380D01*
X134731047Y-106894380D02*
X134254857Y-106894380D01*
X134207238Y-107370571D01*
X134254857Y-107322952D01*
X134350095Y-107275333D01*
X134588190Y-107275333D01*
X134683428Y-107322952D01*
X134731047Y-107370571D01*
X134778666Y-107465809D01*
X134778666Y-107703904D01*
X134731047Y-107799142D01*
X134683428Y-107846761D01*
X134588190Y-107894380D01*
X134350095Y-107894380D01*
X134254857Y-107846761D01*
X134207238Y-107799142D01*
X160716933Y-99029780D02*
X160383600Y-98553590D01*
X160145504Y-99029780D02*
X160145504Y-98029780D01*
X160526457Y-98029780D01*
X160621695Y-98077400D01*
X160669314Y-98125019D01*
X160716933Y-98220257D01*
X160716933Y-98363114D01*
X160669314Y-98458352D01*
X160621695Y-98505971D01*
X160526457Y-98553590D01*
X160145504Y-98553590D01*
X161097885Y-98125019D02*
X161145504Y-98077400D01*
X161240742Y-98029780D01*
X161478838Y-98029780D01*
X161574076Y-98077400D01*
X161621695Y-98125019D01*
X161669314Y-98220257D01*
X161669314Y-98315495D01*
X161621695Y-98458352D01*
X161050266Y-99029780D01*
X161669314Y-99029780D01*
X161234380Y-95940285D02*
X161234380Y-96511714D01*
X161234380Y-96226000D02*
X160234380Y-96226000D01*
X160377238Y-96321238D01*
X160472476Y-96416476D01*
X160520095Y-96511714D01*
X161234380Y-95511714D02*
X160234380Y-95511714D01*
X161234380Y-94940285D02*
X160662952Y-95368857D01*
X160234380Y-94940285D02*
X160805809Y-95511714D01*
X161234380Y-94559333D02*
X161234380Y-94321238D01*
X161043904Y-94321238D01*
X160996285Y-94416476D01*
X160901047Y-94511714D01*
X160758190Y-94559333D01*
X160520095Y-94559333D01*
X160377238Y-94511714D01*
X160282000Y-94416476D01*
X160234380Y-94273619D01*
X160234380Y-94083142D01*
X160282000Y-93940285D01*
X160377238Y-93845047D01*
X160520095Y-93797428D01*
X160758190Y-93797428D01*
X160901047Y-93845047D01*
X160996285Y-93940285D01*
X161043904Y-94035523D01*
X161234380Y-94035523D01*
X161234380Y-93797428D01*
X160234380Y-92130761D02*
X160234380Y-92606952D01*
X160710571Y-92654571D01*
X160662952Y-92606952D01*
X160615333Y-92511714D01*
X160615333Y-92273619D01*
X160662952Y-92178380D01*
X160710571Y-92130761D01*
X160805809Y-92083142D01*
X161043904Y-92083142D01*
X161139142Y-92130761D01*
X161186761Y-92178380D01*
X161234380Y-92273619D01*
X161234380Y-92511714D01*
X161186761Y-92606952D01*
X161139142Y-92654571D01*
X161234380Y-91702190D02*
X160234380Y-90940285D01*
X160234380Y-91559333D02*
X160282000Y-91464095D01*
X160377238Y-91416476D01*
X160472476Y-91464095D01*
X160520095Y-91559333D01*
X160472476Y-91654571D01*
X160377238Y-91702190D01*
X160282000Y-91654571D01*
X160234380Y-91559333D01*
X161186761Y-90987904D02*
X161091523Y-90940285D01*
X160996285Y-90987904D01*
X160948666Y-91083142D01*
X160996285Y-91178380D01*
X161091523Y-91226000D01*
X161186761Y-91178380D01*
X161234380Y-91083142D01*
X161186761Y-90987904D01*
X156881533Y-99004380D02*
X156548200Y-98528190D01*
X156310104Y-99004380D02*
X156310104Y-98004380D01*
X156691057Y-98004380D01*
X156786295Y-98052000D01*
X156833914Y-98099619D01*
X156881533Y-98194857D01*
X156881533Y-98337714D01*
X156833914Y-98432952D01*
X156786295Y-98480571D01*
X156691057Y-98528190D01*
X156310104Y-98528190D01*
X157833914Y-99004380D02*
X157262485Y-99004380D01*
X157548200Y-99004380D02*
X157548200Y-98004380D01*
X157452961Y-98147238D01*
X157357723Y-98242476D01*
X157262485Y-98290095D01*
X156519619Y-96551523D02*
X156472000Y-96503904D01*
X156424380Y-96408666D01*
X156424380Y-96170571D01*
X156472000Y-96075333D01*
X156519619Y-96027714D01*
X156614857Y-95980095D01*
X156710095Y-95980095D01*
X156852952Y-96027714D01*
X157424380Y-96599142D01*
X157424380Y-95980095D01*
X156519619Y-95599142D02*
X156472000Y-95551523D01*
X156424380Y-95456285D01*
X156424380Y-95218190D01*
X156472000Y-95122952D01*
X156519619Y-95075333D01*
X156614857Y-95027714D01*
X156710095Y-95027714D01*
X156852952Y-95075333D01*
X157424380Y-95646761D01*
X157424380Y-95027714D01*
X156424380Y-94408666D02*
X156424380Y-94313428D01*
X156472000Y-94218190D01*
X156519619Y-94170571D01*
X156614857Y-94122952D01*
X156805333Y-94075333D01*
X157043428Y-94075333D01*
X157233904Y-94122952D01*
X157329142Y-94170571D01*
X157376761Y-94218190D01*
X157424380Y-94313428D01*
X157424380Y-94408666D01*
X157376761Y-94503904D01*
X157329142Y-94551523D01*
X157233904Y-94599142D01*
X157043428Y-94646761D01*
X156805333Y-94646761D01*
X156614857Y-94599142D01*
X156519619Y-94551523D01*
X156472000Y-94503904D01*
X156424380Y-94408666D01*
X157424380Y-93694380D02*
X157424380Y-93456285D01*
X157233904Y-93456285D01*
X157186285Y-93551523D01*
X157091047Y-93646761D01*
X156948190Y-93694380D01*
X156710095Y-93694380D01*
X156567238Y-93646761D01*
X156472000Y-93551523D01*
X156424380Y-93408666D01*
X156424380Y-93218190D01*
X156472000Y-93075333D01*
X156567238Y-92980095D01*
X156710095Y-92932476D01*
X156948190Y-92932476D01*
X157091047Y-92980095D01*
X157186285Y-93075333D01*
X157233904Y-93170571D01*
X157424380Y-93170571D01*
X157424380Y-92932476D01*
X138961904Y-99004380D02*
X138961904Y-98004380D01*
X139200000Y-98004380D01*
X139342857Y-98052000D01*
X139438095Y-98147238D01*
X139485714Y-98242476D01*
X139533333Y-98432952D01*
X139533333Y-98575809D01*
X139485714Y-98766285D01*
X139438095Y-98861523D01*
X139342857Y-98956761D01*
X139200000Y-99004380D01*
X138961904Y-99004380D01*
X140485714Y-99004380D02*
X139914285Y-99004380D01*
X140200000Y-99004380D02*
X140200000Y-98004380D01*
X140104761Y-98147238D01*
X140009523Y-98242476D01*
X139914285Y-98290095D01*
X140152380Y-95868857D02*
X140152380Y-96440285D01*
X140152380Y-96154571D02*
X139152380Y-96154571D01*
X139295238Y-96249809D01*
X139390476Y-96345047D01*
X139438095Y-96440285D01*
X140152380Y-95440285D02*
X139152380Y-95440285D01*
X140152380Y-94868857D01*
X139152380Y-94868857D01*
X139485714Y-93964095D02*
X140152380Y-93964095D01*
X139104761Y-94202190D02*
X139819047Y-94440285D01*
X139819047Y-93821238D01*
X140152380Y-92916476D02*
X140152380Y-93487904D01*
X140152380Y-93202190D02*
X139152380Y-93202190D01*
X139295238Y-93297428D01*
X139390476Y-93392666D01*
X139438095Y-93487904D01*
X139485714Y-92059333D02*
X140152380Y-92059333D01*
X139104761Y-92297428D02*
X139819047Y-92535523D01*
X139819047Y-91916476D01*
X139580952Y-91392666D02*
X139533333Y-91487904D01*
X139485714Y-91535523D01*
X139390476Y-91583142D01*
X139342857Y-91583142D01*
X139247619Y-91535523D01*
X139200000Y-91487904D01*
X139152380Y-91392666D01*
X139152380Y-91202190D01*
X139200000Y-91106952D01*
X139247619Y-91059333D01*
X139342857Y-91011714D01*
X139390476Y-91011714D01*
X139485714Y-91059333D01*
X139533333Y-91106952D01*
X139580952Y-91202190D01*
X139580952Y-91392666D01*
X139628571Y-91487904D01*
X139676190Y-91535523D01*
X139771428Y-91583142D01*
X139961904Y-91583142D01*
X140057142Y-91535523D01*
X140104761Y-91487904D01*
X140152380Y-91392666D01*
X140152380Y-91202190D01*
X140104761Y-91106952D01*
X140057142Y-91059333D01*
X139961904Y-91011714D01*
X139771428Y-91011714D01*
X139676190Y-91059333D01*
X139628571Y-91106952D01*
X139580952Y-91202190D01*
X148082666Y-123205380D02*
X148082666Y-123919666D01*
X148035047Y-124062523D01*
X147939809Y-124157761D01*
X147796952Y-124205380D01*
X147701714Y-124205380D01*
X149082666Y-124205380D02*
X148511238Y-124205380D01*
X148796952Y-124205380D02*
X148796952Y-123205380D01*
X148701714Y-123348238D01*
X148606476Y-123443476D01*
X148511238Y-123491095D01*
X145963619Y-112466380D02*
X145963619Y-111466380D01*
X146296952Y-112180666D01*
X146630285Y-111466380D01*
X146630285Y-112466380D01*
X147106476Y-112466380D02*
X147106476Y-111466380D01*
X147582666Y-112466380D02*
X147582666Y-111466380D01*
X147820761Y-111466380D01*
X147963619Y-111514000D01*
X148058857Y-111609238D01*
X148106476Y-111704476D01*
X148154095Y-111894952D01*
X148154095Y-112037809D01*
X148106476Y-112228285D01*
X148058857Y-112323523D01*
X147963619Y-112418761D01*
X147820761Y-112466380D01*
X147582666Y-112466380D01*
X148582666Y-112466380D02*
X148582666Y-111466380D01*
X149820761Y-112466380D02*
X149820761Y-111466380D01*
X150296952Y-112466380D02*
X150296952Y-111466380D01*
X150868380Y-112466380D01*
X150868380Y-111466380D01*
X105584666Y-113498380D02*
X105584666Y-114212666D01*
X105537047Y-114355523D01*
X105441809Y-114450761D01*
X105298952Y-114498380D01*
X105203714Y-114498380D01*
X106489428Y-113831714D02*
X106489428Y-114498380D01*
X106251333Y-113450761D02*
X106013238Y-114165047D01*
X106632285Y-114165047D01*
X102417619Y-114848190D02*
X103417619Y-114848190D01*
X103417619Y-115086285D01*
X103370000Y-115229142D01*
X103274761Y-115324380D01*
X103179523Y-115372000D01*
X102989047Y-115419619D01*
X102846190Y-115419619D01*
X102655714Y-115372000D01*
X102560476Y-115324380D01*
X102465238Y-115229142D01*
X102417619Y-115086285D01*
X102417619Y-114848190D01*
X102703333Y-115800571D02*
X102703333Y-116276761D01*
X102417619Y-115705333D02*
X103417619Y-116038666D01*
X102417619Y-116372000D01*
X102512857Y-117276761D02*
X102465238Y-117229142D01*
X102417619Y-117086285D01*
X102417619Y-116991047D01*
X102465238Y-116848190D01*
X102560476Y-116752952D01*
X102655714Y-116705333D01*
X102846190Y-116657714D01*
X102989047Y-116657714D01*
X103179523Y-116705333D01*
X103274761Y-116752952D01*
X103370000Y-116848190D01*
X103417619Y-116991047D01*
X103417619Y-117086285D01*
X103370000Y-117229142D01*
X103322380Y-117276761D01*
X102941428Y-118800571D02*
X102893809Y-118943428D01*
X102846190Y-118991047D01*
X102750952Y-119038666D01*
X102608095Y-119038666D01*
X102512857Y-118991047D01*
X102465238Y-118943428D01*
X102417619Y-118848190D01*
X102417619Y-118467238D01*
X103417619Y-118467238D01*
X103417619Y-118800571D01*
X103370000Y-118895809D01*
X103322380Y-118943428D01*
X103227142Y-118991047D01*
X103131904Y-118991047D01*
X103036666Y-118943428D01*
X102989047Y-118895809D01*
X102941428Y-118800571D01*
X102941428Y-118467238D01*
X103417619Y-119657714D02*
X103417619Y-119848190D01*
X103370000Y-119943428D01*
X103274761Y-120038666D01*
X103084285Y-120086285D01*
X102750952Y-120086285D01*
X102560476Y-120038666D01*
X102465238Y-119943428D01*
X102417619Y-119848190D01*
X102417619Y-119657714D01*
X102465238Y-119562476D01*
X102560476Y-119467238D01*
X102750952Y-119419619D01*
X103084285Y-119419619D01*
X103274761Y-119467238D01*
X103370000Y-119562476D01*
X103417619Y-119657714D01*
X102703333Y-120467238D02*
X102703333Y-120943428D01*
X102417619Y-120372000D02*
X103417619Y-120705333D01*
X102417619Y-121038666D01*
X102417619Y-121943428D02*
X102893809Y-121610095D01*
X102417619Y-121372000D02*
X103417619Y-121372000D01*
X103417619Y-121752952D01*
X103370000Y-121848190D01*
X103322380Y-121895809D01*
X103227142Y-121943428D01*
X103084285Y-121943428D01*
X102989047Y-121895809D01*
X102941428Y-121848190D01*
X102893809Y-121752952D01*
X102893809Y-121372000D01*
X102417619Y-122372000D02*
X103417619Y-122372000D01*
X103417619Y-122610095D01*
X103370000Y-122752952D01*
X103274761Y-122848190D01*
X103179523Y-122895809D01*
X102989047Y-122943428D01*
X102846190Y-122943428D01*
X102655714Y-122895809D01*
X102560476Y-122848190D01*
X102465238Y-122752952D01*
X102417619Y-122610095D01*
X102417619Y-122372000D01*
X143419533Y-97893142D02*
X143371914Y-97940761D01*
X143229057Y-97988380D01*
X143133819Y-97988380D01*
X142990961Y-97940761D01*
X142895723Y-97845523D01*
X142848104Y-97750285D01*
X142800485Y-97559809D01*
X142800485Y-97416952D01*
X142848104Y-97226476D01*
X142895723Y-97131238D01*
X142990961Y-97036000D01*
X143133819Y-96988380D01*
X143229057Y-96988380D01*
X143371914Y-97036000D01*
X143419533Y-97083619D01*
X144371914Y-97988380D02*
X143800485Y-97988380D01*
X144086200Y-97988380D02*
X144086200Y-96988380D01*
X143990961Y-97131238D01*
X143895723Y-97226476D01*
X143800485Y-97274095D01*
X145309057Y-95702380D02*
X144737628Y-95702380D01*
X145023342Y-95702380D02*
X145023342Y-94702380D01*
X144928104Y-94845238D01*
X144832866Y-94940476D01*
X144737628Y-94988095D01*
X145928104Y-94702380D02*
X146023342Y-94702380D01*
X146118580Y-94750000D01*
X146166200Y-94797619D01*
X146213819Y-94892857D01*
X146261438Y-95083333D01*
X146261438Y-95321428D01*
X146213819Y-95511904D01*
X146166200Y-95607142D01*
X146118580Y-95654761D01*
X146023342Y-95702380D01*
X145928104Y-95702380D01*
X145832866Y-95654761D01*
X145785247Y-95607142D01*
X145737628Y-95511904D01*
X145690009Y-95321428D01*
X145690009Y-95083333D01*
X145737628Y-94892857D01*
X145785247Y-94797619D01*
X145832866Y-94750000D01*
X145928104Y-94702380D01*
X146880485Y-94702380D02*
X146975723Y-94702380D01*
X147070961Y-94750000D01*
X147118580Y-94797619D01*
X147166200Y-94892857D01*
X147213819Y-95083333D01*
X147213819Y-95321428D01*
X147166200Y-95511904D01*
X147118580Y-95607142D01*
X147070961Y-95654761D01*
X146975723Y-95702380D01*
X146880485Y-95702380D01*
X146785247Y-95654761D01*
X146737628Y-95607142D01*
X146690009Y-95511904D01*
X146642390Y-95321428D01*
X146642390Y-95083333D01*
X146690009Y-94892857D01*
X146737628Y-94797619D01*
X146785247Y-94750000D01*
X146880485Y-94702380D01*
X147642390Y-95035714D02*
X147642390Y-95702380D01*
X147642390Y-95130952D02*
X147690009Y-95083333D01*
X147785247Y-95035714D01*
X147928104Y-95035714D01*
X148023342Y-95083333D01*
X148070961Y-95178571D01*
X148070961Y-95702380D01*
X148404295Y-95035714D02*
X148785247Y-95035714D01*
X148547152Y-95702380D02*
X148547152Y-94845238D01*
X148594771Y-94750000D01*
X148690009Y-94702380D01*
X148785247Y-94702380D01*
X150309057Y-94702380D02*
X150118580Y-94702380D01*
X150023342Y-94750000D01*
X149975723Y-94797619D01*
X149880485Y-94940476D01*
X149832866Y-95130952D01*
X149832866Y-95511904D01*
X149880485Y-95607142D01*
X149928104Y-95654761D01*
X150023342Y-95702380D01*
X150213819Y-95702380D01*
X150309057Y-95654761D01*
X150356676Y-95607142D01*
X150404295Y-95511904D01*
X150404295Y-95273809D01*
X150356676Y-95178571D01*
X150309057Y-95130952D01*
X150213819Y-95083333D01*
X150023342Y-95083333D01*
X149928104Y-95130952D01*
X149880485Y-95178571D01*
X149832866Y-95273809D01*
X150832866Y-95607142D02*
X150880485Y-95654761D01*
X150832866Y-95702380D01*
X150785247Y-95654761D01*
X150832866Y-95607142D01*
X150832866Y-95702380D01*
X151213819Y-94702380D02*
X151832866Y-94702380D01*
X151499533Y-95083333D01*
X151642390Y-95083333D01*
X151737628Y-95130952D01*
X151785247Y-95178571D01*
X151832866Y-95273809D01*
X151832866Y-95511904D01*
X151785247Y-95607142D01*
X151737628Y-95654761D01*
X151642390Y-95702380D01*
X151356676Y-95702380D01*
X151261438Y-95654761D01*
X151213819Y-95607142D01*
X152166200Y-95035714D02*
X152404295Y-95702380D01*
X152642390Y-95035714D01*
X142998380Y-109473904D02*
X143807904Y-109473904D01*
X143903142Y-109426285D01*
X143950761Y-109378666D01*
X143998380Y-109283428D01*
X143998380Y-109092952D01*
X143950761Y-108997714D01*
X143903142Y-108950095D01*
X143807904Y-108902476D01*
X142998380Y-108902476D01*
X143998380Y-107902476D02*
X143998380Y-108473904D01*
X143998380Y-108188190D02*
X142998380Y-108188190D01*
X143141238Y-108283428D01*
X143236476Y-108378666D01*
X143284095Y-108473904D01*
X144042380Y-104227047D02*
X143042380Y-104227047D01*
X143518571Y-104227047D02*
X143518571Y-103655619D01*
X144042380Y-103655619D02*
X143042380Y-103655619D01*
X144042380Y-102655619D02*
X144042380Y-103227047D01*
X144042380Y-102941333D02*
X143042380Y-102941333D01*
X143185238Y-103036571D01*
X143280476Y-103131809D01*
X143328095Y-103227047D01*
X144042380Y-101703238D02*
X144042380Y-102274666D01*
X144042380Y-101988952D02*
X143042380Y-101988952D01*
X143185238Y-102084190D01*
X143280476Y-102179428D01*
X143328095Y-102274666D01*
X144042380Y-100798476D02*
X144042380Y-101274666D01*
X143042380Y-101274666D01*
X144042380Y-99941333D02*
X144042380Y-100512761D01*
X144042380Y-100227047D02*
X143042380Y-100227047D01*
X143185238Y-100322285D01*
X143280476Y-100417523D01*
X143328095Y-100512761D01*
X106854666Y-95210380D02*
X106854666Y-95924666D01*
X106807047Y-96067523D01*
X106711809Y-96162761D01*
X106568952Y-96210380D01*
X106473714Y-96210380D01*
X107283238Y-95305619D02*
X107330857Y-95258000D01*
X107426095Y-95210380D01*
X107664190Y-95210380D01*
X107759428Y-95258000D01*
X107807047Y-95305619D01*
X107854666Y-95400857D01*
X107854666Y-95496095D01*
X107807047Y-95638952D01*
X107235619Y-96210380D01*
X107854666Y-96210380D01*
D10*
X110928095Y-100438095D02*
X110928095Y-100590476D01*
X110890000Y-100666666D01*
X110813809Y-100742857D01*
X110661428Y-100780952D01*
X110394761Y-100780952D01*
X110242380Y-100742857D01*
X110166190Y-100666666D01*
X110128095Y-100590476D01*
X110128095Y-100438095D01*
X110166190Y-100361904D01*
X110242380Y-100285714D01*
X110394761Y-100247619D01*
X110661428Y-100247619D01*
X110813809Y-100285714D01*
X110890000Y-100361904D01*
X110928095Y-100438095D01*
X110128095Y-101504761D02*
X110128095Y-101123809D01*
X110928095Y-101123809D01*
X110547142Y-101771428D02*
X110547142Y-102038095D01*
X110128095Y-102152380D02*
X110128095Y-101771428D01*
X110928095Y-101771428D01*
X110928095Y-102152380D01*
X110128095Y-102495238D02*
X110928095Y-102495238D01*
X110928095Y-102685714D01*
X110890000Y-102800000D01*
X110813809Y-102876190D01*
X110737619Y-102914285D01*
X110585238Y-102952380D01*
X110470952Y-102952380D01*
X110318571Y-102914285D01*
X110242380Y-102876190D01*
X110166190Y-102800000D01*
X110128095Y-102685714D01*
X110128095Y-102495238D01*
M02*
