G04 #@! TF.GenerationSoftware,KiCad,Pcbnew,(5.1.4-0-10_14)*
G04 #@! TF.CreationDate,2020-12-05T11:56:47+00:00*
G04 #@! TF.ProjectId,mt32-pi-midi-hat,6d743332-2d70-4692-9d6d-6964692d6861,rev?*
G04 #@! TF.SameCoordinates,Original*
G04 #@! TF.FileFunction,Legend,Bot*
G04 #@! TF.FilePolarity,Positive*
%FSLAX46Y46*%
G04 Gerber Fmt 4.6, Leading zero omitted, Abs format (unit mm)*
G04 Created by KiCad (PCBNEW (5.1.4-0-10_14)) date 2020-12-05 11:56:47*
%MOMM*%
%LPD*%
G04 APERTURE LIST*
%ADD10C,0.150000*%
G04 APERTURE END LIST*
D10*
X148646190Y-90622380D02*
X148646190Y-89622380D01*
X148217619Y-90622380D02*
X148217619Y-90098571D01*
X148265238Y-90003333D01*
X148360476Y-89955714D01*
X148503333Y-89955714D01*
X148598571Y-90003333D01*
X148646190Y-90050952D01*
X147884285Y-89955714D02*
X147503333Y-89955714D01*
X147741428Y-89622380D02*
X147741428Y-90479523D01*
X147693809Y-90574761D01*
X147598571Y-90622380D01*
X147503333Y-90622380D01*
X147312857Y-89955714D02*
X146931904Y-89955714D01*
X147170000Y-89622380D02*
X147170000Y-90479523D01*
X147122380Y-90574761D01*
X147027142Y-90622380D01*
X146931904Y-90622380D01*
X146598571Y-89955714D02*
X146598571Y-90955714D01*
X146598571Y-90003333D02*
X146503333Y-89955714D01*
X146312857Y-89955714D01*
X146217619Y-90003333D01*
X146170000Y-90050952D01*
X146122380Y-90146190D01*
X146122380Y-90431904D01*
X146170000Y-90527142D01*
X146217619Y-90574761D01*
X146312857Y-90622380D01*
X146503333Y-90622380D01*
X146598571Y-90574761D01*
X145741428Y-90574761D02*
X145646190Y-90622380D01*
X145455714Y-90622380D01*
X145360476Y-90574761D01*
X145312857Y-90479523D01*
X145312857Y-90431904D01*
X145360476Y-90336666D01*
X145455714Y-90289047D01*
X145598571Y-90289047D01*
X145693809Y-90241428D01*
X145741428Y-90146190D01*
X145741428Y-90098571D01*
X145693809Y-90003333D01*
X145598571Y-89955714D01*
X145455714Y-89955714D01*
X145360476Y-90003333D01*
X144884285Y-90527142D02*
X144836666Y-90574761D01*
X144884285Y-90622380D01*
X144931904Y-90574761D01*
X144884285Y-90527142D01*
X144884285Y-90622380D01*
X144884285Y-90003333D02*
X144836666Y-90050952D01*
X144884285Y-90098571D01*
X144931904Y-90050952D01*
X144884285Y-90003333D01*
X144884285Y-90098571D01*
X143693809Y-89574761D02*
X144550952Y-90860476D01*
X142646190Y-89574761D02*
X143503333Y-90860476D01*
X141884285Y-89955714D02*
X141884285Y-90765238D01*
X141931904Y-90860476D01*
X141979523Y-90908095D01*
X142074761Y-90955714D01*
X142217619Y-90955714D01*
X142312857Y-90908095D01*
X141884285Y-90574761D02*
X141979523Y-90622380D01*
X142170000Y-90622380D01*
X142265238Y-90574761D01*
X142312857Y-90527142D01*
X142360476Y-90431904D01*
X142360476Y-90146190D01*
X142312857Y-90050952D01*
X142265238Y-90003333D01*
X142170000Y-89955714D01*
X141979523Y-89955714D01*
X141884285Y-90003333D01*
X141408095Y-90622380D02*
X141408095Y-89955714D01*
X141408095Y-89622380D02*
X141455714Y-89670000D01*
X141408095Y-89717619D01*
X141360476Y-89670000D01*
X141408095Y-89622380D01*
X141408095Y-89717619D01*
X141074761Y-89955714D02*
X140693809Y-89955714D01*
X140931904Y-89622380D02*
X140931904Y-90479523D01*
X140884285Y-90574761D01*
X140789047Y-90622380D01*
X140693809Y-90622380D01*
X140360476Y-90622380D02*
X140360476Y-89622380D01*
X139931904Y-90622380D02*
X139931904Y-90098571D01*
X139979523Y-90003333D01*
X140074761Y-89955714D01*
X140217619Y-89955714D01*
X140312857Y-90003333D01*
X140360476Y-90050952D01*
X139027142Y-89955714D02*
X139027142Y-90622380D01*
X139455714Y-89955714D02*
X139455714Y-90479523D01*
X139408095Y-90574761D01*
X139312857Y-90622380D01*
X139170000Y-90622380D01*
X139074761Y-90574761D01*
X139027142Y-90527142D01*
X138550952Y-90622380D02*
X138550952Y-89622380D01*
X138550952Y-90003333D02*
X138455714Y-89955714D01*
X138265238Y-89955714D01*
X138170000Y-90003333D01*
X138122380Y-90050952D01*
X138074761Y-90146190D01*
X138074761Y-90431904D01*
X138122380Y-90527142D01*
X138170000Y-90574761D01*
X138265238Y-90622380D01*
X138455714Y-90622380D01*
X138550952Y-90574761D01*
X137646190Y-90527142D02*
X137598571Y-90574761D01*
X137646190Y-90622380D01*
X137693809Y-90574761D01*
X137646190Y-90527142D01*
X137646190Y-90622380D01*
X136741428Y-90574761D02*
X136836666Y-90622380D01*
X137027142Y-90622380D01*
X137122380Y-90574761D01*
X137170000Y-90527142D01*
X137217619Y-90431904D01*
X137217619Y-90146190D01*
X137170000Y-90050952D01*
X137122380Y-90003333D01*
X137027142Y-89955714D01*
X136836666Y-89955714D01*
X136741428Y-90003333D01*
X136170000Y-90622380D02*
X136265238Y-90574761D01*
X136312857Y-90527142D01*
X136360476Y-90431904D01*
X136360476Y-90146190D01*
X136312857Y-90050952D01*
X136265238Y-90003333D01*
X136170000Y-89955714D01*
X136027142Y-89955714D01*
X135931904Y-90003333D01*
X135884285Y-90050952D01*
X135836666Y-90146190D01*
X135836666Y-90431904D01*
X135884285Y-90527142D01*
X135931904Y-90574761D01*
X136027142Y-90622380D01*
X136170000Y-90622380D01*
X135408095Y-90622380D02*
X135408095Y-89955714D01*
X135408095Y-90050952D02*
X135360476Y-90003333D01*
X135265238Y-89955714D01*
X135122380Y-89955714D01*
X135027142Y-90003333D01*
X134979523Y-90098571D01*
X134979523Y-90622380D01*
X134979523Y-90098571D02*
X134931904Y-90003333D01*
X134836666Y-89955714D01*
X134693809Y-89955714D01*
X134598571Y-90003333D01*
X134550952Y-90098571D01*
X134550952Y-90622380D01*
X133360476Y-89574761D02*
X134217619Y-90860476D01*
X132598571Y-90574761D02*
X132693809Y-90622380D01*
X132884285Y-90622380D01*
X132979523Y-90574761D01*
X133027142Y-90527142D01*
X133074761Y-90431904D01*
X133074761Y-90146190D01*
X133027142Y-90050952D01*
X132979523Y-90003333D01*
X132884285Y-89955714D01*
X132693809Y-89955714D01*
X132598571Y-90003333D01*
X132170000Y-90622380D02*
X132170000Y-89622380D01*
X131741428Y-90622380D02*
X131741428Y-90098571D01*
X131789047Y-90003333D01*
X131884285Y-89955714D01*
X132027142Y-89955714D01*
X132122380Y-90003333D01*
X132170000Y-90050952D01*
X131265238Y-90622380D02*
X131265238Y-89955714D01*
X131265238Y-90146190D02*
X131217619Y-90050952D01*
X131170000Y-90003333D01*
X131074761Y-89955714D01*
X130979523Y-89955714D01*
X130646190Y-90622380D02*
X130646190Y-89955714D01*
X130646190Y-89622380D02*
X130693809Y-89670000D01*
X130646190Y-89717619D01*
X130598571Y-89670000D01*
X130646190Y-89622380D01*
X130646190Y-89717619D01*
X130217619Y-90574761D02*
X130122380Y-90622380D01*
X129931904Y-90622380D01*
X129836666Y-90574761D01*
X129789047Y-90479523D01*
X129789047Y-90431904D01*
X129836666Y-90336666D01*
X129931904Y-90289047D01*
X130074761Y-90289047D01*
X130170000Y-90241428D01*
X130217619Y-90146190D01*
X130217619Y-90098571D01*
X130170000Y-90003333D01*
X130074761Y-89955714D01*
X129931904Y-89955714D01*
X129836666Y-90003333D01*
X129360476Y-90241428D02*
X128598571Y-90241428D01*
X128122380Y-89955714D02*
X128122380Y-90812857D01*
X128170000Y-90908095D01*
X128265238Y-90955714D01*
X128312857Y-90955714D01*
X128122380Y-89622380D02*
X128170000Y-89670000D01*
X128122380Y-89717619D01*
X128074761Y-89670000D01*
X128122380Y-89622380D01*
X128122380Y-89717619D01*
X127646190Y-90622380D02*
X127646190Y-89622380D01*
X127217619Y-90622380D02*
X127217619Y-90098571D01*
X127265238Y-90003333D01*
X127360476Y-89955714D01*
X127503333Y-89955714D01*
X127598571Y-90003333D01*
X127646190Y-90050952D01*
X126027142Y-89574761D02*
X126884285Y-90860476D01*
X125693809Y-90622380D02*
X125693809Y-89955714D01*
X125693809Y-90050952D02*
X125646190Y-90003333D01*
X125550952Y-89955714D01*
X125408095Y-89955714D01*
X125312857Y-90003333D01*
X125265238Y-90098571D01*
X125265238Y-90622380D01*
X125265238Y-90098571D02*
X125217619Y-90003333D01*
X125122380Y-89955714D01*
X124979523Y-89955714D01*
X124884285Y-90003333D01*
X124836666Y-90098571D01*
X124836666Y-90622380D01*
X124503333Y-89955714D02*
X124122380Y-89955714D01*
X124360476Y-89622380D02*
X124360476Y-90479523D01*
X124312857Y-90574761D01*
X124217619Y-90622380D01*
X124122380Y-90622380D01*
X123884285Y-89622380D02*
X123265238Y-89622380D01*
X123598571Y-90003333D01*
X123455714Y-90003333D01*
X123360476Y-90050952D01*
X123312857Y-90098571D01*
X123265238Y-90193809D01*
X123265238Y-90431904D01*
X123312857Y-90527142D01*
X123360476Y-90574761D01*
X123455714Y-90622380D01*
X123741428Y-90622380D01*
X123836666Y-90574761D01*
X123884285Y-90527142D01*
X122884285Y-89717619D02*
X122836666Y-89670000D01*
X122741428Y-89622380D01*
X122503333Y-89622380D01*
X122408095Y-89670000D01*
X122360476Y-89717619D01*
X122312857Y-89812857D01*
X122312857Y-89908095D01*
X122360476Y-90050952D01*
X122931904Y-90622380D01*
X122312857Y-90622380D01*
X121884285Y-90241428D02*
X121122380Y-90241428D01*
X120646190Y-89955714D02*
X120646190Y-90955714D01*
X120646190Y-90003333D02*
X120550952Y-89955714D01*
X120360476Y-89955714D01*
X120265238Y-90003333D01*
X120217619Y-90050952D01*
X120170000Y-90146190D01*
X120170000Y-90431904D01*
X120217619Y-90527142D01*
X120265238Y-90574761D01*
X120360476Y-90622380D01*
X120550952Y-90622380D01*
X120646190Y-90574761D01*
X119741428Y-90622380D02*
X119741428Y-89955714D01*
X119741428Y-89622380D02*
X119789047Y-89670000D01*
X119741428Y-89717619D01*
X119693809Y-89670000D01*
X119741428Y-89622380D01*
X119741428Y-89717619D01*
X119265238Y-90241428D02*
X118503333Y-90241428D01*
X118027142Y-90622380D02*
X118027142Y-89955714D01*
X118027142Y-90050952D02*
X117979523Y-90003333D01*
X117884285Y-89955714D01*
X117741428Y-89955714D01*
X117646190Y-90003333D01*
X117598571Y-90098571D01*
X117598571Y-90622380D01*
X117598571Y-90098571D02*
X117550952Y-90003333D01*
X117455714Y-89955714D01*
X117312857Y-89955714D01*
X117217619Y-90003333D01*
X117170000Y-90098571D01*
X117170000Y-90622380D01*
X116693809Y-90622380D02*
X116693809Y-89955714D01*
X116693809Y-89622380D02*
X116741428Y-89670000D01*
X116693809Y-89717619D01*
X116646190Y-89670000D01*
X116693809Y-89622380D01*
X116693809Y-89717619D01*
X115789047Y-90622380D02*
X115789047Y-89622380D01*
X115789047Y-90574761D02*
X115884285Y-90622380D01*
X116074761Y-90622380D01*
X116170000Y-90574761D01*
X116217619Y-90527142D01*
X116265238Y-90431904D01*
X116265238Y-90146190D01*
X116217619Y-90050952D01*
X116170000Y-90003333D01*
X116074761Y-89955714D01*
X115884285Y-89955714D01*
X115789047Y-90003333D01*
X115312857Y-90622380D02*
X115312857Y-89955714D01*
X115312857Y-89622380D02*
X115360476Y-89670000D01*
X115312857Y-89717619D01*
X115265238Y-89670000D01*
X115312857Y-89622380D01*
X115312857Y-89717619D01*
X114836666Y-90241428D02*
X114074761Y-90241428D01*
X113598571Y-90622380D02*
X113598571Y-89622380D01*
X113170000Y-90622380D02*
X113170000Y-90098571D01*
X113217619Y-90003333D01*
X113312857Y-89955714D01*
X113455714Y-89955714D01*
X113550952Y-90003333D01*
X113598571Y-90050952D01*
X112265238Y-90622380D02*
X112265238Y-90098571D01*
X112312857Y-90003333D01*
X112408095Y-89955714D01*
X112598571Y-89955714D01*
X112693809Y-90003333D01*
X112265238Y-90574761D02*
X112360476Y-90622380D01*
X112598571Y-90622380D01*
X112693809Y-90574761D01*
X112741428Y-90479523D01*
X112741428Y-90384285D01*
X112693809Y-90289047D01*
X112598571Y-90241428D01*
X112360476Y-90241428D01*
X112265238Y-90193809D01*
X111931904Y-89955714D02*
X111550952Y-89955714D01*
X111789047Y-89622380D02*
X111789047Y-90479523D01*
X111741428Y-90574761D01*
X111646190Y-90622380D01*
X111550952Y-90622380D01*
X148501809Y-85034380D02*
X148501809Y-84367714D01*
X148501809Y-84462952D02*
X148454190Y-84415333D01*
X148358952Y-84367714D01*
X148216095Y-84367714D01*
X148120857Y-84415333D01*
X148073238Y-84510571D01*
X148073238Y-85034380D01*
X148073238Y-84510571D02*
X148025619Y-84415333D01*
X147930380Y-84367714D01*
X147787523Y-84367714D01*
X147692285Y-84415333D01*
X147644666Y-84510571D01*
X147644666Y-85034380D01*
X147311333Y-84367714D02*
X146930380Y-84367714D01*
X147168476Y-84034380D02*
X147168476Y-84891523D01*
X147120857Y-84986761D01*
X147025619Y-85034380D01*
X146930380Y-85034380D01*
X146692285Y-84034380D02*
X146073238Y-84034380D01*
X146406571Y-84415333D01*
X146263714Y-84415333D01*
X146168476Y-84462952D01*
X146120857Y-84510571D01*
X146073238Y-84605809D01*
X146073238Y-84843904D01*
X146120857Y-84939142D01*
X146168476Y-84986761D01*
X146263714Y-85034380D01*
X146549428Y-85034380D01*
X146644666Y-84986761D01*
X146692285Y-84939142D01*
X145692285Y-84129619D02*
X145644666Y-84082000D01*
X145549428Y-84034380D01*
X145311333Y-84034380D01*
X145216095Y-84082000D01*
X145168476Y-84129619D01*
X145120857Y-84224857D01*
X145120857Y-84320095D01*
X145168476Y-84462952D01*
X145739904Y-85034380D01*
X145120857Y-85034380D01*
X144692285Y-84653428D02*
X143930380Y-84653428D01*
X143454190Y-85034380D02*
X143454190Y-84034380D01*
X143073238Y-84034380D01*
X142978000Y-84082000D01*
X142930380Y-84129619D01*
X142882761Y-84224857D01*
X142882761Y-84367714D01*
X142930380Y-84462952D01*
X142978000Y-84510571D01*
X143073238Y-84558190D01*
X143454190Y-84558190D01*
X142454190Y-85034380D02*
X142454190Y-84367714D01*
X142454190Y-84034380D02*
X142501809Y-84082000D01*
X142454190Y-84129619D01*
X142406571Y-84082000D01*
X142454190Y-84034380D01*
X142454190Y-84129619D01*
X141978000Y-84653428D02*
X141216095Y-84653428D01*
X140739904Y-85034380D02*
X140739904Y-84034380D01*
X140406571Y-84748666D01*
X140073238Y-84034380D01*
X140073238Y-85034380D01*
X139597047Y-85034380D02*
X139597047Y-84367714D01*
X139597047Y-84034380D02*
X139644666Y-84082000D01*
X139597047Y-84129619D01*
X139549428Y-84082000D01*
X139597047Y-84034380D01*
X139597047Y-84129619D01*
X138692285Y-85034380D02*
X138692285Y-84034380D01*
X138692285Y-84986761D02*
X138787523Y-85034380D01*
X138978000Y-85034380D01*
X139073238Y-84986761D01*
X139120857Y-84939142D01*
X139168476Y-84843904D01*
X139168476Y-84558190D01*
X139120857Y-84462952D01*
X139073238Y-84415333D01*
X138978000Y-84367714D01*
X138787523Y-84367714D01*
X138692285Y-84415333D01*
X138216095Y-85034380D02*
X138216095Y-84367714D01*
X138216095Y-84034380D02*
X138263714Y-84082000D01*
X138216095Y-84129619D01*
X138168476Y-84082000D01*
X138216095Y-84034380D01*
X138216095Y-84129619D01*
X137739904Y-84653428D02*
X136978000Y-84653428D01*
X136501809Y-85034380D02*
X136501809Y-84034380D01*
X136501809Y-84510571D02*
X135930380Y-84510571D01*
X135930380Y-85034380D02*
X135930380Y-84034380D01*
X135025619Y-85034380D02*
X135025619Y-84510571D01*
X135073238Y-84415333D01*
X135168476Y-84367714D01*
X135358952Y-84367714D01*
X135454190Y-84415333D01*
X135025619Y-84986761D02*
X135120857Y-85034380D01*
X135358952Y-85034380D01*
X135454190Y-84986761D01*
X135501809Y-84891523D01*
X135501809Y-84796285D01*
X135454190Y-84701047D01*
X135358952Y-84653428D01*
X135120857Y-84653428D01*
X135025619Y-84605809D01*
X134692285Y-84367714D02*
X134311333Y-84367714D01*
X134549428Y-84034380D02*
X134549428Y-84891523D01*
X134501809Y-84986761D01*
X134406571Y-85034380D01*
X134311333Y-85034380D01*
X148255333Y-86288571D02*
X148112476Y-86336190D01*
X148064857Y-86383809D01*
X148017238Y-86479047D01*
X148017238Y-86621904D01*
X148064857Y-86717142D01*
X148112476Y-86764761D01*
X148207714Y-86812380D01*
X148588666Y-86812380D01*
X148588666Y-85812380D01*
X148255333Y-85812380D01*
X148160095Y-85860000D01*
X148112476Y-85907619D01*
X148064857Y-86002857D01*
X148064857Y-86098095D01*
X148112476Y-86193333D01*
X148160095Y-86240952D01*
X148255333Y-86288571D01*
X148588666Y-86288571D01*
X147683904Y-86145714D02*
X147445809Y-86812380D01*
X147207714Y-86145714D02*
X147445809Y-86812380D01*
X147541047Y-87050476D01*
X147588666Y-87098095D01*
X147683904Y-87145714D01*
X145493428Y-86717142D02*
X145541047Y-86764761D01*
X145683904Y-86812380D01*
X145779142Y-86812380D01*
X145922000Y-86764761D01*
X146017238Y-86669523D01*
X146064857Y-86574285D01*
X146112476Y-86383809D01*
X146112476Y-86240952D01*
X146064857Y-86050476D01*
X146017238Y-85955238D01*
X145922000Y-85860000D01*
X145779142Y-85812380D01*
X145683904Y-85812380D01*
X145541047Y-85860000D01*
X145493428Y-85907619D01*
X145064857Y-86812380D02*
X145064857Y-85812380D01*
X144636285Y-86812380D02*
X144636285Y-86288571D01*
X144683904Y-86193333D01*
X144779142Y-86145714D01*
X144922000Y-86145714D01*
X145017238Y-86193333D01*
X145064857Y-86240952D01*
X144160095Y-86812380D02*
X144160095Y-86145714D01*
X144160095Y-86336190D02*
X144112476Y-86240952D01*
X144064857Y-86193333D01*
X143969619Y-86145714D01*
X143874380Y-86145714D01*
X143541047Y-86812380D02*
X143541047Y-86145714D01*
X143541047Y-85812380D02*
X143588666Y-85860000D01*
X143541047Y-85907619D01*
X143493428Y-85860000D01*
X143541047Y-85812380D01*
X143541047Y-85907619D01*
X143112476Y-86764761D02*
X143017238Y-86812380D01*
X142826761Y-86812380D01*
X142731523Y-86764761D01*
X142683904Y-86669523D01*
X142683904Y-86621904D01*
X142731523Y-86526666D01*
X142826761Y-86479047D01*
X142969619Y-86479047D01*
X143064857Y-86431428D01*
X143112476Y-86336190D01*
X143112476Y-86288571D01*
X143064857Y-86193333D01*
X142969619Y-86145714D01*
X142826761Y-86145714D01*
X142731523Y-86193333D01*
X142302952Y-86764761D02*
X142207714Y-86812380D01*
X142017238Y-86812380D01*
X141922000Y-86764761D01*
X141874380Y-86669523D01*
X141874380Y-86621904D01*
X141922000Y-86526666D01*
X142017238Y-86479047D01*
X142160095Y-86479047D01*
X142255333Y-86431428D01*
X142302952Y-86336190D01*
X142302952Y-86288571D01*
X142255333Y-86193333D01*
X142160095Y-86145714D01*
X142017238Y-86145714D01*
X141922000Y-86193333D01*
X141541047Y-86145714D02*
X141302952Y-86812380D01*
X141064857Y-86145714D02*
X141302952Y-86812380D01*
X141398190Y-87050476D01*
X141445809Y-87098095D01*
X141541047Y-87145714D01*
X139969619Y-85907619D02*
X139922000Y-85860000D01*
X139826761Y-85812380D01*
X139588666Y-85812380D01*
X139493428Y-85860000D01*
X139445809Y-85907619D01*
X139398190Y-86002857D01*
X139398190Y-86098095D01*
X139445809Y-86240952D01*
X140017238Y-86812380D01*
X139398190Y-86812380D01*
X138779142Y-85812380D02*
X138683904Y-85812380D01*
X138588666Y-85860000D01*
X138541047Y-85907619D01*
X138493428Y-86002857D01*
X138445809Y-86193333D01*
X138445809Y-86431428D01*
X138493428Y-86621904D01*
X138541047Y-86717142D01*
X138588666Y-86764761D01*
X138683904Y-86812380D01*
X138779142Y-86812380D01*
X138874380Y-86764761D01*
X138922000Y-86717142D01*
X138969619Y-86621904D01*
X139017238Y-86431428D01*
X139017238Y-86193333D01*
X138969619Y-86002857D01*
X138922000Y-85907619D01*
X138874380Y-85860000D01*
X138779142Y-85812380D01*
X138064857Y-85907619D02*
X138017238Y-85860000D01*
X137922000Y-85812380D01*
X137683904Y-85812380D01*
X137588666Y-85860000D01*
X137541047Y-85907619D01*
X137493428Y-86002857D01*
X137493428Y-86098095D01*
X137541047Y-86240952D01*
X138112476Y-86812380D01*
X137493428Y-86812380D01*
X136874380Y-85812380D02*
X136779142Y-85812380D01*
X136683904Y-85860000D01*
X136636285Y-85907619D01*
X136588666Y-86002857D01*
X136541047Y-86193333D01*
X136541047Y-86431428D01*
X136588666Y-86621904D01*
X136636285Y-86717142D01*
X136683904Y-86764761D01*
X136779142Y-86812380D01*
X136874380Y-86812380D01*
X136969619Y-86764761D01*
X137017238Y-86717142D01*
X137064857Y-86621904D01*
X137112476Y-86431428D01*
X137112476Y-86193333D01*
X137064857Y-86002857D01*
X137017238Y-85907619D01*
X136969619Y-85860000D01*
X136874380Y-85812380D01*
X135493428Y-85812380D02*
X135160095Y-86812380D01*
X134826761Y-85812380D01*
X134112476Y-86764761D02*
X134207714Y-86812380D01*
X134398190Y-86812380D01*
X134493428Y-86764761D01*
X134541047Y-86669523D01*
X134541047Y-86288571D01*
X134493428Y-86193333D01*
X134398190Y-86145714D01*
X134207714Y-86145714D01*
X134112476Y-86193333D01*
X134064857Y-86288571D01*
X134064857Y-86383809D01*
X134541047Y-86479047D01*
X133636285Y-86812380D02*
X133636285Y-86145714D01*
X133636285Y-86336190D02*
X133588666Y-86240952D01*
X133541047Y-86193333D01*
X133445809Y-86145714D01*
X133350571Y-86145714D01*
X133064857Y-86764761D02*
X132969619Y-86812380D01*
X132779142Y-86812380D01*
X132683904Y-86764761D01*
X132636285Y-86669523D01*
X132636285Y-86621904D01*
X132683904Y-86526666D01*
X132779142Y-86479047D01*
X132922000Y-86479047D01*
X133017238Y-86431428D01*
X133064857Y-86336190D01*
X133064857Y-86288571D01*
X133017238Y-86193333D01*
X132922000Y-86145714D01*
X132779142Y-86145714D01*
X132683904Y-86193333D01*
X132207714Y-86812380D02*
X132207714Y-86145714D01*
X132207714Y-85812380D02*
X132255333Y-85860000D01*
X132207714Y-85907619D01*
X132160095Y-85860000D01*
X132207714Y-85812380D01*
X132207714Y-85907619D01*
X131588666Y-86812380D02*
X131683904Y-86764761D01*
X131731523Y-86717142D01*
X131779142Y-86621904D01*
X131779142Y-86336190D01*
X131731523Y-86240952D01*
X131683904Y-86193333D01*
X131588666Y-86145714D01*
X131445809Y-86145714D01*
X131350571Y-86193333D01*
X131302952Y-86240952D01*
X131255333Y-86336190D01*
X131255333Y-86621904D01*
X131302952Y-86717142D01*
X131350571Y-86764761D01*
X131445809Y-86812380D01*
X131588666Y-86812380D01*
X130826761Y-86145714D02*
X130826761Y-86812380D01*
X130826761Y-86240952D02*
X130779142Y-86193333D01*
X130683904Y-86145714D01*
X130541047Y-86145714D01*
X130445809Y-86193333D01*
X130398190Y-86288571D01*
X130398190Y-86812380D01*
X128636285Y-86812380D02*
X129207714Y-86812380D01*
X128922000Y-86812380D02*
X128922000Y-85812380D01*
X129017238Y-85955238D01*
X129112476Y-86050476D01*
X129207714Y-86098095D01*
X128207714Y-86717142D02*
X128160095Y-86764761D01*
X128207714Y-86812380D01*
X128255333Y-86764761D01*
X128207714Y-86717142D01*
X128207714Y-86812380D01*
X127255333Y-85812380D02*
X127731523Y-85812380D01*
X127779142Y-86288571D01*
X127731523Y-86240952D01*
X127636285Y-86193333D01*
X127398190Y-86193333D01*
X127302952Y-86240952D01*
X127255333Y-86288571D01*
X127207714Y-86383809D01*
X127207714Y-86621904D01*
X127255333Y-86717142D01*
X127302952Y-86764761D01*
X127398190Y-86812380D01*
X127636285Y-86812380D01*
X127731523Y-86764761D01*
X127779142Y-86717142D01*
X148604000Y-88590380D02*
X148604000Y-87590380D01*
X148175428Y-88590380D02*
X148175428Y-88066571D01*
X148223047Y-87971333D01*
X148318285Y-87923714D01*
X148461142Y-87923714D01*
X148556380Y-87971333D01*
X148604000Y-88018952D01*
X147842095Y-87923714D02*
X147461142Y-87923714D01*
X147699238Y-87590380D02*
X147699238Y-88447523D01*
X147651619Y-88542761D01*
X147556380Y-88590380D01*
X147461142Y-88590380D01*
X147270666Y-87923714D02*
X146889714Y-87923714D01*
X147127809Y-87590380D02*
X147127809Y-88447523D01*
X147080190Y-88542761D01*
X146984952Y-88590380D01*
X146889714Y-88590380D01*
X146556380Y-87923714D02*
X146556380Y-88923714D01*
X146556380Y-87971333D02*
X146461142Y-87923714D01*
X146270666Y-87923714D01*
X146175428Y-87971333D01*
X146127809Y-88018952D01*
X146080190Y-88114190D01*
X146080190Y-88399904D01*
X146127809Y-88495142D01*
X146175428Y-88542761D01*
X146270666Y-88590380D01*
X146461142Y-88590380D01*
X146556380Y-88542761D01*
X145699238Y-88542761D02*
X145604000Y-88590380D01*
X145413523Y-88590380D01*
X145318285Y-88542761D01*
X145270666Y-88447523D01*
X145270666Y-88399904D01*
X145318285Y-88304666D01*
X145413523Y-88257047D01*
X145556380Y-88257047D01*
X145651619Y-88209428D01*
X145699238Y-88114190D01*
X145699238Y-88066571D01*
X145651619Y-87971333D01*
X145556380Y-87923714D01*
X145413523Y-87923714D01*
X145318285Y-87971333D01*
X144842095Y-88495142D02*
X144794476Y-88542761D01*
X144842095Y-88590380D01*
X144889714Y-88542761D01*
X144842095Y-88495142D01*
X144842095Y-88590380D01*
X144842095Y-87971333D02*
X144794476Y-88018952D01*
X144842095Y-88066571D01*
X144889714Y-88018952D01*
X144842095Y-87971333D01*
X144842095Y-88066571D01*
X143651619Y-87542761D02*
X144508761Y-88828476D01*
X142604000Y-87542761D02*
X143461142Y-88828476D01*
X141842095Y-87923714D02*
X141842095Y-88733238D01*
X141889714Y-88828476D01*
X141937333Y-88876095D01*
X142032571Y-88923714D01*
X142175428Y-88923714D01*
X142270666Y-88876095D01*
X141842095Y-88542761D02*
X141937333Y-88590380D01*
X142127809Y-88590380D01*
X142223047Y-88542761D01*
X142270666Y-88495142D01*
X142318285Y-88399904D01*
X142318285Y-88114190D01*
X142270666Y-88018952D01*
X142223047Y-87971333D01*
X142127809Y-87923714D01*
X141937333Y-87923714D01*
X141842095Y-87971333D01*
X141365904Y-88590380D02*
X141365904Y-87923714D01*
X141365904Y-87590380D02*
X141413523Y-87638000D01*
X141365904Y-87685619D01*
X141318285Y-87638000D01*
X141365904Y-87590380D01*
X141365904Y-87685619D01*
X141032571Y-87923714D02*
X140651619Y-87923714D01*
X140889714Y-87590380D02*
X140889714Y-88447523D01*
X140842095Y-88542761D01*
X140746857Y-88590380D01*
X140651619Y-88590380D01*
X140318285Y-88590380D02*
X140318285Y-87590380D01*
X139889714Y-88590380D02*
X139889714Y-88066571D01*
X139937333Y-87971333D01*
X140032571Y-87923714D01*
X140175428Y-87923714D01*
X140270666Y-87971333D01*
X140318285Y-88018952D01*
X138984952Y-87923714D02*
X138984952Y-88590380D01*
X139413523Y-87923714D02*
X139413523Y-88447523D01*
X139365904Y-88542761D01*
X139270666Y-88590380D01*
X139127809Y-88590380D01*
X139032571Y-88542761D01*
X138984952Y-88495142D01*
X138508761Y-88590380D02*
X138508761Y-87590380D01*
X138508761Y-87971333D02*
X138413523Y-87923714D01*
X138223047Y-87923714D01*
X138127809Y-87971333D01*
X138080190Y-88018952D01*
X138032571Y-88114190D01*
X138032571Y-88399904D01*
X138080190Y-88495142D01*
X138127809Y-88542761D01*
X138223047Y-88590380D01*
X138413523Y-88590380D01*
X138508761Y-88542761D01*
X137604000Y-88495142D02*
X137556380Y-88542761D01*
X137604000Y-88590380D01*
X137651619Y-88542761D01*
X137604000Y-88495142D01*
X137604000Y-88590380D01*
X136699238Y-88542761D02*
X136794476Y-88590380D01*
X136984952Y-88590380D01*
X137080190Y-88542761D01*
X137127809Y-88495142D01*
X137175428Y-88399904D01*
X137175428Y-88114190D01*
X137127809Y-88018952D01*
X137080190Y-87971333D01*
X136984952Y-87923714D01*
X136794476Y-87923714D01*
X136699238Y-87971333D01*
X136127809Y-88590380D02*
X136223047Y-88542761D01*
X136270666Y-88495142D01*
X136318285Y-88399904D01*
X136318285Y-88114190D01*
X136270666Y-88018952D01*
X136223047Y-87971333D01*
X136127809Y-87923714D01*
X135984952Y-87923714D01*
X135889714Y-87971333D01*
X135842095Y-88018952D01*
X135794476Y-88114190D01*
X135794476Y-88399904D01*
X135842095Y-88495142D01*
X135889714Y-88542761D01*
X135984952Y-88590380D01*
X136127809Y-88590380D01*
X135365904Y-88590380D02*
X135365904Y-87923714D01*
X135365904Y-88018952D02*
X135318285Y-87971333D01*
X135223047Y-87923714D01*
X135080190Y-87923714D01*
X134984952Y-87971333D01*
X134937333Y-88066571D01*
X134937333Y-88590380D01*
X134937333Y-88066571D02*
X134889714Y-87971333D01*
X134794476Y-87923714D01*
X134651619Y-87923714D01*
X134556380Y-87971333D01*
X134508761Y-88066571D01*
X134508761Y-88590380D01*
X133318285Y-87542761D02*
X134175428Y-88828476D01*
X132556380Y-88590380D02*
X132556380Y-87590380D01*
X132556380Y-88542761D02*
X132651619Y-88590380D01*
X132842095Y-88590380D01*
X132937333Y-88542761D01*
X132984952Y-88495142D01*
X133032571Y-88399904D01*
X133032571Y-88114190D01*
X132984952Y-88018952D01*
X132937333Y-87971333D01*
X132842095Y-87923714D01*
X132651619Y-87923714D01*
X132556380Y-87971333D01*
X132175428Y-87923714D02*
X131984952Y-88590380D01*
X131794476Y-88114190D01*
X131604000Y-88590380D01*
X131413523Y-87923714D01*
X131032571Y-88590380D02*
X131032571Y-87590380D01*
X130604000Y-88590380D02*
X130604000Y-88066571D01*
X130651619Y-87971333D01*
X130746857Y-87923714D01*
X130889714Y-87923714D01*
X130984952Y-87971333D01*
X131032571Y-88018952D01*
X130127809Y-88590380D02*
X130127809Y-87923714D01*
X130127809Y-87590380D02*
X130175428Y-87638000D01*
X130127809Y-87685619D01*
X130080190Y-87638000D01*
X130127809Y-87590380D01*
X130127809Y-87685619D01*
X129651619Y-87923714D02*
X129651619Y-88590380D01*
X129651619Y-88018952D02*
X129604000Y-87971333D01*
X129508761Y-87923714D01*
X129365904Y-87923714D01*
X129270666Y-87971333D01*
X129223047Y-88066571D01*
X129223047Y-88590380D01*
X128746857Y-88590380D02*
X128746857Y-87590380D01*
X128318285Y-88590380D02*
X128318285Y-88066571D01*
X128365904Y-87971333D01*
X128461142Y-87923714D01*
X128604000Y-87923714D01*
X128699238Y-87971333D01*
X128746857Y-88018952D01*
X127413523Y-88590380D02*
X127413523Y-88066571D01*
X127461142Y-87971333D01*
X127556380Y-87923714D01*
X127746857Y-87923714D01*
X127842095Y-87971333D01*
X127413523Y-88542761D02*
X127508761Y-88590380D01*
X127746857Y-88590380D01*
X127842095Y-88542761D01*
X127889714Y-88447523D01*
X127889714Y-88352285D01*
X127842095Y-88257047D01*
X127746857Y-88209428D01*
X127508761Y-88209428D01*
X127413523Y-88161809D01*
X126937333Y-88590380D02*
X126937333Y-87923714D01*
X126937333Y-88018952D02*
X126889714Y-87971333D01*
X126794476Y-87923714D01*
X126651619Y-87923714D01*
X126556380Y-87971333D01*
X126508761Y-88066571D01*
X126508761Y-88590380D01*
X126508761Y-88066571D02*
X126461142Y-87971333D01*
X126365904Y-87923714D01*
X126223047Y-87923714D01*
X126127809Y-87971333D01*
X126080190Y-88066571D01*
X126080190Y-88590380D01*
X124889714Y-87542761D02*
X125746857Y-88828476D01*
X124556380Y-88590380D02*
X124556380Y-87923714D01*
X124556380Y-88018952D02*
X124508761Y-87971333D01*
X124413523Y-87923714D01*
X124270666Y-87923714D01*
X124175428Y-87971333D01*
X124127809Y-88066571D01*
X124127809Y-88590380D01*
X124127809Y-88066571D02*
X124080190Y-87971333D01*
X123984952Y-87923714D01*
X123842095Y-87923714D01*
X123746857Y-87971333D01*
X123699238Y-88066571D01*
X123699238Y-88590380D01*
X123365904Y-87923714D02*
X122984952Y-87923714D01*
X123223047Y-87590380D02*
X123223047Y-88447523D01*
X123175428Y-88542761D01*
X123080190Y-88590380D01*
X122984952Y-88590380D01*
X122746857Y-87590380D02*
X122127809Y-87590380D01*
X122461142Y-87971333D01*
X122318285Y-87971333D01*
X122223047Y-88018952D01*
X122175428Y-88066571D01*
X122127809Y-88161809D01*
X122127809Y-88399904D01*
X122175428Y-88495142D01*
X122223047Y-88542761D01*
X122318285Y-88590380D01*
X122604000Y-88590380D01*
X122699238Y-88542761D01*
X122746857Y-88495142D01*
X121746857Y-87685619D02*
X121699238Y-87638000D01*
X121604000Y-87590380D01*
X121365904Y-87590380D01*
X121270666Y-87638000D01*
X121223047Y-87685619D01*
X121175428Y-87780857D01*
X121175428Y-87876095D01*
X121223047Y-88018952D01*
X121794476Y-88590380D01*
X121175428Y-88590380D01*
X120746857Y-88209428D02*
X119984952Y-88209428D01*
X119508761Y-87923714D02*
X119508761Y-88923714D01*
X119508761Y-87971333D02*
X119413523Y-87923714D01*
X119223047Y-87923714D01*
X119127809Y-87971333D01*
X119080190Y-88018952D01*
X119032571Y-88114190D01*
X119032571Y-88399904D01*
X119080190Y-88495142D01*
X119127809Y-88542761D01*
X119223047Y-88590380D01*
X119413523Y-88590380D01*
X119508761Y-88542761D01*
X118604000Y-88590380D02*
X118604000Y-87923714D01*
X118604000Y-87590380D02*
X118651619Y-87638000D01*
X118604000Y-87685619D01*
X118556380Y-87638000D01*
X118604000Y-87590380D01*
X118604000Y-87685619D01*
M02*
