G04 #@! TF.GenerationSoftware,KiCad,Pcbnew,(5.1.9-0-10_14)*
G04 #@! TF.CreationDate,2021-02-18T09:56:52+00:00*
G04 #@! TF.ProjectId,mt32-pi-midi-hat,6d743332-2d70-4692-9d6d-6964692d6861,rev?*
G04 #@! TF.SameCoordinates,Original*
G04 #@! TF.FileFunction,Soldermask,Bot*
G04 #@! TF.FilePolarity,Negative*
%FSLAX46Y46*%
G04 Gerber Fmt 4.6, Leading zero omitted, Abs format (unit mm)*
G04 Created by KiCad (PCBNEW (5.1.9-0-10_14)) date 2021-02-18 09:56:52*
%MOMM*%
%LPD*%
G01*
G04 APERTURE LIST*
%ADD10C,2.000000*%
%ADD11O,1.700000X1.700000*%
%ADD12R,1.700000X1.700000*%
%ADD13C,3.000000*%
%ADD14C,1.750000*%
%ADD15R,1.750000X1.750000*%
%ADD16O,1.600000X1.600000*%
%ADD17C,1.600000*%
%ADD18R,1.600000X1.600000*%
%ADD19C,2.500000*%
%ADD20C,2.100000*%
G04 APERTURE END LIST*
D10*
X110337600Y-85854400D03*
X114837600Y-85854400D03*
X110337600Y-92354400D03*
X114837600Y-92354400D03*
X117449600Y-85854400D03*
X121949600Y-85854400D03*
X117449600Y-92354400D03*
X121949600Y-92354400D03*
X124561600Y-85854400D03*
X129061600Y-85854400D03*
X124561600Y-92354400D03*
X129061600Y-92354400D03*
X131673600Y-85854400D03*
X136173600Y-85854400D03*
X131673600Y-92354400D03*
X136173600Y-92354400D03*
X156156800Y-91338400D03*
X156156800Y-95838400D03*
X149656800Y-91338400D03*
X149656800Y-95838400D03*
X156156800Y-84328000D03*
X156156800Y-88828000D03*
X149656800Y-84328000D03*
X149656800Y-88828000D03*
X147114400Y-84328000D03*
X147114400Y-88828000D03*
X140614400Y-84328000D03*
X140614400Y-88828000D03*
X147114400Y-91338400D03*
X147114400Y-95838400D03*
X140614400Y-91338400D03*
X140614400Y-95838400D03*
D11*
X160883600Y-95808800D03*
X160883600Y-93268800D03*
X160883600Y-90728800D03*
X160883600Y-88188800D03*
X160883600Y-85648800D03*
D12*
X160883600Y-83108800D03*
X120650000Y-130302000D03*
D11*
X127050800Y-105410000D03*
X124510800Y-105410000D03*
X121970800Y-105410000D03*
D12*
X119430800Y-105410000D03*
D11*
X107950000Y-109728000D03*
X110490000Y-109728000D03*
X113030000Y-109728000D03*
X115570000Y-109728000D03*
X118110000Y-109728000D03*
X120650000Y-109728000D03*
X123190000Y-109728000D03*
X125730000Y-109728000D03*
X128270000Y-109728000D03*
X130810000Y-109728000D03*
D12*
X133350000Y-109728000D03*
X130048000Y-116078000D03*
D13*
X160254500Y-128248000D03*
X102254500Y-128248000D03*
X160254500Y-79248000D03*
X102254500Y-79248000D03*
D14*
X155384500Y-80518000D03*
X155384500Y-77978000D03*
X152844500Y-80518000D03*
X152844500Y-77978000D03*
X150304500Y-80518000D03*
X150304500Y-77978000D03*
X147764500Y-80518000D03*
X147764500Y-77978000D03*
X145224500Y-80518000D03*
X145224500Y-77978000D03*
X137604500Y-77978000D03*
X137604500Y-80518000D03*
X132524500Y-77978000D03*
X132524500Y-80518000D03*
X129984500Y-77978000D03*
X129984500Y-80518000D03*
X127444500Y-77978000D03*
X127444500Y-80518000D03*
X124904500Y-77978000D03*
X124904500Y-80518000D03*
X122364500Y-77978000D03*
X122364500Y-80518000D03*
X119824500Y-77978000D03*
X119824500Y-80518000D03*
X117284500Y-77978000D03*
X117284500Y-80518000D03*
X114744500Y-77978000D03*
X114744500Y-80518000D03*
X112204500Y-77978000D03*
X112204500Y-80518000D03*
X109664500Y-77978000D03*
X109664500Y-80518000D03*
X107124500Y-77978000D03*
D15*
X107124500Y-80518000D03*
D14*
X135064500Y-80518000D03*
X135064500Y-77978000D03*
X142684500Y-77978000D03*
X142684500Y-80518000D03*
X140144500Y-77978000D03*
X140144500Y-80518000D03*
D16*
X160883600Y-100838000D03*
D17*
X160883600Y-110998000D03*
D16*
X156972000Y-110998000D03*
D17*
X156972000Y-100838000D03*
D16*
X139700000Y-110998000D03*
D18*
X139700000Y-100838000D03*
D19*
X153009600Y-116273200D03*
X143009600Y-116273200D03*
X155509600Y-118773200D03*
X148009600Y-118773200D03*
X140509600Y-118773200D03*
D20*
X143009600Y-128473200D03*
X153009600Y-128473200D03*
X145509600Y-128773200D03*
X150509600Y-128773200D03*
D11*
X105918000Y-129286000D03*
X105918000Y-126746000D03*
X105918000Y-124206000D03*
X105918000Y-121666000D03*
X105918000Y-119126000D03*
D12*
X105918000Y-116586000D03*
D17*
X150872200Y-100126800D03*
X145872200Y-100126800D03*
D16*
X145876000Y-103428800D03*
X150956000Y-111048800D03*
X148416000Y-103428800D03*
X148416000Y-111048800D03*
X150956000Y-103428800D03*
D18*
X145876000Y-111048800D03*
D11*
X105918000Y-105410000D03*
X105918000Y-102870000D03*
X105918000Y-100330000D03*
D12*
X105918000Y-97790000D03*
M02*
