M48
; DRILL file {KiCad (5.1.9-0-10_14)} date Sunday, June 13, 2021 at 06:11:21 PM
; FORMAT={-:-/ absolute / metric / decimal}
; #@! TF.CreationDate,2021-06-13T18:11:21+01:00
; #@! TF.GenerationSoftware,Kicad,Pcbnew,(5.1.9-0-10_14)
; #@! TF.FileFunction,Plated,1,2,PTH
FMAT,2
METRIC
T1C0.400
T2C0.800
T3C1.000
T4C1.016
T5C1.100
T6C1.200
T7C1.300
%
G90
G05
T1
X113.03Y-117.094
X115.57Y-113.538
X118.364Y-97.79
X120.613Y-100.33
X132.588Y-105.664
X161.696Y-108.306
T2
X139.7Y-100.838
X139.7Y-110.998
X145.872Y-100.127
X145.876Y-103.429
X145.876Y-111.049
X148.416Y-103.429
X148.416Y-111.049
X150.872Y-100.127
X150.956Y-103.429
X150.956Y-111.049
X156.972Y-100.838
X156.972Y-110.998
X160.884Y-100.838
X160.884Y-110.998
T3
X105.918Y-97.79
X105.918Y-100.33
X105.918Y-102.87
X105.918Y-105.41
X105.918Y-116.586
X105.918Y-119.126
X105.918Y-121.666
X105.918Y-124.206
X105.918Y-126.746
X105.918Y-129.286
X107.95Y-109.728
X110.49Y-109.728
X113.03Y-109.728
X115.57Y-109.728
X118.11Y-109.728
X119.431Y-105.41
X120.65Y-109.728
X120.65Y-130.302
X121.971Y-105.41
X123.19Y-109.728
X124.511Y-105.41
X125.73Y-109.728
X127.051Y-105.41
X128.27Y-109.728
X130.048Y-116.078
X130.81Y-109.728
X133.35Y-109.728
X160.884Y-83.109
X160.884Y-85.649
X160.884Y-88.189
X160.884Y-90.729
X160.884Y-93.269
X160.884Y-95.809
T4
X107.124Y-77.978
X107.124Y-80.518
X109.664Y-77.978
X109.664Y-80.518
X112.204Y-77.978
X112.204Y-80.518
X114.744Y-77.978
X114.744Y-80.518
X117.284Y-77.978
X117.284Y-80.518
X119.825Y-77.978
X119.825Y-80.518
X122.364Y-77.978
X122.364Y-80.518
X124.904Y-77.978
X124.904Y-80.518
X127.444Y-77.978
X127.444Y-80.518
X129.984Y-77.978
X129.984Y-80.518
X132.524Y-77.978
X132.524Y-80.518
X135.064Y-77.978
X135.064Y-80.518
X137.605Y-77.978
X137.605Y-80.518
X140.144Y-77.978
X140.144Y-80.518
X142.684Y-77.978
X142.684Y-80.518
X145.225Y-77.978
X145.225Y-80.518
X147.764Y-77.978
X147.764Y-80.518
X150.304Y-77.978
X150.304Y-80.518
X152.844Y-77.978
X152.844Y-80.518
X155.385Y-77.978
X155.385Y-80.518
T5
X110.338Y-85.854
X110.338Y-92.354
X114.838Y-85.854
X114.838Y-92.354
X117.45Y-85.854
X117.45Y-92.354
X121.95Y-85.854
X121.95Y-92.354
X124.562Y-85.854
X124.562Y-92.354
X129.062Y-85.854
X129.062Y-92.354
X131.674Y-85.854
X131.674Y-92.354
X136.174Y-85.854
X136.174Y-92.354
X140.614Y-84.328
X140.614Y-88.828
X140.614Y-91.338
X140.614Y-95.838
X147.114Y-84.328
X147.114Y-88.828
X147.114Y-91.338
X147.114Y-95.838
X149.657Y-84.328
X149.657Y-88.828
X149.657Y-91.338
X149.657Y-95.838
X156.157Y-84.328
X156.157Y-88.828
X156.157Y-91.338
X156.157Y-95.838
T6
X143.01Y-128.473
X145.51Y-128.773
X150.51Y-128.773
X153.01Y-128.473
T7
X140.51Y-118.773
X143.01Y-116.273
X148.01Y-118.773
X153.01Y-116.273
X155.51Y-118.773
T0
M30
